<?xml version="1.0" encoding="utf-8"?>
<!-- Generator: Adobe Illustrator 24.2.0, SVG Export Plug-In . SVG Version: 6.00 Build 0)  -->
<svg version="1.1" xmlns="http://www.w3.org/2000/svg" xmlns:xlink="http://www.w3.org/1999/xlink" x="0px" y="0px"
	 viewBox="0 0 1600 1200" style="enable-background:new 0 0 1600 1200;" xml:space="preserve">
<style type="text/css">
	.st0{fill:#FEE300;}
	.st1{fill:#FAFBFD;}
	.st2{fill:#2F2E40;}
	.st3{fill:#29DBBA;}
	.st4{fill:#FFFFFF;}
	.st5{fill:#FEE200;}
	.st6{fill:#010204;}
</style>
<g id="_x31_2">
</g>
<g id="_x31_1">
</g>
<g id="_x31_0">
</g>
<g id="_x39_">
</g>
<g id="_x38_">
</g>
<g id="_x37_">
</g>
<g id="_x36_">
</g>
<g id="_x35_">
</g>
<g id="_x34_">
</g>
<g id="_x33_">
</g>
<g id="_x32_">
	<g id="Enviroment_1_">
		<g>
			<polygon points="436,696 436,686 432,686 432,696 422,696 422,700 432,700 432,710 436,710 436,700 446,700 446,696 			"/>
		</g>
		<g>
			<polygon points="1463,651 1463,641 1459,641 1459,651 1449,651 1449,655 1459,655 1459,665 1463,665 1463,655 1473,655 1473,651 
							"/>
		</g>
		<g>
			<polygon points="411,221 401,221 401,211 397,211 397,221 387,221 387,225 397,225 397,235 401,235 401,225 411,225 			"/>
		</g>
		<g>
			<path d="M472,806c-7.7,0-14-6.3-14-14s6.3-14,14-14s14,6.3,14,14S479.7,806,472,806z M472,782c-5.5,0-10,4.5-10,10s4.5,10,10,10
				s10-4.5,10-10S477.5,782,472,782z"/>
		</g>
		<g>
			<path d="M1325,238c-7.7,0-14-6.3-14-14s6.3-14,14-14s14,6.3,14,14S1332.7,238,1325,238z M1325,214c-5.5,0-10,4.5-10,10
				s4.5,10,10,10s10-4.5,10-10S1330.5,214,1325,214z"/>
		</g>
		<g>
			<path d="M1427,736c-7.7,0-14-6.3-14-14s6.3-14,14-14s14,6.3,14,14S1434.7,736,1427,736z M1427,712c-5.5,0-10,4.5-10,10
				s4.5,10,10,10s10-4.5,10-10S1432.5,712,1427,712z"/>
		</g>
		<g>
			<path d="M1383.5,313.7c0-0.2,0.1-21.2,21.9-21.4c18-0.2,20-16.4,20.1-17.1l4,0.4c0,0.2-2.4,20.5-24,20.7
				c-17.9,0.2-18,16.6-18,17.4L1383.5,313.7z"/>
		</g>
		<g>
			<path d="M147,844.2c-3,0-5.1-0.5-5.2-0.5l1-3.9c0.7,0.2,16.6,3.9,22.9-13c7.7-20.5,27.4-13.4,27.6-13.3l-1.4,3.7l0.7-1.9
				l-0.7,1.9c-0.7-0.2-16.2-5.7-22.5,11C164.3,842,153.5,844.2,147,844.2z"/>
		</g>
	</g>
	<g id="Screen_1_">
		<g>
			<path class="st4" d="M1368,376.4v468.3c0,25-20.3,45.3-45.3,45.3H630.3c-25,0-45.3-20.3-45.3-45.3V376.4
				c0-25,20.3-45.3,45.3-45.3h692.5C1347.7,331.1,1368,351.4,1368,376.4z"/>
			<path d="M1322.7,892H630.3c-26.1,0-47.3-21.2-47.3-47.3V376.4c0-26.1,21.2-47.3,47.3-47.3h692.5c26.1,0,47.3,21.2,47.3,47.3
				v468.3C1370,870.8,1348.8,892,1322.7,892z M630.3,333.1c-23.9,0-43.3,19.4-43.3,43.3v468.3c0,23.9,19.4,43.3,43.3,43.3h692.5
				c23.9,0,43.3-19.4,43.3-43.3V376.4c0-23.9-19.4-43.3-43.3-43.3H630.3z"/>
		</g>
		<g>
			<path d="M1368,376.4V406H585v-29.6c0-25,20.3-45.3,45.3-45.3h692.5C1347.7,331.1,1368,351.4,1368,376.4z"/>
		</g>
		<g>
			<rect x="629" y="543" width="666" height="4"/>
		</g>
		<g>
			<rect x="629" y="609" width="666" height="4"/>
		</g>
		<g>
			<rect x="629" y="675" width="666" height="4"/>
		</g>
		<g>
			<rect x="629" y="741" width="666" height="4"/>
		</g>
		<g>
			<polygon class="st4" points="1168,700 1234,700 1201,646 			"/>
			<path d="M1237.6,702h-73.1l36.6-59.8L1237.6,702z M1171.6,698h58.9l-29.4-48.2L1171.6,698z"/>
		</g>
		<g>
			<rect x="781" y="646.8" class="st0" width="55" height="51.2"/>
		</g>
		<g>
			<rect x="679" y="584.8" class="st4" width="55" height="51.2"/>
			<path d="M736,638h-59v-55.2h59V638z M681,634h51v-47.2h-51V634z"/>
		</g>
		<g>
			<circle class="st4" cx="648" cy="369" r="9"/>
		</g>
		<g>
			<circle class="st4" cx="682" cy="369" r="9"/>
		</g>
		<g>
			<circle class="st4" cx="716" cy="369" r="9"/>
		</g>
	</g>
	<g id="Plant_3_">
		<g>
			<circle cx="1406.6" cy="990.1" r="13"/>
		</g>
		<g>
			<path d="M1367.3,1110.3l-2.8-4.2c34.9-23,43.1-89,43.1-89.7l5,0.6C1412.4,1019.8,1404.1,1086.1,1367.3,1110.3z"/>
		</g>
		<g>
			<path class="st0" d="M1427,988.9c0,0-22-5.6-40.1,5.2c0,0,1.4,29.9,21.8,27.3C1432,1018.5,1427,988.9,1427,988.9z"/>
		</g>
		<g>
			<path d="M1386.4,1086.3c0,0,7.5-18.8,2.9-31.4s-13.7-14.7-16.7-13.1c-3,1.6-8.3,4.5-3.1,16.1
				C1374.8,1069.5,1386.4,1086.3,1386.4,1086.3z"/>
		</g>
		<g>
			<g>
				<path class="st1" d="M1334.9,1009.7c0,0-6.5-13.6,0-31.2s11-72-27.9-69.4c-38.9,2.6-41.5,54.5-37.6,81.1s-1.9,44.8-8.4,59.7
					c-6.5,14.9-27.3,26-24,59.1h131.8C1368.6,1109,1375.1,1056.4,1334.9,1009.7z"/>
			</g>
			<g>
				<path d="M1370.4,1111H1235l-0.2-1.8c-2.4-24.1,7.8-37.1,15.9-47.6c3.3-4.3,6.4-8.3,8.3-12.5c6.6-15.1,12.1-32.6,8.3-58.6
					c-3.1-21.2-1.7-52.1,12.5-69.6c6.8-8.4,15.9-13.1,27-13.8c11.2-0.7,19.9,2.9,25.8,10.9c12.7,17,8.9,48.3,4.1,61.3
					c-5.7,15.4-0.9,27.6-0.2,29.4c40.1,46.8,34.1,100.1,34,100.6L1370.4,1111z M1238.7,1107h128.1c0.6-9.4,1.7-55.2-33.4-96
					l-0.2-0.2l-0.1-0.2c-0.3-0.6-6.8-14.6-0.1-32.7c4.4-11.9,8-42-3.6-57.5c-5.1-6.8-12.6-9.9-22.3-9.3c-10,0.7-18.1,4.8-24.2,12.3
					c-13.4,16.5-14.6,46.2-11.6,66.5c4,27.1-2.1,45.9-8.6,60.8c-2,4.6-5.3,8.9-8.8,13.3C1246,1074.2,1237.1,1085.7,1238.7,1107z"/>
			</g>
		</g>
		<g>
			<path class="st1" d="M1306.6,908.8c0,0-25.3,63.6,0,199.9"/>
			<path d="M1304.7,1109c-13.1-70.6-12.4-121.4-9.5-151.6c3.2-32.8,9.4-48.7,9.6-49.4l3.7,1.5c-0.2,0.6-24.8,64.8,0.1,198.8
				L1304.7,1109z"/>
		</g>
		<g>
			<line class="st1" x1="1272.5" y1="939.2" x2="1296.4" y2="966.6"/>
			<rect x="1282.5" y="934.7" transform="matrix(0.7538 -0.6571 0.6571 0.7538 -309.924 1078.5472)" width="4" height="36.3"/>
		</g>
		<g>
			<line class="st1" x1="1268.7" y1="957.4" x2="1295.4" y2="987.7"/>
			<rect x="1280.1" y="952.4" transform="matrix(0.7513 -0.66 0.66 0.7513 -322.9852 1088.0963)" width="4" height="40.4"/>
		</g>
		<g>
			<line class="st1" x1="1339.9" y1="1015.9" x2="1300" y2="1066.4"/>
			<rect x="1287.8" y="1039.1" transform="matrix(0.6194 -0.7851 0.7851 0.6194 -314.9699 1432.6162)" width="64.4" height="4"/>
		</g>
		<g>
			<line class="st1" x1="1348.1" y1="1027.7" x2="1302.5" y2="1084.1"/>
			<rect x="1289" y="1053.9" transform="matrix(0.6283 -0.778 0.778 0.6283 -328.8653 1423.5208)" width="72.5" height="4"/>
		</g>
	</g>
	<g id="Plant_2_">
		<g>
			<g>
				<path class="st1" d="M624.8,1107.6c0,0-6.6-29.9,10-59c0,0,9.1-28.3-5.8-54s0-54.9,17.5-59c17.5-4.2,38.2,10,43.2,29.9
					c5,19.9,0.8,34.1,30.8,49c29.9,15,28.7,93.1,28.7,93.1H624.8z"/>
			</g>
			<g>
				<path d="M751,1109.6H623.2l-0.3-1.6c-0.3-1.2-6.6-30.9,10.1-60.2c0.7-2.4,8-28.6-5.7-52.2c-7.5-12.9-8.5-28-2.7-41.5
					c4.5-10.5,12.7-18.4,21.4-20.4c18.7-4.4,40.4,10.5,45.6,31.4c1,3.9,1.6,7.6,2.2,11.1c2.5,14.5,4.3,25,27.5,36.6
					c30.7,15.3,29.8,91.7,29.8,94.9L751,1109.6z M626.4,1105.6H747c-0.1-12.1-1.7-76.4-27.6-89.3c-25-12.5-27.2-25-29.6-39.5
					c-0.6-3.5-1.2-7-2.2-10.8c-4.7-18.9-24.2-32.4-40.8-28.5c-7.5,1.8-14.6,8.7-18.7,18.1c-5.3,12.3-4.4,26.1,2.5,37.9
					c15.2,26.2,6.4,54.5,6,55.6l-0.2,0.4C622.5,1073.9,625.4,1099.1,626.4,1105.6z"/>
			</g>
		</g>
		<g>
			<path d="M687.8,1108.8c-24.8-54.1-43.2-172.6-43.4-173.8l4-0.6c0.2,1.2,18.5,119.2,43.1,172.8L687.8,1108.8z"/>
		</g>
		<g>
			<circle cx="559" cy="1001" r="13"/>
		</g>
		<g>
			<path d="M624.7,1109.1c-41.3-15.2-64.5-77.8-65.5-80.4l4.7-1.7c0.2,0.6,23.4,63.1,62.5,77.5L624.7,1109.1z"/>
		</g>
		<g>
			<rect x="639.9" y="975.5" transform="matrix(0.3495 -0.9369 0.9369 0.3495 -479.7615 1263.9464)" width="60.8" height="4"/>
		</g>
		<g>
			<rect x="646.1" y="1005.5" transform="matrix(0.3679 -0.9299 0.9299 0.3679 -507.2966 1268.6558)" width="66.8" height="4"/>
		</g>
		<g>
			<path class="st0" d="M538.8,1004.5c0,0,20.2-10.5,40.2-4.2c0,0,5.5,29.4-15,31.6C540.8,1034.4,538.8,1004.5,538.8,1004.5z"/>
		</g>
		<g>
			<circle cx="507.2" cy="991.8" r="11.8"/>
		</g>
		<g>
			<path d="M600.7,1090.1c0,0-11.6-16.6-10-29.9s10-17.5,13.3-16.6c3.3,0.8,9.1,2.5,6.6,15C608.1,1071,600.7,1090.1,600.7,1090.1z"
				/>
		</g>
		<g>
			<rect x="657.2" y="1047.1" transform="matrix(0.592 -0.8059 0.8059 0.592 -605.7776 974.019)" width="4" height="76.5"/>
		</g>
		<g>
			<rect x="640.3" y="1072.1" transform="matrix(0.5832 -0.8123 0.8123 0.5832 -621.3892 977.8784)" width="4" height="44.8"/>
		</g>
		<g>
			<g>
				<path class="st1" d="M798.9,980.8c0,0-8.3-17.5,0-39.9c8.3-22.4,14.1-92.3-35.7-88.9c-49.9,3.3-53.2,69.8-48.2,103.9
					c5,34.1-2.5,57.3-10.8,76.5c-8.3,19.1-34.9,33.2-30.8,75.6h168.7C842.1,1108,850.4,1040.7,798.9,980.8z"/>
			</g>
			<g>
				<path d="M843.9,1110H671.6l-0.2-1.8c-3-30.6,9.9-47.2,20.3-60.5c4.3-5.5,8.3-10.7,10.7-16.1c8.4-19.4,15.6-41.9,10.7-75.4
					c-3.9-27-2.2-66.4,15.9-88.7c8.6-10.6,20.1-16.5,34.2-17.5c14.1-0.9,25.1,3.7,32.6,13.7c15.9,21.3,11.1,61.9,5.2,77.9
					c-7.4,20.1-1.1,36.1-0.2,38.1c26.8,31.2,37.2,64.4,41.2,86.8c4.4,24.3,2.4,41,2.3,41.7L843.9,1110z M675.2,1106h165.1
					c0.8-10.9,2.8-70.7-42.9-123.9l-0.2-0.2l-0.1-0.2c-0.4-0.7-8.6-18.5-0.1-41.4c5.7-15.3,10.3-54.1-4.6-74.1
					c-6.6-8.9-16.4-12.9-29.1-12.1c-12.9,0.9-23.5,6.2-31.3,16c-17.2,21.3-18.9,59.4-15,85.6c5.1,34.5-2.7,58.6-10.9,77.5
					c-2.6,5.9-6.7,11.3-11.2,17C684.6,1063.3,673,1078.1,675.2,1106z"/>
			</g>
		</g>
		<g>
			<path d="M521.9,1036.5c0,0-25.9,2.1-30.1-4.1s7.1-11.7,21.9-2.3C515.8,1031.4,521.9,1036.5,521.9,1036.5z"/>
		</g>
		<g>
			<path d="M530,1049.7c0,0-24.9,7.4-30.3,2.2s4.5-12.9,20.9-6.8C523,1045.9,530,1049.7,530,1049.7z"/>
		</g>
		<g>
			<path d="M585,1109.6c-47.2-36.5-77.6-90-77.9-90.5l4.4-2.5c0.3,0.5,30.2,53.2,76.6,89L585,1109.6z"/>
		</g>
		<g>
			<path d="M760.8,1107.9c-16.8-90.4-15.9-155.4-12.2-194c4-42,12-62.2,12.3-63.1l3.7,1.5c-0.1,0.2-8.1,20.7-12,62.3
				c-3.7,38.3-4.5,102.8,12.2,192.6L760.8,1107.9z"/>
		</g>
		<g>
			<rect x="732.3" y="884.8" transform="matrix(0.7538 -0.6571 0.6571 0.7538 -415.9114 706.0502)" width="4" height="46.5"/>
		</g>
		<g>
			<path class="st0" d="M488.8,995c0,0,17.2-10,36.6-3.8c0,0,5,26.7-13.6,28.7C490.6,1022.2,488.8,995,488.8,995z"/>
		</g>
		<g>
			<rect x="729.3" y="907.4" transform="matrix(0.7513 -0.66 0.66 0.7513 -434.0646 714.7901)" width="4" height="51.7"/>
		</g>
		<g>
			<rect x="738.6" y="1019.1" transform="matrix(0.6194 -0.7851 0.7851 0.6194 -504.847 1000.9001)" width="82.4" height="4"/>
		</g>
		<g>
			<rect x="740.1" y="1038" transform="matrix(0.6282 -0.7781 0.7781 0.6282 -516.7347 998.7411)" width="92.9" height="4"/>
		</g>
	</g>
	<g id="Woman_1_">
		<g>
			<path class="st0" d="M961,496v124c-33.9-0.4-61.3-28-61.3-62S927.1,496.4,961,496z"/>
		</g>
		<g>
			<g>
				<path class="st1" d="M864.4,478.5l5.3,16c0,0-3.2,12.8,13.8,39.4c0,0,4.8,4.8,8,3.7c0,0,7.4,3.2,12.8,2.1c0,0,7.4,6.4,10.6,5.3
					c0,0,7.4,7.4,8.5,0c0,0-4.3-12.8-10.6-19.1l-12.8-19.1c0,0,19.1,11.7,25.5,6.4l-13.8-12.8c0,0-9.6-8.5-17-9.6l-33-126.6l17-23.4
					l-43.6-34l-24.1,43.9c-3.6,6.5-3.7,14.3-0.4,20.9L864.4,478.5z"/>
			</g>
			<g>
				<path d="M920.8,550.3c-2.6,0-5.2-2-6.5-3.2c0,0,0,0-0.1,0c-3.5,0-8.3-3.5-10.5-5.3c-4.8,0.6-10.5-1.4-12.3-2.2
					c-4,0.6-8.3-3.5-9.2-4.4l-0.3-0.3c-15.4-24.1-14.6-37.3-14.2-40.3l-5.1-15.3l-53.7-106.8c-3.6-7.2-3.5-15.7,0.4-22.8l25.2-45.9
					l47,36.7l-17.6,24.2L896.3,489c7.7,1.8,16.3,9.5,16.7,9.8l15.5,14.3l-1.8,1.5c-4.7,3.9-14.1,0.7-20.7-2.4l8.2,12.4
					c6.6,6.7,10.8,19.2,11,19.8l0.1,0.4l-0.1,0.5c-0.5,3.2-2,4.4-3.3,4.8C921.7,550.2,921.3,550.3,920.8,550.3z M915.5,542.7
					l0.9,0.9c1.6,1.6,3.9,2.9,4.5,2.7c0.1,0,0.3-0.3,0.5-1.1c-0.8-2.3-4.7-12.6-10-17.9l-0.2-0.3l-17.8-26.7l7.7,4.7
					c6.2,3.8,15.7,8,20.8,7.4l-11.5-10.6c-0.1-0.1-9.2-8.1-15.9-9.1l-1.3-0.2l-0.3-1.3l-33.2-127.5l16.4-22.6l-40.2-31.4l-23,41.8
					c-3.2,5.9-3.4,13-0.3,19.1l53.8,107.1l5.5,16.6l-0.1,0.6c0,0.1-2.6,12.4,13.5,37.6c1.6,1.6,4.5,3.5,5.8,3.1l0.7-0.2l0.7,0.3
					c0.1,0,7,2.9,11.6,2l1-0.2l0.7,0.6c3.4,2.9,7.6,5.3,8.7,4.9L915.5,542.7z"/>
			</g>
		</g>
		<g>
			<path class="st0" d="M821.3,319.4l45.5,37.7l24.7-26h222.3c0,0,21.1-8.1,10.2-22.9c-5.3-7.2-22.1-23.8-38-38.6
				c-21.6-20-44.2-40.3-58.3-42.8c-24.5-4.3-54.3-3.2-54.3-3.2s-56.4-2.1-106.4,27.7C867.1,251.4,833,300.3,821.3,319.4z"/>
		</g>
		<g>
			<g>
				<g>
					<path class="st1" d="M979.2,235c-0.3-0.8-20.2-21.4-20.2-21.4s2.1-33-14.9-20.2l-18.4-20.6l-44.2,43.4c0,0,31,73.1,63.8,35.1
						l7.4,9.6c0,0,10.5-3.4,17.6-9.2C977.9,245.7,979.2,235,979.2,235z"/>
				</g>
				<g>
					<path d="M925.6,264.3c-1.1,0-2.3-0.1-3.4-0.3c-23.8-3.7-41.7-45.2-42.4-47l-0.5-1.3l46.7-45.8l18.6,20.8
						c3.8-2.5,7.2-2.9,10-1.4c7,3.8,6.8,19.3,6.6,23.5c19.6,20.3,19.9,21.1,20,21.6l0.1,0.4l-0.1,0.4c-0.1,0.5-1.5,11.5-9.5,18
						c-7.3,5.9-17.8,9.4-18.2,9.5l-1.3,0.4l-6.8-8.8C939.1,261,932.5,264.3,925.6,264.3z M884,216.7c3.1,6.9,19.3,40.3,38.8,43.4
						c7.3,1.1,14.4-2.2,21.1-10.1l1.6-1.9l8,10.4c3-1.1,10.4-4.1,15.7-8.4c5.6-4.6,7.5-12.1,7.9-14.6c-2.3-2.7-12.8-13.7-19.5-20.6
						l-0.6-0.6l0.1-0.9c0.4-6.8-0.4-18.4-4.5-20.6c-1.7-0.9-4.1-0.2-7.2,2.2l-1.5,1.1l-18.2-20.4L884,216.7z"/>
				</g>
			</g>
			<g>
				<path d="M957,195.5c-6.4-8.5-17.6,0-15.8,8.8c1.8,8.8-3.9,11.4-3.9,11.4s-11.1-8.7-16.8-15.2c-5.8-6.6-9.3,0.1-9.3,0.1
					c-4.7,23.8-22.9,22-22.9,22c-30.1-13-11.1-41.8-1.7-50.6c6.6-6.2,17.1-10.9,17.1-10.9c-0.1-0.3-0.3-0.6-0.4-0.9
					c-0.9-1.8-1.7-3.5-2.4-5.1c-6.5-14.3-5.1-18.3-1.8-24.2c2.1-3.9,21.4-15,35.5-5.4c9.7,6.6,6.7,20.1,3.8,28
					c-0.8,2.3-1.6,4-2.1,5.1c-0.3,0.6-0.5,0.9-0.5,0.9C959.5,173.5,957,195.5,957,195.5z"/>
			</g>
		</g>
		<g>
			<g>
				<path class="st1" d="M1057.6,304.9l-44.8,8.2l-18.1,4.3l-16-5.3l-27.7,5.3l-14.4,13.8h172.3h6.9c0,0,25-3.7,4.8-29.3l-33-29.8
					l-34.6,28.2L1057.6,304.9z"/>
			</g>
			<g>
				<path d="M1116.1,333.1H931.8l18.4-17.7l28.8-5.5l15.9,5.3l17.6-4.1l41.2-7.5l-3.3-3.4l37.6-30.6l34.5,31.2
					c7.3,9.3,9.8,17,7.5,23c-3.1,7.8-13.1,9.4-13.5,9.4L1116.1,333.1z M941.7,329.1h174.1c1-0.2,8.2-1.7,10.3-7
					c1.8-4.5-0.6-11.1-6.8-18.9l-31.6-28.5l-31.6,25.7l5.5,5.7l-48.4,8.9l-18.6,4.4l-16-5.3l-26.6,5.1L941.7,329.1z"/>
			</g>
		</g>
		<g>
			<g>
				<path class="st1" d="M938.2,153.5c-0.8,2.3-1.6,4-2.1,5.1c-6.5-1.1-20.1-2.5-32.9,1.6c-0.9-1.8-1.7-3.5-2.4-5.1
					C907.8,152.3,922.5,148,938.2,153.5z"/>
			</g>
			<g>
				<path d="M902.1,162.7l-0.8-1.5c-1-2-1.8-3.6-2.4-5.1l-0.9-1.9l1.9-0.8c7.6-3.1,22.6-7.4,38.9-1.7l1.9,0.7l-0.7,1.9
					c-0.8,2.3-1.6,4.1-2.2,5.2l-0.6,1.4l-1.5-0.2c-6.7-1.1-19.8-2.4-32,1.6L902.1,162.7z M903.4,156.3c0.2,0.5,0.5,1,0.7,1.5
					c11.7-3.3,23.7-2.5,30.7-1.4c0.2-0.5,0.4-1,0.7-1.6C922.6,150.9,910.6,153.7,903.4,156.3z"/>
			</g>
		</g>
	</g>
	<g id="Man_1_">
		<g>
			<g>
				<polygon class="st1" points="285.4,1050.5 282.4,1087.9 243.4,1087.9 246.4,1050.5 				"/>
			</g>
			<g>
				<path d="M284.2,1089.9h-43l3.3-41.4h43L284.2,1089.9z M245.6,1085.9h35l2.7-33.4h-35L245.6,1085.9z"/>
			</g>
		</g>
		<g>
			<path d="M243.4,1075.7c0,0,21.2,16.1,39,0l52.8,27.5c2.3,1.2,1.5,4.7-1.2,4.7h-93.3c-2.9,0-5.1-2.8-4.3-5.6L243.4,1075.7z"/>
		</g>
		<g>
			<g>
				<polygon class="st1" points="382.4,1050.5 386.4,1087.9 347.4,1087.9 343.4,1050.5 				"/>
			</g>
			<g>
				<path d="M388.6,1089.9h-43l-4.4-41.4h43L388.6,1089.9z M349.2,1085.9h35l-3.6-33.4h-35L349.2,1085.9z"/>
			</g>
		</g>
		<g>
			<path d="M346.4,1075.7c0,0,21.2,16.1,39,0l52.8,27.5c2.3,1.2,1.5,4.7-1.2,4.7h-93.3c-2.9,0-5.1-2.8-4.3-5.6L346.4,1075.7z"/>
		</g>
		<g>
			<polygon points="328.5,560.2 370.5,760.5 402.5,1055.5 336.5,1055.5 312.5,800.5 250.6,602.8 			"/>
		</g>
		<g>
			<g>
				<path class="st1" d="M236.6,419.5l-2.8-39.4c0,0-23.5-12.2-20.6-29.1c2.8-16.9,10.3-31,47.9-47.9c0,0,57.3,57.3,14.1,74.1
					l7.5,36.6L236.6,419.5z"/>
			</g>
			<g>
				<path d="M234.7,421.7l-2.9-40.4c-4.7-2.6-23.4-14.4-20.7-30.7c3.1-18.7,12.1-32.8,49-49.4l1.3-0.6l1,1
					c1.4,1.4,35.3,35.6,30.3,59.8c-1.6,7.5-6.7,13.3-15.3,17l7.6,37.1L234.7,421.7z M260.5,305.5c-37.8,17.3-43.1,31.5-45.4,45.8
					c-2.5,15.3,19.4,26.9,19.6,27l1,0.5l2.7,38.4l41.7-5.1l-7.4-36.1l1.6-0.6c8.3-3.2,13-8.1,14.4-14.7
					C292.9,340.8,266,311.3,260.5,305.5z"/>
			</g>
		</g>
		<g>
			<g>
				<polygon class="st1" points="293,436 375,474 491,436 491,455 376,525 255,474 				"/>
			</g>
			<g>
				<path d="M376.2,527.2l-124.7-52.6l41.1-41.1l82.6,38.3L493,433.2v22.9L376.2,527.2z M258.5,473.3l117.3,49.4L489,453.9v-15.1
					l-114.1,37.4l-81.4-37.7L258.5,473.3z"/>
			</g>
		</g>
		<g>
			<path d="M233.8,361.3c0,0,6.6,10.3,0,18.8c0,0-63.8-16-33.8-61.9c0,0,24.4-45.1,51.6-38.5s37.7,30.2,23,39.5
				c-14.6,9.3-38.1,22.5-38.1,22.5l4.7,10.3l-2.8,2.8c0,0-14.1-8.4-16-2.8C220.6,357.6,224.4,366,233.8,361.3z"/>
		</g>
		<g>
			<polygon class="st2" points="234.5,1055.5 250.5,781.5 209.5,613.5 312.5,573.5 336.5,763.5 297.5,1055.5 			"/>
		</g>
		<g>
			<g>
				<path class="st0" d="M416.4,529.3L270.9,665.7c-7.1,6.6-18.2,6.3-24.8-0.8l-69.5-74.6l-4.9-5.2c-6.6-7.1-6.2-18.1,0.8-24.7
					c31.7-29.7,113.7-106.6,145.5-136.4c7.1-6.6,18.2-6.3,24.8,0.9l5.3,5.7l69,74.1C423.8,511.7,423.4,522.7,416.4,529.3z"/>
			</g>
			<g>
				
					<rect x="195" y="532.1" transform="matrix(0.7319 -0.6814 0.6814 0.7319 -288.8906 337.0329)" class="st4" width="177.7" height="7"/>
			</g>
			<g>
				
					<rect x="219.6" y="577.9" transform="matrix(0.7319 -0.6814 0.6814 0.7319 -326.679 332.567)" class="st4" width="79.4" height="7"/>
			</g>
			<g>
				
					<rect x="281.9" y="514.7" transform="matrix(0.7319 -0.6814 0.6814 0.7319 -265.3911 361.8849)" class="st4" width="90.5" height="7"/>
			</g>
			<g>
				
					<rect x="217.8" y="556.7" transform="matrix(0.7319 -0.6814 0.6814 0.7319 -299.4874 359.1852)" class="st4" width="177.7" height="7"/>
			</g>
			<g>
				
					<rect x="229.2" y="568.9" transform="matrix(0.7319 -0.6814 0.6814 0.7319 -304.7858 370.2613)" class="st4" width="177.7" height="7"/>
			</g>
			<g>
				<path d="M348.2,430.5L176.6,590.2l-4.9-5.2c-6.6-7.1-6.2-18.1,0.8-24.7c31.7-29.7,113.7-106.6,145.5-136.4
					c7.1-6.6,18.2-6.3,24.8,0.9L348.2,430.5z"/>
			</g>
			<g>
				<circle class="st4" cx="283.5" cy="474.6" r="5"/>
			</g>
			<g>
				<circle class="st4" cx="300.7" cy="458.6" r="5"/>
			</g>
			<g>
				<circle class="st4" cx="317.9" cy="442.6" r="5"/>
			</g>
		</g>
		<g>
			<polygon class="st0" points="449.3,481.9 550.7,419.6 449,367.8 			"/>
		</g>
		<g>
			<g>
				<path class="st1" d="M317.1,583.4c0,0,11.8,24.5,19,25.4c0,0,6.3,1.8,6.3-4.5c0,0,10,1.8,9.1-6.3c0,0,7.2,0.9,7.2-5.4
					c0,0,8.2-0.9,6.3-7.2c-1.8-6.3-8.2-14.5-8.2-14.5s8.2,6.3,13.6,3.6c0,0-6.3-13.6-17.2-19.9c0,0-10.9-2.7-23.6,4.5l-40.8-5.4
					v31.7L317.1,583.4z"/>
			</g>
			<g>
				<path d="M338,611c-1.1,0-1.9-0.2-2.3-0.3c-7.3-1.1-16.8-19.2-19.8-25.2l-28.9,1.9v-36.1l42.4,5.6c13-7.1,24-4.5,24.4-4.4
					l0.3,0.1l0.2,0.1c11.3,6.6,17.7,20.2,18,20.8l0.8,1.8l-1.7,0.9c-2.6,1.3-5.6,1-8.3,0.1c1.6,2.6,3.1,5.6,3.9,8.4
					c0.8,2.8,0,4.7-0.7,5.9c-1.5,2.2-4,3.2-5.7,3.6c-0.4,1.9-1.3,3.1-2.1,3.8c-1.5,1.4-3.5,1.8-5,1.9c-0.2,2.1-1.2,3.5-2.1,4.3
					c-2.1,2-5.2,2.3-7.2,2.2c-0.4,1.7-1.3,2.8-2.1,3.4C340.8,610.7,339.3,611,338,611z M318.3,581.3l0.6,1.2
					c4.7,9.7,13.2,23.7,17.5,24.2l0.3,0.1c0.5,0.1,2.2,0.4,3-0.3c0.5-0.4,0.8-1.2,0.8-2.3v-2.4l2.4,0.4c1.1,0.2,4.4,0.4,5.9-1
					c0.3-0.2,1-1,0.8-3.2l-0.3-2.5l2.5,0.3c0.7,0.1,2.9,0.1,4.1-1c0.6-0.5,0.9-1.4,0.9-2.5v-1.8l1.8-0.2c0.9-0.1,3.5-0.7,4.4-2.2
					c0.4-0.7,0.5-1.5,0.2-2.6c-1.7-5.9-7.7-13.7-7.8-13.8l-9.8-12.6l12.6,9.8c1.6,1.3,6,3.9,9.4,3.9c-2.2-3.9-7.5-12.2-15-16.7
					c-1.6-0.3-11.1-1.8-21.8,4.4l-0.6,0.3l-39.2-5.2v27.3L318.3,581.3z"/>
			</g>
		</g>
		<g>
			<g>
				<path class="st1" d="M313,599.5v-46l-68.5-17l-4.8-40.3L320,421c0,0-11-19-38.5-23.5c0,0-6,30-47,9l-44.7,29.8
					c-3.9,2.6-6,7.1-5.6,11.7l10.3,112.5c0.9,9.8,8.2,17.8,17.8,19.6L313,599.5z"/>
			</g>
			<g>
				<path d="M315,601.9l-103.1-19.8c-10.5-2-18.4-10.8-19.4-21.4l-10.3-112.5c-0.5-5.4,2-10.6,6.5-13.5l45.7-30.5l1,0.5
					c14.4,7.4,25.8,9.1,33.9,5.3c8.3-4,10.2-12.8,10.2-12.9l0.4-1.9l1.9,0.3c28.1,4.6,39.4,23.7,39.9,24.5l0.8,1.4L241.8,497
					l4.5,37.9l68.7,17V601.9z M234.6,408.8L190.9,438c-3.3,2.2-5.1,6-4.7,9.9l10.3,112.5c0.8,8.8,7.5,16.2,16.2,17.9l98.3,18.9v-42
					l-68.3-17l-5.1-42.7l79.8-74.7c-3-4.1-13.6-16.9-34.5-20.9c-1.1,3.3-4.2,10.1-11.8,13.8C262,417.9,249.8,416.3,234.6,408.8z"/>
			</g>
		</g>
		<g>
			<g>
				<path class="st1" d="M461.6,474.6c0,0,12.1,2.1,18-1.8c0,0,4.6,0,5.9-3.9c0,0,5.2,0,7.2-4.6c0,0,4.6-0.7,5.9-4.6
					c0,0,5.2-1.3,5.2-4.6c0,0,0-16.3-2-19.5s-8.5-3.3-9.1,0.7c0,0-5.9-1.3-6.5,4.6c0,0-7.2-1.3-6.5,4.6c0,0-5.9-1.3-5.2,4.6
					l2.1,10.7L461.6,474.6z"/>
			</g>
			<g>
				<path d="M468.7,477.2c-3.9,0-7.2-0.5-7.4-0.6l-4-0.7l17.1-15.9l-2-9.8c-0.3-3,0.7-4.6,1.7-5.5c1.1-1,2.5-1.3,3.6-1.4
					c0.3-1.4,1-2.3,1.6-2.8c1.5-1.4,3.7-1.7,5.3-1.7c0,0,0,0,0,0c0.6-1.7,1.5-2.7,2.4-3.3c1.5-1.1,3.2-1.3,4.4-1.3c0,0,0,0,0,0
					c0.8-1.4,2.3-2.4,4.2-2.8c2.7-0.5,6.3,0.4,8,3.2c2.1,3.6,2.2,17.8,2.2,20.6c0,3.7-3.8,5.5-5.7,6.2c-1.5,3-4.4,4.2-6,4.7
					c-1.9,3.4-5.3,4.4-7.2,4.7c-1.7,3.2-5.2,3.9-6.6,4C477,476.7,472.5,477.2,468.7,477.2z M466.2,473.1c4,0.2,9.3,0,12.3-2l0.5-0.3
					h0.6c0.1,0,3.1-0.1,4-2.5l0.5-1.4h1.4c0.1,0,3.9-0.1,5.3-3.3l0.4-1l1.1-0.2c0,0,3.4-0.6,4.2-3.2l0.3-1l1.1-0.3
					c1.3-0.3,3.7-1.4,3.7-2.6c0-7.6-0.6-16.8-1.7-18.5c-0.6-1-2.3-1.6-3.8-1.3c-0.7,0.1-1.5,0.4-1.6,1.3l-0.3,2.1l-2.1-0.5
					c-0.5-0.1-2-0.2-3,0.5c-0.6,0.4-1,1.2-1.1,2.3l-0.2,2.1l-2.1-0.4c-0.9-0.2-2.9-0.2-3.8,0.6c-0.1,0.1-0.5,0.5-0.4,1.8l0.3,2.8
					l-2.7-0.6c-0.5-0.1-1.8-0.2-2.4,0.3c-0.5,0.4-0.4,1.4-0.4,2l2.4,11.8L466.2,473.1z"/>
			</g>
		</g>
	</g>
	<g id="Floor_1_">
		<g>
			<rect x="91" y="1107" width="1416" height="4"/>
		</g>
	</g>
</g>
<g id="_x31_">
</g>
</svg>
