<?xml version="1.0" encoding="utf-8"?>
<!-- Generator: Adobe Illustrator 24.2.0, SVG Export Plug-In . SVG Version: 6.00 Build 0)  -->
<svg version="1.1" xmlns="http://www.w3.org/2000/svg" xmlns:xlink="http://www.w3.org/1999/xlink" x="0px" y="0px"
	 viewBox="0 0 1600 1200" style="enable-background:new 0 0 1600 1200;" xml:space="preserve">
<style type="text/css">
	.st0{fill:#FEE300;}
	.st1{fill:#FAFBFD;}
	.st2{fill:#2F2E40;}
	.st3{fill:#29DBBA;}
	.st4{fill:#FFFFFF;}
	.st5{fill:#FEE200;}
	.st6{fill:#010204;}
</style>
<g id="_x31_2">
</g>
<g id="_x31_1">
</g>
<g id="_x31_0">
</g>
<g id="_x39_">
</g>
<g id="_x38_">
</g>
<g id="_x37_">
</g>
<g id="_x36_">
</g>
<g id="_x35_">
</g>
<g id="_x34_">
	<g id="Environment_1_">
		<g>
			<polygon points="214,791 204,791 204,781 200,781 200,791 190,791 190,795 200,795 200,805 204,805 204,795 214,795 			"/>
		</g>
		<g>
			<polygon points="1432,575 1422,575 1422,565 1418,565 1418,575 1408,575 1408,579 1418,579 1418,589 1422,589 1422,579 1432,579 
							"/>
		</g>
		<g>
			<polygon points="865,633 855,633 855,623 851,623 851,633 841,633 841,637 851,637 851,647 855,647 855,637 865,637 			"/>
		</g>
		<g>
			<path d="M264,755c-7.7,0-14-6.3-14-14s6.3-14,14-14s14,6.3,14,14S271.7,755,264,755z M264,731c-5.5,0-10,4.5-10,10s4.5,10,10,10
				s10-4.5,10-10S269.5,731,264,731z"/>
		</g>
		<g>
			<path d="M1329.5,409.7c0-0.2,0.1-21.2,21.9-21.4c18.1-0.2,20-16.4,20.1-17.1l4,0.4c0,0.2-2.4,20.5-24,20.7
				c-17.8,0.2-18,16.7-18,17.4L1329.5,409.7z"/>
		</g>
		<g>
			<path d="M312.5,400.7l-4,0l2,0l-2,0c0-0.7-0.1-17.2-18-17.4c-21.7-0.2-24-20.5-24-20.7l4-0.4c0.1,0.7,2.1,16.9,20.1,17.1
				C312.4,379.6,312.5,400.5,312.5,400.7z"/>
		</g>
	</g>
	<g id="Plant_7_">
		<g>
			<circle cx="181" cy="1001" r="13"/>
		</g>
		<g>
			<path d="M246.7,1109.1c-41.3-15.2-64.5-77.8-65.5-80.4l4.7-1.7c0.2,0.6,23.4,63.1,62.5,77.5L246.7,1109.1z"/>
		</g>
		<g>
			<path class="st0" d="M160.8,1004.5c0,0,20.2-10.5,40.2-4.2c0,0,5.5,29.4-15,31.6C162.8,1034.4,160.8,1004.5,160.8,1004.5z"/>
		</g>
		<g>
			<path d="M222.7,1090.1c0,0-11.6-16.6-10-29.9c1.7-13.3,10-17.5,13.3-16.6c3.3,0.8,9.1,2.5,6.6,15
				C230.1,1071,222.7,1090.1,222.7,1090.1z"/>
		</g>
		<g>
			<circle cx="129.2" cy="991.8" r="11.8"/>
		</g>
		<g>
			<path d="M143.9,1036.5c0,0-25.9,2.1-30.1-4.1s7.1-11.7,21.9-2.3C137.8,1031.4,143.9,1036.5,143.9,1036.5z"/>
		</g>
		<g>
			<path d="M152,1049.7c0,0-24.9,7.4-30.3,2.2s4.5-12.9,20.9-6.8C145,1045.9,152,1049.7,152,1049.7z"/>
		</g>
		<g>
			<path d="M207,1109.6c-47.2-36.5-77.6-90-77.9-90.5l4.4-2.5c0.3,0.5,30.2,53.2,76.6,89L207,1109.6z"/>
		</g>
		<g>
			<path class="st0" d="M110.8,995c0,0,17.2-10,36.6-3.8c0,0,5,26.7-13.6,28.7C112.6,1022.2,110.8,995,110.8,995z"/>
		</g>
		<g>
			<g>
				<path class="st1" d="M246.8,1107.6c0,0-6.6-29.9,10-59c0,0,9.1-28.3-5.8-54s0-54.9,17.5-59c17.5-4.2,38.2,10,43.2,29.9
					c5,19.9,0.8,34.1,30.8,49c29.9,15,28.7,93.1,28.7,93.1H246.8z"/>
			</g>
			<g>
				<path d="M373,1109.6H245.2l-0.3-1.6c-0.3-1.2-6.6-30.9,10.1-60.2c0.7-2.4,8-28.6-5.7-52.2c-7.5-12.9-8.5-28-2.7-41.5
					c4.5-10.5,12.7-18.4,21.4-20.4c18.7-4.4,40.4,10.5,45.6,31.4c1,3.9,1.6,7.6,2.2,11.1c2.5,14.5,4.3,25,27.5,36.6
					c30.7,15.3,29.8,91.7,29.8,94.9L373,1109.6z M248.4,1105.6H369c-0.1-12.1-1.7-76.4-27.6-89.3c-25-12.5-27.2-25-29.6-39.5
					c-0.6-3.5-1.2-7-2.2-10.8c-4.7-18.9-24.2-32.4-40.8-28.5c-7.5,1.8-14.6,8.7-18.7,18.1c-5.3,12.3-4.4,26.1,2.5,37.9
					c15.2,26.2,6.4,54.5,6,55.6l-0.2,0.4C244.5,1073.9,247.4,1099.1,248.4,1105.6z"/>
			</g>
		</g>
		<g>
			<path d="M309.8,1108.8c-24.8-54.1-43.2-172.6-43.4-173.8l4-0.6c0.2,1.2,18.5,119.2,43.1,172.8L309.8,1108.8z"/>
		</g>
		<g>
			<rect x="261.9" y="975.5" transform="matrix(0.3495 -0.9369 0.9369 0.3495 -725.664 909.7794)" width="60.8" height="4"/>
		</g>
		<g>
			<rect x="268.1" y="1005.5" transform="matrix(0.3679 -0.9299 0.9299 0.3679 -746.2324 917.1658)" width="66.8" height="4"/>
		</g>
		<g>
			<rect x="279.2" y="1047.1" transform="matrix(0.592 -0.8059 0.8059 0.592 -759.9875 669.3848)" width="4" height="76.5"/>
		</g>
		<g>
			<rect x="262.3" y="1072.1" transform="matrix(0.5832 -0.8123 0.8123 0.5832 -778.9213 670.8314)" width="4" height="44.8"/>
		</g>
		<g>
			<g>
				<path class="st1" d="M420.9,980.8c0,0-8.3-17.5,0-39.9c8.3-22.4,14.1-92.3-35.7-88.9s-53.2,69.8-48.2,103.9
					c5,34.1-2.5,57.3-10.8,76.5c-8.3,19.1-34.9,33.2-30.8,75.6h168.7C464.1,1108,472.4,1040.7,420.9,980.8z"/>
			</g>
			<g>
				<path d="M465.9,1110H293.6l-0.2-1.8c-3-30.6,9.9-47.2,20.3-60.5c4.3-5.5,8.3-10.7,10.7-16.1c8.4-19.4,15.6-41.9,10.7-75.4
					c-3.9-27-2.2-66.4,15.9-88.7c8.6-10.6,20.1-16.5,34.2-17.5c14.1-0.9,25.1,3.7,32.6,13.7c15.9,21.3,11.1,61.9,5.2,77.9
					c-7.4,20.1-1.1,36.1-0.2,38.1c26.8,31.2,37.2,64.4,41.2,86.8c4.4,24.3,2.4,41,2.3,41.7L465.9,1110z M297.2,1106h165.1
					c0.8-10.9,2.8-70.7-42.9-123.9l-0.2-0.2l-0.1-0.2c-0.4-0.7-8.6-18.5-0.1-41.4c5.7-15.3,10.3-54.1-4.6-74.1
					c-6.6-8.9-16.4-12.9-29.1-12.1c-12.9,0.9-23.5,6.2-31.3,16c-17.2,21.3-18.9,59.4-15,85.6c5.1,34.5-2.7,58.6-10.9,77.5
					c-2.6,5.9-6.7,11.3-11.2,17C306.6,1063.3,295,1078.1,297.2,1106z"/>
			</g>
		</g>
		<g>
			<path d="M382.8,1107.9c-16.8-90.4-15.9-155.4-12.2-194c4-42,12-62.2,12.3-63.1l3.7,1.5c-0.1,0.2-8.1,20.7-12,62.3
				c-3.7,38.3-4.5,102.8,12.2,192.6L382.8,1107.9z"/>
		</g>
		<g>
			<rect x="354.3" y="884.8" transform="matrix(0.7538 -0.6571 0.6571 0.7538 -508.9623 457.6795)" width="4" height="46.5"/>
		</g>
		<g>
			<rect x="351.3" y="907.4" transform="matrix(0.7513 -0.66 0.66 0.7513 -528.09 465.3059)" width="4" height="51.7"/>
		</g>
		<g>
			<rect x="360.6" y="1019.1" transform="matrix(0.6194 -0.7851 0.7851 0.6194 -648.7321 704.1272)" width="82.4" height="4"/>
		</g>
		<g>
			<rect x="362.1" y="1038" transform="matrix(0.6282 -0.7781 0.7781 0.6282 -657.2856 704.6291)" width="92.9" height="4"/>
		</g>
	</g>
	<g id="Plant_6_">
		<g>
			<circle cx="1486.6" cy="986.1" r="13"/>
		</g>
		<g>
			<path d="M1447.3,1106.3l-2.8-4.2c34.9-23,43.1-89,43.1-89.7l5,0.6C1492.4,1015.8,1484.1,1082.1,1447.3,1106.3z"/>
		</g>
		<g>
			<path class="st0" d="M1507,984.9c0,0-22-5.6-40.1,5.2c0,0,1.4,29.9,21.8,27.3C1512,1014.5,1507,984.9,1507,984.9z"/>
		</g>
		<g>
			<path d="M1466.4,1082.3c0,0,7.5-18.8,2.9-31.4s-13.7-14.7-16.7-13.1c-3,1.6-8.3,4.5-3.1,16.1
				C1454.8,1065.5,1466.4,1082.3,1466.4,1082.3z"/>
		</g>
		<g>
			<g>
				<path class="st1" d="M1414.9,1005.7c0,0-6.5-13.6,0-31.2s11-72-27.9-69.4c-38.9,2.6-41.5,54.5-37.6,81.1s-1.9,44.8-8.4,59.7
					c-6.5,14.9-27.3,26-24,59.1h131.8C1448.6,1105,1455.1,1052.4,1414.9,1005.7z"/>
			</g>
			<g>
				<path d="M1450.4,1107H1315l-0.2-1.8c-2.4-24.1,7.8-37.1,15.9-47.6c3.3-4.3,6.4-8.3,8.3-12.5c6.6-15.1,12.1-32.6,8.3-58.6
					c-3.1-21.2-1.7-52.1,12.5-69.6c6.8-8.4,15.9-13.1,27-13.8c11.2-0.7,19.9,2.9,25.8,10.9c12.7,17,8.9,48.3,4.1,61.3
					c-5.7,15.4-0.9,27.6-0.2,29.4c40.1,46.8,34.1,100.1,34,100.6L1450.4,1107z M1318.7,1103h128.1c0.6-9.4,1.7-55.2-33.4-96
					l-0.2-0.2l-0.1-0.2c-0.3-0.6-6.8-14.6-0.1-32.7c4.4-11.9,8-42-3.6-57.5c-5.1-6.8-12.6-9.9-22.3-9.3c-10,0.7-18.1,4.8-24.2,12.3
					c-13.4,16.5-14.6,46.2-11.6,66.5c4,27.1-2.1,45.9-8.6,60.8c-2,4.6-5.3,8.9-8.8,13.3C1326,1070.2,1317.1,1081.7,1318.7,1103z"/>
			</g>
		</g>
		<g>
			<path class="st1" d="M1386.6,904.8c0,0-25.3,63.6,0,199.9"/>
			<path d="M1384.7,1105c-13.1-70.6-12.4-121.4-9.5-151.6c3.2-32.8,9.4-48.7,9.6-49.4l3.7,1.5c-0.3,0.6-24.8,64.8,0.1,198.8
				L1384.7,1105z"/>
		</g>
		<g>
			<line class="st1" x1="1352.5" y1="935.2" x2="1376.4" y2="962.6"/>
			<rect x="1362.5" y="930.7" transform="matrix(0.7538 -0.6571 0.6571 0.7538 -287.6022 1130.1281)" width="4" height="36.3"/>
		</g>
		<g>
			<line class="st1" x1="1348.7" y1="953.4" x2="1375.4" y2="983.7"/>
			<rect x="1360.1" y="948.4" transform="matrix(0.7513 -0.66 0.66 0.7513 -300.4455 1139.9022)" width="4" height="40.4"/>
		</g>
		<g>
			<line class="st1" x1="1419.9" y1="1011.9" x2="1380" y2="1062.4"/>
			<rect x="1367.8" y="1035.1" transform="matrix(0.6194 -0.7851 0.7851 0.6194 -281.3775 1493.9027)" width="64.4" height="4"/>
		</g>
		<g>
			<line class="st1" x1="1428.1" y1="1023.7" x2="1382.5" y2="1080.1"/>
			<rect x="1369" y="1049.9" transform="matrix(0.6282 -0.7781 0.7781 0.6282 -295.9502 1484.5336)" width="72.5" height="4"/>
		</g>
	</g>
	<g id="Puzzle">
		<g>
			<rect x="823" y="867" class="st0" width="41" height="39.9"/>
			<path d="M866,908.9h-45V865h45V908.9z M825,904.9h37V869h-37V904.9z"/>
		</g>
		<g>
			<g>
				<rect x="823" y="907" width="41" height="39.9"/>
			</g>
			<g>
				<path d="M866,948.9h-45V905h45V948.9z M825,944.9h37V909h-37V944.9z"/>
			</g>
		</g>
		<g>
			<rect x="782" y="907" class="st0" width="41" height="39.9"/>
			<path d="M825,948.9h-45V905h45V948.9z M784,944.9h37V909h-37V944.9z"/>
		</g>
		<g>
			<g>
				<rect x="864" y="867" class="st1" width="41" height="39.9"/>
			</g>
			<g>
				<path d="M907,908.9h-45V865h45V908.9z M866,904.9h37V869h-37V904.9z"/>
			</g>
		</g>
		<g>
			<rect x="864" y="907" class="st0" width="41" height="39.9"/>
			<path d="M907,948.9h-45V905h45V948.9z M866,944.9h37V909h-37V944.9z"/>
		</g>
		<g>
			<rect x="905" y="867" class="st0" width="41" height="39.9"/>
			<path d="M948,908.9h-45V865h45V908.9z M907,904.9h37V869h-37V904.9z"/>
		</g>
		<g>
			<rect x="864" y="827" class="st0" width="41" height="39.9"/>
			<path d="M907,868.9h-45V825h45V868.9z M866,864.9h37V829h-37V864.9z"/>
		</g>
		<g>
			<g>
				<rect x="905" y="827" width="41" height="39.9"/>
			</g>
			<g>
				<path d="M948,868.9h-45V825h45V868.9z M907,864.9h37V829h-37V864.9z"/>
			</g>
		</g>
		<g>
			<g>
				<rect x="905" y="907" class="st1" width="41" height="39.9"/>
			</g>
			<g>
				<path d="M948,948.9h-45V905h45V948.9z M907,944.9h37V909h-37V944.9z"/>
			</g>
		</g>
		<g>
			<rect x="946" y="867" class="st0" width="41" height="39.9"/>
			<path d="M989,908.9h-45V865h45V908.9z M948,904.9h37V869h-37V904.9z"/>
		</g>
		<g>
			<rect x="946" y="907" class="st0" width="41" height="39.9"/>
			<path d="M989,948.9h-45V905h45V948.9z M948,944.9h37V909h-37V944.9z"/>
		</g>
		<g>
			<g>
				<rect x="987" y="907" width="41" height="39.9"/>
			</g>
			<g>
				<path d="M1030,948.9h-45V905h45V948.9z M989,944.9h37V909h-37V944.9z"/>
			</g>
		</g>
		<g>
			<rect x="823" y="947" class="st0" width="41" height="39.9"/>
			<path d="M866,988.9h-45V945h45V988.9z M825,984.9h37V949h-37V984.9z"/>
		</g>
		<g>
			<rect x="782" y="947" class="st0" width="41" height="39.9"/>
			<path d="M825,988.9h-45V945h45V988.9z M784,984.9h37V949h-37V984.9z"/>
		</g>
		<g>
			<rect x="864" y="947" class="st0" width="41" height="39.9"/>
			<path d="M907,988.9h-45V945h45V988.9z M866,984.9h37V949h-37V984.9z"/>
		</g>
		<g>
			<rect x="905" y="947" class="st0" width="41" height="39.9"/>
			<path d="M948,988.9h-45V945h45V988.9z M907,984.9h37V949h-37V984.9z"/>
		</g>
		<g>
			<rect x="946" y="947" class="st0" width="41" height="39.9"/>
			<path d="M989,988.9h-45V945h45V988.9z M948,984.9h37V949h-37V984.9z"/>
		</g>
		<g>
			<rect x="987" y="947" class="st0" width="41" height="39.9"/>
			<path d="M1030,988.9h-45V945h45V988.9z M989,984.9h37V949h-37V984.9z"/>
		</g>
		<g>
			<g>
				<rect x="823" y="987" width="41" height="39.9"/>
			</g>
			<g>
				<path d="M866,1028.9h-45V985h45V1028.9z M825,1024.9h37V989h-37V1024.9z"/>
			</g>
		</g>
		<g>
			<g>
				<rect x="719" y="1028" width="41" height="39.9"/>
			</g>
			<g>
				<path d="M762,1069.9h-45V1026h45V1069.9z M721,1065.9h37V1030h-37V1065.9z"/>
			</g>
		</g>
		<g>
			<rect x="782" y="987" class="st0" width="41" height="39.9"/>
			<path d="M825,1028.9h-45V985h45V1028.9z M784,1024.9h37V989h-37V1024.9z"/>
		</g>
		<g>
			<g>
				<rect x="946" y="987" class="st1" width="41" height="39.9"/>
			</g>
			<g>
				<path d="M989,1028.9h-45V985h45V1028.9z M948,1024.9h37V989h-37V1024.9z"/>
			</g>
		</g>
		<g>
			<g>
				<rect x="884" y="1067" class="st1" width="41" height="39.9"/>
			</g>
			<g>
				<path d="M927,1108.9h-45V1065h45V1108.9z M886,1104.9h37V1069h-37V1104.9z"/>
			</g>
		</g>
		<g>
			<rect x="987" y="987" class="st0" width="41" height="39.9"/>
			<path d="M1030,1028.9h-45V985h45V1028.9z M989,1024.9h37V989h-37V1024.9z"/>
		</g>
		<g>
			<rect x="954" y="1044" class="st0" width="41" height="39.9"/>
			<path d="M997,1085.9h-45V1042h45V1085.9z M956,1081.9h37V1046h-37V1081.9z"/>
		</g>
	</g>
	<g id="Gear">
		<g>
			<path class="st0" d="M692.6,477.3c0-6-0.8-11.9-2.4-17.4l11.9-13.6l-11.3-19.1l-17,4.3c-8.2-8.4-18.6-14.5-30.3-17.5l-5.6-17
				h-22.2l-5,17c-11.7,3-22.1,9.2-30.3,17.6l-17.4-4.4l-11.3,19.1l12.3,14c-1.5,5.4-2.3,11.1-2.3,17c0,6.1,0.9,12.1,2.4,17.7
				l-12,12.4l11,19.2l17.2-3.6c8.1,8.2,18.3,14.3,29.7,17.3l5.8,17.4l22.2-0.1l4.9-17.1c11.8-3,22.3-9.1,30.5-17.5l17.3,3.6l11-19.2
				l-12-12.4C691.7,489.3,692.6,483.4,692.6,477.3z M627.1,513.4c-20.1,0-36.3-16.3-36.3-36.3s16.3-36.3,36.3-36.3
				s36.3,16.3,36.3,36.3S647.1,513.4,627.1,513.4z"/>
		</g>
		<g>
			<path class="st0" d="M753.9,596c0-3.9-0.5-7.6-1.5-11.1l7.6-8.7l-7.2-12.2l-10.9,2.8c-5.2-5.3-11.9-9.3-19.4-11.2l-3.6-10.9
				h-14.2l-3.2,10.9c-7.5,1.9-14.1,5.9-19.3,11.2l-11.1-2.8l-7.2,12.2l7.9,8.9c-0.9,3.5-1.4,7.1-1.4,10.9c0,3.9,0.5,7.7,1.6,11.3
				l-7.6,7.9l7.1,12.3l11-2.3c5.2,5.2,11.7,9.1,19,11.1l3.7,11.1l14.2-0.1l3.1-10.9c7.5-1.9,14.2-5.8,19.5-11.2l11,2.3l7.1-12.3
				l-7.7-8C753.3,603.8,753.9,600,753.9,596z M712,619.2c-12.8,0-23.2-10.4-23.2-23.2s10.4-23.2,23.2-23.2
				c12.8,0,23.2,10.4,23.2,23.2S724.8,619.2,712,619.2z"/>
		</g>
	</g>
	<g id="Clock">
		<g>
			<path d="M344.5,619c-36.1,0-65.5-29.4-65.5-65.5s29.4-65.5,65.5-65.5s65.5,29.4,65.5,65.5S380.6,619,344.5,619z M344.5,492
				c-33.9,0-61.5,27.6-61.5,61.5s27.6,61.5,61.5,61.5s61.5-27.6,61.5-61.5S378.4,492,344.5,492z"/>
		</g>
		<g>
			<polygon points="371.9,583.8 342.9,554.8 342.9,500.7 346.9,500.7 346.9,553.1 374.8,580.9 			"/>
		</g>
	</g>
	<g id="Man_3_">
		<g>
			<g>
				<polygon class="st1" points="1283.4,1049.5 1285.4,1086.9 1324.3,1086.9 1322.3,1049.5 				"/>
			</g>
			<g>
				<path d="M1326.5,1088.9h-43l-2.2-41.4h43L1326.5,1088.9z M1287.3,1084.9h35l-1.8-33.4h-35L1287.3,1084.9z"/>
			</g>
		</g>
		<g>
			<path d="M1325.3,1074.7c0,0-21.2,16.1-39,0l-52.8,27.5c-2.3,1.2-1.5,4.7,1.2,4.7h93.3c2.9,0,5.1-2.8,4.3-5.6L1325.3,1074.7z"/>
		</g>
		<g>
			<g>
				<polygon class="st1" points="1092.4,1049.5 1081.4,1086.9 1120.3,1086.9 1131.3,1049.5 				"/>
			</g>
			<g>
				<path d="M1121.8,1088.9h-43.1l12.2-41.4h43.1L1121.8,1088.9z M1084,1084.9h34.8l9.8-33.4h-34.8L1084,1084.9z"/>
			</g>
		</g>
		<g>
			<path d="M1121.3,1074.7c0,0-21.2,16.1-39,0l-52.8,27.5c-2.3,1.2-1.5,4.7,1.2,4.7h93.3c2.9,0,5.1-2.8,4.3-5.6L1121.3,1074.7z"/>
		</g>
		<g>
			<rect x="1143" y="663" class="st0" width="41" height="39.9"/>
			<path d="M1186,704.9h-45V661h45V704.9z M1145,700.9h37V665h-37V700.9z"/>
		</g>
		<g>
			<g>
				<rect x="974" y="503" width="41" height="39.9"/>
			</g>
			<g>
				<path d="M1017,544.9h-45V501h45V544.9z M976,540.9h37V505h-37V540.9z"/>
			</g>
		</g>
		<g>
			<g>
				<polygon class="st1" points="1077.5,1056.5 1143.5,1056.5 1315.1,614.2 1212.5,614.2 1167.5,760.5 				"/>
			</g>
			<g>
				<path d="M1144.9,1058.5h-70.1l90.8-298.6l45.4-147.8h107L1144.9,1058.5z M1080.2,1054.5h61.9l170.1-438.3H1214l-44.6,144.9
					L1080.2,1054.5z"/>
			</g>
		</g>
		<g>
			<g>
				<path class="st1" d="M1113,589c0,0-7,46-24.5,46.5c-18,0.5-89-73-89-73h-24l-30-36c0,0,6-7,13,0c0,0,4-7,14,0c0,0,3-5,11,1l4,7
					c0,0,3-2,6,0s6,6,6,6s18-3,27,6s48,44,48,44l6-30L1113,589z"/>
			</g>
			<g>
				<path d="M1088.3,637.5c-18.2,0-80.1-63.1-89.7-73h-24.1l-31.7-38l1.1-1.3c0.1-0.1,3.2-3.6,7.7-3.8c2.3-0.1,4.5,0.7,6.6,2.3
					c0.9-0.8,2.2-1.7,4-2.1c3-0.7,6.3,0.1,9.9,2.3c0.7-0.5,1.6-1,2.8-1.2c2.8-0.6,6.1,0.5,9.7,3.2l0.3,0.2l3.3,5.8
					c1.7-0.5,4-0.6,6.3,0.9c2.3,1.6,4.6,4.1,5.7,5.5c4.3-0.5,19.2-1.6,27.6,6.7c7.5,7.5,36.4,33.6,45.3,41.6l6-30l35.9,31.5
					l-0.2,1.1c-0.7,4.9-7.8,47.7-26.4,48.2C1088.5,637.5,1088.4,637.5,1088.3,637.5z M976.4,560.5h23.9l0.6,0.6
					c19.6,20.3,73.5,72.8,87.5,72.4c12.6-0.4,20.3-30.7,22.4-43.7l-29.1-25.5l-6,30l-2.6-2.3c-1.6-1.4-39.1-35.1-48.1-44.1
					c-8.2-8.2-25.1-5.5-25.3-5.4l-1.2,0.2l-0.7-1c0,0-2.8-3.8-5.5-5.5c-1.9-1.2-3.8,0-3.8,0l-1.8,1.2l-4.9-8.5c-3-2.2-5-2.4-6.1-2.3
					c-1.2,0.2-1.7,0.9-1.7,1l-1.1,1.8l-1.7-1.3c-3.1-2.2-6-3.1-8.2-2.6c-2,0.5-2.9,2-3,2l-1.3,2.3l-1.9-1.9
					c-1.7-1.7-3.5-2.6-5.3-2.5c-1.4,0.1-2.7,0.7-3.5,1.3L976.4,560.5z"/>
			</g>
		</g>
		<g>
			<g>
				<path class="st1" d="M1260,610c0,3-10,180-10,180l24,267h65l-5-261l19-179L1260,610z"/>
			</g>
			<g>
				<path d="M1341,1059h-68.9L1248,790l0-0.1c3.4-61.1,10-177.2,10-179.9l0-2.1l2.1,0.1l95.1,7.2L1336,796.1L1341,1059z
					 M1275.8,1055h61.1l-5-259.1l18.8-177.1l-88.9-6.7c-1,19.9-9.4,169.3-9.9,177.8L1275.8,1055z"/>
			</g>
		</g>
		<g>
			<path class="st0" d="M1266.7,529.1L1284,518c0,0-55.5-30.6-57.5-32.5c0,0-20-11-57-9L1108,497c0,0-18.5,8.5-22.5,29.5L1074,577
				l43,17l17-32l76,93c0,0,111.5,20.5,143.5-40.5C1353.5,614.5,1301.9,564.9,1266.7,529.1z"/>
		</g>
		<g>
			<g>
				<path class="st1" d="M1272,516l-33,35l36,24l-70.3,94.5l-22.7-0.3c-3.6-0.1-4.9,4.8-1.7,6.5l11.6,6.3l-12,15l-31.8,6.4
					c-2,0.4-3.8,1.6-4.9,3.4l0,0c-1.4,2.3,0.2,5.3,2.9,5.3h45.8l26-18.7l15-17.3l90.8-89.9c7.6-7.6,7.2-20.1-1-27L1272,516z"/>
			</g>
			<g>
				<path d="M1192.6,714h-46.5c-2,0-3.8-1-4.8-2.8s-0.9-3.8,0.1-5.5c1.4-2.2,3.6-3.8,6.2-4.3l31.1-6.2l10-12.6l-9.5-5.2
					c-2.3-1.2-3.3-3.7-2.7-6.2c0.6-2.5,2.8-4.1,5.3-4.1c0,0,0.1,0,0.1,0l21.6,0.3l68.4-92l-36.2-24.1l35.9-38.1l52.2,44.3
					c4.3,3.7,6.9,9,7.2,14.7c0.2,5.7-2,11.2-6,15.2l-90.7,89.9l-15.1,17.4L1192.6,714z M1182,671.2c-1,0-1.3,0.8-1.4,1.1
					c-0.1,0.3-0.2,1.2,0.7,1.7l13.7,7.4l-13.9,17.4l-32.5,6.5c-1.5,0.3-2.8,1.2-3.6,2.5c-0.4,0.6-0.2,1.2,0,1.5s0.5,0.7,1.3,0.7
					h45.2l25.3-18.2l14.9-17.3l90.8-89.9c3.3-3.3,5-7.6,4.8-12.2c-0.2-4.6-2.2-8.8-5.8-11.8l-49.3-41.8l-30.1,31.9l35.8,23.9
					l-72.1,97L1182,671.2C1182,671.2,1182,671.2,1182,671.2z"/>
			</g>
		</g>
		<g>
			<g>
				<path class="st1" d="M1165.1,484.7c0.1-0.9-13.8-34.3-13.8-34.3s15.7-29.1-5.1-24.6l-8.1-26.4l-58.3,21c0,0-2.4,79.4,43.4,58.5
					l7.2,18.2c0,0,11,1.3,19.8-1C1159.4,493.8,1165.1,484.7,1165.1,484.7z"/>
			</g>
			<g>
				<path d="M1137.7,499.5c-4.2,0-7.3-0.4-7.6-0.4l-1.2-0.1l-6.8-17.4c-9.9,4-18.4,3.8-25.3-0.8c-20.1-13.3-19-58.5-18.9-60.4l0-1.4
					l61.5-22.2l8.2,26.7c4.5-0.6,7.8,0.3,9.7,2.9c4.8,6.3-1.8,20.2-3.8,24.1c13.7,33.1,13.6,33.8,13.6,34.5l-0.1,0.4l-0.2,0.4
					c-0.2,0.4-6.2,9.8-16.1,12.4C1146.3,499.2,1141.5,499.5,1137.7,499.5z M1131.7,495.2c3,0.2,11.2,0.7,17.9-1
					c6.9-1.8,11.8-7.8,13.3-9.9c-1.4-4-8.8-21.9-13.4-33.2l-0.4-0.9l0.5-0.8c3.2-6,7.3-16.9,4.5-20.6c-1.1-1.5-3.6-1.9-7.4-1
					l-1.8,0.4l-8-26.1l-55,19.8c0,7.6,0.7,44.7,17.1,55.6c6.1,4.1,14,4,23.4-0.3l1.9-0.9L1131.7,495.2z"/>
			</g>
		</g>
		<g>
			<path d="M1156.9,433c-2.2-10.4-16-7.3-18.1,1.4c-2,8.7-8.3,8.8-8.3,8.8s-6.4-12.5-8.9-20.9c-2.5-8.4-8.4-3.8-8.4-3.8
				c-14.2,19.6-30,10.4-30,10.4c-21.9-24.4,7.4-42.6,19.6-46.7c8.6-2.9,29.1-6.4,44.3,4.8C1170,404,1156.9,433,1156.9,433z"/>
		</g>
	</g>
	<g id="Woman_3_">
		<g>
			<g>
				<polygon class="st1" points="436,1102 348,1094 374,1071 442,1066 				"/>
			</g>
			<g>
				<path d="M437.7,1104.2l-94.5-8.6l30-26.5l71.2-5.2L437.7,1104.2z M352.8,1092.4l81.5,7.4l5.3-31.7l-64.8,4.8L352.8,1092.4z"/>
			</g>
		</g>
		<g>
			<path d="M391,1071c0,0-26.6,0.1-30.9,23.7l-58.6,10.3c-2.6,0.5-4-2.9-2-4.5l74-56.7c2.3-1.8,5.7-0.9,6.9,1.8L391,1071z"/>
		</g>
		<g>
			<g>
				<path class="st1" d="M504.5,797.8c-0.2-0.9,10.9-46.8,10.9-46.8s-19.1-26.9,2.1-25l4.8-27.2l60.4,13.8c0,0,12,78.5-35.9,63.4
					l-6.3,30c0,0-10.7,2.6-19.8,1.4C511.3,806.2,504.5,797.8,504.5,797.8z"/>
			</g>
			<g>
				<path d="M525.8,809.7c-1.8,0-3.6-0.1-5.3-0.3c-10.2-1.3-17.2-9.9-17.5-10.3l-0.3-0.3l-0.1-0.4c-0.2-0.6-0.3-1.3,10.7-46.9
					c-2.4-3.6-10.6-16.6-6.7-23.5c1.6-2.7,4.7-4.1,9.2-4l4.9-27.5l63.8,14.5l0.2,1.3c0.3,1.9,6.9,46.6-11.4,62.3
					c-6.3,5.4-14.7,6.7-25,3.9l-6.1,29.2l-1.2,0.3C540.6,808,533.5,809.7,525.8,809.7z M506.6,797.2c1.7,1.9,7.3,7.3,14.4,8.2
					c6.9,0.9,14.9-0.5,17.9-1.1l6.5-30.9l2.1,0.7c9.8,3.1,17.7,2.3,23.3-2.5c15-12.8,11.2-49.8,10.3-57.3l-57-13l-4.8,26.9l-1.8-0.2
					c-3.9-0.4-6.3,0.3-7.2,1.9c-2.3,4,3.1,14.4,7,19.9l0.5,0.7l-0.2,0.9C513.4,767.9,507.5,792.4,506.6,797.2z"/>
			</g>
		</g>
		<g>
			<path d="M507.7,734.5c1-10.6,15-9.2,18.1-0.8c3.1,8.4,9.3,7.7,9.3,7.7s4.9-13.2,6.3-21.8c1.4-8.6,7.9-4.8,7.9-4.8
				C569,724,583,720,583,720c16-25-15.1-40-27.7-42.6c-8.9-1.8-20.2-0.3-20.2-0.3c0-0.3-0.1-0.6-0.1-1c-0.2-2-0.4-3.9-0.6-5.6
				c-2-15.6-5.3-18.3-11.2-21.6c-3.9-2.2-26.1-1.5-33.1,14c-4.8,10.7,4.9,20.6,11.5,25.8c1.9,1.5,3.5,2.6,4.4,3.2
				c0.6,0.4,0.9,0.6,0.9,0.6C494,717.1,507.7,734.5,507.7,734.5z"/>
		</g>
		<g>
			<g>
				<path class="st1" d="M501.7,688.9c1.9,1.5,3.5,2.6,4.4,3.2c5-4.3,15.8-12.7,28.9-15.9c-0.2-2-0.4-3.9-0.6-5.6
					C526.9,671.9,512.1,675.9,501.7,688.9z"/>
			</g>
			<g>
				<path d="M506.3,694.6l-1.3-0.8c-1-0.7-2.7-1.8-4.6-3.3l-1.6-1.3l1.3-1.6c10.8-13.4,25.9-17.6,34-19l2-0.3l0.3,2.1
					c0.2,1.6,0.4,3.5,0.6,5.6l0.2,1.7l-1.7,0.4c-12.5,3.1-22.9,11-28.1,15.5L506.3,694.6z M504.5,688.6c0.5,0.4,1,0.7,1.4,1
					c5.5-4.6,15.2-11.6,26.9-14.9c-0.1-0.6-0.1-1.2-0.2-1.7C525.2,674.5,513.5,678.5,504.5,688.6z"/>
			</g>
		</g>
		<g>
			<rect x="782" y="797" transform="matrix(0.975 -0.222 0.222 0.975 -161.3353 198.5333)" class="st0" width="41" height="39.9"/>
			<path d="M785.4,843.4l-9.7-42.8l43.9-10l9.7,42.8L785.4,843.4z M780.5,803.6l8,35l36.1-8.2l-8-35L780.5,803.6z"/>
		</g>
		<g>
			<g>
				<path class="st1" d="M604,849l33,33l89-49l22-25l45-16c0,0-2,13-18,16l-12,11c0,0-5,15,17,15c0,0,11,0,13,10l-45,4l-111,81
					c-6.4,4.6-15.1,4-20.8-1.4L569,882L604,849z"/>
			</g>
			<g>
				<path d="M627.5,934.1c-4.6,0-9.1-1.7-12.6-5.1l-48.7-47l37.9-35.8l33.3,33.3l87.4-48.1l22.1-25.1l48.6-17.3l-0.5,3.3
					c-0.1,0.6-2.4,14.1-19,17.5l-11.2,10.2c-0.3,1.2-0.8,4.5,1.2,7.3c2.2,3,7.1,4.6,14,4.6c4.4,0,13.1,2.4,15,11.6l0.4,2.2
					l-46.7,4.1l-110.5,80.6C635,932.9,631.2,934.1,627.5,934.1z M571.9,882l45.7,44.1c5,4.8,12.7,5.3,18.2,1.3l111.4-81.3l43.1-3.8
					c-2.6-6.1-10-6.2-10.4-6.2c-8.4,0-14.2-2.1-17.3-6.3c-3.6-5.1-1.7-11-1.6-11.3l0.2-0.5l12.8-11.7l0.6-0.1
					c9.4-1.8,13.4-7.1,15.2-10.8l-40.7,14.5l-21.9,24.9l-90.6,49.9L604,851.8L571.9,882z"/>
			</g>
		</g>
		<g>
			<path d="M511,952c0,0,126.1,36.2,173.5,90.2c10.2,11.6,2.5,42.8-19.5,42.8l-193-13L511,952z"/>
		</g>
		<g>
			<g>
				<path class="st1" d="M505,779c0,0,21,37,43,12l38,36l29,28l-35,49l-24-23l-6,86l-139,3l18-52l-37-26l17-40l-8-3l27.1-45.7
					c5-8.4,13.5-14.2,23.2-15.7L505,779z"/>
			</g>
			<g>
				<path d="M408.2,972.1l18.4-53.3l-37.1-26.1l16.8-39.6l-8.3-3.1l28.3-47.7c5.3-9,14.3-15.1,24.6-16.7l55.1-8.8l0.7,1.2
					c0.1,0.2,10.5,18.2,23.6,19.6c5.6,0.6,11-2.1,16.2-7.9l1.4-1.6l39.5,37.4l30.3,29.2L580.3,907l-22.6-21.6l-5.8,83.6L408.2,972.1
					z M394.5,891.3l36.9,25.9l-17.6,50.7l134.3-2.9l6.2-88.4l25.4,24.4l32.7-45.7l-27.8-26.8l-36.5-34.6c-5.6,5.8-11.8,8.4-18.2,7.7
					c-13.1-1.4-23.2-16-25.9-20.4l-52.4,8.4c-9.1,1.5-17.1,6.8-21.8,14.8L403.9,848l7.7,2.9L394.5,891.3z"/>
			</g>
		</g>
		<g>
			<path class="st2" d="M420,960c0,0-60,65,4,97c0,0-11,32-6,49h220.4c8.7,0,16.2-6.3,17.5-14.8c1.4-9.1,0.6-21.6-7.9-35.2
				c-17-27-128-89-173-92L420,960z"/>
		</g>
		<g>
			<g>
				<path class="st1" d="M431,902l83,50l24.8,3.8c5.3,0.8,10,3.7,13.1,8L565,982l5.1,13.9c0.7,1.9-1.2,3.7-3.1,2.9L502.3,970
					L392,930.7c-8.7-3.1-13.1-12.8-9.6-21.4L406,851l42,17L431,902z"/>
			</g>
			<g>
				<path d="M568,1001c-0.6,0-1.2-0.1-1.7-0.4l-64.7-28.8l-110.3-39.3c-4.7-1.7-8.5-5.1-10.5-9.7s-2.1-9.7-0.3-14.3l24.4-60.1
					l45.9,18.6l-17.1,34.3l81.1,48.8l24.4,3.7c5.8,0.9,11,4.1,14.4,8.8l13.3,18.5l5.2,14.2c0.6,1.6,0.2,3.4-1.1,4.6
					C570.1,1000.6,569,1001,568,1001z M407.1,853.6L384.2,910c-1.5,3.6-1.4,7.6,0.2,11.2s4.5,6.3,8.2,7.6l110.5,39.4l64.7,28.8
					c0.1,0,0.2,0.1,0.3-0.1c0.1-0.1,0.1-0.3,0.1-0.3l-5-13.6l-13-18c-2.8-3.9-7.1-6.5-11.8-7.2l-25.2-3.8l-0.3-0.2l-84.6-51
					l16.9-33.7L407.1,853.6z"/>
			</g>
		</g>
	</g>
	<g id="Floor_3_">
		<g>
			<rect x="98" y="1106" width="1416" height="4"/>
		</g>
	</g>
</g>
<g id="_x33_">
</g>
<g id="_x32_">
</g>
<g id="_x31_">
</g>
</svg>
