<?xml version="1.0" encoding="utf-8"?>
<!-- Generator: Adobe Illustrator 24.2.0, SVG Export Plug-In . SVG Version: 6.00 Build 0)  -->
<svg version="1.1" xmlns="http://www.w3.org/2000/svg" xmlns:xlink="http://www.w3.org/1999/xlink" x="0px" y="0px"
	 viewBox="0 0 1600 1200" style="enable-background:new 0 0 1600 1200;" xml:space="preserve">
<style type="text/css">
	.st0{fill:#FEE300;}
	.st1{fill:#FAFBFD;}
	.st2{fill:#2F2E40;}
	.st3{fill:#29DBBA;}
	.st4{fill:#FFFFFF;}
	.st5{fill:#FEE200;}
	.st6{fill:#010204;}
</style>
<g id="_x31_2">
</g>
<g id="_x31_1">
</g>
<g id="_x31_0">
</g>
<g id="_x39_">
</g>
<g id="_x38_">
</g>
<g id="_x37_">
</g>
<g id="_x36_">
	<g id="Environment_3_">
		<g>
			<polygon points="310,368 300,368 300,358 296,358 296,368 286,368 286,372 296,372 296,382 300,382 300,372 310,372 			"/>
		</g>
		<g>
			<path d="M245,307c-7.7,0-14-6.3-14-14s6.3-14,14-14s14,6.3,14,14S252.7,307,245,307z M245,283c-5.5,0-10,4.5-10,10s4.5,10,10,10
				s10-4.5,10-10S250.5,283,245,283z"/>
		</g>
		<g>
			<path d="M1412,779c-7.7,0-14-6.3-14-14s6.3-14,14-14s14,6.3,14,14S1419.7,779,1412,779z M1412,755c-5.5,0-10,4.5-10,10
				s4.5,10,10,10s10-4.5,10-10S1417.5,755,1412,755z"/>
		</g>
		<g>
			<path d="M958,801c-7.7,0-14-6.3-14-14s6.3-14,14-14s14,6.3,14,14S965.7,801,958,801z M958,777c-5.5,0-10,4.5-10,10s4.5,10,10,10
				s10-4.5,10-10S963.5,777,958,777z"/>
		</g>
		<g>
			<polygon points="1453.4,696.1 1449.8,686.8 1459.2,683.2 1457.7,679.4 1448.4,683 1444.8,673.7 1441.1,675.1 1444.7,684.5 
				1435.3,688.1 1436.8,691.8 1446.1,688.2 1449.7,697.5 			"/>
		</g>
		<g>
			<path d="M1381.1,252l-4-0.2c0-0.2,1.2-21.1,23-20.2c18.1,0.8,20.9-15.3,21-16l4,0.6c0,0.2-3.3,19.4-23.7,19.4c-0.5,0-0.9,0-1.4,0
				C1382.1,234.8,1381.1,251.3,1381.1,252z"/>
		</g>
		<g>
			<path d="M132.4,673.2l-3.9-0.7c0-0.2,3.7-20.8,25.3-17.3c17.9,2.9,22.5-12.7,22.7-13.4l3.8,1.1c-0.1,0.2-4.9,16.7-22.3,16.7
				c-1.5,0-3.2-0.1-4.9-0.4C135.5,656.3,132.6,672.5,132.4,673.2z"/>
		</g>
	</g>
	<g id="Whiteboard">
		<g>
			<path class="st4" d="M471.5,156h717c24.6,0,44.5,19.9,44.5,44.5v440c0,24.6-19.9,44.5-44.5,44.5h-717
				c-24.6,0-44.5-19.9-44.5-44.5v-440C427,175.9,446.9,156,471.5,156z"/>
			<path d="M1188.5,687h-717c-25.6,0-46.5-20.9-46.5-46.5v-440c0-25.6,20.9-46.5,46.5-46.5h717c25.6,0,46.5,20.9,46.5,46.5v440
				C1235,666.1,1214.1,687,1188.5,687z M471.5,158c-23.4,0-42.5,19.1-42.5,42.5v440c0,23.4,19.1,42.5,42.5,42.5h717
				c23.4,0,42.5-19.1,42.5-42.5v-440c0-23.4-19.1-42.5-42.5-42.5H471.5z"/>
		</g>
		<g>
			<path d="M613,367V219.6l-76.2,4.3c0,0-10.1,115.7-23,143H613z"/>
		</g>
		<g>
			<path class="st0" d="M513.4,219.3h99.2c0,0,3.6,74.8-21.6,117.9l-120,19.4C471,356.5,498.3,346.5,513.4,219.3z"/>
		</g>
		<g>
			<path d="M1057.2,497.4V350.1l-76.2,4.3c0,0-10.1,115.7-23,143H1057.2z"/>
		</g>
		<g>
			<path class="st0" d="M957.6,349.7h99.2c0,0,3.6,74.8-21.6,117.9l-120,19.4C915.2,487,942.5,477,957.6,349.7z"/>
		</g>
		<g>
			<path d="M889.2,357v-98.8l-51.1,2.9c0,0-6.7,77.6-15.4,95.9H889.2z"/>
		</g>
		<g>
			<path class="st0" d="M822.5,258H889c0,0,2.4,50.1-14.5,79L794,350C794,350,812.4,343.3,822.5,258z"/>
		</g>
		<g>
			<rect x="644.5" y="553.5" width="74" height="4"/>
		</g>
		<g>
			<rect x="644.5" y="575.5" width="145" height="4"/>
		</g>
		<g>
			<rect x="645" y="597.5" width="145" height="4"/>
		</g>
		<g>
			<rect x="645" y="619.5" width="145" height="4"/>
		</g>
		<g>
			<rect x="862.5" y="553.5" width="74" height="4"/>
		</g>
		<g>
			<rect x="862.5" y="575.5" width="145" height="4"/>
		</g>
		<g>
			<rect x="863" y="597.5" width="145" height="4"/>
		</g>
		<g>
			<rect x="863" y="619.5" width="145" height="4"/>
		</g>
	</g>
	<g id="Plant_11_">
		<g>
			<g>
				<path class="st1" d="M766.7,1103.6c0,0,6.6-29.9-10-59c0,0-9.1-28.3,5.8-54s0-54.9-17.5-59c-17.5-4.2-38.2,10-43.2,29.9
					c-5,19.9-0.8,34.1-30.8,49c-29.9,15-28.7,93.1-28.7,93.1H766.7z"/>
			</g>
			<g>
				<path d="M768.3,1105.6H640.4l0-2c-0.1-3.2-0.9-79.6,29.8-94.9c23.2-11.6,25-22.1,27.5-36.6c0.6-3.5,1.2-7.2,2.2-11.1
					c5.2-20.9,27-35.8,45.6-31.4c8.7,2.1,16.9,9.9,21.4,20.4c5.8,13.5,4.8,28.6-2.7,41.5c-13.7,23.6-6.4,49.8-5.7,52.2
					c16.7,29.4,10.4,59,10.1,60.2L768.3,1105.6z M644.4,1101.6H765c1-6.4,3.9-31.7-10-56l-0.2-0.4c-0.4-1.2-9.2-29.4,6-55.6
					c6.9-11.8,7.8-25.6,2.5-37.9c-4-9.4-11.2-16.3-18.7-18.1c-16.6-4-36.1,9.6-40.8,28.5c-0.9,3.8-1.6,7.4-2.2,10.8
					c-2.5,14.5-4.6,27-29.6,39.5C646.1,1025.2,644.5,1089.5,644.4,1101.6z"/>
			</g>
		</g>
		<g>
			<path d="M703.7,1104.8l-3.6-1.7c24.5-53.6,42.9-171.6,43.1-172.8l4,0.6C746.8,932.2,728.4,1050.8,703.7,1104.8z"/>
		</g>
		<g>
			<circle cx="832.4" cy="997" r="13"/>
		</g>
		<g>
			<path d="M766.7,1105.1l-1.7-4.7c39.2-14.4,62.3-76.8,62.5-77.5l4.7,1.7C831.2,1027.3,808,1089.9,766.7,1105.1z"/>
		</g>
		<g>
			<rect x="719.1" y="943" transform="matrix(0.9369 -0.3495 0.3495 0.9369 -294.7486 313.4072)" width="4" height="60.8"/>
		</g>
		<g>
			<rect x="709.9" y="970.1" transform="matrix(0.9299 -0.3679 0.3679 0.9299 -319.2289 332.2798)" width="4" height="66.8"/>
		</g>
		<g>
			<path class="st0" d="M852.6,1000.5c0,0-20.2-10.5-40.2-4.2c0,0-5.5,29.4,15,31.6C850.6,1030.4,852.6,1000.5,852.6,1000.5z"/>
		</g>
		<g>
			<circle cx="884.3" cy="987.8" r="11.8"/>
		</g>
		<g>
			<path d="M790.8,1086.1c0,0,11.6-16.6,10-29.9c-1.7-13.3-10-17.5-13.3-16.6c-3.3,0.8-9.1,2.5-6.6,15S790.8,1086.1,790.8,1086.1z"
				/>
		</g>
		<g>
			<rect x="694" y="1079.4" transform="matrix(0.8059 -0.592 0.592 0.8059 -498.0803 643.4045)" width="76.5" height="4"/>
		</g>
		<g>
			<rect x="726.7" y="1088.5" transform="matrix(0.8124 -0.5831 0.5831 0.8124 -495.3486 641.4078)" width="44.8" height="4"/>
		</g>
		<g>
			<g>
				<path class="st1" d="M592.5,976.8c0,0,8.3-17.5,0-39.9c-8.3-22.4-14.1-92.3,35.7-88.9c49.9,3.3,53.2,69.8,48.2,103.9
					c-5,34.1,2.5,57.3,10.8,76.5c8.3,19.1,34.9,33.2,30.8,75.6H549.3C549.3,1104,541,1036.7,592.5,976.8z"/>
			</g>
			<g>
				<path d="M719.9,1106H547.6l-0.2-1.8c-0.1-0.7-2.1-17.4,2.3-41.7c4-22.4,14.4-55.6,41.2-86.7c0.9-2.1,7.2-18.1-0.2-38.1
					c-5.9-16-10.7-56.7,5.2-77.9c7.5-10,18.4-14.6,32.6-13.7c14.1,0.9,25.6,6.8,34.2,17.5c18,22.3,19.8,61.7,15.9,88.7
					c-4.9,33.4,2.2,56,10.7,75.4c2.4,5.4,6.4,10.6,10.7,16.1c10.4,13.3,23.3,29.9,20.3,60.5L719.9,1106z M551.2,1102h165.1
					c2.2-27.9-9.4-42.7-19.6-55.9c-4.4-5.7-8.6-11.1-11.2-17c-8.2-19-16-43-10.9-77.5c3.8-26.2,2.2-64.3-15-85.6
					c-7.9-9.7-18.4-15.1-31.3-16c-12.7-0.8-22.5,3.2-29.1,12.1c-15,20.1-10.3,58.8-4.6,74.1c8.5,23,0.3,40.7-0.1,41.4l-0.1,0.2
					l-0.2,0.2C548.3,1031.3,550.3,1091.1,551.2,1102z"/>
			</g>
		</g>
		<g>
			<path d="M869.5,1032.5c0,0,25.9,2.1,30.1-4.1c4.1-6.2-7.1-11.7-21.9-2.3C875.6,1027.4,869.5,1032.5,869.5,1032.5z"/>
		</g>
		<g>
			<path d="M861.5,1045.7c0,0,24.9,7.4,30.3,2.2c5.3-5.2-4.5-12.9-20.9-6.8C868.5,1041.9,861.5,1045.7,861.5,1045.7z"/>
		</g>
		<g>
			<path d="M805.4,1107.6l-3.1-4c46.4-35.8,77.3-90.5,77.6-91l4.4,2.4C884.1,1015.6,852.7,1071.1,805.4,1107.6z"/>
		</g>
		<g>
			<path d="M630.7,1103.9l-3.9-0.7c31.9-172,0.4-254.1,0.1-254.9l3.7-1.5c0.3,0.8,8.3,21.1,12.3,63.1
				C646.6,948.6,647.5,1013.6,630.7,1103.9z"/>
		</g>
		<g>
			<rect x="633.8" y="902.1" transform="matrix(0.657 -0.7539 0.7539 0.657 -456.2118 805.5067)" width="46.5" height="4"/>
		</g>
		<g>
			<path class="st0" d="M902.6,991c0,0-17.2-10-36.6-3.8c0,0-5,26.7,13.6,28.7C900.8,1018.2,902.6,991,902.6,991z"/>
		</g>
		<g>
			<rect x="634.3" y="927.3" transform="matrix(0.6599 -0.7514 0.7514 0.6599 -473.693 812.1263)" width="51.7" height="4"/>
		</g>
		<g>
			<rect x="609.6" y="975.9" transform="matrix(0.7851 -0.6193 0.6193 0.7851 -498.4825 597.3199)" width="4" height="82.4"/>
		</g>
		<g>
			<rect x="602.8" y="989.6" transform="matrix(0.7781 -0.6282 0.6282 0.7781 -516.5828 609.881)" width="4" height="92.9"/>
		</g>
	</g>
	<g id="Plant_10_">
		<g>
			<circle cx="1412.3" cy="975.7" r="11.8"/>
		</g>
		<g>
			<path d="M1429.7,1019.4c0,0,21.2-15.1,20.4-22.5c-0.8-7.4-13-4.4-18.3,12.2C1431.1,1011.6,1429.7,1019.4,1429.7,1019.4z"/>
		</g>
		<g>
			<path d="M1432,1034.7c0,0,23.9-10.3,24.6-17.7c0.7-7.4-11.8-7-20.4,8.2C1435,1027.3,1432,1034.7,1432,1034.7z"/>
		</g>
		<g>
			<path d="M1422.6,1106.3l-4.8-1.5c19.5-60.4,4.4-106.5,4.3-107l4.7-1.6C1427.5,998.1,1442.6,1044.2,1422.6,1106.3z"/>
		</g>
		<g>
			<path class="st0" d="M1428.5,966.4c0,0-19.6,3.3-30.5,20.6c0,0,13.3,23.7,28.9,13.3C1444.5,988.4,1428.5,966.4,1428.5,966.4z"/>
		</g>
		<g>
			<g>
				<path class="st1" d="M1327.5,1105c0,0-5-22.4,7.5-44.2c0,0,6.9-21.2-4.4-40.5c-11.2-19.3,0-41.1,13.1-44.2
					c13.1-3.1,28.7,7.5,32.4,22.4c3.7,15,1.4,36,23.8,47.2c22.4,11.2,20.7,59.3,20.7,59.3H1327.5z"/>
			</g>
			<g>
				<path d="M1422.6,1107h-96.7l-0.3-1.6c-0.2-0.9-5-23.3,7.6-45.5c0.6-2.1,5.8-21.3-4.2-38.7c-5.7-9.8-6.4-21.3-2-31.6
					c3.5-8,9.7-14,16.4-15.6c14.2-3.4,30.8,8,34.8,23.9c0.8,3.2,1.3,6.7,1.9,10.3c2,13.4,4.1,27.2,20.9,35.6
					c23.3,11.7,21.9,59.1,21.8,61.1L1422.6,1107z M1329.2,1103h89.5c0-8.9-1.1-46.2-19.7-55.5c-18.6-9.3-21-24.9-23-38.6
					c-0.5-3.5-1-6.9-1.8-9.9c-3.5-13.9-17.8-23.9-30-21c-5.5,1.3-10.7,6.4-13.6,13.3c-3.9,9.1-3.2,19.3,1.8,28
					c11.5,19.9,4.8,41.2,4.5,42.1l-0.2,0.4C1326.6,1079.4,1328.4,1097.6,1329.2,1103z"/>
			</g>
		</g>
		<g>
			<path d="M1374.3,1106.1c-18.6-40.6-32.4-129.5-32.6-130.4l4-0.6c0.1,0.9,13.9,89.3,32.2,129.4L1374.3,1106.1z"/>
		</g>
		<g>
			<rect x="1338.9" y="1005.5" transform="matrix(0.3494 -0.937 0.937 0.3494 -58.0288 1931.3772)" width="45.6" height="4"/>
		</g>
		<g>
			<rect x="1343.5" y="1028" transform="matrix(0.368 -0.9298 0.9298 0.368 -92.7431 1923.463)" width="50" height="4"/>
		</g>
		<g>
			<rect x="1351.3" y="1059.7" transform="matrix(0.592 -0.8059 0.8059 0.592 -325.0031 1534.6423)" width="4" height="57.3"/>
		</g>
		<g>
			<rect x="1338.7" y="1078.4" transform="matrix(0.5833 -0.8123 0.8123 0.5833 -330.9116 1545.4185)" width="4" height="33.6"/>
		</g>
	</g>
	<g id="Woman_5_">
		<g>
			<g>
				<polygon class="st1" points="456.9,1047.5 437.9,1084.9 402.9,1079.9 417.9,1047.5 				"/>
			</g>
			<g>
				<path d="M439,1087.1l-39.1-5.6l16.7-36h43.5L439,1087.1z M405.8,1078.3l30.9,4.4l16.9-33.2h-34.4L405.8,1078.3z"/>
			</g>
		</g>
		<g>
			<path d="M402.9,1072.7c0,0,21.2,16.1,39,0l52.8,27.5c2.3,1.2,1.5,4.7-1.2,4.7h-93.3c-2.9,0-5.1-2.8-4.3-5.6L402.9,1072.7z"/>
		</g>
		<g>
			<g>
				<polygon class="st1" points="273.9,1047.5 254.9,1084.9 219.9,1079.9 233,1048 				"/>
			</g>
			<g>
				<path d="M256,1087.1l-38.9-5.6l14.6-35.5l45.5-0.5L256,1087.1z M222.7,1078.3l31,4.4l16.9-33.2l-36.2,0.4L222.7,1078.3z"/>
			</g>
		</g>
		<g>
			<path d="M219.9,1072.7c0,0,21.2,16.1,39,0l52.8,27.5c2.3,1.2,1.5,4.7-1.2,4.7h-93.3c-2.9,0-5.1-2.8-4.3-5.6L219.9,1072.7z"/>
		</g>
		<g>
			<path d="M740,436.6v-93.1l-48.1,2.7c0,0-6.4,73.1-14.5,90.3H740z"/>
		</g>
		<g>
			<path class="st0" d="M677.1,343.3h62.7c0,0,2.3,47.2-13.6,74.5L650.3,430C650.3,430,667.6,423.6,677.1,343.3z"/>
		</g>
		<g>
			<g>
				<path class="st1" d="M541.9,499.8l64.7-12.5l43.4-86.4l1.8-30.5l12.1-31.8c0,0,5.1-4.3,7.5,2.6l2.9-8.6c0,0,9.7-3.9,8.6,2.9
					c0,0,8.7-7.8,10,2.2l-1.5,4.3c0,0,7.9-5.7,9.7,3.3l-3.8,25.1l-5.1,15c0,0,13.8-15.7,24.9-13.1l-17.4,22.8L680.7,409l-44.5,121.4
					l-88.5,23.8L541.9,499.8z"/>
			</g>
			<g>
				<path d="M545.9,556.8l-6.1-58.6l65.5-12.6l42.8-85.2l1.8-30.4l12.4-32.6l0.4-0.3c0.3-0.3,3-2.4,6.1-1.6c0.8,0.2,1.5,0.6,2.2,1.2
					l1.9-5.6l0.9-0.3c1.1-0.4,6.7-2.5,9.7-0.1c0.4,0.3,0.8,0.8,1.1,1.4c1.8-1,4.2-1.9,6.4-1.1c2.2,0.8,3.6,3,4.1,6.5l0.1,0.5
					l-0.2,0.5c1.3-0.3,2.6-0.3,4,0.3c2.2,0.9,3.7,3,4.3,6.3l0.1,0.3l-3.9,25.8l-2.5,7.3c5.4-4.5,13.4-9.6,20.8-7.9l3,0.7l-19.4,25.5
					l-18.9,13.7l-44.7,121.8L545.9,556.8z M544.1,501.4l5.2,50.3l85.2-23l44.4-121l19.4-14l14.9-19.6c-7.6,0.9-16.3,9.1-19.5,12.6
					l-6.7,7.6l8.3-24.4l3.7-24.6c-0.3-1.2-0.8-2.6-1.8-3c-1.6-0.6-4.1,0.8-4.7,1.2l-5.1,3.6l3.3-9.7c-0.3-1.6-0.8-2.6-1.4-2.9
					c-1.3-0.5-4,1.3-5.2,2.3l-4.2,3.8l0.9-5.6c0.1-0.7,0.1-1.3-0.1-1.4c-0.7-0.5-2.9-0.2-4.9,0.4l-4.5,13.1l-1.9-5.4
					c-0.5-1.4-1.2-2.3-1.9-2.5c-0.7-0.2-1.6,0.2-2.1,0.5l-11.8,31l-1.8,30.6l-0.2,0.4L608,489L544.1,501.4z"/>
			</g>
		</g>
		<g>
			<path d="M409.7,725l70,148.7L402.9,1061H464l93.7-187.2c7.2-15.1,7.6-32.6,1-48.1l-63.1-148.4L409.7,725z"/>
		</g>
		<g>
			<path class="st6" d="M399.5,551.5c-2.2-0.5-53.1-38.4-23.7-78c0,0,24.9-23.7,29.4-45.2c4.5-21.5,19.2-55.4,55.4-54.3
				c0,0,45.2,1.1,35.1,49.8c0,0-12.4,23.7-6.8,38.4s14.7,31.7,7.9,47.5C489.9,525.5,471.8,568.5,399.5,551.5z"/>
		</g>
		<g>
			<g>
				<path class="st1" d="M427.5,509l13.1-58.3c0,0-24.2-15.1-7-25.2c0,0,6,0,9.1,4c0,0-4-23.2,12.1-24.2c16.1-1,23.2-11.1,23.2-11.1
					s36.2,57.4,17.1,67.4c-19.1,10.1-20.1,5-20.1,5l5,44.2L427.5,509z"/>
			</g>
			<g>
				<path d="M482.1,513.2L425,511l13.3-59.3c-3.4-2.4-13-9.7-12.9-17.6c0.1-4,2.4-7.4,7.1-10.2l0.5-0.3h0.5c0.2,0,3.5,0,6.6,1.6
					c-0.2-4.7,0.3-11.8,4.1-16.6c2.5-3.1,5.9-4.8,10.3-5.1c15-0.9,21.6-10.1,21.6-10.2l1.7-2.5l1.6,2.5c1.1,1.8,27.4,43.7,22.3,62.5
					c-1,3.6-3,6.2-6,7.8c-8.7,4.6-14.8,6.7-18.7,6.5L482.1,513.2z M430,507.1l47.6,1.8l-4.8-41.9l3.9-0.6c-0.1-0.4-0.2-0.5-0.3-0.5
					c0,0,2.9,1.8,17.5-5.9c2-1.1,3.3-2.8,4-5.3c4-14.8-15-48-20.5-57c-3.2,3.2-10.5,8.9-22.7,9.7c-3.2,0.2-5.6,1.4-7.4,3.6
					c-4.9,6.2-2.9,18.1-2.9,18.2l1.4,8.2l-5-6.7c-1.9-2.5-5.6-3.1-7-3.2c-3.1,1.9-4.6,4.1-4.6,6.5c-0.1,6,8.8,12.8,12.2,15l1.2,0.8
					L430,507.1z"/>
			</g>
		</g>
		<g>
			<path class="st2" d="M480,699l-62.3,179.7c-2,5.7-4.8,11-8.3,15.9L282.6,1061H219l110.1-208.9l32.9-131.6L480,699z"/>
		</g>
		<g>
			<g>
				<path class="st1" d="M480.1,486.7c0,0-17,35.2-52.2,0l-35.5,5.6c-9.7,1.5-18.4,6.9-24,15l-49.2,83.5L367,628l-24.8,120.3
					L520,701c0,0-5.1-34.3,0.3-63.4c3.4-18.3,21.6-73.2,21.6-73.2l55.6-10.2L585,490.7l-37.4,4.5L480.1,486.7z"/>
			</g>
			<g>
				<path d="M339.6,751l25.2-122.2l-48.3-37.5l50.2-85.2c5.9-8.4,15.2-14.2,25.4-15.8l36.5-5.8l0.7,0.7
					c11.4,11.4,21.8,16.3,31.1,14.8c11.8-2,17.8-14.1,17.9-14.2l0.6-1.3l1.4,0.2l67.3,8.5l39-4.7l13.2,67.4l-56.4,10.4
					c-2.6,7.9-18.1,55.3-21.1,71.8c-5.3,28.4-0.4,62.4-0.3,62.7l0.3,1.8L339.6,751z M321.8,590.3l47.4,36.9l-24.4,118.3l173-46
					c-0.9-7.4-4.1-36.9,0.6-62.3c3.4-18.2,20.9-71.2,21.7-73.5l0.4-1.1l54.8-10.1l-11.7-59.7l-35.8,4.3l-66.4-8.4
					c-2,3.5-8.6,13.2-20.1,15.1c-10.4,1.8-21.8-3.3-33.9-15.2l-34.5,5.4c-9.1,1.4-17.4,6.6-22.7,14.1L321.8,590.3z"/>
			</g>
		</g>
		<g>
			<path d="M559,693c0,0-7.6-36.2-7.6-48.3c0-15,0-60,0-60l-56,3.2c0,0-15.4,80.2-12.4,101.2L559,693z"/>
		</g>
		<g>
			<path class="st0" d="M478.2,584.4h72.9c0,0,2.6,55-15.9,86.7L447,685.3C447,685.3,467.1,677.9,478.2,584.4z"/>
		</g>
		<g>
			<g>
				<path class="st1" d="M326.3,581.5c-2,0-18.2,34.8-30.8,62.5c-6,13.3,6.3,27.5,20.3,23.5l146.7-41.7l35.2-9.1l12.5,4.5
					c0,0,6.8-1.1,4.5-7.9c0,0,5.7-5.7,1.1-11.3c0,0,4.5-6.8-1.1-11.3c0,0,2.3-7.9-1.1-10.2l-14.8-4.5l-28.4,9.1l-17,13.6
					c0,0-94.2,18.2-94.2,17c0-1.1,12.1-21.8,12.1-21.8L326.3,581.5z"/>
			</g>
			<g>
				<path d="M311,670.1c-5.5,0-10.7-2.3-14.4-6.7c-4.9-5.7-6-13.5-2.9-20.4c28.8-63.6,30.7-63.6,32.6-63.6h0.3l47.8,13l-1.3,2.3
					c-4,6.9-8.3,14.5-10.5,18.5c12.5-1.9,58.4-10.5,90-16.6l16.9-13.5l29.3-9.4l15.6,4.8l0.2,0.2c3.7,2.4,2.8,8.5,2.3,11.2
					c3.8,3.9,2.8,8.9,1.3,11.9c2.8,4.6,0.8,9.4-1.3,12c0.5,2.2,0.3,4.1-0.7,5.7c-1.8,3-5.3,3.6-5.7,3.7l-0.5,0.1l-12.4-4.5
					l-34.6,8.9l-146.6,41.7C314.6,669.9,312.8,670.1,311,670.1z M326.9,583.7c-1.8,2.5-8,13.7-29.5,61.1c-2.5,5.4-1.6,11.6,2.3,16.1
					c3.9,4.5,9.9,6.3,15.6,4.7l146.7-41.7l35.8-9.2l12.5,4.5c0.7-0.2,1.9-0.8,2.5-1.7c0.5-0.9,0.5-2,0-3.5l-0.4-1.2l0.9-0.9
					c0.4-0.5,4.3-4.6,1-8.7l-0.9-1.1l0.8-1.2c0.4-0.5,3.4-5.4-0.7-8.7l-1-0.8l0.4-1.3c0.7-2.6,1.1-6.7-0.1-7.9l-13.8-4.2l-27.4,8.8
					l-17.1,13.7l-0.5,0.1c-0.2,0-23.5,4.5-46.7,8.9c-47.7,8.9-48.1,8.6-49.1,7.8l-0.7-0.6l0-1c0-0.6,0-1.6,11-20.6L326.9,583.7z
					 M327.3,583.1"/>
			</g>
		</g>
	</g>
	<g id="Man_5_">
		<g>
			<g>
				<polygon class="st1" points="1245.6,1049.5 1248.6,1086.9 1287.6,1086.9 1284.6,1049.5 				"/>
			</g>
			<g>
				<path d="M1289.8,1088.9h-43l-3.3-41.4h43L1289.8,1088.9z M1250.5,1084.9h35l-2.7-33.4h-35L1250.5,1084.9z"/>
			</g>
		</g>
		<g>
			<path d="M1287.6,1074.7c0,0-21.2,16.1-39,0l-52.8,27.5c-2.3,1.2-1.5,4.7,1.2,4.7h93.3c2.9,0,5.1-2.8,4.3-5.6L1287.6,1074.7z"/>
		</g>
		<g>
			<g>
				<polygon class="st1" points="1142.6,1049.5 1138.6,1086.9 1177.6,1086.9 1181.6,1049.5 				"/>
			</g>
			<g>
				<path d="M1179.4,1088.9h-43l4.4-41.4h43L1179.4,1088.9z M1140.9,1084.9h35l3.6-33.4h-35L1140.9,1084.9z"/>
			</g>
		</g>
		<g>
			<path d="M1178.6,1074.7c0,0-21.2,16.1-39,0l-52.8,27.5c-2.3,1.2-1.5,4.7,1.2,4.7h93.3c2.9,0,5.1-2.8,4.3-5.6L1178.6,1074.7z"/>
		</g>
		<g>
			<g>
				<path class="st1" d="M1169,588l-35.1,165.6c-0.9,4.3-1.4,8.6-1.6,13l-9.8,288.4h66l24-255l61.9-197.7L1169,588z"/>
			</g>
			<g>
				<path d="M1190.3,1057h-69.9l9.8-290.5c0.2-4.5,0.7-9,1.6-13.3l35.5-167.4l109.6,14.8l-62.5,199.8L1190.3,1057z M1124.6,1053
					h62.1l23.8-253.4l0.1-0.2l61.2-195.5l-101.2-13.7L1135.8,754c-0.9,4.2-1.4,8.4-1.5,12.7L1124.6,1053z"/>
			</g>
		</g>
		<g>
			<g>
				<path class="st1" d="M1298.5,1054.5l-16-274L1306,625l-98.5-52.5l-10.7,184.9c-0.2,3.4-0.1,6.7,0.4,10.1l38.3,287H1298.5z"/>
			</g>
			<g>
				<path d="M1300.6,1056.5h-66.9l-0.2-1.7l-38.3-287c-0.5-3.5-0.6-7-0.4-10.5l10.9-188.1l102.5,54.6l-0.2,1.4l-23.5,155.3
					L1300.6,1056.5z M1237.2,1052.5h59.1l-15.9-272.1l23.3-154.3l-94.5-50.4l-10.5,181.8c-0.2,3.2-0.1,6.5,0.4,9.7L1237.2,1052.5z"
					/>
			</g>
		</g>
		<g>
			<path d="M1261.7,351.8c0,0,54.7-6.7,30.7-45.1c0,0,11.5-31.7-23-30.7c0,0-4.8-24-23-8.6c0,0-25.9-12.5-28.8,9.6
				c0,0-2.9,12.5,12.5,20.1L1261.7,351.8z"/>
		</g>
		<g>
			<g>
				<path class="st1" d="M1275.2,392.1l-12.5-47c0,0,23-14.4,6.7-24c0,0-5.8,0-8.6,3.8c0,0,3.8-22.1-11.5-23
					c-15.4-1-22.1-10.6-22.1-10.6s-34.5,54.7-16.3,64.3s19.2,4.8,19.2,4.8l-4.8,33.6L1275.2,392.1z"/>
			</g>
			<g>
				<path d="M1223,396.2l4.6-32.5c-0.1,0-0.2,0-0.3,0c-3.7,0-9.4-2.1-17.4-6.2c-2.9-1.5-4.8-4-5.8-7.5c-4.8-18,20.2-57.9,21.3-59.6
					l1.6-2.5l1.7,2.5c0.3,0.4,6.4,8.8,20.6,9.7c4.2,0.3,7.5,1.9,9.8,4.9c3.6,4.6,4.1,11.2,4,15.7c3-1.4,6-1.5,6.2-1.5h0.5l0.5,0.3
					c4.5,2.6,6.8,5.9,6.8,9.8c0.1,7.6-8.8,14.4-12.3,16.8l12.7,48L1223,396.2z M1228.4,359.5c0,0-0.2,0.1-0.3,0.6l3.9,0.7l-4.5,31.2
					l45-1.7l-12.2-46l1.3-0.8c3.3-2,11.7-8.6,11.6-14.2c0-2.3-1.5-4.2-4.4-6.1c-1.3,0.1-4.7,0.6-6.5,3l-5,6.6l1.4-8.2
					c0-0.1,1.9-11.4-2.7-17.3c-1.7-2.1-3.9-3.2-6.9-3.4c-11.6-0.7-18.5-6.1-21.7-9.2c-5.2,8.7-23.2,40.1-19.4,54.2
					c0.6,2.4,1.9,4,3.8,5C1225.6,361.2,1228.4,359.5,1228.4,359.5z"/>
			</g>
		</g>
		<g>
			<path class="st0" d="M1272.8,379.2l51.2,31.1c14.3,8.7,20.6,26.3,15,42.1l-10,32.1l-14,14l-7.4,159.4l-154.7-29.3l8.6-60.4
				l1-30.2l-19.5-75l20.1-53.6c4.4-11.7,14.4-20.3,26.5-23l33.3-7.3C1222.9,379.2,1242.1,407,1272.8,379.2z"/>
		</g>
		<g>
			<g>
				<path class="st1" d="M1287.6,466c1,1,40.9,18.9,40.9,18.9l-37.9,74.9c-9.2,19.1-36.9,17.4-43.8-2.6l-61-178.5
					c0,0,2.9-31.7,13.4-36.5c0,0,15.4,12.5,23,13.4c0,0,13.4-1.9,20.1,2.9l-19.2,8.6c0,0-7.7,2.7-11.1,14.3l60.9,119.1L1287.6,466z"
					/>
			</g>
			<g>
				<path d="M1269.4,575.2c-0.5,0-1.1,0-1.6,0c-10.6-0.6-19.3-7.3-22.8-17.3L1183.9,379l0-0.4c0.3-3.4,3.3-33,14.6-38.1l1.1-0.5
					l1,0.8c4.1,3.3,15.9,12,21.8,13c2.1-0.3,14.5-1.6,21.3,3.3l2.8,2l-22.5,10.1c-0.3,0.1-6.5,2.5-9.6,12.2l58.6,114.5l13.9-33.3
					l2,2c2.3,1.4,25.9,12.1,40.4,18.6l1.9,0.9l-38.8,76.8C1288.1,569.8,1279.4,575.2,1269.4,575.2z M1188,378.5l60.8,178.1
					c2.9,8.5,10.3,14.1,19.2,14.6c9,0.5,16.9-4.2,20.8-12.2l37-73.1c-24.3-10.9-33.5-15.3-37.2-17.1l-15.2,36.5l-63.3-123.6l0.2-0.8
					c3.4-11.9,11.2-15.2,12.2-15.6l15.2-6.9c-6.4-2-15.1-0.8-15.2-0.8l-0.3,0l-0.3,0c-7.1-0.9-19.1-10-23-13
					C1192.2,349.5,1188.8,370.1,1188,378.5z M1288.8,464.4C1288.8,464.4,1288.8,464.4,1288.8,464.4
					C1288.8,464.4,1288.8,464.4,1288.8,464.4z"/>
			</g>
		</g>
		<g>
			<g>
				<path class="st1" d="M1184,461.2l-37.1-3.5l-20.6,62c-3.7,12.3,3.1,25.3,15.3,29.2l98,32.2c0,0,14.4,8.2,28.8,7.2
					c0,0,9.6,1,11.5-7.2c0,0,8.6-2.4,6.7-9.1c0,0,2.9-4.3,1-11l-19.2,2.9l-17.3-3.8l-82.5-46.1L1184,461.2z"/>
			</g>
			<g>
				<path d="M1266,590.4c-13.2,0-25.5-6.5-27.2-7.4l-97.9-32.1c-13.3-4.4-20.6-18.3-16.6-31.7l21.1-63.6l41.1,3.9L1171,513
					l80.9,45.1l16.6,3.7l20.6-3.1l0.5,1.7c1.7,5.8,0.1,10.1-0.8,11.9c0.4,1.9,0.1,3.7-0.8,5.4c-1.6,2.9-4.7,4.4-6.4,5
					c-2.3,6.7-9.4,8-13.2,7.6C1267.6,590.4,1266.8,590.4,1266,590.4z M1148.3,459.9l-20.1,60.5c-3.4,11.3,2.8,23,14,26.7l98.2,32.2
					l0.2,0.1c0.1,0.1,14.1,7.9,27.7,6.9l0.2,0l0.2,0c0.3,0,7.9,0.7,9.4-5.7l0.3-1.2l1.1-0.3c1-0.3,3.9-1.5,5.1-3.5
					c0.5-0.9,0.6-2,0.3-3.1l-0.3-0.9l0.5-0.8c0.1-0.1,1.9-3,1.1-7.7l-17.7,2.7l-17.9-4l-0.3-0.1l-83.9-46.8l15.1-52L1148.3,459.9z"
					/>
			</g>
		</g>
	</g>
	<g id="Floor_5_">
		<g>
			<rect x="89" y="1105" width="1416" height="4"/>
		</g>
	</g>
</g>
<g id="_x35_">
</g>
<g id="_x34_">
</g>
<g id="_x33_">
</g>
<g id="_x32_">
</g>
<g id="_x31_">
</g>
</svg>
