<?xml version="1.0" encoding="utf-8"?>
<!-- Generator: Adobe Illustrator 24.2.0, SVG Export Plug-In . SVG Version: 6.00 Build 0)  -->
<svg version="1.1" xmlns="http://www.w3.org/2000/svg" xmlns:xlink="http://www.w3.org/1999/xlink" x="0px" y="0px"
	 viewBox="0 0 1600 1200" style="enable-background:new 0 0 1600 1200;" xml:space="preserve">
<style type="text/css">
	.st0{fill:#FEE300;}
	.st1{fill:#FAFBFD;}
	.st2{fill:#2F2E40;}
	.st3{fill:#29DBBA;}
	.st4{fill:#FFFFFF;}
	.st5{fill:#FEE200;}
	.st6{fill:#010204;}
</style>
<g id="_x31_2">
</g>
<g id="_x31_1">
</g>
<g id="_x31_0">
</g>
<g id="_x39_">
</g>
<g id="_x38_">
</g>
<g id="_x37_">
</g>
<g id="_x36_">
</g>
<g id="_x35_">
	<g id="Environment_2_">
		<g>
			<polygon points="193,735 183,735 183,725 179,725 179,735 169,735 169,739 179,739 179,749 183,749 183,739 193,739 			"/>
		</g>
		<g>
			<polygon points="1191,330 1181,330 1181,320 1177,320 1177,330 1167,330 1167,334 1177,334 1177,344 1181,344 1181,334 1191,334 
							"/>
		</g>
		<g>
			<path d="M1343,749c-7.7,0-14-6.3-14-14s6.3-14,14-14s14,6.3,14,14S1350.7,749,1343,749z M1343,725c-5.5,0-10,4.5-10,10
				s4.5,10,10,10s10-4.5,10-10S1348.5,725,1343,725z"/>
		</g>
		<g>
			<path d="M141,822c-7.7,0-14-6.3-14-14s6.3-14,14-14s14,6.3,14,14S148.7,822,141,822z M141,798c-5.5,0-10,4.5-10,10s4.5,10,10,10
				s10-4.5,10-10S146.5,798,141,798z"/>
		</g>
		<g>
			<path d="M1261.5,409.7c0-0.2,0.1-21.2,21.9-21.4c18-0.2,20-16.4,20.1-17.1l4,0.4c0,0.2-2.4,20.5-24,20.7
				c-17.9,0.2-18,16.6-18,17.4L1261.5,409.7z"/>
		</g>
		<g>
			<path d="M244.5,400.7l-4,0l2,0l-2,0c0-0.7-0.1-17.2-18-17.4c-21.7-0.2-24-20.5-24-20.7l4-0.4c0.1,0.7,2.1,16.9,20.1,17.1
				C244.4,379.6,244.5,400.5,244.5,400.7z"/>
		</g>
	</g>
	<g id="Plant_9_">
		<g>
			<g>
				<path class="st1" d="M1384.7,1104.6c0,0,6.6-29.9-10-59c0,0-9.1-28.3,5.8-54s0-54.9-17.5-59c-17.5-4.2-38.2,10-43.2,29.9
					c-5,19.9-0.8,34.1-30.8,49c-29.9,15-28.7,93.1-28.7,93.1H1384.7z"/>
			</g>
			<g>
				<path d="M1386.3,1106.6h-127.8l0-2c-0.1-3.2-0.9-79.6,29.8-94.9c23.2-11.6,25-22.1,27.5-36.6c0.6-3.5,1.2-7.2,2.2-11.1
					c5.2-20.9,27-35.8,45.6-31.4c8.7,2.1,16.9,9.9,21.4,20.4c5.8,13.5,4.8,28.6-2.7,41.5c-13.7,23.6-6.4,49.8-5.7,52.2
					c16.7,29.4,10.4,59,10.1,60.2L1386.3,1106.6z M1262.4,1102.6H1383c1-6.4,3.9-31.7-10-56l-0.2-0.4c-0.4-1.2-9.2-29.4,6-55.6
					c6.9-11.8,7.8-25.6,2.5-37.9c-4-9.4-11.2-16.3-18.7-18.1c-16.6-4-36.1,9.6-40.8,28.5c-0.9,3.8-1.6,7.4-2.2,10.8
					c-2.5,14.5-4.6,27-29.6,39.5C1264.1,1026.2,1262.5,1090.5,1262.4,1102.6z"/>
			</g>
		</g>
		<g>
			<path d="M1321.7,1105.8l-3.6-1.7c24.5-53.6,42.9-171.6,43.1-172.8l4,0.6C1364.8,933.2,1346.4,1051.8,1321.7,1105.8z"/>
		</g>
		<g>
			<circle cx="1450.4" cy="998" r="13"/>
		</g>
		<g>
			<path d="M1384.7,1106.1l-1.7-4.7c39.2-14.4,62.3-76.8,62.5-77.5l4.7,1.7C1449.2,1028.3,1426,1090.9,1384.7,1106.1z"/>
		</g>
		<g>
			<rect x="1337.1" y="944" transform="matrix(0.9369 -0.3495 0.3495 0.9369 -256.1259 529.4583)" width="4" height="60.8"/>
		</g>
		<g>
			<rect x="1327.9" y="971.1" transform="matrix(0.9299 -0.3679 0.3679 0.9299 -276.2579 559.7012)" width="4" height="66.8"/>
		</g>
		<g>
			<path class="st0" d="M1470.6,1001.5c0,0-20.2-10.5-40.2-4.2c0,0-5.5,29.4,15,31.6C1468.6,1031.4,1470.6,1001.5,1470.6,1001.5z"/>
		</g>
		<g>
			<circle cx="1502.3" cy="988.8" r="11.8"/>
		</g>
		<g>
			<path d="M1408.8,1087.1c0,0,11.6-16.6,10-29.9s-10-17.5-13.3-16.6c-3.3,0.8-9.1,2.5-6.6,15
				C1401.3,1068,1408.8,1087.1,1408.8,1087.1z"/>
		</g>
		<g>
			<rect x="1312" y="1080.4" transform="matrix(0.8059 -0.592 0.592 0.8059 -378.7234 1009.4799)" width="76.5" height="4"/>
		</g>
		<g>
			<rect x="1344.7" y="1089.5" transform="matrix(0.8124 -0.5831 0.5831 0.8124 -379.9918 1001.9559)" width="44.8" height="4"/>
		</g>
		<g>
			<g>
				<path class="st1" d="M1210.5,977.8c0,0,8.3-17.5,0-39.9c-8.3-22.4-14.1-92.3,35.7-88.9s53.2,69.8,48.2,103.9
					c-5,34.1,2.5,57.3,10.8,76.5c8.3,19.1,34.9,33.2,30.8,75.6h-168.7C1167.3,1105,1159,1037.7,1210.5,977.8z"/>
			</g>
			<g>
				<path d="M1337.9,1107h-172.3l-0.2-1.8c-0.1-0.7-2.1-17.4,2.3-41.7c4-22.4,14.4-55.6,41.2-86.7c0.9-2.1,7.2-18.1-0.2-38.1
					c-5.9-16-10.7-56.7,5.2-77.9c7.5-10,18.4-14.6,32.6-13.7c14.1,0.9,25.6,6.8,34.2,17.5c18,22.3,19.8,61.7,15.9,88.7
					c-4.9,33.4,2.2,56,10.7,75.4c2.4,5.4,6.4,10.6,10.7,16.1c10.4,13.3,23.3,29.9,20.3,60.5L1337.9,1107z M1169.2,1103h165.1
					c2.2-27.9-9.4-42.7-19.6-55.9c-4.4-5.7-8.6-11.1-11.2-17c-8.2-19-16-43-10.9-77.5c3.8-26.2,2.2-64.3-15-85.6
					c-7.9-9.7-18.4-15.1-31.3-16c-12.7-0.8-22.5,3.2-29.1,12.1c-15,20.1-10.3,58.8-4.6,74.1c8.5,23,0.3,40.7-0.1,41.4l-0.1,0.2
					l-0.2,0.2C1166.3,1032.3,1168.3,1092.1,1169.2,1103z"/>
			</g>
		</g>
		<g>
			<path d="M1487.5,1033.5c0,0,25.9,2.1,30.1-4.1s-7.1-11.7-21.9-2.3C1493.6,1028.4,1487.5,1033.5,1487.5,1033.5z"/>
		</g>
		<g>
			<path d="M1479.5,1046.7c0,0,24.9,7.4,30.3,2.2c5.3-5.2-4.5-12.9-20.9-6.8C1486.5,1042.9,1479.5,1046.7,1479.5,1046.7z"/>
		</g>
		<g>
			<path d="M1423.4,1108.6l-3.1-4c46.4-35.8,77.3-90.5,77.6-91l4.4,2.4C1502.1,1016.6,1470.7,1072.1,1423.4,1108.6z"/>
		</g>
		<g>
			<path d="M1248.7,1104.9l-3.9-0.7c31.9-172,0.4-254.1,0.1-254.9l3.7-1.5c0.3,0.8,8.3,21.1,12.3,63.1
				C1264.6,949.6,1265.5,1014.6,1248.7,1104.9z"/>
		</g>
		<g>
			<rect x="1251.8" y="903.1" transform="matrix(0.657 -0.7539 0.7539 0.657 -244.9807 1271.7637)" width="46.5" height="4"/>
		</g>
		<g>
			<path class="st0" d="M1520.6,992c0,0-17.2-10-36.6-3.8c0,0-5,26.7,13.6,28.7C1518.8,1019.2,1520.6,992,1520.6,992z"/>
		</g>
		<g>
			<rect x="1252.3" y="928.3" transform="matrix(0.6599 -0.7514 0.7514 0.6599 -264.2326 1276.8291)" width="51.7" height="4"/>
		</g>
		<g>
			<rect x="1227.6" y="976.9" transform="matrix(0.7851 -0.6193 0.6193 0.7851 -366.322 980.2688)" width="4" height="82.4"/>
		</g>
		<g>
			<rect x="1220.8" y="990.6" transform="matrix(0.7781 -0.6282 0.6282 0.7781 -380.0521 998.3242)" width="4" height="92.9"/>
		</g>
	</g>
	<g id="Plant_8_">
		<g>
			<circle cx="200.4" cy="985.1" r="13"/>
		</g>
		<g>
			<path d="M239.7,1105.3c-36.8-24.2-45-90.5-45.4-93.3l5-0.6c0.1,0.7,8.3,66.8,43.1,89.7L239.7,1105.3z"/>
		</g>
		<g>
			<path class="st0" d="M179.9,983.9c0,0,22-5.6,40.1,5.2c0,0-1.4,29.9-21.8,27.3C175,1013.5,179.9,983.9,179.9,983.9z"/>
		</g>
		<g>
			<path d="M220.6,1081.3c0,0-7.5-18.8-2.9-31.4c4.7-12.6,13.7-14.7,16.7-13.1c3,1.6,8.3,4.5,3.1,16.1
				C232.2,1064.5,220.6,1081.3,220.6,1081.3z"/>
		</g>
		<g>
			<g>
				<path class="st1" d="M272.1,1004.7c0,0,6.5-13.6,0-31.2c-6.5-17.5-11-72,27.9-69.4s41.5,54.5,37.6,81.1
					c-3.9,26.6,1.9,44.8,8.4,59.7c6.5,14.9,27.3,26,24,59.1H238.4C238.4,1104,231.9,1051.4,272.1,1004.7z"/>
			</g>
			<g>
				<path d="M372,1106H236.6l-0.2-1.8c-0.1-0.5-6.1-53.8,34-100.6c0.8-1.8,5.5-14.1-0.2-29.4c-4.8-13-8.6-44.3,4.1-61.3
					c5.9-8,14.6-11.6,25.8-10.9c11.1,0.7,20.2,5.4,27,13.8c14.2,17.5,15.6,48.5,12.5,69.6c-3.8,26,1.7,43.5,8.3,58.6
					c1.8,4.2,5,8.2,8.3,12.5c8.1,10.5,18.3,23.5,15.9,47.6L372,1106z M240.2,1102h128.1c1.6-21.3-7.4-32.8-15.2-42.9
					c-3.5-4.5-6.8-8.7-8.8-13.3c-6.5-14.9-12.5-33.7-8.6-60.8c3-20.4,1.7-50-11.6-66.5c-6.1-7.5-14.2-11.7-24.2-12.3
					c-9.8-0.6-17.3,2.5-22.3,9.3c-11.6,15.5-8,45.6-3.6,57.5c6.7,18.1,0.2,32.1-0.1,32.7l-0.1,0.2l-0.2,0.2
					C238.6,1046.8,239.6,1092.6,240.2,1102z"/>
			</g>
		</g>
		<g>
			<path class="st1" d="M300.4,903.8c0,0,25.3,63.6,0,199.9"/>
			<path d="M302.3,1104l-3.9-0.7c24.9-134,0.4-198.2,0.1-198.8l3.7-1.5c0.3,0.7,6.5,16.5,9.6,49.4
				C314.8,982.6,315.5,1033.4,302.3,1104z"/>
		</g>
		<g>
			<line class="st1" x1="334.5" y1="934.2" x2="310.6" y2="961.6"/>
			<rect x="304.4" y="945.9" transform="matrix(0.657 -0.7539 0.7539 0.657 -603.9862 568.3101)" width="36.3" height="4"/>
		</g>
		<g>
			<line class="st1" x1="338.3" y1="952.4" x2="311.6" y2="982.7"/>
			<rect x="304.8" y="965.5" transform="matrix(0.66 -0.7513 0.7513 0.66 -616.42 573.1122)" width="40.4" height="4"/>
		</g>
		<g>
			<line class="st1" x1="267.1" y1="1010.9" x2="307" y2="1061.4"/>
			<rect x="285" y="1004" transform="matrix(0.7851 -0.6193 0.6193 0.7851 -580.0121 400.3842)" width="4" height="64.4"/>
		</g>
		<g>
			<line class="st1" x1="258.9" y1="1022.7" x2="304.5" y2="1079.1"/>
			<rect x="279.7" y="1014.6" transform="matrix(0.7781 -0.6282 0.6282 0.7781 -597.6503 410.2228)" width="4" height="72.5"/>
		</g>
	</g>
	<g id="Chair_1_">
		<g>
			<g>
				<rect x="1072.7" y="906.6" class="st1" width="26.7" height="173.2"/>
			</g>
			<g>
				<path d="M1101.4,1081.7h-30.7V904.6h30.7V1081.7z M1074.7,1077.7h22.7V908.6h-22.7V1077.7z"/>
			</g>
		</g>
		<g>
			<rect x="1052.9" y="879.8" width="67.3" height="36.6"/>
		</g>
		<g>
			<rect x="1036.6" y="1076.3" width="98.9" height="29.7"/>
		</g>
		<g>
			<g>
				<path class="st1" d="M981.5,890.7h196.3c8.6,0,16.1-5.9,18.1-14.3l58.3-240.9c2.8-11.7-6-22.9-18-22.9h-137.6
					c-8.2,0-15.5,5.4-17.8,13.3l-63.4,216.2h-54.4v29.8C962.9,882.4,971.2,890.7,981.5,890.7z"/>
			</g>
			<g>
				<path d="M1177.8,892.7H981.5c-11.4,0-20.6-9.3-20.6-20.6v-31.8h54.9l63-214.8c2.6-8.7,10.7-14.8,19.7-14.8h137.6
					c6.3,0,12.2,2.9,16.2,7.8c3.9,5,5.3,11.4,3.8,17.6L1197.8,877C1195.6,886.2,1187.3,892.7,1177.8,892.7z M964.9,844.2v27.8
					c0,9.2,7.5,16.6,16.6,16.6h196.3c7.7,0,14.4-5.2,16.2-12.7l58.3-240.9c1.2-5,0.1-10.1-3.1-14.1c-3.2-4-7.9-6.3-13-6.3h-137.6
					c-7.3,0-13.8,4.9-15.9,11.9l-63.8,217.6H964.9z"/>
			</g>
		</g>
	</g>
	<g id="Laptop_1_">
		<g>
			<path d="M676.7,645.8h131.6c3.3,0,6.2,2,7.3,5.1l36.4,99.6H703.9l-34.5-94.3C667.6,651.1,671.3,645.8,676.7,645.8z"/>
		</g>
		<g>
			<rect x="830.2" y="740.3" width="90.8" height="10.2"/>
		</g>
		<g>
			<path class="st0" d="M668.2,645.8h131.6c3.3,0,6.2,2,7.3,5.1l36.4,99.6H695.4l-34.5-94.3C659,651.1,662.8,645.8,668.2,645.8z"/>
		</g>
		<g>
			<ellipse transform="matrix(0.9015 -0.4328 0.4328 0.9015 -228.7408 391.7411)" cx="746.2" cy="698.4" rx="9.2" ry="12.1"/>
		</g>
	</g>
	<g id="Man_4_">
		<g>
			<g>
				<polygon class="st1" points="751.9,1048.5 742.9,1085.9 781.9,1085.9 790.9,1048.5 				"/>
			</g>
			<g>
				<path d="M783.4,1087.9h-43.1l10-41.4h43.1L783.4,1087.9z M745.4,1083.9h34.9l8-33.4h-34.9L745.4,1083.9z"/>
			</g>
		</g>
		<g>
			<path d="M784.9,1073.7c0,0-21.2,16.1-39,0l-52.8,27.5c-2.3,1.2-1.5,4.7,1.2,4.7h93.3c2.9,0,5.1-2.8,4.3-5.6L784.9,1073.7z"/>
		</g>
		<g>
			<g>
				<polygon class="st1" points="963.9,1048.5 972.9,1085.9 1011.9,1085.9 1002.9,1048.5 				"/>
			</g>
			<g>
				<path d="M1014.4,1087.9h-43.1l-10-41.4h43.1L1014.4,1087.9z M974.5,1083.9h34.9l-8-33.4h-34.9L974.5,1083.9z"/>
			</g>
		</g>
		<g>
			<path d="M1010.9,1073.7c0,0-21.2,16.1-39,0l-52.8,27.5c-2.3,1.2-1.5,4.7,1.2,4.7h93.3c2.9,0,5.1-2.8,4.3-5.6L1010.9,1073.7z"/>
		</g>
		<g>
			<path d="M1015.7,516.8c0,0,54.7-6.7,30.7-45.1c0,0,11.5-31.7-23-30.7c0,0-4.8-24-23-8.6c0,0-25.9-12.5-28.8,9.6
				c0,0-2.9,12.5,12.5,20.1L1015.7,516.8z"/>
		</g>
		<g>
			<g>
				<path class="st1" d="M1029.2,563.1l-12.5-53c0,0,23-14.4,6.7-24c0,0-5.8,0-8.6,3.8c0,0,3.8-22.1-11.5-23
					c-15.4-1-22.1-10.6-22.1-10.6s-34.5,54.7-16.3,64.3c18.2,9.6,19.2,4.8,19.2,4.8l-4.8,39.6L1029.2,563.1z"/>
			</g>
			<g>
				<path d="M977,567.2l4.7-38.5c-3.7,0.1-9.5-1.9-17.7-6.2c-2.9-1.5-4.8-4-5.8-7.5c-4.8-18,20.2-57.9,21.3-59.6l1.6-2.5l1.7,2.5
					c0.3,0.4,6.4,8.8,20.6,9.7c4.2,0.3,7.5,1.9,9.8,4.9c3.6,4.6,4.1,11.2,4,15.7c3-1.4,6-1.5,6.2-1.5h0.5l0.5,0.3
					c4.5,2.6,6.8,5.9,6.8,9.8c0.1,7.6-8.8,14.5-12.3,16.8l12.7,54L977,567.2z M982.4,524.5c0,0-0.2,0.1-0.3,0.6l3.9,0.6l-4.5,37.3
					l45.1-1.7l-12.2-52l1.2-0.8c3.3-2,11.7-8.6,11.6-14.2c0-2.3-1.5-4.2-4.4-6.1c-1.3,0.1-4.7,0.6-6.5,3l-5,6.6l1.4-8.2
					c0-0.1,1.9-11.4-2.7-17.3c-1.7-2.1-3.9-3.2-6.9-3.4c-11.6-0.7-18.5-6.1-21.7-9.2c-5.2,8.7-23.2,40.1-19.4,54.2
					c0.6,2.4,1.9,4,3.8,5C979.6,526.2,982.4,524.5,982.4,524.5z"/>
			</g>
		</g>
		<g>
			<path class="st0" d="M796.6,433c0,0.3,0,0.6,0,0.9c0,10.8-8.8,19.6-19.6,19.6s-19.6-8.8-19.6-19.6c0-0.3,0-0.6,0-0.9h-34.5v31.7
				c10.8,0,19.6,8.8,19.6,19.6c0,10.8-8.8,19.6-19.6,19.6v41h107.1V433H796.6z"/>
		</g>
		<g>
			<g>
				<path class="st1" d="M949.3,735.3l-14.8,35.3l-116,23.5c-18.6,3.8-33.5,17.6-38.6,35.9l-63.4,226.6h77.6L846,870l168-19
					l4.8-108.9L949.3,735.3z"/>
			</g>
			<g>
				<path d="M795.6,1058.5h-81.7L778,829.4c5.3-19.1,20.7-33.3,40.1-37.3L933,768.8l15-35.7l72.8,7.2l-4.9,112.5l-168.4,19
					L795.6,1058.5z M719.1,1054.5h73.4l51.9-186.4l167.6-19l4.6-105.3l-66.1-6.5l-14.6,34.9l-117,23.7c-17.9,3.6-32.1,16.8-37,34.4
					L719.1,1054.5z"/>
			</g>
		</g>
		<g>
			<g>
				<path class="st1" d="M822.6,602.6l-21.4-40.5l-29.3-10.6l-29.3-22.8c0,0,5.7-4.9,14.6,0l22.8,13l-11.4-13l-6.5-13.8
					c0,0,11.4-1.6,15.5,5.7l9.8,12.2l27.7,4.9c0,0,7.3-0.8,11.4,7.3l20.6,40.5L822.6,602.6z"/>
			</g>
			<g>
				<path d="M821.9,605.5l-22.1-41.8l-28.9-10.4l-31.5-24.5l1.9-1.6c0.3-0.2,6.9-5.7,16.9-0.2l12.5,7.1l-3.7-4.3l-7.8-16.5l2.7-0.4
					c0.5-0.1,12.7-1.7,17.4,6.6l9.2,11.5l26.7,4.7c1.6-0.1,8.9,0.1,13.1,8.4l21.4,42L821.9,605.5z M772.9,549.7l29.7,10.7l20.7,39.2
					l21.1-14.8l-19.8-38.9c-3.4-6.8-9.3-6.2-9.4-6.2l-0.3,0l-28.7-5.1l-10.4-13.1c-2.2-4-7.4-4.8-10.6-4.8l5.1,10.9l19,21.8
					l-33.1-18.9c-4.4-2.4-7.9-2.1-10-1.4L772.9,549.7z"/>
			</g>
		</g>
		<g>
			<g>
				<path class="st1" d="M1053.7,725c0,0,48.6,99.2,28.5,123.6c-25.2,30.4-145.8,17.7-145.8,17.7l74,190.2h-74l-89.8-214.8
					c-6-14.4,2.6-30.8,17.9-33.9L972,774l-2.6-36.5L1053.7,725z"/>
			</g>
			<g>
				<path d="M1013.3,1058.5H935l-90.3-216c-3.1-7.4-2.7-15.8,1-22.9c3.7-7.1,10.4-12.1,18.2-13.7l105.9-33.3l-2.6-36.7l87.6-13
					l0.6,1.3c2,4.1,48.9,100.7,28.2,125.7c-23.5,28.4-124.4,20.6-144.3,18.7L1013.3,1058.5z M937.7,1054.5h69.8l-74.2-190.6l3.3,0.3
					c1.2,0.1,119.9,12.3,144.1-17c7.8-9.4,5.3-33.2-7-69c-8.2-23.8-18.5-45.7-21.1-51.2l-81,12l2.6,36.2l-109.2,34.3
					c-6.7,1.4-12.4,5.7-15.6,11.7c-3.2,6.1-3.5,13.2-0.9,19.5L937.7,1054.5z"/>
			</g>
		</g>
		<g>
			<path class="st0" d="M844.6,576.7C842.7,577.6,807,603,807,603l38.4,78.9c4.8,11.7,19.4,15.6,29.5,7.9l59.5-45.4l4.2,126.1
				l129.9-9l-8.4-115.2l35.4,46.6l-19.6-1.9l1.9,43.8l63,5.9c15.6,1.5,26.7-14.7,19.7-28.7l-66.8-134.2c-6-12-17-20.8-30.1-23.9
				l-34.3-8.1c0,0-46.6,36.3-49.3,0h-21.6c-12.9,0-25.1,5.6-33.5,15.4l-53.8,62.8L844.6,576.7z"/>
		</g>
		<g>
			<g>
				<g>
					<path class="st1" d="M1076.3,719l-50.8-6c0,0-6-5.2-6.7-11.9l-18.6,2.2c0,0-5.2-1.5-3.7-7.4c0,0-5.2-4.5-3-8.2
						c0,0-4.5-5.2-1.5-8.9l23.1-17.9l-10.4-3c0,0-12.7,6.7-17.9,1.5l14.1-10.4l26.1,4.5c0,0,6,6,4.5,10.4c0,0,3.7,3,3,6.7
						c0,0,3.7,4.5,2.2,8.2c0,0,3.7,4.5,1.5,8.2l37.6,5.7L1076.3,719z"/>
				</g>
			</g>
			<g>
				<g>
					<path d="M1077.3,721.2l-52.7-6.3l-0.5-0.4c-0.2-0.2-5.4-4.8-7-11.2l-17.1,2.1l-0.4-0.1c-1.8-0.5-6.1-3.1-5.3-8.7
						c-2-2-4.1-5.4-3.1-8.6c-1.8-2.6-3.5-7-0.7-10.5l0.1-0.2l20.1-15.6l-5.9-1.7c-3.1,1.5-14,6.2-19.5,0.8l-1.6-1.6l16.7-12.3
						l27.5,4.7l0.4,0.5c0.6,0.6,5.8,6,5.2,11.2c1.2,1.3,3.1,3.7,2.9,6.8c1.1,1.5,3.1,4.9,2.3,8.4c0.9,1.4,2.3,4.1,1.9,6.9l35.2,5.7
						L1077.3,721.2z M1026.3,711.1l50.9,5.6l-0.5-22.3l-41.9-5.9l1.5-2.6c1.5-2.4-1.3-5.8-1.3-5.9l-0.8-0.9l0.4-1.1
						c0.8-2.1-1.1-5.2-1.9-6.2l-0.6-0.7l0.2-0.9c0.5-2.5-2.2-4.7-2.3-4.7l-1.1-0.9l0.4-1.3c0.8-2.4-2-6.2-3.6-7.9l-24.6-4.2l-11,8.1
						c4.2,1,10.8-1.7,13.2-3l0.7-0.4l15,4.3l-26,20.1c-1.6,2.4,1.5,6.2,1.6,6.2l0.9,1.1l-0.7,1.2c-1.3,2.2,2.5,5.6,2.6,5.6l0.9,0.8
						l-0.3,1.2c-0.8,3.3,1,4.5,2,4.9l20.1-2.4l0.2,2C1021.3,705.8,1025.1,709.8,1026.3,711.1z"/>
				</g>
			</g>
		</g>
	</g>
	<g id="Table_1_">
		<g>
			<rect x="888.4" y="765.9" class="st1" width="25.1" height="334.3"/>
			<path d="M915.5,1102.1h-29.1V763.9h29.1V1102.1z M890.4,1098.1h21.1V767.9h-21.1V1098.1z"/>
		</g>
		<g>
			<g>
				<rect x="650.4" y="750.5" class="st1" width="499.1" height="24.2"/>
			</g>
			<g>
				<path d="M1151.5,776.7H648.4v-28.2h503.1V776.7z M652.4,772.7h495.1v-20.2H652.4V772.7z"/>
			</g>
		</g>
		<g>
			<path d="M854.8,1106h93.1l0,0c0-15.4-12.5-27.9-27.9-27.9h-37.2C867.3,1078.1,854.8,1090.6,854.8,1106L854.8,1106z"/>
		</g>
	</g>
	<g id="Woman_4_">
		<g>
			<g>
				<polygon class="st1" points="613.9,1048.5 624.9,1085.9 585.9,1085.9 574.9,1048.5 				"/>
			</g>
			<g>
				<path d="M627.5,1087.9h-43.1l-12.2-41.4h43.1L627.5,1087.9z M587.4,1083.9h34.8l-9.8-33.4h-34.8L587.4,1083.9z"/>
			</g>
		</g>
		<g>
			<path d="M582.9,1073.7c0,0,21.2,16.1,39,0l52.8,27.5c2.3,1.2,1.5,4.7-1.2,4.7h-93.3c-2.9,0-5.1-2.8-4.3-5.6L582.9,1073.7z"/>
		</g>
		<g>
			<g>
				<polygon class="st1" points="417.9,1048.5 416.9,1085.9 377.9,1085.9 378.9,1048.5 				"/>
			</g>
			<g>
				<path d="M418.8,1087.9h-43l1.1-41.4h43L418.8,1087.9z M379.9,1083.9h35l0.9-33.4h-35L379.9,1083.9z"/>
			</g>
		</g>
		<g>
			<path d="M376.9,1073.7c0,0,21.2,16.1,39,0l52.8,27.5c2.3,1.2,1.5,4.7-1.2,4.7h-93.3c-2.9,0-5.1-2.8-4.3-5.6L376.9,1073.7z"/>
		</g>
		<g>
			<polygon points="628.7,1055.5 562.7,1055.5 391.1,613.2 496.7,613.2 553.7,759.5 			"/>
		</g>
		<g>
			<path class="st2" d="M452.2,609c0,3,10,180,10,180l-30,267h-65l5-261l-19-179L452.2,609z"/>
		</g>
		<g>
			<path class="st0" d="M733.2,297.4c0,10.8-8.8,19.6-19.6,19.6c-10.8,0-19.6-8.8-19.6-19.6h-41v31.7c-10.8,0-19.6,8.8-19.6,19.6
				c0,10.8,8.8,19.6,19.6,19.6v41h107.1V297.4H733.2z"/>
		</g>
		<g>
			<path class="st1" d="M597.4,439.6l31.7,44.7L691,408l39-4l13-14.9c0,0,5.6-12.1,14-9.3l-3.7,13c0,0,8.4-10.2,14.9-6.5l-6.5,15.8
				l-21.4,24.2l-36.3,8.4c0,0-57.6,107.2-76.9,107.2c-15,0-45.4-34.2-56-46c-16.8-18.9-20-24-20-24L597.4,439.6z"/>
			<path d="M627,544c-14.3,0-39.6-26.6-57.5-46.7c-16.7-18.8-20.1-24.1-20.2-24.3l-1-1.6l49.6-34.6l31.3,44.2l60.8-74.9l39-4
				l12.3-14.1c1-2,7-13.2,16.3-10.1l1.8,0.6l-2.3,8c3.4-2.4,7.9-4.3,12-2l1.5,0.9l-7.3,17.8l-22.1,24.9l-36.1,8.3
				c-2.5,4.7-15.8,28.9-30.9,52.9C640.2,544,630.3,544,627,544z M553.8,472.5c2,2.7,7.1,9.1,18.7,22.2
				c26.8,30.1,45.1,45.3,54.5,45.3c4.1,0,15.3-6.8,44-52.7c16.6-26.4,31-53.2,31.1-53.5l0.4-0.8l36.6-8.4l20.8-23.5l5.6-13.5
				c-4.7-0.5-10.6,6.5-10.7,6.6l-6.1,7.5l5.8-20.2c-5.6,0.1-9.6,8.5-9.6,8.6l-0.1,0.3l-0.2,0.2L731,405.9l-38.9,4L629,487.6
				l-32-45.2L553.8,472.5z"/>
		</g>
		<g>
			<path d="M555,390c-10.1-13.7,7.8-50.2,10-67c7-52.6-51.3-48.4-51.3-48.4C467,270,456.6,309.7,452,328c-9,36-25,40-38,50
				s-32,43-11,61c9.6,8.2,126.5,28.4,146,22C571.3,453.6,565.1,403.7,555,390z"/>
		</g>
		<g>
			<g>
				<path class="st1" d="M466.7,399.8l20.3-44.9c0,0-15.9-30.4,5.1-27.5c0,0,41.2,5.8,49.2-23.1c0,0,27.5,78.9-24.6,72.3l-1.4,33.3
					L466.7,399.8z"/>
			</g>
			<g>
				<path d="M517.1,412.4l-53.2-11.1l20.9-46.2c-2-4.1-8.8-18.9-3.7-26c2.2-3.1,5.9-4.2,11.3-3.5c0.4,0.1,39.6,5.2,47-21.7l1.7-6.2
					l2.1,6.1c0.7,1.9,16.1,46.9,0.2,66.5c-5.4,6.7-13.8,9.6-24.8,8.7L517.1,412.4z M469.6,398.4l43.7,9.1l1.4-33.1l2.2,0.3
					c10.7,1.3,18.5-1,23.4-7c11.4-14.1,4.3-44.7,0.8-57.2c-11.7,23.9-48.9,19-49.3,19c-3.7-0.5-6.2,0.1-7.5,1.8
					c-3.1,4.4,1.1,16.3,4.5,22.7l0.5,0.9L469.6,398.4z"/>
			</g>
		</g>
		<g>
			<g>
				<path class="st4" d="M475.8,381.3c0,0,32.6,32.6,47.5,0.9l45.3,18.4c6.3,2.5,11.6,7,15.3,12.6l35.3,54.6l-42.8,44.7l-19.6-20.5
					l-47.5,140.6c0,0-62.7-4.1-80.3,5.3c-49,26-88.2-5.3-88.2-5.3l69.8-157.4h-51.2l30.4-67.2c5.9-13.1,18.5-22,32.8-23.1
					L475.8,381.3z"/>
				<path d="M389,650.3c-8.9,0-16.8-1.4-23.1-3.3c-16.1-4.6-26-12.4-26.4-12.8l-1.2-1l69.2-156h-51.2l31.7-70
					c6.2-13.8,19.4-23.1,34.5-24.3l54.1-3.8l0.6,0.6c0.2,0.2,16.6,16.4,30.5,13.9c5.7-1,10.4-5.2,13.8-12.4l0.8-1.7l47.1,19.1
					c6.7,2.7,12.3,7.3,16.2,13.4l36.2,55.9l-45.4,47.3l-18.7-19.6l-46.9,138.9l-1.5-0.1c-0.6,0-62.3-3.9-79.2,5.1
					C415.1,647.7,401.1,650.3,389,650.3z M343.3,632c7,4.8,42.3,26.7,84.8,4.2c16.6-8.8,69.9-6.2,79.8-5.6L556,488.3l20.4,21.4
					l40.3-42l-34.5-53.3c-3.5-5.4-8.4-9.5-14.3-11.9l-43.6-17.7c-3.9,7.5-9.3,11.8-15.9,13c-14.4,2.5-29.9-11.2-33.3-14.4l-52.2,3.6
					c-13.6,1.1-25.5,9.5-31.2,21.9l-29.1,64.4h51.2L343.3,632z"/>
			</g>
		</g>
		<g>
			<path class="st0" d="M503.6,538.3c10,4.2,21.4-0.5,25.6-10.4c4.2-10-0.5-21.4-10.4-25.6l14.1-33.5l-29.2-12.3
				c4.2-10-0.5-21.4-10.4-25.6c-10-4.2-21.4,0.5-25.6,10.4L430,425.4L388.4,524l103,43.4L503.6,538.3z"/>
		</g>
		<g>
			<g>
				<path class="st1" d="M416.7,460.9l-24.2,61.5l53.1,12.1l22.3-18.6l17.7-0.9c0,0-4.7,9.3-10.2,12.1l-10.2,11.2h25.1l19.6-14
					c0,0,6.5,0.9,5.6,5.6c0,0,7,1.4,4.2,7.9c0,0,3.7,0.9,1.9,5.6l-22.3,18.6l-38.2,5.6l-19.1-6.1l-87.6-4.3
					c-12.3-0.6-20.4-13.1-15.9-24.6l29.6-75.8L416.7,460.9z"/>
			</g>
			<g>
				<path d="M460.7,569.6l-19.3-6.1l-87.4-4.3c-6.5-0.3-12.3-3.7-15.8-9.1s-4.2-12.1-1.8-18.2l30.1-77.2l53,4.5l-24.3,61.8
					l49.8,11.4l22.1-18.4l21.8-1.1l-1.5,3.1c-0.2,0.4-4.8,9.6-10.8,12.8l-6.9,7.6h20l19.7-14.1l0.8,0.1c0.4,0.1,4.4,0.7,6.4,3.4
					c0.6,0.8,0.9,1.7,1,2.7c1.3,0.5,3.1,1.6,4.1,3.5c0.6,1.1,1,2.7,0.5,4.9c0.5,0.4,1,0.9,1.4,1.7c0.8,1.6,0.8,3.5-0.1,5.6l-0.2,0.5
					l-23.2,19.3L460.7,569.6z M369.1,458.9l-29,74.4c-1.9,4.9-1.4,10.2,1.5,14.6c2.8,4.4,7.5,7.1,12.7,7.3l87.9,4.4l18.9,6l37.2-5.4
					l21.5-17.9c0.3-0.8,0.3-1.4,0.1-1.8c-0.2-0.4-0.7-0.6-0.7-0.6l-2.3-0.6l0.9-2.2c0.6-1.3,0.6-2.4,0.2-3.2c-0.6-1.2-2.4-1.8-3-2
					l-1.9-0.4l0.4-1.9c0.1-0.7,0-1.1-0.2-1.4c-0.6-0.9-2-1.4-2.9-1.6l-19.4,13.8h-30.3l13.6-14.8l0.3-0.2c2.9-1.4,5.7-5.2,7.6-8.1
					l-13.4,0.7L446,536.7l-56.3-12.8l24.1-61.1L369.1,458.9z"/>
			</g>
		</g>
	</g>
	<g id="Floor_4_">
		<g>
			<rect x="79" y="1105" width="1416" height="4"/>
		</g>
	</g>
</g>
<g id="_x34_">
</g>
<g id="_x33_">
</g>
<g id="_x32_">
</g>
<g id="_x31_">
</g>
</svg>
