<?xml version="1.0" encoding="utf-8"?>
<!-- Generator: Adobe Illustrator 24.2.0, SVG Export Plug-In . SVG Version: 6.00 Build 0)  -->
<svg version="1.1" xmlns="http://www.w3.org/2000/svg" xmlns:xlink="http://www.w3.org/1999/xlink" x="0px" y="0px"
	 viewBox="0 0 1600 1200" style="enable-background:new 0 0 1600 1200;" xml:space="preserve">
<style type="text/css">
	.st0{fill:#FEE300;}
	.st1{fill:#FAFBFD;}
	.st2{fill:#2F2E40;}
	.st3{fill:#29DBBA;}
	.st4{fill:#FFFFFF;}
	.st5{fill:#FEE200;}
	.st6{fill:#010204;}
</style>
<g id="_x31_2">
	<g id="Enviroment_2_">
		<g>
			<polygon points="417,269 407,269 407,259 403,259 403,269 393,269 393,273 403,273 403,283 407,283 407,273 417,273 			"/>
		</g>
		<g>
			<polygon points="163,452 153,452 153,442 149,442 149,452 139,452 139,456 149,456 149,466 153,466 153,456 163,456 			"/>
		</g>
		<g>
			<polygon points="1297,603 1287,603 1287,593 1283,593 1283,603 1273,603 1273,607 1283,607 1283,617 1287,617 1287,607 1297,607 
							"/>
		</g>
		<g>
			<path d="M1326,566c-7.7,0-14-6.3-14-14s6.3-14,14-14s14,6.3,14,14S1333.7,566,1326,566z M1326,542c-5.5,0-10,4.5-10,10
				s4.5,10,10,10s10-4.5,10-10S1331.5,542,1326,542z"/>
		</g>
		<g>
			<path d="M90.6,870.1c-0.4,0-0.6,0-0.6,0l0.3-4c0.7,0,17,0.8,20.2-16.9c3.9-21.5,24.6-18,24.8-18l-0.7,3.9
				c-0.7-0.1-17-2.8-20.1,14.8C110.9,869.1,94,870.1,90.6,870.1z"/>
		</g>
		<g>
			<path d="M1426.4,810l-4-0.4l2,0.2l-2-0.2c0.1-0.7,1.6-17.1-16.1-19.1c-21.5-2.4-21.8-22.8-21.8-23l4,0c0,0.7,0.3,17,18.2,19.1
				C1428.5,788.9,1426.4,809.8,1426.4,810z"/>
		</g>
	</g>
	<g id="Rocket">
		<g>
			<path class="st0" d="M658,737.9c0,0-158.4,82.4-140.2,177.9c9.1,47.8,44,189.6,44,189.6h14.4c0,0-27-147.4,105.1-184.2L658,737.9
				z"/>
		</g>
		<g>
			<path class="st0" d="M919.9,737.9c0,0,158.4,82.4,140.2,177.9c-9.1,47.8-44,189.6-44,189.6h-14.4c0,0,27-147.4-105.1-184.2
				L919.9,737.9z"/>
		</g>
		<g>
			<g>
				<g>
					<path class="st1" d="M905.3,933.8c-4.1,14.8-8.6,29.7-13.5,44.8c-0.9,2.8-3.5,4.7-6.4,4.7H784.3v-0.4h-95.7
						c-2.9,0-5.5-1.9-6.4-4.7c-4.8-14.9-9.3-29.6-13.3-44.3c-65.7-239.6-24.9-451.5,26-594.9c1-2.7,2-5.5,2.9-8.1c0.4-1,0.7-2,1.1-3
						c3.1-8.4,6.2-16.5,9.3-24.3c0.5-1.2,1-2.4,1.4-3.7c1-2.5,2-5,3-7.5c0.8-2.1,1.7-4.1,2.5-6.1c1.4-3.3,2.7-6.5,4.1-9.6
						c0.6-1.3,1.1-2.6,1.7-3.9c0.2-0.5,0.4-1,0.6-1.4c0.5-1.1,1-2.3,1.5-3.4c7.6-17.3,15-32.9,21.9-46.7c0.7-1.4,1.4-2.8,2.1-4.2
						c0.9-1.8,1.8-3.5,2.6-5.1c0.4-0.8,0.9-1.7,1.3-2.5c3.4-6.6,6.7-12.8,9.8-18.4c0.3-0.5,0.6-1,0.9-1.6c0.9-1.5,1.7-3,2.5-4.5
						c0,0,0,0,0,0c0.7-1.3,1.5-2.6,2.2-3.8c0,0,0,0,0-0.1c0.7-1.2,1.4-2.4,2-3.6c0.3-0.6,0.7-1.2,1-1.7c0.5-0.9,1-1.7,1.5-2.5
						c0.5-0.8,1-1.6,1.4-2.4c0.6-1.1,1.2-2.1,1.8-3c0.3-0.4,0.5-0.9,0.8-1.3c0,0,0-0.1,0.1-0.1c0.4-0.6,0.7-1.2,1.1-1.8
						c0.2-0.3,0.4-0.6,0.6-0.9c0.3-0.4,0.5-0.9,0.8-1.3c4.5-7.4,15.1-7.5,19.8-0.2c0.8,1.3,1.7,2.7,2.6,4.1c0.5,0.7,0.9,1.5,1.4,2.3
						c2.8,4.5,6,9.7,9.4,15.6c0.2,0.4,0.5,0.8,0.7,1.3c1,1.7,2,3.4,3,5.2c0.3,0.4,0.5,0.9,0.8,1.3c0.8,1.4,1.6,2.8,2.4,4.2
						c0.5,0.9,1.1,1.9,1.6,2.9c0.8,1.5,1.6,2.9,2.5,4.5c0.6,1,1.1,2,1.7,3.1c0.3,0.5,0.6,1,0.9,1.6c0.9,1.6,1.7,3.2,2.6,4.8
						c0.3,0.5,0.6,1.1,0.9,1.6c0.3,0.5,0.6,1.1,0.9,1.7c0.6,1.1,1.2,2.2,1.8,3.4c0.9,1.7,1.8,3.4,2.7,5.2c0.6,1.2,1.2,2.3,1.8,3.5
						c0.3,0.6,0.6,1.2,1,1.9c0.3,0.6,0.6,1.2,0.9,1.8c8.6,17.1,17.7,36.5,26.8,58.1c0.4,1,0.8,1.9,1.2,2.9
						c3.2,7.6,6.4,15.5,9.5,23.6c0.4,1,0.8,2,1.1,3c0.5,1.3,1,2.6,1.5,4c0.4,1.1,0.8,2.1,1.2,3.2c1.6,4.3,3.2,8.6,4.8,13
						C933.7,480.8,973,689.8,905.3,933.8z"/>
				</g>
			</g>
			<g>
				<g>
					<path d="M885.4,985.3H782.3v-0.4h-93.7c-3.8,0-7.2-2.4-8.3-6c-4.8-14.8-9.3-29.8-13.3-44.4c-29.8-108.6-40.2-221.1-30.8-334.2
						c7.3-88,26.4-176.1,56.8-261.9c1-2.7,2-5.5,2.9-8.2l1.1-3c3-8,6.1-16.2,9.3-24.4l0.3-0.8c0.4-1,0.8-1.9,1.1-2.9
						c1-2.5,2-5,3-7.5c0.8-2.1,1.7-4.1,2.5-6.1c1.4-3.3,2.7-6.5,4.1-9.7l1.7-3.9c0.2-0.4,0.3-0.8,0.5-1.2l0.1-0.3
						c0.5-1.1,1-2.3,1.5-3.4c7-16,14.4-31.7,21.9-46.8l2.1-4.2c0.9-1.8,1.8-3.5,2.6-5.2c0.4-0.8,0.9-1.7,1.3-2.5
						c3.3-6.3,6.6-12.5,9.8-18.4l0.3-0.6c0.2-0.3,0.4-0.7,0.5-1c0.9-1.5,1.7-3,2.5-4.5l0-0.1c0.6-1.1,1.3-2.3,1.9-3.4v-0.3l0.4-0.4
						c0.7-1.2,1.3-2.3,1.9-3.4l0.3-0.5c0.2-0.4,0.5-0.9,0.7-1.3c0.3-0.5,0.5-0.9,0.8-1.4l2.1-3.5c0.5-0.9,1-1.8,1.5-2.6l0.3-0.5
						c0.2-0.4,0.5-0.8,0.7-1.2l0.1-0.1c0-0.1,0.1-0.2,0.1-0.2c0.4-0.6,0.7-1.1,1-1.7c0.2-0.3,0.4-0.6,0.6-0.9l0.8-1.3
						c2.5-4,6.8-6.5,11.5-6.5c4.7,0,9.1,2.3,11.7,6.3c0.8,1.3,1.7,2.7,2.6,4.1c0.5,0.7,0.9,1.5,1.4,2.3c3.1,5,6.3,10.3,9.5,15.6
						l0.2,0.4c0.2,0.3,0.3,0.6,0.5,0.9c1,1.7,2,3.4,3,5.2c0.1,0.2,0.3,0.5,0.4,0.8l0.6,1c0.7,1.2,1.4,2.5,2.1,3.8
						c0.5,0.9,1.1,1.9,1.6,2.9c0.8,1.5,1.6,3,2.5,4.5l0.5,0.9c0.4,0.7,0.8,1.5,1.2,2.2c0.3,0.5,0.6,1,0.9,1.6l0.3,0.6
						c0.7,1.4,1.5,2.8,2.3,4.2l0.2,0.4c0.2,0.4,0.4,0.8,0.6,1.2l2.7,5c0.9,1.7,1.8,3.4,2.7,5.2l1.8,3.5c0.3,0.6,0.6,1.3,1,1.9
						l0.9,1.8c9.5,18.7,18.5,38.3,26.9,58.2l0.6,1.4c0.2,0.5,0.4,1,0.6,1.5c3.3,7.9,6.5,15.8,9.5,23.6l1.4,3.5
						c0.4,1.1,0.9,2.3,1.3,3.4c0.4,1.1,0.8,2.1,1.2,3.2c1.7,4.6,3.3,8.9,4.8,13c30.3,84.1,49.1,171.3,55.9,259.2
						c8.6,112.4-2.5,225.6-33.3,336.4l0,0c-4.1,14.9-8.7,30-13.5,44.8C892.6,982.8,889.2,985.3,885.4,985.3z M786.3,981.3h99.1
						c2.1,0,3.9-1.3,4.5-3.3c4.8-14.8,9.4-29.8,13.5-44.7l0,0c68.7-247.9,25.7-459.4-22.5-593.2c-1.5-4.1-3-8.4-4.8-13
						c-0.4-1.1-0.8-2.1-1.2-3.2c-0.4-1.1-0.9-2.3-1.3-3.4l-1.4-3.5c-3-7.8-6.2-15.7-9.5-23.5c-0.2-0.5-0.4-1-0.6-1.5l-0.6-1.4
						c-8.4-19.8-17.4-39.3-26.8-58l-0.9-1.8c-0.3-0.6-0.6-1.3-1-1.9l-1.8-3.5c-0.9-1.8-1.8-3.5-2.7-5.2l-1.8-3.4
						c-0.1-0.3-0.3-0.6-0.5-0.9l-0.4-0.8c-0.2-0.4-0.4-0.8-0.6-1.2l-0.2-0.4c-0.8-1.4-1.5-2.8-2.2-4.2l-0.3-0.6
						c-0.3-0.5-0.6-1-0.8-1.5c-0.4-0.8-0.8-1.5-1.2-2.2l-0.5-0.9c-0.8-1.5-1.7-3-2.5-4.5c-0.5-1-1.1-1.9-1.6-2.9
						c-0.7-1.3-1.4-2.5-2.1-3.7l-0.6-1c-0.1-0.2-0.3-0.5-0.4-0.7c-1-1.8-2.1-3.6-3-5.2c-0.2-0.3-0.3-0.6-0.5-0.8l-0.2-0.4
						c-3.1-5.3-6.3-10.5-9.4-15.5c-0.5-0.8-1-1.5-1.4-2.3c-0.9-1.4-1.8-2.8-2.6-4.1c-1.8-2.8-4.8-4.5-8.1-4.5c0,0-0.1,0-0.1,0
						c-3.3,0-6.4,1.8-8.1,4.6l-0.8,1.3c-0.2,0.3-0.4,0.6-0.6,1c-0.3,0.6-0.7,1.2-1.1,1.8l-0.1,0.2c-0.2,0.4-0.5,0.8-0.7,1.2
						l-0.3,0.5c-0.5,0.8-1,1.7-1.5,2.6l-2.1,3.5c-0.3,0.5-0.5,0.9-0.8,1.4c-0.2,0.4-0.5,0.8-0.7,1.3l-0.3,0.5
						c-0.6,1-1.2,2.1-1.8,3.2v0l-0.3,0.5c-0.7,1.2-1.4,2.5-2.1,3.8l-0.1,0.2c-0.8,1.5-1.6,2.9-2.5,4.4c-0.2,0.3-0.4,0.6-0.5,1
						l-0.3,0.6c-3.2,5.9-6.5,12-9.8,18.3c-0.4,0.8-0.9,1.7-1.3,2.5c-0.9,1.7-1.7,3.4-2.6,5.1l-2.1,4.2c-7.5,15-14.9,30.7-21.8,46.6
						c-0.5,1.1-1,2.2-1.5,3.4l-0.1,0.3c-0.2,0.4-0.3,0.8-0.5,1.2l-1.7,3.9c-1.3,3.2-2.7,6.4-4.1,9.6c-0.8,2-1.7,4-2.5,6.1
						c-1,2.4-2,4.9-3,7.4c-0.4,0.9-0.8,1.9-1.1,2.8l-0.3,0.8c-3.2,8.1-6.3,16.3-9.3,24.3l-1.1,3c-1,2.7-2,5.4-2.9,8.1
						c-48.6,136.9-92.5,351.1-26,593.7c4,14.6,8.5,29.5,13.3,44.2c0.6,2,2.5,3.3,4.5,3.3h97.7V981.3z"/>
				</g>
			</g>
		</g>
		<g>
			<g>
				<path class="st0" d="M882.8,339.4c-27.7-1.8-78.4-5-99.4-5c-18.5,0-61.3,2.7-88.6,4.6c1-2.7,2-5.5,2.9-8.1c0.4-1,0.7-2,1.1-3
					c3.1-8.4,6.2-16.5,9.3-24.3c0.5-1.2,1-2.4,1.4-3.7c1-2.5,2-5,3-7.5c0.8-2.1,1.7-4.1,2.5-6.1c1.4-3.3,2.7-6.5,4.1-9.6
					c0.6-1.3,1.1-2.6,1.7-3.9c0.2-0.5,0.4-1,0.6-1.4c0.5-1.1,1-2.3,1.5-3.4c7.6-17.3,15-32.9,21.9-46.7c0.7-1.4,1.4-2.8,2.1-4.2
					c0.9-1.8,1.8-3.5,2.6-5.1c0.4-0.8,0.9-1.7,1.3-2.5c3.4-6.6,6.7-12.8,9.8-18.4c0.3-0.5,0.6-1,0.9-1.6c0.8-1.5,1.7-3,2.5-4.5
					c0,0,0,0,0,0c0.7-1.3,1.4-2.6,2.2-3.8c0,0,0,0,0-0.1c0.7-1.2,1.4-2.4,2-3.6c0.3-0.6,0.7-1.2,1-1.7c0.5-0.9,1-1.7,1.5-2.5
					c0.5-0.8,1-1.6,1.4-2.4c0.6-1.1,1.2-2.1,1.8-3c0.3-0.4,0.5-0.9,0.8-1.3c0,0,0-0.1,0.1-0.1c0.4-0.6,0.7-1.2,1.1-1.8
					c0.2-0.3,0.4-0.6,0.6-0.9c0.3-0.4,0.5-0.9,0.8-1.3c4.5-7.4,15.1-7.5,19.8-0.2c0.8,1.3,1.7,2.7,2.6,4.1c0.5,0.7,0.9,1.5,1.4,2.3
					c2.8,4.5,6,9.7,9.4,15.6c0.2,0.4,0.5,0.8,0.7,1.3c1,1.7,2,3.4,3,5.2c0.3,0.4,0.5,0.9,0.8,1.3c0.8,1.4,1.6,2.8,2.4,4.2
					c0.5,0.9,1.1,1.9,1.6,2.9c0.8,1.5,1.6,2.9,2.5,4.5c0.6,1,1.1,2,1.7,3.1c0.3,0.5,0.6,1,0.9,1.6c0.9,1.6,1.7,3.2,2.6,4.8
					c0.3,0.5,0.6,1.1,0.9,1.6c0.3,0.5,0.6,1.1,0.9,1.7c0.6,1.1,1.2,2.2,1.8,3.4c0.9,1.7,1.8,3.4,2.7,5.2c0.6,1.2,1.2,2.3,1.8,3.5
					c0.3,0.6,0.6,1.2,1,1.9c0.3,0.6,0.6,1.2,0.9,1.8c8.6,17.1,17.7,36.5,26.8,58.1c0.4,1,0.8,1.9,1.2,2.9c3.2,7.6,6.4,15.5,9.5,23.6
					c0.4,1,0.8,2,1.1,3c0.5,1.3,1,2.6,1.5,4c0.4,1.1,0.8,2.1,1.2,3.2C879.6,330.7,881.2,335,882.8,339.4z"/>
			</g>
			<g>
				<path d="M885.7,341.6l-3-0.2c-28.2-1.9-78.6-5-99.2-5c-17.8,0-57.9,2.5-88.4,4.6l-3,0.2l1-2.9c1-2.7,2-5.5,2.9-8.2l1.1-3
					c3-8,6.1-16.2,9.3-24.4l0.3-0.8c0.4-1,0.8-1.9,1.1-2.9c1-2.5,2-5,3-7.5c0.8-2.1,1.7-4.1,2.5-6.1c1.4-3.3,2.7-6.5,4.1-9.7
					l1.7-3.9c0.2-0.4,0.3-0.8,0.5-1.2l0.1-0.3c0.5-1.1,1-2.3,1.5-3.4c7-16,14.4-31.7,21.9-46.8l2.1-4.2c0.9-1.8,1.8-3.5,2.6-5.2
					c0.4-0.8,0.9-1.7,1.3-2.5c3.3-6.3,6.6-12.5,9.8-18.4l0.3-0.6c0.2-0.3,0.4-0.7,0.5-1c0.8-1.5,1.7-3,2.5-4.5l0.1-0.1
					c0.6-1.1,1.3-2.3,1.9-3.4v-0.3l0.4-0.4c0.7-1.2,1.3-2.3,1.9-3.4l0.3-0.5c0.2-0.4,0.5-0.9,0.7-1.3c0.3-0.5,0.5-0.9,0.8-1.4
					l2.1-3.5c0.5-0.9,1-1.8,1.5-2.6l0.3-0.5c0.2-0.4,0.5-0.8,0.7-1.2l0.1-0.1c0-0.1,0.1-0.2,0.1-0.2c0.4-0.6,0.7-1.1,1-1.7
					c0.2-0.3,0.4-0.6,0.6-0.9l0.8-1.3c2.5-4,6.8-6.5,11.5-6.5c4.7,0,9.1,2.3,11.7,6.3c0.8,1.3,1.7,2.7,2.6,4.1
					c0.5,0.7,0.9,1.5,1.4,2.3c3.1,5,6.3,10.3,9.5,15.6l0.2,0.4c0.2,0.3,0.3,0.6,0.5,0.9c1,1.7,2,3.4,3,5.2c0.1,0.2,0.3,0.5,0.4,0.8
					l0.6,1c0.7,1.2,1.4,2.5,2.1,3.8l1.6,2.9c0.8,1.5,1.7,3,2.5,4.5l0.5,0.9c0.4,0.7,0.8,1.5,1.2,2.2c0.3,0.5,0.6,1,0.9,1.6
					c0.8,1.6,1.7,3.2,2.6,4.8l0.2,0.4c0.2,0.4,0.4,0.8,0.6,1.2l2.7,5c0.9,1.7,1.8,3.4,2.7,5.2l1.8,3.5c0.3,0.6,0.6,1.3,1,1.9
					l0.9,1.8c9.5,18.7,18.5,38.3,26.9,58.2l0.6,1.4c0.2,0.5,0.4,1,0.6,1.5c3.3,7.9,6.5,15.8,9.5,23.6l1.4,3.5
					c0.4,1.1,0.9,2.3,1.3,3.4c0.4,1.1,0.8,2.1,1.2,3.2c1.7,4.6,3.3,8.9,4.8,13L885.7,341.6z M783.4,332.4c20,0,67.7,2.9,96.5,4.8
					c-1.2-3.2-2.4-6.6-3.7-10.1c-0.4-1.1-0.8-2.1-1.2-3.2c-0.4-1.1-0.9-2.3-1.3-3.4l-1.4-3.5c-3-7.8-6.2-15.7-9.5-23.5
					c-0.2-0.5-0.4-1-0.6-1.5l-0.6-1.4c-8.4-19.8-17.4-39.3-26.8-58l-0.9-1.8c-0.3-0.6-0.6-1.3-1-1.9l-1.8-3.5
					c-0.9-1.8-1.8-3.5-2.7-5.2l-1.8-3.4c-0.1-0.3-0.3-0.6-0.5-0.9l-0.4-0.8c-0.2-0.4-0.4-0.8-0.6-1.2l-0.2-0.4
					c-0.9-1.6-1.7-3.2-2.6-4.8c-0.3-0.5-0.6-1-0.8-1.5c-0.4-0.8-0.8-1.5-1.2-2.2l-0.5-0.9c-0.8-1.5-1.7-3-2.5-4.5l-1.6-2.9
					c-0.7-1.3-1.4-2.5-2.1-3.7l-0.6-1c-0.1-0.2-0.3-0.5-0.4-0.7c-1-1.8-2.1-3.6-3-5.2c-0.2-0.3-0.3-0.6-0.5-0.8l-0.2-0.4
					c-3.1-5.3-6.3-10.5-9.4-15.5c-0.5-0.8-1-1.5-1.4-2.3c-0.9-1.4-1.8-2.8-2.6-4.1c-1.8-2.8-4.8-4.5-8.1-4.5c0,0-0.1,0-0.1,0
					c-3.3,0-6.4,1.8-8.1,4.6l-0.8,1.3c-0.2,0.3-0.4,0.6-0.6,1c-0.3,0.6-0.7,1.2-1.1,1.8l-0.1,0.2c-0.2,0.4-0.5,0.8-0.7,1.2l-0.3,0.5
					c-0.5,0.8-1,1.7-1.5,2.6l-2.1,3.5c-0.3,0.5-0.5,0.9-0.8,1.4c-0.2,0.4-0.5,0.8-0.7,1.3l-0.3,0.5c-0.6,1-1.2,2.1-1.8,3.2v0
					l-0.3,0.5c-0.7,1.2-1.4,2.5-2.1,3.8l-0.1,0.1c-0.8,1.4-1.6,2.9-2.5,4.5c-0.2,0.3-0.4,0.6-0.5,1l-0.3,0.6
					c-3.2,5.9-6.5,12-9.8,18.3c-0.4,0.8-0.9,1.7-1.3,2.5c-0.9,1.7-1.7,3.4-2.6,5.1l-2.1,4.2c-7.5,15-14.9,30.7-21.8,46.6
					c-0.5,1.1-1,2.2-1.5,3.4l-0.1,0.3c-0.2,0.4-0.3,0.8-0.5,1.2l-1.7,3.9c-1.3,3.2-2.7,6.4-4.1,9.6c-0.8,2-1.7,4-2.5,6.1
					c-1,2.4-2,4.9-3,7.4c-0.4,0.9-0.7,1.9-1.1,2.8l-0.3,0.8c-3.2,8.1-6.3,16.3-9.3,24.3l-1.1,3c-0.6,1.7-1.3,3.5-1.9,5.3
					C727.9,334.7,766.1,332.4,783.4,332.4z"/>
			</g>
		</g>
		<g>
			<circle cx="788.8" cy="347.4" r="4"/>
		</g>
		<g>
			<circle cx="817.6" cy="347.4" r="4"/>
		</g>
		<g>
			<circle cx="846.3" cy="349.2" r="4"/>
		</g>
		<g>
			<circle cx="875.1" cy="351.9" r="4"/>
		</g>
		<g>
			<circle cx="760.9" cy="347.4" r="4"/>
		</g>
		<g>
			<circle cx="732.2" cy="349.2" r="4"/>
		</g>
		<g>
			<circle cx="703.4" cy="351.9" r="4"/>
		</g>
		<g>
			<g>
				<path class="st1" d="M692.2,975.2v7.7c0,10.6,8.6,19.2,19.2,19.2h151.2c10.6,0,19.2-8.6,19.2-19.2v-7.7H692.2z"/>
			</g>
			<g>
				<path d="M862.6,1004.1H711.4c-11.7,0-21.2-9.5-21.2-21.2v-9.7h193.6v9.7C883.8,994.6,874.3,1004.1,862.6,1004.1z M694.2,977.2
					v5.7c0,9.5,7.7,17.2,17.2,17.2h151.2c9.5,0,17.2-7.7,17.2-17.2v-5.7H694.2z"/>
			</g>
		</g>
		<g>
			<g>
				<path class="st0" d="M905.3,933.8c-4.1,14.8-8.6,29.7-13.5,44.8c-0.9,2.8-3.5,4.7-6.4,4.7H784.3v-0.4h-95.7
					c-2.9,0-5.5-1.9-6.4-4.7c-4.8-14.9-9.3-29.6-13.3-44.3H905.3z"/>
			</g>
			<g>
				<path d="M885.4,985.3H782.3v-0.4h-93.7c-3.8,0-7.2-2.4-8.3-6c-4.8-14.8-9.3-29.8-13.3-44.4l-0.7-2.5H908l-0.7,2.5
					c-4.1,14.9-8.7,30-13.5,44.8C892.6,982.8,889.2,985.3,885.4,985.3z M786.3,981.3h99.1c2.1,0,3.9-1.3,4.5-3.3
					c4.5-13.9,8.8-28.1,12.8-42.1H671.5c3.8,13.8,8,27.8,12.6,41.7c0.6,2,2.5,3.3,4.5,3.3h97.7V981.3z"/>
			</g>
		</g>
		<g>
			<path d="M760.6,929.4L760.6,929.4c-3,0-5.4-2.4-5.4-5.4v0c0-3,2.4-5.4,5.4-5.4l0,0c3,0,5.4,2.4,5.4,5.4v0
				C766,926.9,763.6,929.4,760.6,929.4z"/>
		</g>
		<g>
			<g>
				<path class="st1" d="M791.9,1105.5h-9.9l-9.5-340.2c-0.2-8.1,6.3-14.8,14.4-14.8l0,0c8.1,0,14.6,6.7,14.4,14.8L791.9,1105.5z"/>
			</g>
			<g>
				<path d="M793.9,1107.5h-13.8l-0.1-1.9l-9.5-340.2c-0.1-4.5,1.5-8.7,4.6-11.9c3.1-3.2,7.3-5,11.8-5s8.7,1.8,11.8,5
					c3.1,3.2,4.8,7.4,4.6,11.9L793.9,1107.5z M784,1103.5h6l9.4-338.2c0.1-3.4-1.2-6.6-3.5-9c-2.4-2.4-5.5-3.8-8.9-3.8
					s-6.5,1.3-8.9,3.8c-2.4,2.4-3.6,5.6-3.5,9L784,1103.5z"/>
			</g>
		</g>
		<g>
			<path d="M731.8,929.4L731.8,929.4c-3,0-5.4-2.4-5.4-5.4v0c0-3,2.4-5.4,5.4-5.4l0,0c3,0,5.4,2.4,5.4,5.4v0
				C737.2,926.9,734.8,929.4,731.8,929.4z"/>
		</g>
		<g>
			<path d="M703.1,929.4L703.1,929.4c-3,0-5.4-2.4-5.4-5.4v0c0-3,2.4-5.4,5.4-5.4h0c3,0,5.4,2.4,5.4,5.4v0
				C708.5,926.9,706,929.4,703.1,929.4z"/>
		</g>
		<g>
			<path d="M675.2,929.4L675.2,929.4c-3,0-5.4-2.4-5.4-5.4v0c0-3,2.4-5.4,5.4-5.4l0,0c3,0,5.4,2.4,5.4,5.4v0
				C680.6,926.9,678.2,929.4,675.2,929.4z"/>
		</g>
		<g>
			<path d="M899.8,929.4L899.8,929.4c-3,0-5.4-2.4-5.4-5.4v0c0-3,2.4-5.4,5.4-5.4h0c3,0,5.4,2.4,5.4,5.4v0
				C905.2,926.9,902.8,929.4,899.8,929.4z"/>
		</g>
		<g>
			<path d="M871,929.4L871,929.4c-3,0-5.4-2.4-5.4-5.4v0c0-3,2.4-5.4,5.4-5.4l0,0c3,0,5.4,2.4,5.4,5.4v0
				C876.4,926.9,874,929.4,871,929.4z"/>
		</g>
		<g>
			<path d="M842.3,929.4L842.3,929.4c-3,0-5.4-2.4-5.4-5.4v0c0-3,2.4-5.4,5.4-5.4l0,0c3,0,5.4,2.4,5.4,5.4v0
				C847.7,926.9,845.2,929.4,842.3,929.4z"/>
		</g>
		<g>
			<path d="M814.4,929.4L814.4,929.4c-3,0-5.4-2.4-5.4-5.4v0c0-3,2.4-5.4,5.4-5.4l0,0c3,0,5.4,2.4,5.4,5.4v0
				C819.8,926.9,817.4,929.4,814.4,929.4z"/>
		</g>
		<g>
			<g>
				<path class="st0" d="M787.9,656.3c-50.4,0-91.3-41-91.3-91.3c0-50.4,41-91.3,91.3-91.3s91.3,41,91.3,91.3
					C879.2,615.3,838.3,656.3,787.9,656.3z M787.9,493.6c-39.3,0-71.3,32-71.3,71.3s32,71.3,71.3,71.3s71.3-32,71.3-71.3
					S827.2,493.6,787.9,493.6z"/>
			</g>
		</g>
	</g>
	<g id="Lamp_2_">
		<g>
			<g>
				<path class="st1" d="M561.5,376c0-29.9-25.2-54.4-54.8-55.9V320c-0.5,0-0.9,0-1.4,0c-0.5,0-0.9,0-1.4,0v0.1
					c-29.6,1.6-54.8,26-54.8,55.9c0,14.6,6,27.9,15.6,37.8h0c18.3,21.1,19,51,19,51h20.2h2.8h20.2c0,0,0.7-30,19-51h0
					C555.5,403.9,561.5,390.6,561.5,376z"/>
			</g>
			<g>
				<path d="M528.9,466.9h-47.2l0-2c0-0.3-1-29.5-18.5-49.7C452.7,404.4,447,390.4,447,376c0-29.7,24.4-55.2,54.8-57.8V318l2-0.1
					c0.5,0,0.9,0,1.4,0c0.5,0,0.9,0,1.4,0l2,0v0.2c30.4,2.6,54.8,28.1,54.8,57.8c0,14.5-5.7,28.4-16.1,39.2
					c-17.6,20.3-18.5,49.5-18.5,49.7L528.9,466.9z M485.5,462.9H525c0.5-7.1,3.4-31.9,19.4-50.4l0.1-0.1c9.7-10.1,15-23,15-36.5
					c0-28.2-23.7-52.4-52.9-53.9l-1.1-0.1c0,0-0.1,0-0.1,0l-0.1,0l-0.1,0c-0.2,0-0.4,0-0.5,0l-0.7,0.1
					c-29.2,1.5-52.9,25.7-52.9,53.9c0,13.4,5.3,26.4,15,36.5l0.1,0.1C482.1,431,485,455.8,485.5,462.9z"/>
			</g>
		</g>
		<g>
			<g>
				<path class="st1" d="M525.3,461.5H485v31.9h4.4v4.7c0,4.9,4,8.9,8.9,8.9h14.1c4.9,0,8.9-4,8.9-8.9v-4.7h3.9V461.5z"/>
			</g>
			<g>
				<path d="M512.4,509h-14.1c-6,0-10.9-4.9-10.9-10.9v-2.7H483v-35.9h44.3v35.9h-3.9v2.7C523.3,504.1,518.4,509,512.4,509z
					 M487,491.4h4.4v6.7c0,3.8,3.1,6.9,6.9,6.9h14.1c3.8,0,6.9-3.1,6.9-6.9v-6.7h3.9v-27.9H487V491.4z"/>
			</g>
		</g>
		<g>
			<g>
				<path class="st1" d="M481.4,464L481.4,464c0-2.1,1.7-3.7,3.7-3.7h40.8c2.1,0,3.7,1.7,3.7,3.7v0c0,2.1-1.7,3.7-3.7,3.7h-40.8
					C483.1,467.7,481.4,466,481.4,464z"/>
			</g>
			<g>
				<path d="M525.9,469.7h-40.8c-3.2,0-5.7-2.6-5.7-5.7s2.6-5.7,5.7-5.7h40.8c3.2,0,5.7,2.6,5.7,5.7S529.1,469.7,525.9,469.7z
					 M485.2,462.2c-1,0-1.7,0.8-1.7,1.7c0,0.9,0.8,1.7,1.7,1.7h40.8c1,0,1.7-0.8,1.7-1.7c0-1-0.8-1.7-1.7-1.7H485.2z"/>
			</g>
		</g>
		<g>
			<g>
				<path class="st1" d="M481.4,477.7L481.4,477.7c0-2.1,1.7-3.7,3.7-3.7h40.8c2.1,0,3.7,1.7,3.7,3.7l0,0c0,2.1-1.7,3.7-3.7,3.7
					h-40.8C483.1,481.4,481.4,479.8,481.4,477.7z"/>
			</g>
			<g>
				<path d="M525.9,483.4h-40.8c-3.2,0-5.7-2.6-5.7-5.7s2.6-5.7,5.7-5.7h40.8c3.2,0,5.7,2.6,5.7,5.7S529.1,483.4,525.9,483.4z
					 M485.2,476c-1,0-1.7,0.8-1.7,1.7s0.8,1.7,1.7,1.7h40.8c1,0,1.7-0.8,1.7-1.7s-0.8-1.7-1.7-1.7H485.2z"/>
			</g>
		</g>
		<g>
			<g>
				<path class="st1" d="M481.4,491.3L481.4,491.3c0-2.1,1.7-3.7,3.7-3.7h40.8c2.1,0,3.7,1.7,3.7,3.7l0,0c0,2.1-1.7,3.7-3.7,3.7
					h-40.8C483.1,495.1,481.4,493.4,481.4,491.3z"/>
			</g>
			<g>
				<path d="M525.9,497.1h-40.8c-3.2,0-5.7-2.6-5.7-5.7s2.6-5.7,5.7-5.7h40.8c3.2,0,5.7,2.6,5.7,5.7S529.1,497.1,525.9,497.1z
					 M485.2,489.6c-1,0-1.7,0.8-1.7,1.7s0.8,1.7,1.7,1.7h40.8c1,0,1.7-0.8,1.7-1.7s-0.8-1.7-1.7-1.7H485.2z"/>
			</g>
		</g>
	</g>
	<g id="Gear_2_">
		<g>
			<g>
				<g>
					<path class="st1" d="M1262.2,283.2c0-4.9-0.7-9.7-1.9-14.2l9.7-11l-9.1-15.5l-13.8,3.5c-6.7-6.8-15.1-11.8-24.6-14.2l-4.5-13.8
						h-18l-4,13.8c-9.5,2.5-17.9,7.5-24.6,14.3l-14.1-3.6L1148,258l10,11.3c-1.2,4.4-1.8,9.1-1.8,13.8c0,5,0.7,9.8,2,14.4l-9.7,10.1
						l9,15.6l14-2.9c6.6,6.7,14.9,11.6,24.2,14.1l4.7,14.1l18-0.1l4-13.9c9.6-2.4,18.1-7.4,24.8-14.2l14,2.9l9-15.6l-9.7-10.1
						C1261.5,293,1262.2,288.2,1262.2,283.2z M1209,312.6c-16.3,0-29.5-13.2-29.5-29.5s13.2-29.5,29.5-29.5s29.5,13.2,29.5,29.5
						S1225.3,312.6,1209,312.6z"/>
				</g>
			</g>
			<g>
				<g>
					<path d="M1198.8,350.6l-4.8-14.5c-8.7-2.5-16.7-7.2-23.2-13.5l-14.4,3l-10.4-18.2l10-10.4c-1.2-4.5-1.8-9.1-1.8-13.8
						c0-4.5,0.5-9,1.6-13.3l-10.2-11.6l10.6-18l14.5,3.7c6.6-6.5,14.7-11.2,23.6-13.7l4.1-14.2h20.9l4.6,14.2
						c8.9,2.5,17,7.2,23.7,13.7l14.2-3.6l10.6,18l-10,11.3c1.1,4.4,1.7,9,1.7,13.6c0,4.7-0.6,9.3-1.8,13.8l10,10.4l-10.4,18.2
						l-14.4-3c-6.7,6.5-14.9,11.2-23.8,13.7l-4.1,14.2L1198.8,350.6z M1172,318.2l0.8,0.8c6.4,6.5,14.5,11.2,23.2,13.5l1,0.3
						l4.6,13.8l15-0.1l3.9-13.6l1.1-0.3c9-2.3,17.3-7,23.9-13.7l0.8-0.8l13.7,2.8l7.5-13l-9.5-9.9l0.3-1.1c1.3-4.5,1.9-9.2,1.9-13.9
						c0-4.6-0.6-9.2-1.8-13.6l-0.3-1l9.5-10.7l-7.6-13l-13.5,3.4l-0.8-0.8c-6.5-6.7-14.7-11.4-23.7-13.7l-1.1-0.3l-4.4-13.5h-15
						l-3.9,13.5l-1.1,0.3c-9,2.3-17.1,7.1-23.6,13.7l-0.8,0.8l-13.8-3.5l-7.6,13l9.7,11.1l-0.3,1c-1.2,4.3-1.8,8.8-1.8,13.3
						c0,4.7,0.6,9.4,1.9,13.9l0.3,1.1l-9.5,9.8l7.5,13L1172,318.2z M1209,314.6c-17.4,0-31.5-14.1-31.5-31.5s14.1-31.5,31.5-31.5
						s31.5,14.1,31.5,31.5S1226.4,314.6,1209,314.6z M1209,255.5c-15.2,0-27.5,12.3-27.5,27.5s12.3,27.5,27.5,27.5
						c15.2,0,27.5-12.3,27.5-27.5S1224.2,255.5,1209,255.5z"/>
				</g>
			</g>
		</g>
		<g>
			<g>
				<g>
					<path class="st1" d="M1312,379.7c0-3.1-0.4-6.2-1.2-9.1l6.2-7l-5.8-9.9l-8.8,2.3c-4.3-4.3-9.7-7.5-15.8-9.1l-2.9-8.8h-11.5
						l-2.6,8.9c-6.1,1.6-11.5,4.8-15.7,9.1l-9-2.3l-5.8,9.9l6.4,7.2c-0.8,2.8-1.2,5.8-1.2,8.9c0,3.2,0.4,6.3,1.3,9.2l-6.2,6.5
						l5.7,10l9-1.9c4.2,4.3,9.5,7.4,15.4,9l3,9l11.5,0l2.5-8.9c6.1-1.5,11.6-4.7,15.8-9.1l9,1.9l5.7-10l-6.2-6.5
						C1311.6,386,1312,382.9,1312,379.7z M1278,398.5c-10.4,0-18.9-8.4-18.9-18.9c0-10.4,8.4-18.9,18.9-18.9s18.9,8.4,18.9,18.9
						C1296.9,390,1288.4,398.5,1278,398.5z"/>
				</g>
			</g>
			<g>
				<g>
					<path d="M1270.9,423.5l-3.1-9.4c-5.4-1.6-10.4-4.5-14.5-8.5l-9.3,1.9l-7.2-12.5l6.5-6.7c-0.7-2.8-1-5.7-1-8.6
						c0-2.8,0.3-5.6,1-8.3l-6.6-7.5l7.3-12.5l9.4,2.4c4.2-4,9.2-6.9,14.7-8.5l2.7-9.2h14.5l3,9.2c5.5,1.6,10.6,4.5,14.8,8.5l9.2-2.4
						l7.3,12.5l-6.5,7.3c0.7,2.8,1,5.6,1,8.5c0,2.9-0.4,5.8-1,8.6l6.5,6.7l-7.2,12.5l-9.3-1.9c-4.2,4-9.3,7-14.9,8.6l-2.7,9.2
						L1270.9,423.5z M1254.6,401.3l0.8,0.8c4,4.1,9,7,14.5,8.5l1,0.3l2.9,8.7l8.6,0l2.5-8.5l1.1-0.3c5.6-1.4,10.8-4.4,14.9-8.6
						l0.8-0.8l8.6,1.8l4.3-7.4l-6-6.2l0.3-1.1c0.8-2.8,1.2-5.7,1.2-8.7c0-2.9-0.4-5.8-1.2-8.5l-0.3-1l6-6.8l-4.3-7.4l-8.5,2.2
						l-0.8-0.8c-4.1-4.2-9.2-7.1-14.8-8.6l-1.1-0.3l-2.8-8.5h-8.6l-2.5,8.5l-1.1,0.3c-5.6,1.5-10.7,4.4-14.8,8.6l-0.8,0.8l-8.7-2.2
						l-4.3,7.4l6.1,7l-0.3,1c-0.7,2.7-1.1,5.5-1.1,8.3c0,2.9,0.4,5.9,1.2,8.7l0.3,1.1l-6,6.2l4.3,7.4L1254.6,401.3z M1278,400.5
						c-11.5,0-20.9-9.4-20.9-20.9s9.4-20.9,20.9-20.9s20.9,9.4,20.9,20.9S1289.5,400.5,1278,400.5z M1278,362.7
						c-9.3,0-16.9,7.6-16.9,16.9s7.6,16.9,16.9,16.9s16.9-7.6,16.9-16.9S1287.3,362.7,1278,362.7z"/>
				</g>
			</g>
		</g>
	</g>
	<g id="Stairs">
		<g>
			<path d="M1297,1105.5h9L1217.9,799h-9.9l17.5,60.2H1140l-17.3-60.2h-9.9l89,306.5h9l-13.7-47.6h86.1L1297,1105.5z M1262.1,985.1
				h-85.9l-15.2-53h85.8L1262.1,985.1z M1228.4,869.1l15.4,53H1158l-15.2-53H1228.4z M1194.2,1048l-15.2-53h86l15.4,53H1194.2z"/>
		</g>
		<g>
			<path d="M828.8,1105.5h-9L907.9,799h9.9l-17.5,60.2h85.6l17.3-60.2h9.9l-89,306.5h-9l13.7-47.6h-86.1L828.8,1105.5z M863.8,985.1
				h85.9l15.2-53h-85.8L863.8,985.1z M897.4,869.1l-15.4,53h85.7l15.2-53H897.4z M931.6,1048l15.2-53h-86l-15.4,53H931.6z"/>
		</g>
		<g>
			<g>
				<rect x="876.4" y="791" class="st1" width="365.8" height="16.2"/>
			</g>
			<g>
				<path d="M1244.2,809.1H874.4V789h369.8V809.1z M878.4,805.1h361.8V793H878.4V805.1z"/>
			</g>
		</g>
	</g>
	<g id="Money">
		<g>
			<circle class="st1" cx="243.7" cy="307.4" r="59.5"/>
			<path d="M243.7,368.9c-33.9,0-61.5-27.6-61.5-61.5s27.6-61.5,61.5-61.5s61.5,27.6,61.5,61.5S277.6,368.9,243.7,368.9z
				 M243.7,249.9c-31.7,0-57.5,25.8-57.5,57.5s25.8,57.5,57.5,57.5s57.5-25.8,57.5-57.5S275.4,249.9,243.7,249.9z"/>
		</g>
		<g>
			<g>
				<g>
					<path class="st0" d="M239.3,341.5v-8c-5.6-0.3-11.1-1.8-14.2-3.6l2.5-9.8c3.5,1.9,8.5,3.7,13.9,3.7c4.8,0,8-1.8,8-5.2
						c0-3.2-2.7-5.2-8.9-7.3c-9-3-15.1-7.2-15.1-15.3c0-7.4,5.2-13.1,14.2-14.9v-8h8.2v7.4c5.6,0.3,9.4,1.4,12.1,2.8l-2.4,9.5
						c-2.2-0.9-6-2.8-12.1-2.8c-5.4,0-7.2,2.3-7.2,4.7c0,2.8,2.9,4.5,10.1,7.2c10,3.5,14,8.1,14,15.7c0,7.5-5.3,13.8-14.9,15.5v8.5
						H239.3z"/>
				</g>
			</g>
		</g>
	</g>
	<g id="Woman_11_">
		<g>
			<g>
				<polygon class="st1" points="1036.4,744 1037,774 1068.2,774 1067.6,744 				"/>
			</g>
			<g>
				<path d="M1070.3,776H1035l-0.7-34h35.2L1070.3,776z M1038.9,772h27.2l-0.5-26h-27.2L1038.9,772z"/>
			</g>
		</g>
		<g>
			<path d="M1068.2,764.2c0,0-17,12.9-31.2,0l-42.3,22c-1.9,1-1.2,3.8,0.9,3.8h74.8c2.4,0,4.1-2.2,3.5-4.5L1068.2,764.2z"/>
		</g>
		<g>
			<g>
				<polygon class="st1" points="1126.4,744 1133,774 1164.2,774 1157.6,744 				"/>
			</g>
			<g>
				<path d="M1166.7,776h-35.3l-7.5-34h35.3L1166.7,776z M1134.6,772h27.2l-5.7-26h-27.1L1134.6,772z"/>
			</g>
		</g>
		<g>
			<path d="M1164.2,764.2c0,0-17,12.9-31.2,0l-42.3,22c-1.9,1-1.2,3.8,0.9,3.8h74.8c2.4,0,4.1-2.2,3.5-4.5L1164.2,764.2z"/>
		</g>
		<g>
			<g>
				<polygon class="st1" points="1027.5,390.3 1019.4,538.2 1024,751 1071.4,751 1081.1,512.2 1090.9,396.8 				"/>
			</g>
			<g>
				<path d="M1073.3,753h-51.2l0-2l-4.6-212.9l0-0.1l8.2-149.9l67.4,6.9l-9.9,117.3L1073.3,753z M1026,749h43.5l9.7-236.9l9.6-113.5
					l-59.3-6.1l-8,145.7L1026,749z"/>
			</g>
		</g>
		<g>
			<g>
				<polygon class="st1" points="1045.4,390.3 1063.3,533.3 1116.4,751 1164,751 1129.9,526.8 1123.4,390.3 				"/>
			</g>
			<g>
				<path d="M1166.3,753h-51.5l-0.4-1.5l-53.1-217.8l0-0.1l-18.2-145.2h82.2l6.6,138.3L1166.3,753z M1118,749h43.7l-33.8-222l0-0.1
					l-6.4-134.6h-73.8l17.6,140.6L1118,749z"/>
			</g>
		</g>
		<g>
			<g>
				<polygon class="st1" points="883,263 865,251 849,227 830,219 854.9,270.3 883,286 				"/>
			</g>
			<g>
				<path d="M885,289.4l-31.6-17.6l-27.5-56.7l24.4,10.3l16.1,24.2l18.6,12.4V289.4z M856.4,268.9l24.6,13.7v-18.5l-17.4-11.6
					l-15.9-23.8l-13.6-5.7L856.4,268.9z"/>
			</g>
		</g>
		<g>
			<path d="M962.3,226c8-10.9-6.2-39.9-7.9-53.2c-5.6-41.8,40.7-38.4,40.7-38.4c37.1-3.7,45.4,27.9,49.1,42.4
				c7.2,28.6,19.9,31.8,30.2,39.7c10.3,7.9,25.4,34.2,8.7,48.5c-7.6,6.5-100.5,22.6-116,17.5C949.3,276.5,954.2,236.9,962.3,226z"/>
		</g>
		<g>
			<g>
				<path class="st1" d="M1032.4,233.7l-16.1-35.6c0,0,12.6-24.1-4-21.8c0,0-32.8,4.6-39.1-18.4c0,0-21.8,62.7,19.5,57.5l1.1,26.4
					L1032.4,233.7z"/>
			</g>
			<g>
				<path d="M992,244.2l-1.2-26.7c-8.7,0.6-15.3-1.7-19.7-7.1c-12.7-15.8-0.4-51.7,0.1-53.3l2.1-6.1l1.7,6.2
					c5.8,21.1,36.6,17,36.9,16.9c4.4-0.6,7.6,0.4,9.4,3c4,5.8-1.1,17.4-2.9,20.9l16.7,37L992,244.2z M994.7,213.1l1.1,26.3l33.8-7.1
					l-15.5-34.3l0.5-0.9c2.6-5,5.9-14.3,3.6-17.6c-0.9-1.2-2.7-1.7-5.5-1.3c-0.3,0-29.1,3.8-39.1-14.4c-2.9,10.4-7.8,33.4,0.8,44.1
					c3.7,4.6,9.9,6.5,18.2,5.4L994.7,213.1z"/>
			</g>
		</g>
		<g>
			<path class="st0" d="M993.2,288.4l-46.5,32.2c-4.8,3.3-11,3.9-16.3,1.5L875,297l4-40l53.2,24.9l60.8-48.3L993.2,288.4z"/>
		</g>
		<g>
			<g>
				<path class="st1" d="M894,358.5l-15.2-5.4c0,0,2.7,8,8,12.4h-31.9c0,0-3.5,2.7,0,7.1c0,0-3.5,3.5,0,7.1c0,0-0.9,4.4,1.8,6.2
					c0,0,0,3.5,4.4,4.4l18.6,2.7l22.6-2l6.7-4.2L965,371l-16-23l-45.4,15.7L894,358.5z"/>
			</g>
			<g>
				<path d="M879.6,395l-19-2.7c-4-0.8-5.5-3.4-5.9-5.4c-1.9-1.8-2.2-4.6-2-6.6c-1.4-1.8-1.8-4-1.1-6.1c0.2-0.6,0.5-1.2,0.8-1.6
					c-0.9-1.5-1.3-3-1.1-4.5c0.3-2.5,2.1-4,2.3-4.1l0.5-0.4h28c-3.4-4.5-5.2-9.5-5.2-9.8l-1.3-3.9l19.4,6.9l8.8,4.8l46-15.9
					l18.5,26.5l-58.5,16.5l-6.8,4.3L879.6,395z M861.4,388.4l18.3,2.6l21.9-2l6.5-4.1l0.3-0.1l53.4-15l-13.5-19.5l-44.8,15.5
					l-10.3-5.6l-10.7-3.8c1.2,2.4,3.1,5.4,5.6,7.5l4.2,3.5h-36.6c-0.5,0.7-0.8,1.9,0.7,3.8l1.1,1.4l-1.3,1.3c-0.6,0.6-1.9,2.4,0,4.3
					l0.8,0.8l-0.2,1c-0.2,0.8-0.3,3.3,0.9,4.2l0.9,0.6v1.1C858.6,386.2,858.8,387.8,861.4,388.4z"/>
			</g>
		</g>
		<g>
			<path class="st0" d="M1131.5,394.7L1097,308l-24.2-64.7c-3.2-8.6-9.3-15.7-17.2-20.3c-16.5-9.4-32.3-9.3-32.3-9.3
				c-9.7,15.1-30.6,18.8-30.6,18.8c-4,12-26.9,67-4.9,84.6c2.7,2.1,7.2,8.8,9.5,11.8L936,350l15,40l64.9-22.7
				c6.4,19.3,5.7,37.3,5.7,37.3s33.4,8.4,58.4-5.6C1091.3,392.7,1131.5,394.7,1131.5,394.7z"/>
		</g>
		<g>
			<path d="M1010.9,370l-1.5-3.7l38.7-16.1c6.5-2.7,10.4-9.2,9.8-16.2l-4.8-53.9l4-0.4l4.8,53.9c0.8,8.7-4.1,16.9-12.2,20.2
				L1010.9,370z"/>
		</g>
	</g>
	<g id="Man_11_">
		<g>
			<g>
				<polygon class="st1" points="276.5,891.5 225.5,1106.5 238.5,1106.5 296.5,891.5 				"/>
			</g>
			<g>
				<path d="M240,1108.5H223l51.9-219h24.2l-0.7,2.5L240,1108.5z M228,1104.5h8.9l56.9-211h-15.8L228,1104.5z"/>
			</g>
		</g>
		<g>
			<g>
				<polygon class="st1" points="362.5,891.5 413.5,1106.5 400.5,1106.5 342.5,891.5 				"/>
			</g>
			<g>
				<path d="M416,1108.5H399l-0.4-1.5l-58.7-217.5h24.2l0.4,1.5L416,1108.5z M402,1104.5h8.9l-50.1-211h-15.8L402,1104.5z"/>
			</g>
		</g>
		<g>
			<path d="M299.4,562.8c0,0-54.7-6.7-30.7-45.1c0,0-11.5-31.7,23-30.7c0,0,4.8-24,23-8.6c0,0,25.9-12.5,28.8,9.6
				c0,0,2.9,12.5-12.5,20.1L299.4,562.8z"/>
		</g>
		<g>
			<g>
				<path class="st1" d="M285.9,609.1l12.5-53c0,0-23-14.4-6.7-24c0,0,5.8,0,8.6,3.8c0,0-3.8-22.1,11.5-23
					c15.4-1,22.1-10.6,22.1-10.6s34.5,54.7,16.3,64.3s-19.2,4.8-19.2,4.8l4.8,39.6L285.9,609.1z"/>
			</g>
			<g>
				<path d="M338.1,613.2l-54.7-2.1l12.7-54c-3.5-2.4-12.4-9.2-12.3-16.8c0.1-3.8,2.3-7.1,6.8-9.8l0.5-0.3h0.5c0.2,0,3.2,0,6.2,1.5
					c-0.1-4.5,0.4-11.2,4-15.7c2.4-3,5.7-4.6,9.8-4.9c14.1-0.9,20.3-9.4,20.6-9.7l1.7-2.4l1.6,2.5c1.1,1.7,26.1,41.6,21.3,59.6
					c-0.9,3.5-2.9,6-5.8,7.5c-8.2,4.3-14,6.4-17.7,6.2L338.1,613.2z M288.4,607.2l45.1,1.7l-4.5-37.3l3.9-0.6
					c-0.1-0.4-0.3-0.6-0.3-0.6c0,0,2.8,1.7,16.6-5.6c1.9-1,3.1-2.6,3.8-5c3.8-14-14.2-45.4-19.4-54.2c-3.1,3.1-10.1,8.5-21.7,9.2
					c-3,0.2-5.3,1.3-6.9,3.4c-4.6,5.9-2.7,17.2-2.7,17.3l1.4,8.2l-5-6.6c-1.8-2.4-5.2-2.9-6.5-3c-2.9,1.8-4.3,3.8-4.4,6.1
					c-0.1,5.6,8.4,12.2,11.6,14.2l1.2,0.8L288.4,607.2z"/>
			</g>
		</g>
		<g>
			<g>
				<polygon class="st1" points="402,1058.5 394.3,1091.4 360,1091.4 367.7,1058.5 				"/>
			</g>
			<g>
				<path d="M395.9,1093.4h-38.4l8.6-36.9h38.4L395.9,1093.4z M362.5,1089.4h30.2l6.7-28.9h-30.2L362.5,1089.4z"/>
			</g>
		</g>
		<g>
			<path d="M360,1080.7c0,0,18.6,14.1,34.3,0l46.4,24.2c2,1.1,1.3,4.2-1,4.2h-82c-2.6,0-4.5-2.4-3.8-4.9L360,1080.7z"/>
		</g>
		<g>
			<path class="st0" d="M193.5,715.5c-7.2,2.4,3.1,19.9,10,36c9,21,17,44,19,89c1.1,24.4,13,62,78,59h142v-17c0,0-104,11-163-3
				c-11-2.6-35.9-8-40-44c-2.5-21.9-9.9-60.7-20-86C215.5,739.5,205.5,711.5,193.5,715.5z"/>
		</g>
		<g>
			<g>
				<polygon class="st1" points="543,974.9 556.1,1009.6 522.9,1017.8 509.7,987.2 				"/>
			</g>
			<g>
				<path d="M521.7,1020.2L507,986.1l37.1-13.7l14.6,38.6L521.7,1020.2z M512.4,988.4l11.6,27.1l29.4-7.3l-11.6-30.7L512.4,988.4z"
					/>
			</g>
		</g>
		<g>
			<path d="M518.3,1007.9c0,0,21.5,9.2,33.3-8.3l50.9,12.3c2.2,0.5,2.3,3.7,0,4.3l-79.6,19.8c-2.5,0.6-4.9-1.3-4.9-3.9L518.3,1007.9
				z"/>
		</g>
		<g>
			<g>
				<path class="st1" d="M334,594c0,0-12,25-46-3c0,0-23.6,8.5-42.6,20.3c-9,5.6-15,15-16.4,25.5l-14.8,111.5
					c-1.2,8.8,5.7,16.7,14.6,16.7H258l-4,24h117l2-90l8,49l37-9l-34.2-115.3c-2.4-8-8.4-14.4-16.2-17.3L334,594z"/>
			</g>
			<g>
				<path d="M373,791H251.6l4-24h-26.8c-4.8,0-9.4-2.1-12.6-5.7c-3.2-3.6-4.6-8.5-4-13.2l14.8-111.5c1.5-11.2,7.8-21,17.3-26.9
					c18.9-11.8,42.7-20.4,43-20.4l1.1-0.4l0.9,0.7c12.2,10.1,22.8,14.3,31.3,12.4c8.1-1.8,11.5-8.4,11.6-8.7l0.8-1.6l1.7,0.6
					l33.6,12.4c8.4,3.1,14.9,10,17.4,18.6l34.8,117.3l-41.1,10l-4.9-29.7L373,791z M256.4,787H369l2-88l4-0.3l7.7,46.9l32.9-8
					l-33.6-113.3c-2.2-7.4-7.8-13.3-15-16l-32-11.8c-1.7,2.6-5.9,7.6-13.4,9.3c-9.6,2.1-21-2.1-33.9-12.5
					c-4.8,1.8-24.8,9.6-41.2,19.7c-8.5,5.3-14.1,14-15.4,24.1l-14.8,111.5c-0.5,3.6,0.6,7.3,3.1,10.1c2.4,2.8,5.9,4.4,9.6,4.4h31.5
					L256.4,787z"/>
			</g>
		</g>
		<g>
			<path d="M353,1062l60,1c0,0,64.5-204.5,64.5-206.5s-14-33-57-22S287,881.8,287,881.8s81,17.5,112,10.2L353,1062z"/>
		</g>
		<g>
			<path class="st2" d="M258.5,777.5c0,0-33,65.3,0,93.7s123-3.7,165-23.7c0,0,21-12,35-1s5,45,5,45L495,1010l55-27
				c0,0-28.1-106.2-53-177.5c-5.1-14.6-19.2-24.2-34.7-23.6l-128.8,4.6L258.5,777.5z"/>
		</g>
		<g>
			<g>
				<path class="st1" d="M296.5,728.5l2,18l31,2c0,0,5,1,6-4c0,0,6-2,5-6c0,0,6-1,4-5l8,7c0,0,4,7,10,5l-9-14l-14-10c0,0-20,3-27,5
					S296.5,728.5,296.5,728.5z"/>
			</g>
			<g>
				<path d="M330.5,750.6c-0.5,0-0.9,0-1.3-0.1l-32.6-2.1l-2.4-21.9l2.2,0c0.1,0,8.8,0,15.5-1.9c7-2,26.4-4.9,27.3-5.1l0.8-0.1
					l15,10.7l10.6,16.5l-2.4,0.8c-5.8,1.9-10.4-2.7-12.2-5.6l-4.8-4.2c-0.9,1.3-2.3,2-3.5,2.4c-0.3,3-3.1,5-5.4,6
					C336,749.4,333,750.6,330.5,750.6z M300.3,744.6l29.6,1.9c0.9,0.2,3.1,0.3,3.6-2.4l0.2-1.1l1.1-0.4c0,0,4.2-1.5,3.7-3.6
					l-0.5-2.1l2.1-0.4c1-0.2,2.4-0.8,2.7-1.3c0.1-0.2,0-0.6-0.2-0.8l-4.5-9.1l15.9,13.9l0.2,0.3c0.1,0.2,1.9,3.2,4.7,4.1l-6.9-10.7
					l-13-9.3c-3.8,0.6-19.9,3.1-25.9,4.8c-5.1,1.5-11.1,1.9-14.3,2L300.3,744.6z"/>
			</g>
		</g>
		<g>
			<g>
				<path d="M527.7,683.8H396.1c-3.3,0-6.2,2-7.3,5.1l-36.4,99.6h148.1l34.5-94.3C536.9,689.1,533.1,683.8,527.7,683.8z"/>
			</g>
			<g>
				<rect x="283.4" y="778.3" width="90.8" height="10.2"/>
			</g>
			<g>
				<path class="st0" d="M536.2,683.8H404.6c-3.3,0-6.2,2-7.3,5.1l-36.4,99.6H509l34.5-94.3C545.4,689.1,541.6,683.8,536.2,683.8z"
					/>
			</g>
			<g>
				<ellipse transform="matrix(0.4328 -0.9015 0.9015 0.4328 -403.9576 830.7481)" cx="458.2" cy="736.4" rx="12.1" ry="9.2"/>
			</g>
		</g>
		<g>
			<polyline class="st1" points="265,663 261,728 301,728 301,762 258,765 			"/>
			<polygon points="258.1,767 257.9,763 299,760.1 299,730 258.9,730 263,662.9 267,663.1 263.1,726 303,726 303,763.9 			"/>
		</g>
	</g>
	<g id="Plant_23_">
		<g>
			<g>
				<path class="st1" d="M1374.7,1106.6c0,0,6.6-29.9-10-59c0,0-9.1-28.3,5.8-54s0-54.9-17.5-59c-17.5-4.2-38.2,10-43.2,29.9
					c-5,19.9-0.8,34.1-30.8,49c-29.9,15-28.7,93.1-28.7,93.1H1374.7z"/>
			</g>
			<g>
				<path d="M1376.3,1108.6h-127.8l0-2c-0.1-3.2-0.9-79.6,29.8-94.9c23.2-11.6,25-22.1,27.5-36.6c0.6-3.5,1.2-7.2,2.2-11.1
					c5.2-20.9,27-35.8,45.6-31.4c8.7,2.1,16.9,9.9,21.4,20.4c5.8,13.5,4.8,28.6-2.7,41.5c-13.7,23.6-6.4,49.8-5.7,52.2
					c16.7,29.4,10.4,59,10.1,60.2L1376.3,1108.6z M1252.4,1104.6H1373c1-6.4,3.9-31.7-10-56l-0.2-0.4c-0.4-1.2-9.2-29.4,6-55.6
					c6.9-11.8,7.8-25.6,2.5-37.9c-4-9.4-11.2-16.3-18.7-18.1c-16.6-4-36.1,9.6-40.8,28.5c-0.9,3.8-1.6,7.4-2.2,10.8
					c-2.5,14.5-4.6,27-29.6,39.5C1254.1,1028.2,1252.5,1092.5,1252.4,1104.6z"/>
			</g>
		</g>
		<g>
			<path d="M1311.7,1107.8l-3.6-1.7c24.5-53.6,42.9-171.6,43.1-172.8l4,0.6C1354.8,935.2,1336.4,1053.8,1311.7,1107.8z"/>
		</g>
		<g>
			<circle cx="1440.4" cy="1000" r="13"/>
		</g>
		<g>
			<path d="M1374.7,1108.1l-1.7-4.7c39.2-14.4,62.3-76.8,62.5-77.5l4.7,1.7C1439.2,1030.3,1416,1092.9,1374.7,1108.1z"/>
		</g>
		<g>
			<rect x="1327.1" y="946" transform="matrix(0.9369 -0.3495 0.3495 0.9369 -257.4566 526.0939)" width="4" height="60.8"/>
		</g>
		<g>
			<rect x="1317.9" y="973.1" transform="matrix(0.9299 -0.3679 0.3679 0.9299 -277.6938 556.1583)" width="4" height="66.8"/>
		</g>
		<g>
			<path class="st0" d="M1460.6,1003.5c0,0-20.2-10.5-40.2-4.2c0,0-5.5,29.4,15,31.6C1458.6,1033.4,1460.6,1003.5,1460.6,1003.5z"/>
		</g>
		<g>
			<circle cx="1492.3" cy="990.8" r="11.8"/>
		</g>
		<g>
			<path d="M1398.8,1089.1c0,0,11.6-16.6,10-29.9s-10-17.5-13.3-16.6c-3.3,0.8-9.1,2.5-6.6,15
				C1391.3,1070,1398.8,1089.1,1398.8,1089.1z"/>
		</g>
		<g>
			<rect x="1302" y="1082.4" transform="matrix(0.8061 -0.5918 0.5918 0.8061 -381.821 1003.36)" width="76.5" height="4"/>
		</g>
		<g>
			<rect x="1334.7" y="1091.5" transform="matrix(0.8125 -0.583 0.583 0.8125 -383.0199 996.2523)" width="44.8" height="4"/>
		</g>
		<g>
			<g>
				<path class="st1" d="M1200.5,979.8c0,0,8.3-17.5,0-39.9c-8.3-22.4-14.1-92.3,35.7-88.9s53.2,69.8,48.2,103.9
					c-5,34.1,2.5,57.3,10.8,76.5c8.3,19.1,34.9,33.2,30.8,75.6h-168.7C1157.3,1107,1149,1039.7,1200.5,979.8z"/>
			</g>
			<g>
				<path d="M1327.9,1109h-172.3l-0.2-1.8c-0.1-0.7-2.1-17.4,2.3-41.7c4-22.4,14.4-55.6,41.2-86.7c0.9-2.1,7.2-18.1-0.2-38.1
					c-5.9-16-10.7-56.7,5.2-77.9c7.5-10,18.4-14.6,32.6-13.7c14.1,0.9,25.6,6.8,34.2,17.5c18,22.3,19.8,61.7,15.9,88.7
					c-4.9,33.4,2.2,56,10.7,75.4c2.4,5.4,6.4,10.6,10.7,16.1c10.4,13.3,23.3,29.9,20.3,60.5L1327.9,1109z M1159.2,1105h165.1
					c2.2-27.9-9.4-42.7-19.6-55.9c-4.4-5.7-8.6-11.1-11.2-17c-8.2-19-16-43-10.9-77.6c3.8-26.2,2.2-64.3-15-85.6
					c-7.9-9.7-18.4-15.1-31.3-16c-12.7-0.8-22.5,3.2-29.1,12.1c-15,20.1-10.3,58.8-4.6,74.2c8.5,23,0.3,40.7-0.1,41.4l-0.1,0.2
					l-0.2,0.2C1156.3,1034.3,1158.3,1094.1,1159.2,1105z"/>
			</g>
		</g>
		<g>
			<path d="M1477.5,1035.5c0,0,25.9,2.1,30.1-4.1s-7.1-11.7-21.9-2.3C1483.6,1030.4,1477.5,1035.5,1477.5,1035.5z"/>
		</g>
		<g>
			<path d="M1469.5,1048.7c0,0,24.9,7.4,30.3,2.2c5.3-5.2-4.5-12.9-20.9-6.8C1476.5,1044.9,1469.5,1048.7,1469.5,1048.7z"/>
		</g>
		<g>
			<path d="M1414.4,1108.6l-3.1-4c46.4-35.8,76.3-88.5,76.6-89l4.4,2.5C1492.1,1018.6,1461.7,1072.1,1414.4,1108.6z"/>
		</g>
		<g>
			<path d="M1238.7,1106.9l-3.9-0.7c31.9-172,0.4-254.1,0.1-254.9l3.7-1.5c0.3,0.8,8.3,21.1,12.3,63.1
				C1254.6,951.6,1255.5,1016.6,1238.7,1106.9z"/>
		</g>
		<g>
			<rect x="1241.8" y="905.1" transform="matrix(0.6571 -0.7538 0.7538 0.6571 -249.9844 1264.6317)" width="46.5" height="4"/>
		</g>
		<g>
			<rect x="1242.3" y="930.3" transform="matrix(0.66 -0.7513 0.7513 0.66 -269.1985 1269.7134)" width="51.7" height="4"/>
		</g>
		<g>
			<path class="st0" d="M1510.6,994c0,0-17.2-10-36.6-3.8c0,0-5,26.7,13.6,28.7C1508.8,1021.2,1510.6,994,1510.6,994z"/>
		</g>
		<g>
			<rect x="1217.6" y="978.9" transform="matrix(0.7851 -0.6193 0.6193 0.7851 -369.7091 974.5054)" width="4" height="82.4"/>
		</g>
		<g>
			<rect x="1210.8" y="992.6" transform="matrix(0.7781 -0.6282 0.6282 0.7781 -383.5279 992.4862)" width="4" height="92.9"/>
		</g>
	</g>
	<g id="Plant_22_">
		<g>
			<circle cx="210.3" cy="976.7" r="11.8"/>
		</g>
		<g>
			<path d="M193,1020.4c0,0-21.2-15.1-20.4-22.5c0.8-7.4,13-4.4,18.3,12.2C191.6,1012.6,193,1020.4,193,1020.4z"/>
		</g>
		<g>
			<path d="M190.7,1035.7c0,0-23.9-10.3-24.6-17.7c-0.7-7.4,11.8-7,20.4,8.2C187.7,1028.3,190.7,1035.7,190.7,1035.7z"/>
		</g>
		<g>
			<path d="M200.1,1107.3c-20-62.1-4.9-108.2-4.3-110.1l4.7,1.6c-0.2,0.5-15.2,46.6,4.3,107L200.1,1107.3z"/>
		</g>
		<g>
			<path class="st0" d="M194.2,967.4c0,0,19.6,3.3,30.5,20.6c0,0-13.3,23.7-28.9,13.3C178.1,989.4,194.2,967.4,194.2,967.4z"/>
		</g>
		<g>
			<g>
				<path class="st1" d="M295.2,1106c0,0,5-22.4-7.5-44.2c0,0-6.9-21.2,4.4-40.5c11.2-19.3,0-41.1-13.1-44.2
					c-13.1-3.1-28.7,7.5-32.4,22.4c-3.7,15-1.4,36-23.8,47.2c-22.4,11.2-20.7,59.3-20.7,59.3H295.2z"/>
			</g>
			<g>
				<path d="M296.8,1108h-96.7l-0.1-1.9c-0.1-2-1.5-49.5,21.8-61.1c16.8-8.4,18.9-22.2,20.9-35.6c0.5-3.6,1.1-7.1,1.9-10.3
					c4-15.9,20.6-27.3,34.8-23.9c6.7,1.6,12.9,7.6,16.4,15.6c4.4,10.3,3.7,21.8-2,31.6c-10.1,17.4-4.8,36.6-4.2,38.7
					c12.6,22.2,7.8,44.5,7.6,45.5L296.8,1108z M204,1104h89.5c0.8-5.4,2.5-23.6-7.5-41.2l-0.2-0.4c-0.3-0.9-7-22.3,4.5-42.1
					c5.1-8.7,5.7-18.9,1.8-28c-3-6.9-8.2-12-13.6-13.3c-12.2-2.9-26.5,7.1-30,21c-0.8,3.1-1.3,6.4-1.8,9.9
					c-2.1,13.7-4.4,29.3-23,38.6C205.1,1057.8,204,1095.1,204,1104z"/>
			</g>
		</g>
		<g>
			<path d="M248.4,1107.1l-3.6-1.7c18.4-40.1,32.1-128.5,32.2-129.4l4,0.6C280.8,977.6,267,1066.6,248.4,1107.1z"/>
		</g>
		<g>
			<rect x="259" y="985.7" transform="matrix(0.9369 -0.3495 0.3495 0.9369 -335.9878 154.8089)" width="4" height="45.6"/>
		</g>
		<g>
			<rect x="252.1" y="1005.9" transform="matrix(0.9299 -0.3679 0.3679 0.9299 -361.4313 165.7809)" width="4" height="50"/>
		</g>
		<g>
			<rect x="240.7" y="1087.3" transform="matrix(0.806 -0.5919 0.5919 0.806 -592.5081 370.7379)" width="57.3" height="4"/>
		</g>
		<g>
			<rect x="265.2" y="1094.2" transform="matrix(0.8122 -0.5833 0.5833 0.8122 -586.4827 370.3196)" width="33.6" height="4"/>
		</g>
	</g>
	<g id="Floor_10_">
		<g>
			<rect x="106" y="1105" width="1416" height="4"/>
		</g>
	</g>
</g>
<g id="_x31_1">
</g>
<g id="_x31_0">
</g>
<g id="_x39_">
</g>
<g id="_x38_">
</g>
<g id="_x37_">
</g>
<g id="_x36_">
</g>
<g id="_x35_">
</g>
<g id="_x34_">
</g>
<g id="_x33_">
</g>
<g id="_x32_">
</g>
<g id="_x31_">
</g>
</svg>
