<?xml version="1.0" encoding="utf-8"?>
<!-- Generator: Adobe Illustrator 24.2.0, SVG Export Plug-In . SVG Version: 6.00 Build 0)  -->
<svg version="1.1" id="Layer_1" xmlns="http://www.w3.org/2000/svg" xmlns:xlink="http://www.w3.org/1999/xlink" x="0px" y="0px"
	 viewBox="0 0 536 429.9" style="enable-background:new 0 0 536 429.9;" xml:space="preserve">
<style type="text/css">
	.st0{fill:#FFFFFF;}
	.st1{fill:#FEE300;}
	.st2{fill:#FAFBFD;}
	.st3{fill:#2F2E40;}
</style>
<g id="_x31_">
	<g id="Enviroment">
		<g>
			<polygon points="403.9,328.3 400.1,328.3 400.1,324.5 398.6,324.5 398.6,328.3 394.8,328.3 394.8,329.8 398.6,329.8 398.6,333.6 
				400.1,333.6 400.1,329.8 403.9,329.8 			"/>
		</g>
		<g>
			<polygon points="147.6,289.3 147.6,285.5 146.1,285.5 146.1,289.3 142.3,289.3 142.3,290.8 146.1,290.8 146.1,294.6 147.6,294.6 
				147.6,290.8 151.4,290.8 151.4,289.3 			"/>
		</g>
		<g>
			<polygon points="104.5,58 100.7,58 100.7,54.3 99.2,54.3 99.2,58 95.4,58 95.4,59.6 99.2,59.6 99.2,63.3 100.7,63.3 100.7,59.6 
				104.5,59.6 			"/>
		</g>
		<g>
			<path d="M171.5,315.8c-2.9,0-5.3-2.4-5.3-5.3s2.4-5.3,5.3-5.3c2.9,0,5.3,2.4,5.3,5.3S174.4,315.8,171.5,315.8z M171.5,306.7
				c-2.1,0-3.8,1.7-3.8,3.8c0,2.1,1.7,3.8,3.8,3.8s3.8-1.7,3.8-3.8C175.3,308.4,173.6,306.7,171.5,306.7z"/>
		</g>
		<g>
			<polygon points="353.5,30 349.8,30 349.8,26.2 348.2,26.2 348.2,30 344.5,30 344.5,31.5 348.2,31.5 348.2,35.3 349.8,35.3 
				349.8,31.5 353.5,31.5 			"/>
		</g>
		<g>
			<path d="M381.9,28.1c-2.9,0-5.3-2.4-5.3-5.3s2.4-5.3,5.3-5.3s5.3,2.4,5.3,5.3S384.9,28.1,381.9,28.1z M381.9,19.1
				c-2.1,0-3.8,1.7-3.8,3.8s1.7,3.8,3.8,3.8c2.1,0,3.8-1.7,3.8-3.8S384,19.1,381.9,19.1z"/>
		</g>
		<g>
			<path d="M490.8,73.4c0-0.1,0-8,8.3-8.1c6.9-0.1,7.6-6.2,7.6-6.5l1.5,0.2c0,0.1-0.9,7.8-9.1,7.8c-6.7,0.1-6.8,6.3-6.8,6.6H490.8z"
				/>
		</g>
		<g>
			<path d="M53.2,111.3h-1.5h0.8h-0.8c0-0.3,0-6.5-6.8-6.6c-8.2-0.1-9.1-7.8-9.1-7.8l1.5-0.2c0,0.3,0.8,6.4,7.6,6.5
				C53.1,103.3,53.2,111.2,53.2,111.3z"/>
		</g>
	</g>
	<g id="Screen">
		<g>
			<path class="st0" d="M133.4,65.3v165.9c0,8.4,6.9,15.3,15.3,15.3h265.1c8.4,0,15.3-6.9,15.3-15.3V65.3c0-8.4-6.9-15.3-15.3-15.3
				H148.7C140.3,50.1,133.4,56.9,133.4,65.3z"/>
			<path d="M413.8,247.3H148.7c-8.8,0-16-7.2-16-16V65.3c0-8.8,7.2-16,16-16h265.1c8.8,0,16,7.2,16,16v165.9
				C429.8,240.1,422.6,247.3,413.8,247.3z M148.7,50.8c-8,0-14.5,6.5-14.5,14.5v165.9c0,8,6.5,14.5,14.5,14.5h265.1
				c8,0,14.5-6.5,14.5-14.5V65.3c0-8-6.5-14.5-14.5-14.5H148.7z"/>
		</g>
		<g>
			<path class="st1" d="M191.8,72.5v69H370v-28.1c0,0-12.9-18.2-35.4,4.9c-4.9,5-16.8,18.9-27.4,6.1c-6.9-8.2-13.7-31.3-20.1-37.9
				c-4.6-4.6-16.2-7.4-23.5,5.8c-3.3,6-8.6,21.7-10.7,25.3c-2.6,4.4-14.6,12.2-20.4-0.6c-4.2-9.3-8.9-31.1-17.4-36.9
				C206.5,74.3,191.8,72.5,191.8,72.5z"/>
		</g>
		<g>
			<path d="M376.3,147.4H186.2V65.6h190.1V147.4z M187.7,145.9h187.1V67.1H187.7V145.9z"/>
		</g>
		<g>
			<path d="M341.4,136.2c-11.1,0-18.2-17.4-22.6-28.2c-0.8-1.9-1.4-3.4-2-4.7c-5.8-12.9-7.8-15.7-12.7-17.6
				c-3.9-1.6-7.7-1.5-11.3,0.1c-4.7,2.1-8.1,6.6-9.4,10.2c-1,2.8-1.9,5.3-2.7,7.5c-4.2,11.8-6.2,17.1-10.8,22.3
				c-3.6,4-7.8,5.9-12.1,5.5c-5-0.5-9.2-3.8-11.1-6.8c-1.6-2.6-2.8-5.4-4.2-8.7c-2.4-5.8-5.4-12.9-12.6-21.8
				c-10.3-12.6-37.7-6.1-38-6.1l-0.3-1.5c1.2-0.3,28.7-6.8,39.5,6.5c7.3,9,10.3,16.3,12.8,22.1c1.3,3.2,2.5,5.9,4.1,8.4
				c1.7,2.6,5.5,5.7,9.9,6.1c3.9,0.3,7.5-1.3,10.9-5c4.5-4.9,6.4-10.2,10.5-21.8c0.8-2.2,1.7-4.8,2.7-7.6c1.4-3.9,5.1-8.7,10.2-11.1
				c3.9-1.8,8.1-1.8,12.5-0.1c5.6,2.2,7.9,5.9,13.5,18.4c0.6,1.3,1.2,2.9,2,4.8c4.8,11.6,12.7,31,24.8,26.6c5.4-2,6.7-6.2,9.3-22
				c0.7-4.1,2.4-7.1,5-8.9c2.7-1.8,6.4-2.2,10.9-1.2l-0.3,1.5c-4.1-0.9-7.3-0.6-9.7,1c-2.8,1.9-3.9,5.3-4.4,7.9
				c-2.8,16.5-4.1,20.9-10.3,23.2C344.1,135.9,342.8,136.2,341.4,136.2z"/>
		</g>
		<g>
			<path class="st1" d="M339.8,197.2l-24.2,2.8l6.7-24.1C331.9,178.6,339.1,187,339.8,197.2z"/>
		</g>
		<g>
			<path d="M315.9,223.8c-13.7,0-24.8-11.1-24.8-24.8s11.1-24.8,24.8-24.8c2.3,0,4.5,0.3,6.7,0.9c10,2.8,17.2,11.6,18,22
				c0,0.6,0.1,1.2,0.1,1.9C340.7,212.7,329.5,223.8,315.9,223.8z M315.9,175.8c-12.8,0-23.3,10.4-23.3,23.3s10.4,23.3,23.3,23.3
				s23.3-10.4,23.3-23.3c0-0.6,0-1.2-0.1-1.8c-0.7-9.7-7.5-18-16.9-20.7C320.1,176.1,318,175.8,315.9,175.8z"/>
		</g>
		<g>
			<path class="st1" d="M394,197.2l-24.2,2.8l18.1-17C391.4,186.9,393.6,191.8,394,197.2z"/>
		</g>
		<g>
			<path d="M370,223.8c-13.7,0-24.8-11.1-24.8-24.8s11.1-24.8,24.8-24.8c2.3,0,4.5,0.3,6.7,0.9c4.5,1.3,8.6,3.8,11.8,7.3
				c2.5,2.8,4.3,6.1,5.3,9.6c0.5,1.6,0.8,3.3,0.9,5c0,0.6,0.1,1.2,0.1,1.9c0,4.8-1.4,9.5-4,13.6C386.2,219.6,378.4,223.8,370,223.8z
				 M370,175.8c-12.8,0-23.3,10.4-23.3,23.3s10.4,23.3,23.3,23.3c7.9,0,15.2-3.9,19.5-10.6c2.5-3.8,3.8-8.2,3.8-12.7
				c0-0.6,0-1.2-0.1-1.8c-0.1-1.6-0.4-3.2-0.9-4.7c-0.9-3.3-2.7-6.4-5-9c-3-3.3-6.8-5.7-11.1-6.9C374.3,176.1,372.1,175.8,370,175.8
				z"/>
		</g>
		<g>
			<g>
				<g>
					<polygon points="157.3,216 156.1,215.1 174.9,190.8 190.5,211.3 218.4,182.6 239.6,204.6 260.2,181.7 261.4,182.7 239.6,206.8 
						218.4,184.8 190.3,213.7 174.9,193.3 					"/>
				</g>
			</g>
			<g>
				<circle class="st1" cx="260.4" cy="183" r="2.6"/>
			</g>
			<g>
				<circle class="st1" cx="239.8" cy="204.7" r="2.6"/>
			</g>
			<g>
				<circle class="st1" cx="218.4" cy="184.1" r="2.6"/>
			</g>
			<g>
				<circle class="st1" cx="190.4" cy="212.1" r="2.6"/>
			</g>
			<g>
				<circle class="st1" cx="174.7" cy="192.2" r="2.6"/>
			</g>
			<g>
				<circle class="st1" cx="157.1" cy="214.8" r="2.6"/>
			</g>
			<g>
				<path d="M266.5,222.7H150.3v-49.2h116.2V222.7z M151.8,221.2H265V175H151.8V221.2z"/>
			</g>
		</g>
		<g>
			<path d="M394.1,199c0,4.8-1.4,9.3-3.9,13.1L369.8,200l23.3-7.6c0.5,1.6,0.8,3.2,0.9,4.9C394,197.8,394.1,198.4,394.1,199z"/>
		</g>
	</g>
	<g id="Card">
		<g>
			<path class="st0" d="M239.6,273.7v41.3c0,4.2,3.4,7.7,7.7,7.7h121.2c4.2,0,7.7-3.4,7.7-7.7v-41.3c0-4.2-3.4-7.7-7.7-7.7H247.3
				C243.1,266,239.6,269.4,239.6,273.7z"/>
			<path d="M368.5,323.4H247.3c-4.7,0-8.5-3.8-8.5-8.5v-41.3c0-4.7,3.8-8.5,8.5-8.5h121.2c4.7,0,8.5,3.8,8.5,8.5v41.3
				C377,319.6,373.2,323.4,368.5,323.4z M247.3,266.7c-3.8,0-7,3.1-7,7V315c0,3.8,3.1,7,7,7h121.2c3.8,0,7-3.1,7-7v-41.3
				c0-3.8-3.1-7-7-7H247.3z"/>
		</g>
		<g>
			<circle class="st1" cx="268.3" cy="295.2" r="13.6"/>
		</g>
		<g>
			<rect x="290" y="286.1" width="44.1" height="6.9"/>
		</g>
		<g>
			<rect x="290" y="296.8" class="st1" width="73.7" height="6.9"/>
		</g>
	</g>
	<g id="Plant">
		<g>
			<g>
				<path class="st2" d="M188.4,411.1c0,0-2.5-11.3,3.8-22.3c0,0,3.4-10.7-2.2-20.4c-5.6-9.7,0-20.8,6.6-22.3
					c6.6-1.6,14.5,3.8,16.4,11.3c1.9,7.5,0.3,12.9,11.7,18.5c11.3,5.7,10.9,35.2,10.9,35.2H188.4z"/>
			</g>
			<g>
				<path d="M236.2,411.8h-48.4l-0.1-0.6c-0.1-0.5-2.5-11.7,3.8-22.8c0.3-0.9,3-10.8-2.2-19.8c-2.8-4.9-3.2-10.6-1-15.7
					c1.7-4,4.8-7,8.1-7.7c7.1-1.7,15.3,4,17.3,11.9c0.4,1.5,0.6,2.9,0.8,4.2c0.9,5.5,1.6,9.5,10.4,13.9
					c11.6,5.8,11.3,34.7,11.3,35.9L236.2,411.8z M189,410.3h45.7c0-4.6-0.6-28.9-10.4-33.8c-9.5-4.7-10.3-9.5-11.2-15
					c-0.2-1.3-0.5-2.6-0.8-4.1c-1.8-7.2-9.2-12.3-15.4-10.8c-2.8,0.7-5.5,3.3-7.1,6.9c-2,4.7-1.7,9.9,0.9,14.3
					c5.8,9.9,2.4,20.6,2.3,21l-0.1,0.2C187.6,398.3,188.7,407.8,189,410.3z"/>
			</g>
		</g>
		<g>
			<path d="M212.3,411.5c-9.4-20.5-16.4-65.3-16.4-65.8l1.5-0.2c0.1,0.5,7,45.1,16.3,65.4L212.3,411.5z"/>
		</g>
		<g>
			<circle cx="163.5" cy="370.7" r="4.9"/>
		</g>
		<g>
			<path d="M188.4,411.6c-15.6-5.8-24.4-29.4-24.8-30.4l1.8-0.6c0.1,0.2,8.9,23.9,23.7,29.3L188.4,411.6z"/>
		</g>
		<g>
			<rect x="194.2" y="361.1" transform="matrix(0.3495 -0.9369 0.9369 0.3495 -205.2381 428.0692)" width="23" height="1.5"/>
		</g>
		<g>
			<rect x="196.5" y="372.4" transform="matrix(0.3679 -0.9299 0.9299 0.3679 -214.7661 430.3669)" width="25.3" height="1.5"/>
		</g>
		<g>
			<path class="st1" d="M155.9,372c0,0,7.6-4,15.2-1.6c0,0,2.1,11.1-5.7,12C156.6,383.4,155.9,372,155.9,372z"/>
		</g>
		<g>
			<circle cx="143.9" cy="367.2" r="4.5"/>
		</g>
		<g>
			<path d="M179.3,404.4c0,0-4.4-6.3-3.8-11.3c0.6-5,3.8-6.6,5-6.3c1.2,0.3,3.4,0.9,2.5,5.7C182.1,397.2,179.3,404.4,179.3,404.4z"
				/>
		</g>
		<g>
			<rect x="200.7" y="388.1" transform="matrix(0.592 -0.8059 0.8059 0.592 -242.2968 326.6033)" width="1.5" height="29"/>
		</g>
		<g>
			<rect x="194.3" y="397.6" transform="matrix(0.5832 -0.8123 0.8123 0.5832 -248.577 327.6871)" width="1.5" height="17"/>
		</g>
		<g>
			<g>
				<path class="st2" d="M254.3,363.1c0,0-3.1-6.6,0-15.1s5.3-34.9-13.5-33.7c-18.9,1.2-20.1,26.4-18.2,39.3
					c1.9,12.9-0.9,21.7-4.1,29c-3.1,7.2-13.2,12.6-11.7,28.6h63.9C270.7,411.2,273.8,385.7,254.3,363.1z"/>
			</g>
			<g>
				<path d="M271.4,412h-65.2l-0.1-0.7c-1.1-11.6,3.7-17.9,7.7-22.9c1.6-2.1,3.1-4.1,4.1-6.1c3.2-7.3,5.9-15.9,4.1-28.5
					c-1.5-10.2-0.8-25.1,6-33.6c3.3-4,7.6-6.2,12.9-6.6c5.3-0.3,9.5,1.4,12.3,5.2c6,8.1,4.2,23.4,2,29.5c-2.8,7.6-0.4,13.7-0.1,14.4
					c10.1,11.8,14.1,24.4,15.6,32.9c1.7,9.2,0.9,15.5,0.9,15.8L271.4,412z M207.5,410.5H270c0.3-4.1,1.1-26.8-16.2-46.9l-0.1-0.1
					l0-0.1c-0.2-0.3-3.3-7,0-15.7c2.2-5.8,3.9-20.5-1.7-28c-2.5-3.4-6.2-4.9-11-4.6c-4.9,0.3-8.9,2.3-11.8,6.1
					c-6.5,8.1-7.2,22.5-5.7,32.4c1.9,13.1-1,22.2-4.1,29.3c-1,2.2-2.5,4.3-4.2,6.4C211.1,394.3,206.7,399.9,207.5,410.5z"/>
			</g>
		</g>
		<g>
			<path d="M149.5,384.1c0,0-9.8,0.8-11.4-1.6c-1.6-2.3,2.7-4.4,8.3-0.9C147.2,382.2,149.5,384.1,149.5,384.1z"/>
		</g>
		<g>
			<path d="M152.5,389.1c0,0-9.4,2.8-11.5,0.8c-2-2,1.7-4.9,7.9-2.6C149.9,387.7,152.5,389.1,152.5,389.1z"/>
		</g>
		<g>
			<path d="M173.4,411.8c-17.9-13.8-29.4-34.1-29.5-34.3l1.7-0.9c0.1,0.2,11.4,20.1,29,33.7L173.4,411.8z"/>
		</g>
		<g>
			<path d="M239.9,411.2c-6.4-34.2-6-58.8-4.6-73.4c1.5-15.9,4.5-23.5,4.7-23.9l1.4,0.6c0,0.1-3.1,7.8-4.5,23.6
				c-1.4,14.5-1.7,38.9,4.6,72.9L239.9,411.2z"/>
		</g>
		<g>
			<rect x="229.1" y="326.7" transform="matrix(0.7538 -0.6571 0.6571 0.7538 -163.8736 233.6556)" width="1.5" height="17.6"/>
		</g>
		<g>
			<rect x="228" y="335.3" transform="matrix(0.7513 -0.66 0.66 0.7513 -170.8497 236.7968)" width="1.5" height="19.6"/>
		</g>
		<g>
			<path class="st1" d="M137,368.4c0,0,6.5-3.8,13.9-1.4c0,0,1.9,10.1-5.1,10.9C137.6,378.7,137,368.4,137,368.4z"/>
		</g>
		<g>
			<rect x="231.5" y="377.6" transform="matrix(0.6194 -0.7851 0.7851 0.6194 -202.9706 338.0049)" width="31.2" height="1.5"/>
		</g>
		<g>
			<rect x="232.1" y="384.7" transform="matrix(0.6282 -0.7781 0.7781 0.6282 -207.1038 337.6029)" width="35.2" height="1.5"/>
		</g>
	</g>
	<g id="Plant_1_">
		<g>
			<circle cx="420.7" cy="362.3" r="4.5"/>
		</g>
		<g>
			<path d="M427.2,378.8c0,0,8-5.7,7.7-8.5c-0.3-2.8-4.9-1.7-6.9,4.6C427.8,375.9,427.2,378.8,427.2,378.8z"/>
		</g>
		<g>
			<path d="M428.1,384.6c0,0,9-3.9,9.3-6.7c0.3-2.8-4.5-2.6-7.7,3.1C429.3,381.8,428.1,384.6,428.1,384.6z"/>
		</g>
		<g>
			<path d="M424.6,411.7l-1.8-0.6c7.4-22.9,1.7-40.3,1.6-40.5l1.8-0.6C426.4,370.7,432.1,388.2,424.6,411.7z"/>
		</g>
		<g>
			<path class="st1" d="M426.8,358.7c0,0-7.4,1.2-11.5,7.8c0,0,5,9,10.9,5C432.9,367.1,426.8,358.7,426.8,358.7z"/>
		</g>
		<g>
			<g>
				<path class="st2" d="M388.6,411.2c0,0-1.9-8.5,2.8-16.7c0,0,2.6-8-1.7-15.3c-4.2-7.3,0-15.6,5-16.7c5-1.2,10.9,2.8,12.3,8.5
					c1.4,5.7,0.5,13.6,9,17.9c8.5,4.2,7.8,22.4,7.8,22.4L388.6,411.2L388.6,411.2z"/>
			</g>
			<g>
				<path d="M424.6,412H388l-0.1-0.6c-0.1-0.3-1.9-8.8,2.9-17.2c0.2-0.8,2.2-8.1-1.6-14.6c-2.2-3.7-2.4-8.1-0.8-12
					c1.3-3,3.7-5.3,6.2-5.9c5.4-1.3,11.7,3,13.2,9c0.3,1.2,0.5,2.5,0.7,3.9c0.8,5.1,1.6,10.3,7.9,13.5c8.8,4.4,8.3,22.4,8.3,23.1
					L424.6,412z M389.2,410.5h33.9c0-3.4-0.4-17.5-7.5-21c-7-3.5-7.9-9.4-8.7-14.6c-0.2-1.3-0.4-2.6-0.7-3.7
					c-1.3-5.3-6.7-9-11.4-7.9c-2.1,0.5-4.1,2.4-5.1,5c-1.5,3.4-1.2,7.3,0.7,10.6c4.4,7.5,1.8,15.6,1.7,15.9l-0.1,0.2
					C388.3,401.5,388.9,408.4,389.2,410.5z"/>
			</g>
		</g>
		<g>
			<path d="M406.3,411.6c-7-15.4-12.3-49-12.3-49.4l1.5-0.2c0,0.3,5.3,33.8,12.2,49L406.3,411.6z"/>
		</g>
		<g>
			<rect x="392.9" y="373.5" transform="matrix(0.3496 -0.9369 0.9369 0.3496 -89.5356 619.6301)" width="17.3" height="1.5"/>
		</g>
		<g>
			<rect x="394.7" y="382.1" transform="matrix(0.3679 -0.9299 0.9299 0.3679 -100.5137 617.7591)" width="18.9" height="1.5"/>
		</g>
		<g>
			<rect x="397.6" y="394.1" transform="matrix(0.592 -0.8059 0.8059 0.592 -163.8142 486.2025)" width="1.5" height="21.7"/>
		</g>
		<g>
			<rect x="392.8" y="401.1" transform="matrix(0.5833 -0.8123 0.8123 0.5833 -166.9955 489.5066)" width="1.5" height="12.7"/>
		</g>
	</g>
	<g id="Woman">
		<g>
			<g>
				<rect x="34.1" y="392.9" class="st2" width="13.4" height="9.9"/>
			</g>
			<g>
				<path d="M48.2,403.5H33.3v-11.4h14.9V403.5z M34.8,402h11.8v-8.4H34.8V402z"/>
			</g>
		</g>
		<g>
			<path d="M34.1,400.1c0,0,7.3,5.5,13.4,0l18.1,9.4c0.8,0.4,0.5,1.6-0.4,1.6h-32c-1,0-1.7-0.9-1.5-1.9L34.1,400.1z"/>
		</g>
		<g>
			<g>
				<rect x="102.3" y="392.9" class="st2" width="13.4" height="9.9"/>
			</g>
			<g>
				<path d="M116.4,403.5h-14.9v-11.4h14.9V403.5z M103,402h11.8v-8.4H103V402z"/>
			</g>
		</g>
		<g>
			<path d="M102.3,400.1c0,0,7.3,5.5,13.4,0l18.1,9.4c0.8,0.4,0.5,1.6-0.4,1.6h-32c-1,0-1.7-0.9-1.5-1.9L102.3,400.1z"/>
		</g>
		<g>
			<g>
				<path class="st2" d="M58.4,226.2l11.5,54L49.2,395.6h-22c0,0,10.7-107.4,11-108.9c0.3-1.9-0.8-76.4-0.7-74.8L58.4,226.2z"/>
			</g>
			<g>
				<path d="M49.9,396.4H26.4l0.1-0.8c0.5-4.4,10.8-107.5,11-109c0.3-1.8-0.4-51-0.6-67.2l-0.1-6.9c0-0.1,0-0.2,0-0.3v-0.2l0,0
					c0-0.4,0.2-0.8,0.7-0.8h0.8v0.4l20.8,14.2l0.1,0.3l11.5,54.1L49.9,396.4z M28.1,394.9h20.5l20.5-114.7l-11.4-53.5l-19.4-13.3
					c0,1.3,0,3.4,0.1,6c0.5,32.6,0.8,66.1,0.6,67.5C38.8,288.3,31.8,357.6,28.1,394.9z"/>
			</g>
		</g>
		<g>
			<g>
				<path class="st2" d="M77.5,225.1l23.8,50c1.2,2.6,2.1,5.3,2.5,8.1l18,112.3H98.4l-29-112.2l-29.8-68.7L77.5,225.1z"/>
			</g>
			<g>
				<path d="M122.8,396.4H97.8L68.7,283.6l-30.4-70.1l39.7,11l24,50.3c1.2,2.6,2.1,5.5,2.6,8.3L122.8,396.4z M99,394.9h22
					l-17.9-111.5c-0.5-2.7-1.3-5.4-2.5-7.9L77,225.8l-36-10l29.1,67.3v0.1L99,394.9z"/>
			</g>
		</g>
		<g>
			<g>
				<path class="st2" d="M128.8,203.9V220l20.2-16.1l5.1-10.3l4.8-4.8c0,0,0.7,0.4,0,2.6c-0.7,2.2-2.2,3.7-2.2,3.7l-1.1,2.6
					c0,0,2.6-0.4,2.9,1.1c0,0,2.2,0.7,1.8,2.6c0,0,1.1,0,1.5,1.5l-1.1,3.7l-4.1,3.3l-2.2,0.4L125,238.5c-3.7,3.6-9.9,1.1-10.2-4.1
					l-1-22.5L128.8,203.9z"/>
			</g>
			<g>
				<path d="M120.9,240.9c-0.8,0-1.7-0.2-2.5-0.5c-2.5-1-4.1-3.3-4.2-6l-1.1-23l16.6-8.9v15.8l18.8-15l5.1-10.2l5.2-5.2l0.5,0.2
					c0.3,0.2,1.2,0.9,0.4,3.5c-0.7,2-1.9,3.4-2.3,3.9l-0.6,1.4c0.9,0.1,1.9,0.4,2.4,1.3c0.8,0.4,2,1.2,2,2.6
					c0.6,0.3,1.1,0.8,1.4,1.9l0,0.2l-1.2,4.1l-4.4,3.6l-2.2,0.4L125.6,239C124.2,240.3,122.6,240.9,120.9,240.9z M114.6,212.4l1,22
					c0.1,2.1,1.4,3.9,3.3,4.7c1.9,0.8,4.1,0.3,5.6-1.1l29.7-28.5l2.2-0.4l3.7-3l1-3.2c-0.2-0.6-0.6-0.7-0.7-0.7h-0.9l0.2-0.9
					c0.2-1.2-1.3-1.7-1.3-1.7l-0.4-0.1l-0.1-0.4c-0.2-0.6-1.5-0.6-2.1-0.5l-1.3,0.2l1.7-3.9l0.1-0.1c0,0,1.4-1.4,2-3.4
					c0.1-0.3,0.2-0.5,0.2-0.8l-3.6,3.6l-5.1,10.3l-21.6,17.2v-16.4L114.6,212.4z"/>
			</g>
		</g>
		<g>
			<g>
				<path class="st2" d="M104.4,166.1l12.8-17.6l11.2-13.5l17.6,12.8c0,0-12.2,27.7-24.3,19.4l-4.5,7.7L104.4,166.1z"/>
			</g>
			<g>
				<path d="M117.4,176l-14-9.7l13.2-18.2l11.6-14l18.6,13.6l-0.3,0.6c-0.3,0.8-8.2,18.4-17.8,21c-2.4,0.7-4.7,0.4-6.9-0.9
					L117.4,176z M105.5,165.9l11.4,7.9l4.5-7.7l0.7,0.5c2,1.4,4.1,1.8,6.3,1.1c8-2.3,15.1-16.7,16.6-19.6l-16.5-12L117.8,149
					L105.5,165.9z"/>
			</g>
		</g>
		<g>
			<path d="M116.9,140c0,0-10.3-8.2,1.1-16.6c11.4-8.4,13.2,5.8,13.2,5.8s25.9,7.5,14.6,23.1c0,0-2.8,0.2-5.3-0.5l-3.3,6.7l-2.2-0.1
				c0,0,1.2-6.3-2.1-4.9c-3.3,1.4-3.7,4.1-3,5.7c0,0-7.2,6.9-16.1-3.8C113.6,155.4,109.7,148.3,116.9,140z"/>
		</g>
		<g>
			<path class="st1" d="M104.6,162.8H84.1c0,0-33.9,10.4-38.3,15.9c-2.4,3,2.2,12.1,5.8,17.3l-15.1,15.5
				c15.4,29.7,45.8,25.3,45.8,25.3c3.7-9.2,30.1-37.8,30.1-37.8v20.2l19.4-9.5v-23.3c0-3.5-1.8-6.8-4.7-8.8L104.6,162.8z"/>
		</g>
		<g>
			<path d="M48.3,200.5l-1-1.2c17.6-14.6,37.4-29.5,37.6-29.6l0.9,1.2C85.6,171.1,65.8,186,48.3,200.5z"/>
		</g>
	</g>
	<g id="Man">
		<g>
			<g>
				<rect x="463.4" y="389.6" class="st2" width="14.4" height="13.8"/>
			</g>
			<g>
				<path d="M478.6,404.2h-15.9v-15.3h15.9V404.2z M464.2,402.7h12.9v-12.3h-12.9V402.7z"/>
			</g>
		</g>
		<g>
			<g>
				<polygon class="st2" points="486,369.3 492.4,379.7 504.5,372.1 498.2,361.7 				"/>
			</g>
			<g>
				<path d="M492.1,380.8l-7.2-11.7l13.5-8.4l7.2,11.7L492.1,380.8z M487,369.5l5.6,9.1l10.9-6.9l-5.6-9.1L487,369.5z"/>
			</g>
		</g>
		<g>
			<g>
				<path class="st2" d="M422.8,158.8l-10.4,4.4l-19.6-30.3l-7-5.2l-8.1-3.7c0,0-1.7,3.5,2.8,5.7c4.4,2.2,5.4,3.5,5.4,3.5
					s-2.8,0.2-3,3.3c0,0-1.5,0.4-1.7,3.1c0,0-2.2,1.5-1.1,3.3c0,0,1.7,3.9,5,5s5.2,1.1,5.2,1.1l17,29c1.6,2.8,5,3.9,7.9,2.6
					l14.5-6.3L422.8,158.8z"/>
			</g>
			<g>
				<path d="M412.7,182.1c-2.4,0-4.8-1.3-6.1-3.5l-16.8-28.7c-0.8-0.1-2.5-0.3-5-1.1c-3.4-1.1-5.2-4.9-5.4-5.4
					c-1-1.7,0.1-3.3,1.1-4.1c0.2-2,1.1-2.9,1.7-3.3c0.2-1.7,1.2-2.7,2.2-3.2c-0.8-0.6-2-1.4-4.2-2.5c-5-2.5-3.1-6.7-3.1-6.7l0.3-0.7
					l8.9,4.1l7.2,5.3l19.3,29.9l10.4-4.5l7.5,17.1l-15.2,6.6C414.6,181.9,413.6,182.1,412.7,182.1z M378.2,125.1c-0.2,1,0,2.7,2.6,4
					c4.5,2.2,5.5,3.6,5.6,3.7l0.8,1.1l-1.4,0.1c-0.2,0-2.1,0.2-2.3,2.6l0,0.6l-0.5,0.2c0,0-0.9,0.3-1.1,2.5l0,0.4l-0.3,0.2
					c-0.2,0.1-1.6,1.1-0.9,2.3l0,0.1c0,0,1.6,3.6,4.5,4.6c3.1,1.1,4.9,1.1,5,1.1h0.4l0.2,0.4l17,29c1.4,2.4,4.4,3.4,7,2.3l13.8-6
					l-6.2-14.3l-10.3,4.4l-19.9-30.7l-6.9-5L378.2,125.1z"/>
			</g>
		</g>
		<g>
			<polygon points="490.9,222.8 482.7,279.7 481.3,395.5 454.6,395.5 456.5,280.1 462.8,220.2 			"/>
		</g>
		<g>
			<path class="st3" d="M441.7,217.6l-7.9,55.9c-0.6,4.5,0.1,9.2,2.1,13.3l44.2,89.4l19.2-14.8l-36.6-80.6l20.1-60.8L441.7,217.6z"
				/>
		</g>
		<g>
			<path d="M477.9,398.9c0,0-7.8,5.9-14.4,0l-19.5,10.2c-0.9,0.5-0.5,1.7,0.4,1.7h34.5c1.1,0,1.9-1,1.6-2.1L477.9,398.9z"/>
		</g>
		<g>
			<g>
				<path class="st2" d="M462.5,155l1.3-18.4c0,0-17.1,3.5-9.5-21.1c5.8-18.9,22.8-4.2,22.8-4.2s4,2.6,1.7,23.4l0.5,21.5L462.5,155z
					"/>
			</g>
			<g>
				<path d="M480.1,157l-18.4-1.3l1.3-18.2c-1.9,0.2-6,0.2-8.8-3c-3.3-3.6-3.5-10.1-0.6-19.3c1.7-5.4,4.4-8.7,8.2-9.8
					c7.2-2,15.3,4.7,15.9,5.2c0.6,0.5,4.2,4.1,2,24L480.1,157z M463.3,154.3l15.2,1.1l-0.5-20.7v0c2.2-19.3-1.3-22.6-1.3-22.6
					l-0.1,0c-0.1-0.1-8-6.8-14.5-5c-3.2,0.9-5.6,3.9-7.2,8.7c-2.6,8.5-2.5,14.6,0.3,17.8c3,3.4,8.3,2.3,8.4,2.3l1-0.2l-0.1,1
					L463.3,154.3z"/>
			</g>
		</g>
		<g>
			<path class="st0" d="M418.4,158l8.5,21.1l15-5.7l0.9,9.8l-3.7,41.8c0,0,11,11.3,23.5,7.5c19.2-5.8,30.1-1.2,30.1-1.2l0.2-28.4
				c0,0,13.5-3.5,13.9-5.7c0.3-2.1-2.3-29-21-46.9c-2-2-4.7-3.2-7.5-3.5l-22.8-2.6c-2.3-0.3-4.7,0.1-6.9,1L418.4,158z"/>
			<path d="M457.3,234.1c-10.3,0-18.3-8.1-18.7-8.6l-0.2-0.3l3.7-42.1l-0.8-8.7l-14.7,5.6l-9-22.4l30.9-13.1c2.3-1,4.8-1.3,7.3-1.1
				l22.8,2.6c3,0.3,5.9,1.7,8,3.7c19.1,18.3,21.5,45.6,21.2,47.6c-0.2,0.9-1.2,2.1-7.6,4.3c-2.6,0.9-5.2,1.6-6.3,1.9l-0.2,28.9
				l-1.1-0.5c-0.1,0-11-4.4-29.6,1.2C460.9,233.8,459,234.1,457.3,234.1z M439.9,224.7c1.7,1.6,11.6,10.4,22.5,7.1
				c16.1-4.9,26.4-2.5,29.6-1.6l0.2-27.9l0.6-0.2c6.1-1.6,12.9-4.1,13.3-5.1c0.1-0.8-0.3-7.8-3.3-17.1c-2.6-8.1-7.7-19.8-17.5-29.1
				c-1.9-1.8-4.4-3-7.1-3.3l-22.8-2.6c-2.2-0.3-4.5,0.1-6.5,0.9l-29.5,12.5l7.9,19.7l15.2-5.8l1,10.9L439.9,224.7z"/>
		</g>
		<g>
			<path class="st3" d="M503.1,369c0,0-3.5,9.2-12.2,7.6l-11.2,19c-0.5,0.8,0.5,1.8,1.3,1.2l29.2-18.3c0.9-0.6,1.1-1.9,0.3-2.6
				L503.1,369z"/>
		</g>
		<g>
			<path d="M493.6,203h-1.5c0-21.8-5.5-40.3-5.5-40.5l1.4-0.4C488.1,162.3,493.6,181,493.6,203z"/>
		</g>
		<g>
			<path d="M462.9,115.7l0.4,6.7h2.6c0,0,1.8-6.5,6.3-2.2c0.8,0.8,1.5,3,0.8,5.9c0,0,1.6,3.7,5.7,4.2c0,0,1.6-0.5,2.1-0.9
				c4.4-3.6,9.3-17.5,2.6-22.9c0,0-12.9-15.5-27.7-6.6C451.9,102.2,450,110.2,462.9,115.7z"/>
		</g>
	</g>
	<g id="Floor">
		<g>
			<rect y="410.8" width="536" height="1.5"/>
		</g>
	</g>
</g>
</svg>
