<svg xmlns="http://www.w3.org/2000/svg" width="154.188" height="33.212" viewBox="0 0 154.188 33.212">
  <g id="Group_38" data-name="Group 38" transform="translate(-7.4 -9.6)">
    <path id="Path_50" data-name="Path 50" d="M36.141,9.6H16.98L7.4,26.206l9.58,16.606H36.141l9.6-16.606Zm-15.7,7.6-.551-3.171h2.335l.2,1.057c.022.088.022.242.044.418.286-.264.617-.551.727-.639l.991-.837h2.731l-4.118,3.458.661,3.392H21.077l-.22-1.365a2.407,2.407,0,0,1-.066-.374l-2.026,1.74H16.011Zm13.875,22.42H18.83L11.078,26.206H26.561l7.752-13.412,7.73,13.412Z" transform="translate(0 0)"/>
    <g id="Group_37" data-name="Group 37" transform="translate(57.768 11.45)">
      <g id="Group_35" data-name="Group 35" transform="translate(0 17.333)">
        <path id="Path_51" data-name="Path 51" d="M236.1,100.1h4.427V110.76h2.841V100.1h4.427V97.7H236.1Z" transform="translate(-236.1 -97.48)"/>
        <path id="Path_52" data-name="Path 52" d="M320.382,97.622l-5.682,13.06h2.885l.881-2.07h6.607l.9,2.07h2.885L323.179,97.6h-2.8Zm-.947,8.765,1.057-2.4c.595-1.365,1.3-3.392,1.3-3.392s.727,2.048,1.321,3.392l1.057,2.4Z" transform="translate(-297.389 -97.402)"/>
        <rect id="Rectangle_3" data-name="Rectangle 3" width="2.819" height="13.082" transform="translate(39.709 0.22)"/>
        <path id="Path_53" data-name="Path 53" d="M475.419,97.7H472.6v13.06h10.373v-2.423h-7.554Z" transform="translate(-420.514 -97.48)"/>
        <path id="Path_54" data-name="Path 54" d="M557.815,96.7a6.752,6.752,0,1,0,6.915,6.739A6.685,6.685,0,0,0,557.815,96.7Zm.022,10.946a4.2,4.2,0,1,1,3.964-4.207A4.05,4.05,0,0,1,557.837,107.646Z" transform="translate(-481.57 -96.7)"/>
        <path id="Path_55" data-name="Path 55" d="M663.286,106.972a4.839,4.839,0,0,0,2.467-4.229c0-2.775-1.982-5.043-5.858-5.043H654.3v13.06h2.819v-3h1.52c.264,0,1.233,0,1.894-.044l2.026,3.017h3.458ZM660,105.364h-2.885v-5.242h2.907a2.625,2.625,0,1,1-.022,5.242Z" transform="translate(-562.197 -97.48)"/>
      </g>
      <g id="Group_36" data-name="Group 36" transform="translate(0.396)">
        <path id="Path_56" data-name="Path 56" d="M243.23,29.068a6.866,6.866,0,0,1-4.317-1.454l-1.013,2.18a7.543,7.543,0,0,0,5.308,1.784c2.621,0,5.4-1.255,5.4-4.074,0-2.533-2.445-3.612-4.977-4.184-1.5-.33-2.423-.639-2.423-1.476,0-1.035,1.321-1.255,2.048-1.255A6.754,6.754,0,0,1,247,21.668l1.035-2.18a8.342,8.342,0,0,0-4.779-1.387c-2.511,0-4.889,1.255-4.889,3.766,0,2.709,2.555,3.5,4.977,4.052,1.211.264,2.423.595,2.423,1.564C245.74,28.385,244.6,29.068,243.23,29.068Z" transform="translate(-237.9 -18.078)"/>
        <path id="Path_57" data-name="Path 57" d="M329.841,29.087h2.753c3.9,0,5.88-2.268,5.88-5.043S336.492,19,332.616,19H327V32.082h2.819v-3Zm0-7.664h2.929a2.624,2.624,0,1,1,0,5.242h-2.907V21.423Z" transform="translate(-307.377 -18.78)"/>
        <path id="Path_58" data-name="Path 58" d="M514.645,27.889a4.384,4.384,0,0,1-2.929,1.057,4.05,4.05,0,0,1-3.986-4.207,4.236,4.236,0,0,1,6.673-3.414l1.63-1.916A7.042,7.042,0,0,0,511.715,18a6.752,6.752,0,1,0,0,13.5,6.951,6.951,0,0,0,4.669-1.674Z" transform="translate(-446.019 -18)"/>
        <path id="Path_59" data-name="Path 59" d="M423.119,27.876v-1.41h7V24.043h-7V21.423h7.488V19H420.3V32.06h10.571V29.637h-7.752Z" transform="translate(-380.129 -18.78)"/>
      </g>
    </g>
  </g>
</svg>
