<svg xmlns="http://www.w3.org/2000/svg" width="76.567" height="73.171" viewBox="0 0 76.567 73.171">
    <defs>
        <style>
            .prefix__cls-1{fill:none;stroke:#000;stroke-linecap:round;stroke-width:3px;stroke-miterlimit:10}
        </style>
    </defs>
    <g id="prefix__Group_1821" data-name="Group 1821" transform="translate(-44.969 -89.437)">
        <g id="prefix__Group_1820" data-name="Group 1820" transform="translate(69.132 121.77)">
            <path id="prefix__Path_552" d="M52.35 100.585s5.029-3.714 10.085-.035" class="prefix__cls-1" data-name="Path 552" transform="translate(-52.35 -98.858)"/>
            <path id="prefix__Path_553" d="M70.068 103.093s-8.047 8.65-16.136.085" class="prefix__cls-1" data-name="Path 553" transform="translate(-47.812 -86.898)"/>
            <path id="prefix__Path_554" d="M57.043 100.568s5.029-3.714 10.085-.035" class="prefix__cls-1" data-name="Path 554" transform="translate(-38.888 -98.907)"/>
        </g>
        <path id="prefix__Path_555" d="M85.279 92.2l9.606 19.463a2.262 2.262 0 0 0 1.7 1.238l21.479 3.122a2.259 2.259 0 0 1 1.253 3.853l-15.544 15.149a2.281 2.281 0 0 0-.65 2l3.671 21.39a2.259 2.259 0 0 1-3.281 2.383L84.3 150.7a2.251 2.251 0 0 0-2.1 0l-19.212 10.1a2.259 2.259 0 0 1-3.281-2.383l3.671-21.39a2.281 2.281 0 0 0-.65-2l-15.543-15.155a2.259 2.259 0 0 1 1.253-3.853l21.479-3.119a2.262 2.262 0 0 0 1.7-1.238L81.225 92.2a2.261 2.261 0 0 1 4.054 0z" data-name="Path 555" style="stroke-linejoin:round;fill:none;stroke:#000;stroke-linecap:round;stroke-width:3px"/>
    </g>
</svg>
