<svg xmlns="http://www.w3.org/2000/svg" width="11.744" height="23.003" viewBox="0 0 11.744 23.003">
  <path id="Path_146" data-name="Path 146" d="M41.31,50.525c-3.706,0-5.919-2.5-5.921-6.678l.022-12a4.807,4.807,0,0,1,.839-2.644,3.922,3.922,0,0,1,3.383-1.683h0a3.977,3.977,0,0,1,3.4,1.567,4.71,4.71,0,0,1,.832,2.691l-.021,12.072a3.287,3.287,0,0,1-.774,2.384,2.637,2.637,0,0,1-1.944.714h-.006c-1.54,0-2.46-1.16-2.461-3.1L38.661,31.83h1.608l.007,12.017c0,1.483.589,1.5.848,1.5h.01a1.122,1.122,0,0,0,.808-.243,1.91,1.91,0,0,0,.3-1.248l.02-12.072a3.064,3.064,0,0,0-.522-1.741,2.445,2.445,0,0,0-2.107-.908h0a2.363,2.363,0,0,0-2.065,1,3.22,3.22,0,0,0-.55,1.724l-.022,12c0,2.311.751,5.069,4.314,5.07,3.484,0,4.216-2.755,4.216-5.066l-.034-9.787,1.608,0,.034,9.788C47.134,48.092,45.011,50.525,41.31,50.525Z" transform="translate(-35.389 -27.523)"/>
</svg>
