<?xml version="1.0" encoding="utf-8"?>
<!-- Generator: Adobe Illustrator 24.0.1, SVG Export Plug-In . SVG Version: 6.00 Build 0)  -->
<svg version="1.1" id="Layer_1" xmlns="http://www.w3.org/2000/svg" xmlns:xlink="http://www.w3.org/1999/xlink" x="0px" y="0px"
	 viewBox="0 0 1037 780.2000122" style="enable-background:new 0 0 1037 780.2000122;" xml:space="preserve">
<style type="text/css">
	.st0{fill:#01BDB7;}
	.st1{fill:#FEE200;}
</style>
<path d="M938.5999756,598.4000244c-13.7999878,0-28.2999878-10.5999756-43.2000122-31.5
	c-0.2000122-0.2999878-0.2000122-0.7999878,0.2000122-1c0.2999878-0.2000122,0.7999878-0.2000122,1,0.2000122
	C911.6999512,587.3000488,926.2999878,597.7000122,940,597.000061c11.2000122-0.5999756,18.7999878-8.0999756,26.9000244-16.0999756
	c8.0999756-7.9000244,16.4000244-16.0999756,28.5-16.7000122c13.4000244-0.7000122,27.4000244,8.4000244,41.5,26.7999878
	c0.3000488,0.2999878,0.1999512,0.7999878-0.0999756,1.0999756C1036.5,592.4000244,1036,592.3000488,1035.7000732,592.000061
	c-13.7999878-18-27.2999878-26.7999878-40.2000122-26.2000122c-11.5,0.5999756-19.5999756,8.5999756-27.5,16.2999878
	c-7.9000244,7.7999878-16.0999756,15.9000244-27.9000244,16.5
	C939.5999756,598.4000244,939.0999756,598.4000244,938.5999756,598.4000244z"/>
<path d="M41.2000008,213.8999786c-13.1000004,0-26.8999996-10.1000061-41.0999985-30c-0.2-0.3000031-0.2-0.8000031,0.2-1
	c0.3-0.1999969,0.8-0.1999969,1,0.1999969c14.3999996,20.1000061,28.2000008,30,41.2000008,29.3000031
	C53.1000061,211.7999725,60.3000031,204.6999817,68,197.0999756c7.6999969-7.5,15.5999985-15.3000031,27.0999985-15.8999939
	c12.8000031-0.6000061,26,7.8999939,39.4000015,25.5c0.3000031,0.3000031,0.1999969,0.8000031-0.1000061,1.1000061
	s-0.8000031,0.1999969-1.1000061-0.1000061c-13.0999985-17.1000061-25.9000015-25.5-38.1999969-24.8999939
	c-10.9000015,0.5-18.5999985,8.1000061-26.0999985,15.5s-15.2999992,15.1000061-26.5,15.6999969
	C42.0999985,213.8999786,41.7000008,213.8999786,41.2000008,213.8999786z"/>
<path d="M640,718.2000122c-0.0999756,0-0.2999878,0-0.4000244-0.0999756L625.5,708.3000488
	c-0.2000122-0.0999756-0.2999878-0.2999878-0.2999878-0.5s0-0.4000244,0.0999756-0.5999756l9.7999878-14.0999756
	c0.2000122-0.2999878,0.7000122-0.4000244,1-0.2000122l14.0999756,9.7999878c0.2999878,0.2000122,0.4000244,0.7000122,0.2000122,1
	l-9.7999878,14.0999756C640.5,718,640.2999878,718.2000122,640,718.2000122z M626.9000244,707.4000244l12.9000244,9l9-12.9000244
	l-12.9000244-9L626.9000244,707.4000244z"/>
<rect x="891.3157959" y="204.4979401" transform="matrix(0.1076982 -0.9941837 0.9941837 0.1076982 590.9188843 1088.885498)" class="st0" width="21.5003529" height="21.5003529"/>
<path d="M272.5,242.6999817c-0.1000061,0-0.2999878,0-0.3999939-0.1000061l-17-10.6999969
	c-0.3999939-0.1999969-0.5-0.6999969-0.1999969-1c0.1999969-0.3999939,0.6999969-0.5,1-0.1999969l17.0000153,10.6999969
	c0.3999939,0.1999969,0.5,0.6999969,0.2000122,1C273,242.5999908,272.7999878,242.6999817,272.5,242.6999817z"/>
<path d="M601.4000244,45.1999855c-0.2000122,0-0.4000244-0.0999985-0.5-0.2000008
	c-0.2999878-0.2999992-0.2999878-0.7999992,0-1.0999985l13.7000122-14.7000008c0.2999878-0.2999992,0.7999878-0.2999992,1.0999756,0
	s0.2999878,0.7999992,0,1.1000004l-13.7999878,14.6999989C601.7999878,45.0999832,601.5999756,45.1999855,601.4000244,45.1999855z"
	/>
<path d="M854.5,54.9999847c-0.2000122,0-0.5-0.0999985-0.5999756-0.2999992L843,37.7999878
	c-0.2000122-0.2999992-0.0999756-0.7999992,0.2000122-1s0.7999878-0.0999985,1,0.2000008l10.9000244,16.8999977
	c0.2000122,0.2999992,0.0999756,0.7999992-0.2000122,1C854.7000122,54.9999847,854.5999756,54.9999847,854.5,54.9999847z"/>
<path d="M42.2000008,406c-0.2000008,0-0.2999992,0-0.4000015-0.1000061c-0.2999992-0.2000122-0.4000015-0.7000122-0.2000008-1
	L53.1999969,388.5c0.2000008-0.2999878,0.7000008-0.3999939,1-0.2000122c0.2999992,0.2000122,0.4000015,0.7000122,0.2000008,1
	l-11.6000023,16.3999939C42.5999985,405.8999939,42.4000015,406,42.2000008,406z"/>
<path d="M969,421.3999939c-0.2000122,0-0.5-0.1000061-0.5999756-0.2999878c-0.2000122-0.2999878-0.2000122-0.7999878,0.2000122-1
	l16.5-11.3999939c0.2999878-0.2000122,0.7999878-0.2000122,1,0.2000122c0.2000122,0.2999878,0.2000122,0.7999878-0.2000122,1
	l-16.5,11.3999939C969.2999878,421.2999878,969.2000122,421.3999939,969,421.3999939z"/>
<path d="M1024.8000488,215.9999847c-0.0999756,0-0.3000488,0-0.4000244-0.1000061
	c-0.3000488-0.1999969-0.4000244-0.6999969-0.1999512-1l11.4000244-16.6000061c0.1999512-0.3000031,0.6999512-0.3999939,1-0.1999969
	s0.4000244,0.6999969,0.1999512,1l-11.4000244,16.6000061
	C1025.3000488,215.8999786,1025.0999756,215.9999847,1024.8000488,215.9999847z"/>
<path d="M374.7000122,712.4000244c-0.2000122,0-0.3999939-0.0999756-0.6000061-0.2999878
	c-0.2999878-0.2999878-0.2000122-0.7999878,0.1000061-1.0999756l15.7000122-12.5999756
	c0.2999878-0.2999878,0.7999878-0.2000122,1.1000061,0.0999756c0.2999878,0.2999878,0.2000122,0.7999878-0.1000061,1.0999756
	l-15.7000122,12.5999756C375.1000061,712.4000244,374.8999939,712.4000244,374.7000122,712.4000244z"/>
<path d="M302,17.9999847c-0.2000122,0-0.5-0.1000004-0.6000061-0.2999992l-11.5-16.5c-0.2000122-0.3-0.2000122-0.8,0.2000122-1
	c0.2999878-0.2,0.7999878-0.2,1,0.2l11.5,16.4999981c0.2000122,0.2999992,0.2000122,0.7999992-0.2000122,1
	C302.2999878,17.9999847,302.1000061,17.9999847,302,17.9999847z"/>
<path d="M33.5999985,38.799984c-0.2000008,0-0.5-0.0999985-0.5999985-0.2999992L21.5,21.8999844
	c-0.2000008-0.2999992-0.2000008-0.7999992,0.2000008-1c0.2999992-0.2000008,0.7999992-0.2000008,1,0.2000008l11.5,16.4999981
	c0.2000008,0.2999992,0.2000008,0.7999992-0.2000008,1C33.9000015,38.6999855,33.7000008,38.799984,33.5999985,38.799984z"/>
<path d="M110.3000031,685.9000244c-0.1999969,0-0.4000015-0.0999756-0.5999985-0.2000122l-13.5-14.9000244
	C95.9000015,670.5,95.9000015,670,96.3000031,669.7000122c0.3000031-0.2999878,0.8000031-0.2999878,1.0999985,0.0999756
	l13.5,14.9000244C111.2000046,685,111.2000046,685.5,110.8000031,685.7999878
	C110.5999985,685.9000244,110.5,685.9000244,110.3000031,685.9000244z"/>
<path d="M422.2000122,173.4999847c-2.6000061,0-5.2999878-1-7.2999878-3c-4-4-4-10.5,0-14.5s10.5-4,14.5,0s4,10.5,0,14.5
	C427.5,172.4999847,424.8999939,173.4999847,422.2000122,173.4999847z M422.2000122,154.4999847
	c-2.2000122,0-4.5,0.8999939-6.2000122,2.6000061c-3.3999939,3.3999939-3.3999939,9,0,12.3999939s9,3.3999939,12.3999939,0
	s3.3999939-9,0-12.3999939C426.7000122,155.2999878,424.5,154.4999847,422.2000122,154.4999847z"/>
<circle class="st0" cx="27.8999996" cy="552.0999756" r="7.2000055"/>
<circle class="st0" cx="933.7999878" cy="705.4000244" r="9.5"/>
<path d="M1009.0999756,39.9999847c-1.7999878,0-3.5-0.5-5.0999756-1.4000015
	c-2.4000244-1.4000015-4.0999756-3.5999985-4.7999878-6.2000008c-0.7000122-2.7000008-0.2999878-5.3999996,1-7.7999992
	c1.4000244-2.3999996,3.5999756-4.1000004,6.2000122-4.7999992c2.7000122-0.7000008,5.4000244-0.2999992,7.7999878,1
	c2.4000244,1.3999996,4.0999756,3.6000004,4.7999878,6.2000008c0.7000122,2.7000008,0.2999878,5.4000015-1,7.7999992
	c-1.4000244,2.4000015-3.5999756,4.0999985-6.2000122,4.7999992C1010.9000244,39.8999863,1010,39.9999847,1009.0999756,39.9999847z
	 M1009.0999756,20.9999847c-0.7999878,0-1.5,0.1000004-2.2999878,0.2999992
	C1004.5,21.8999844,1002.5999756,23.3999844,1001.5,25.3999844s-1.5,4.3999996-0.9000244,6.6999989
	s2.0999756,4.2000008,4.0999756,5.2999992c2,1.2000008,4.4000244,1.5,6.7000122,0.9000015s4.2000122-2.0999985,5.2999878-4.0999985
	s1.5-4.3999996,0.9000244-6.7000008S1015.5,23.299984,1013.5,22.1999855
	C1012.2000122,21.3999844,1010.5999756,20.9999847,1009.0999756,20.9999847z"/>
<circle class="st0" cx="202.3999939" cy="81.9999847" r="18.5"/>
<g id="hand_1_">
	<path d="M506.7999878,384c-0.2999878,0-0.5-0.1000061-0.7000122-0.2999878
		c-0.2999878-0.3999939-0.2000122-0.8999939,0.1000061-1.2000122c5.5-4.3999939,11.4999695-8.2999878,17.8000183-11.6000061
		c5.9000244-3.1000061,12.0999756-5.7000122,18.4000244-7.6000061c1.4000244-0.3999939,2.7999878-0.8999939,4.5-1.2999878
		c0.0999756,0,0.2000122,0,0.2999878,0C554.6000366,362.2999878,562,362,569,361.2000122
		c5.0999756-0.6000061,7.7999878-1.2999878,9.0999756-3.5c1.2999878-2.1000061,1.2000122-5.2999878-0.2000122-7.2000122
		c-0.9000244-1.2000122-3-2.5-17.2000122-2.5h-0.2000122c-7.2999878,0-11,0-14.9000244,0.5
		c-2.2999878,0.2999878-4.5,0.7999878-6.7999878,1.2999878c-4.4000244,1.1000061-8,2.2999878-10.2999878,3.2000122
		c-3.7000122,1.2999878-7.2000122,2.7000122-10.9000244,4.2000122c-0.4000244,0.2000122-0.9000244,0-1.0999756-0.3999939
		c-0.2000122-0.3999939-0.0999756-0.8999939,0.2000122-1.1000061c6.7999878-4.7999878,13.5999756-8.7000122,20.4000244-11.5
		c6.7999878-2.7999878,13.7000122-4.6000061,20.5999756-5.3999939c1.4000244-0.1000061,2.7999878-0.2999878,4.4000244-0.3999939
		c7.0999756-0.6000061,16-1.2999878,17.2000122-5.2999878c0.5999756-1.7999878-0.5999756-3.7000122-1.0999756-4.3999939
		c-3.4000244-5.1000061-18.7999878-4.2000122-24.4000244-3.3999939c-6.7000122,0.8999939-13.5,2.6000061-20.2000122,5.1000061
		c-5.4000244,2-10.9000244,4.3999939-16.0999756,7.2999878c-0.0999756,0.1000061-0.2999878,0.1000061-0.5,0.1000061
		c-0.5,0-0.7999878-0.3999939-0.7999878-0.8999939c0-0.2000122,0.0999756-0.5,0.2999878-0.6000061
		c0.0999756-0.1000061,0.0999756-0.1000061,0.2000122-0.1000061c5.4000244-2.8999939,10.9000244-5.3999939,16.4000244-7.3999939
		c6.7999878-2.5,13.7999878-4.2000122,20.5999756-5.1000061c0.9000244-0.1000061,21.2999878-2.8999939,26,4.2000122
		c0.7999878,1.2000122,2,3.5,1.2999878,5.8999939c-1.5999756,5-10.7000122,5.7999878-18.7000122,6.3999939
		c-1.5,0.1000061-3,0.2000122-4.2999878,0.3999939c-6.7000122,0.7000122-13.5,2.5-20.0999756,5.2000122
		C533.5,347.6000366,529,349.9000549,524.6000366,352.6000366c1.0999756-0.3999939,2.2000122-0.7999878,3.4000244-1.2000122
		c2.4000244-0.8999939,6-2.1000061,10.5-3.2000122c2.2999878-0.6000061,4.7000122-1,7-1.3999939
		c4-0.6000061,7.7000122-0.6000061,15.0999756-0.5h0.2000122c15.0999756,0.1000061,17.2999878,1.3999939,18.5999756,3.2000122
		c1.7999878,2.5,2,6.5,0.2999878,9.1000061c-1.9000244,3.1000061-5.7000122,3.7000122-10.4000244,4.2999878
		c-7.0999756,0.7999878-14.5,1.1000061-21.9000244,0.7999878c-1.5999756,0.3999939-3,0.8999939-4.2999878,1.2999878
		c-6.2000122,2-12.2999878,4.5-18.0999756,7.5c-6.2000122,3.2000122-12,7.1000061-17.5,11.3999939
		C507.2000122,384,507,384,506.7999878,384z"/>
	<path d="M435.7999878,374.7999878c-0.2000122,0-0.3999939-0.1000061-0.5-0.2000122
		c-0.3999939-0.2999878-0.5-0.7999878-0.2000122-1.2000122c0.2999878-0.5,0.7000122-0.8999939,1-1.3999939l0.7000122-0.8999939
		c5.5-7.2000122,11.1000061-14.2000122,16.6000061-20.7999878C464.1999817,337.5,476.6000061,325.0999756,499.6000061,302.5
		c8.7999878-8.7000122,16.6000061-16,22.3000183-17.2000122c1.5-0.2999878,2.9000244-0.2000122,4,0.3999939
		c2.4000244,1.2000122,3.2000122,4.2000122,3.2999878,4.5c0.7000122,2.7999878-0.2999878,5.8999939-3,9.3999939
		C524.5,301.7999878,522.5,303.6999817,520.7999878,305.2999878l-0.5,0.5
		c-6.7000122,6.3999939-13.2999878,13.8999939-19.7000122,22.5c9.7999878-7.1000061,19.2999878-12.7000122,28.2000122-16.5
		c5-2.2000122,9.7999878-3.7999878,14.4000244-4.8999939c5.2000122-1.2999878,16.0999756-3.8999939,20.0999756,1.2999878
		C563.5,308.3999939,565,310.4999695,564.7000122,312.9999695C564,318.0999756,556.6000366,320.2999573,548,322.7999573
		c-2.7000122,0.7999878-5.4000244,1.6000061-8,2.5c-2.2999878,0.7999878-4.4000244,1.7000122-6.5999756,2.7000122
		c-5.2999878,2.5-10.5999756,5.6000061-15.5,9.3999939l0,0l0,0c-2.5999756,1.8999939-5.0999756,4.1000061-7.5,6.2999878
		c-0.2999878,0.2999878-0.8999939,0.2999878-1.2000122,0c-0.2999878-0.2999878-0.2999878-0.8999939,0-1.2000122
		c2.3999939-2.2999878,5-4.3999939,7.5999756-6.3999939l0,0c5.0999756-3.8999939,10.4000244-7.1000061,15.9000244-9.6000061
		c2.2000122-1,4.4000244-1.8999939,6.7000122-2.7999878c2.7000122-0.8999939,5.4000244-1.7999878,8.0999756-2.6000061
		c7.7000122-2.2999878,14.9000244-4.3999939,15.5-8.3999939c0.2999878-1.7999878-1-3.3999939-1-3.5
		c-3.2999878-4.2999878-13.5-1.8999939-18.4000244-0.7000122c-4.5,1.1000061-9.2000122,2.7000122-14.0999756,4.7999878
		c-10.0999756,4.3999939-21,11-32.2999878,19.7000122c-0.2999878,0.2999878-0.7999878,0.2000122-1.1000061-0.1000061
		c-0.2999878-0.2999878-0.2999878-0.7999878-0.1000061-1.1000061c7.5-10.6000061,15.3999939-19.7000122,23.2999878-27.2999878
		l0.5-0.5c1.5999756-1.5,3.5999756-3.3999939,5.2000122-5.5c2.4000244-3.1000061,3.2999878-5.7000122,2.7000122-7.8999939
		c0,0-0.5999756-2.5-2.4000244-3.3999939c-0.7999878-0.3999939-1.7000122-0.5-2.9000244-0.2000122
		c-5.5999756,1.2000122-14.3999939,9.8999939-21.3999939,16.7999878c-22.8999939,22.5-35.2999878,34.8999939-46,47.7000122
		c-5.6000061,6.6000061-11.1000061,13.6000061-16.6000061,20.7000122l-0.6000061,0.8999939
		c-0.2999878,0.5-0.7000122,0.8999939-1,1.3999939C436.2999878,374.7000122,436.1000061,374.7999878,435.7999878,374.7999878z"/>
	<path d="M468.6000061,418.7000122c-0.3999939,0-0.7000122-0.2000122-0.7999878-0.6000061
		c-0.1000061-0.5,0.1000061-0.8999939,0.6000061-1.1000061c2.2999878-0.7000122,4.8999939-1.5,7.7999878-2.3999939
		c22.6000061-6.7999878,61.7000122-19,68.7000122-23.5c1.2000122-0.7999878,4.5-2.7999878,4.7999878-5.7999878
		c0.2000122-2.1000061-1-4-2.2000122-5c-2.7999878-2.5-7.5999756-1.7000122-15.0999756-0.1000061
		c-7.4000244,1.6000061-15,3.3999939-22.3999939,5.3999939c-0.2000122,0.1000061-0.5,0-0.7000122-0.1000061
		c-1-0.6000061-2-1.2000122-3-1.7000122c-6.1000061-3.3999939-12.6000061-5.5-19.3999939-6.3999939c-4-0.5-8-0.6000061-12-0.2000122
		c-0.5,0-0.8999939-0.2999878-0.8999939-0.7999878S474.3000183,375.5,474.8000183,375.5
		c4.1000061-0.3999939,8.2999878-0.2999878,12.3999939,0.2000122c7,0.8999939,13.7000122,3.1000061,20,6.6000061
		c0.8999939,0.5,1.7999878,1,2.7000122,1.6000061c7.2999878-2,14.7999878-3.7999878,22.0999756-5.3999939
		c8-1.7999878,13.2000122-2.6000061,16.5999756,0.5c1.4000244,1.2999878,3,3.7000122,2.7000122,6.3999939
		c-0.2999878,3.7999878-4.0999756,6.2000122-5.5,7.1000061c-7.2000122,4.6000061-46.3999939,16.7999878-69.1000061,23.6000061
		c-2.8999939,0.8999939-5.5,1.7000122-7.7999878,2.3999939
		C468.7999878,418.7000122,468.7000122,418.7000122,468.6000061,418.7000122z"/>
	<path d="M518.5999756,363.5c-0.4000244,0-0.7999878-0.2999878-0.7999878-0.7999878
		c-0.5999756-6.7000122-3.5-13.1000061-8.7000122-18.8999939c-3.5-3.8999939-7.7999878-7.5-12.8999939-10.6000061
		c-4.2999878-2.6000061-7.3999939-3.8999939-7.6000061-4c-0.3999939-0.1000061-0.7000122-0.5-0.6000061-1s0.5-0.7999878,1-0.7000122
		c0.2000122,0,3.7000122,1.5,8.1000061,4.2000122c5.2999878,3.2000122,9.7000122,6.8999939,13.2999878,11
		c5.4000244,6.1000061,8.4000244,12.7999878,9.0999756,19.8999939C519.4000244,363,519.0999756,363.3999939,518.5999756,363.5
		L518.5999756,363.5z"/>
	<path d="M476.3999939,415.5c-2.8999939,0.8999939-5.5,1.7000122-7.7999878,2.3999939
		c-10.8999939-14.6000061-21.8999939-29.2000122-32.7999878-43.7999878L436.6000061,373l0,0
		C449.8999939,387.1000061,463.2000122,401.2999878,476.3999939,415.5z"/>
</g>
<g id="tshirt_1_">
	<path d="M804.7000122,416.2000122c-0.4000244,0-0.7000122-0.2999878-0.7999878-0.7000122
		c-6.2000122-27-16.0999756-52.7999878-29.4000244-76.5c-22.4000244-40-55.5-76.1000061-93.2000122-101.7000122
		c-0.4000244-0.3000031-0.5-0.8000031-0.2000122-1.1999969s0.7999878-0.5,1.2000122-0.1999969
		C720.2000122,261.6000061,753.3999634,297.9000244,776,338.2000122c13.4000244,23.8999939,23.2999878,49.7999878,29.5999756,77
		c0.0999756,0.5-0.2000122,0.8999939-0.5999756,1C804.7999878,416.2000122,804.7999878,416.2000122,804.7000122,416.2000122z"/>
	<path d="M226.1999969,637.0999756c-7.6999969,0-14.5-1.7000122-20.3000031-5
		c-21.3999939-12.2999878-30.1000061-48.5-24.3000031-101.9000244l0.1000061-1
		c3.5-33.3999939,15.5-64.7999878,36.6999969-95.7999878C239.7999878,401.9999695,294.5,334.4999695,363.5,280.2999573
		c40.2000122-31.5000153,80-54.4000092,118.1000061-68.1000214C527.5999756,195.799942,571.5,192.799942,612.2999878,203.299942
		c0.5,0.1000061,0.7000122,0.6000061,0.5999756,1c-0.0999756,0.5-0.5999756,0.6999969-1,0.6000061
		c-40.4000244-10.3999939-84-7.3999939-129.7000122,8.8999939c-38,13.6000061-77.6000061,36.3999939-117.7000122,67.8000336
		C295.7000122,335.7000122,241.1999969,403,219.8000031,434.2999878c-21,30.7999878-32.9000092,61.8999939-36.4000092,95
		l-0.1000061,1c-5.6999969,52.7000122,2.6999969,88.4000244,23.5,100.2999878
		C234.8999939,646.6999512,286.5999756,622.2999878,360.6999817,558c0.3999939-0.2999878,0.8999939-0.2999878,1.2000122,0.0999756
		C362.1999817,558.5,362.1999817,559,361.7999878,559.2999878C302.2000122,611,256.7000122,637.0999756,226.1999969,637.0999756z"/>
	<path d="M397.1000061,527c-0.2000122,0-0.5-0.0999756-0.6000061-0.2999878c-0.2999878-0.2999878-0.2999878-0.9000244,0-1.2000122
		c15.8999939-15,32.7999878-31.7000122,50.2999878-49.7000122C451.5,471,456.2999878,466,461.0999756,461
		c1.8999939-2,3.7999878-4,5.7000122-6c1.8999939-2,3.7999878-4,5.7000122-6
		c3.3999939-3.6000061,6.8999939-7.2999878,10.2000122-10.8999939l-10.2999878-13.7000122
		c-1.2999878-1.7000122-2.6000061-3.5-3.8999939-5.2000122l-36.7000122-49c-2-2.7000122-4.1000061-5.3999939-6.1000061-8.2000122
		l-123.2999878,68.6000061c-0.3999939,0.2000122-0.8999939,0.1000061-1.2000122-0.2999878
		C301,429.8999939,301.1000061,429.3999939,301.5,429.0999756l124-69c0.3999939-0.2000122,0.7999878-0.1000061,1.1000061,0.2000122
		c2.2000122,2.8999939,4.3999939,5.7999878,6.5,8.7000122l36.7000122,49c1.2999878,1.7000122,2.6000061,3.5,3.8999939,5.2000122
		L484.4000244,437.5c0.2000122,0.2999878,0.2000122,0.7999878-0.1000061,1.1000061
		c-3.6000061,3.7999878-7.1000061,7.6000061-10.7000122,11.3999939c-1.8999939,2-3.7999878,4-5.7000122,6
		c-1.8999939,2-3.7999878,4-5.7000122,6c-4.7999878,5-9.6000061,10-14.2999878,14.7999878
		c-17.5,18-34.3999939,34.7000122-50.2999878,49.7000122C397.5,526.9000244,397.2999878,527,397.1000061,527z"/>
	<path d="M606,312.7000122c-0.0999756,0-0.2000122,0-0.2999878-0.1000061c-0.2999878-0.1000061-0.4000244-0.3999939-0.5-0.6000061
		l-18.2999878-112.4000092c-0.0999756-0.5,0.2000122-0.8999939,0.7000122-1s0.9000244,0.1999969,1,0.6999969l18.0999756,111.1000061
		l5.5-3.5c6.9000244-4.3999939,13.7000122-8.7999878,20.5999756-13.2000122l67.7999878-43.6000214
		C701,249.7999573,701.5,249.9999542,701.7999878,250.3999634c0.2999878,0.3999939,0.0999756,0.8999939-0.2999878,1.1999969
		l-67.7999878,43.6000214c-6.9000244,4.3999939-13.7000122,8.7999878-20.5999756,13.2000122l-6.5,4.2000122
		C606.2999878,312.7000122,606.2000122,312.7000122,606,312.7000122z"/>
	<path d="M555.5999756,413.5c-0.0999756,0-0.2000122,0-0.4000244-0.1000061s-0.4000244-0.2999878-0.5-0.6000061l-6.4000244-24
		c-0.0999756-0.5,0.0999756-0.8999939,0.5999756-1s0.9000244,0.1000061,1,0.6000061L555.9998779,411.5
		c68.4000244-31.7999878,136.7999878-63.6000061,205.2000122-95.3999939c0.4000244-0.2000122,0.9000244,0,1.0999756,0.3999939
		c0.2000122,0.3999939,0,0.8999939-0.4000244,1.1000061C693.1998291,349.5,624.4998779,381.5,555.7998047,413.4000244
		C555.7999878,413.5,555.7000122,413.5,555.5999756,413.5z"/>
	<path d="M633.0999756,294.3999939C624.0999756,300.1999817,615,306,606,311.7999878c-1.9000244-12-3.9000244-24-5.9000244-36
		C609.0999756,280.8999939,621.5,287.8999939,633.0999756,294.3999939z"/>
	<path d="M533.5,330.3999939c-0.4000244,0-0.7000122-0.2000122-0.7999878-0.6000061l-0.0999756-0.3999939
		c-0.2000122-0.6000061-0.2999878-1.2000122-0.5-1.8999939c-0.0999756-0.5,0.2000122-0.8999939,0.5999756-1
		c0.5-0.1000061,0.9000244,0.2000122,1,0.6000061c0.2000122,0.6000061,0.2999878,1.2000122,0.5,1.7999878l0.0999756,0.3999939
		c0.0999756,0.5-0.0999756,0.8999939-0.5999756,1C533.7000122,330.3999939,533.5999756,330.3999939,533.5,330.3999939z"/>
	<path d="M546.5999756,379.6000061c-0.4000244,0-0.7000122-0.2999878-0.7999878-0.6000061
		c-1.0999756-4.1000061-2.2000122-8.2000122-3.2999878-12.2999878l-0.5999756-2.2999878
		c-0.0999756-0.5,0.2000122-0.8999939,0.5999756-1c0.5-0.1000061,0.9000244,0.1000061,1,0.6000061l0.5999756,2.2999878
		c1.0999756,4.1000061,2.2000122,8.2000122,3.2999878,12.2999878c0.0999756,0.5-0.0999756,0.8999939-0.5999756,1
		C546.7000122,379.6000061,546.7000122,379.6000061,546.5999756,379.6000061z"/>
	<path d="M538.7000122,349.7999878c-0.4000244,0-0.7000122-0.2000122-0.7999878-0.6000061
		c-0.2999878-1.1000061-0.5999756-2.2000122-0.9000244-3.2999878l-0.2000122-0.7000122
		c-0.0999756-0.5,0.2000122-0.8999939,0.5999756-1c0.4000244-0.1000061,0.9000244,0.1000061,1,0.6000061L538.5999756,345.5
		c0.2999878,1.1000061,0.5999756,2.2000122,0.9000244,3.2000122c0.0999756,0.5-0.0999756,0.8999939-0.5999756,1
		C538.7999878,349.7999878,538.7000122,349.7999878,538.7000122,349.7999878z"/>
	<path d="M529.0999756,313.5c-0.4000244,0-0.7000122-0.2999878-0.7999878-0.6000061l-0.4000244-1.2999878
		c-1.0999756-4-2.2000122-8.1000061-3.2000122-12.1000061c-0.0999756-0.5,0.2000122-0.8999939,0.5999756-1
		c0.4000244-0.1000061,0.9000244,0.2000122,1,0.6000061c1.0999756,4,2.0999756,8.1000061,3.2000122,12.1000061L529.8999634,312.5
		c0.0999756,0.5-0.0999756,0.8999939-0.5999756,1C529.2000122,313.5,529.0999756,313.5,529.0999756,313.5z"/>
	<path d="M522,287.1000061c-0.4000244,0-0.7000122-0.2999878-0.7999878-0.6000061l-21.1000061-79.3000183
		c-0.1000061-0.5,0.1000061-0.8999939,0.6000061-1c0.3999939-0.1000061,0.8999939,0.1000061,1,0.6000061l21.0999756,79.3000183
		c0.0999756,0.5-0.0999756,0.8999939-0.5999756,1C522.2000122,287.1000061,522.0999756,287.1000061,522,287.1000061z"/>
</g>
<g id="head_1_">
	<path id="hair_1_" d="M731.9000244,176.6999817c-1.0999756-0.6000061,1.7000122-5.1999969,3.2000122-16.5
		c1.5-10.8999939,2.2999878-16.3999939-0.4000244-20.1999969c-5.7999878-8.1999969-19.9000244,1.8999939-34.9000244-5.6999969
		c-15.7000122-7.9000015-13.0999756-25.5-26-28c-9.7000122-1.8000031-21.5999756,6.0999985-27.7999878,12.8000031
		c-5.2000122,5.6999969-6.7999878,11-9,10.5c-2.7000122-0.6999969-4.7999878-10.1999969-1-16.1999969
		c2.0999756-3.4000015,4.7999878-3.5999985,6.0999756-7.5999985c1-3.0999985,0.4000244-6.1999969,0.0999756-7.9000015
		c-0.5-2.5999985-1.4000244-4.6999969-2.0999756-6c1.7000122-2.3000031,21.5-28.5999985,54.0999756-27.3000031
		c29.9000244,1.1999969,50.5999756,24.9000015,57.7000122,45.5c1.2999878,3.9000015,5.5999756,16.8000031,2,32.3999939
		C749.2999878,162.6999817,734.2000122,177.8999786,731.9000244,176.6999817z"/>
	<g id="face_1_">
		<path d="M681.7999878,237.4999847c-0.0999756,0-0.2000122,0-0.2999878-0.1000061
			c-0.4000244-0.1999969-0.5999756-0.6999969-0.4000244-1.1000061c1.7999878-4.1999969,3.7000122-8.5,5.5-12.6999969
			L692.5,209.8999786l0.7999878,0.1999969L692.5,209.7999725c0.0999756-0.1999969,0.2999878-0.3999939,0.5-0.5
			c7.7000122-2.3999939,15-5.8999939,21.5999756-10.3999939c4.5999756-3.1999969,8.9000244-6.8000031,12.7999878-10.8999939
			c0.2000122-0.1999969,0.4000244-0.3000031,0.7000122-0.3000031c1.5999756,0.1000061,3.0999756,0.1000061,4.7000122,0
			c0,0,1.7999878-0.1999969,3.4000244-0.6000061c0.0999756,0,12.7999878-3.3000031,17.2999878-14.6000061
			c1.7000122-4.3000031,1.2000122-7.1999969,0.9000244-8.1999969s-0.7999878-2.8000031-2.5-4
			c-1.7999878-1.1999969-3.9000244-1.1000061-4.5999756-0.8999939c-0.5,0.1000061-0.9000244-0.1999969-1-0.6999969
			s0.2000122-0.8999939,0.7000122-1c1-0.1999969,3.5999756-0.3999939,5.9000244,1.1999969
			c2.2000122,1.5,2.9000244,3.8000031,3.2000122,4.8999939c0.2999878,1.1999969,0.9000244,4.5-1,9.3000031
			c-4.9000244,12.1000061-18.2999878,15.6000061-18.5,15.6000061c-1.7999878,0.5-3.5999756,0.6000061-3.7000122,0.6000061
			c-1.5,0.1999969-3.0999756,0.1999969-4.5999756,0c-3.9000244,4-8.2000122,7.6999969-12.7999878,10.8000031
			c-6.5999756,4.5-13.9000244,8.1000061-21.5999756,10.5l-5.7999878,13.5c-1.7999878,4.1999969-3.7000122,8.5-5.5,12.6999969
			C682.4000244,237.2999878,682.0999756,237.4999847,681.7999878,237.4999847z"/>
		<path d="M612.2000122,204.9999847c-0.0999756,0-0.2000122,0-0.2999878-0.1000061
			C611.5,204.6999817,611.3000488,204.1999817,611.5,203.7999725l16.7000122-37.6000061
			c-1.7999878-7-2.7000122-14.1000061-2.5-21.3000031c0.0999756-4.5,0.5999756-9,1.5-13.3999939
			c-5.2000122-2.6999969-7.7999878-10.5-7-21.1999969c0.7999878-10.5999985,5.0999756-22.5,10.7999878-24
			c0.7000122-0.1999969,2.2000122-0.4000015,3.7999878,0c7.5,2,9,15.5,9.2000122,18.1999969
			c0,0.5-0.2999878,0.9000015-0.7999878,0.9000015s-0.9000244-0.3000031-0.9000244-0.8000031
			c-0.0999756-1.5-1.4000244-14.9000015-7.9000244-16.7000046c-1.2000122-0.3000031-2.5-0.0999985-2.9000244,0
			c-4.2999878,1.0999985-8.7000122,11.4000015-9.5999756,22.4000015
			c-0.7999878,10.3000031,1.7000122,17.7000046,6.5999756,19.7999954c0.4000244,0.1999969,0.5999756,0.6000061,0.5,1
			c-1,4.5-1.5,9.1000061-1.5999756,13.8000031c-0.2000122,7.1000061,0.7000122,14.1999969,2.5,21.1000061
			c0,0.1999969,0,0.3999939,0,0.6000061l-16.9000244,37.9000092C612.7999878,204.7999878,612.5,204.9999847,612.2000122,204.9999847
			z"/>
		<path d="M693.2000122,210.1999817c0-0.3000031-0.0999756-0.5-0.0999756-0.8000031
			c-0.7000122,0.1000061-1.7000122,0.1999969-2.9000244,0.3000031c-5.5999756,0.5-9.9000244,0-10.9000244-0.1000061
			c0,0-7.2000122-0.8000031-14.2999878-4.1000061c-16.0999756-7.3000031-26.5999756-28.6999969-27-29.6000061
			c0.9000244,3.1999969,8.9000244,28.6999969,26.0999756,39.3000031c7.9000244,4.8000031,15.5,5.8000031,15.5,5.8000031
			c3.4000244,0.3999939,6.4000244,0.3000031,9-0.1000061L693.2000122,210.1999817z"/>
	</g>
	<g id="glasses_1_">
		<path d="M670.2000122,156.6999817c-2.7000122,0-5.4000244-0.6000061-7.7999878-2
			c-7.9000244-4.3000031-10.7999878-14.3000031-6.5-22.1999969c0.0999756-0.1999969,0.2999878-0.3000031,0.5-0.3999939
			c0.2000122-0.1000061,0.4000244,0,0.5999756,0.1000061l27.2000122,14.8999939
			c0.2000122,0.1000061,0.2999878,0.3000031,0.4000244,0.5c0.0999756,0.1999969,0,0.3999939-0.0999756,0.6000061
			C681.5999756,153.6999817,676,156.6999817,670.2000122,156.6999817z M656.9000244,134.0999908
			c-3.2999878,7-0.5999756,15.3999939,6.2000122,19.1999969s15.4000244,1.5,19.5-5.1000061L656.9000244,134.0999908z"/>
		<path d="M664.7000122,155.6999817c-0.2000122,0-0.4000244-0.1000061-0.5-0.1999969
			c-0.4000244-0.3000031-0.5-0.8000031-0.2000122-1.1999969c0.7999878-1.1000061,1.7999878-1.8999939,2.9000244-2.5
			c1.2999878-0.6999969,2.4000244-0.8999939,3.2000122-1c0.2999878,0,0.7000122-0.1000061,0.7999878-0.1999969
			c0-0.3000031-0.7999878-1.3000031-1.4000244-2c-1.2000122-1.5-2.5999756-3.1000061-2.0999756-4.8999939
			c0.4000244-1.5,2-2.5,4.7999878-3.1000061c0.5-0.1000061,0.9000244,0.1999969,1,0.6999969s-0.2000122,0.8999939-0.7000122,1
			c-2.0999756,0.5-3.4000244,1.1000061-3.5999756,1.8999939c-0.2000122,0.8999939,0.9000244,2.3000031,1.7999878,3.3000031
			c1.0999756,1.3999939,2.2000122,2.6000061,1.5,3.8999939c-0.4000244,0.8000031-1.2999878,0.8999939-2,1
			s-1.5999756,0.1999969-2.5999756,0.8000031c-0.9000244,0.5-1.7000122,1.1999969-2.2999878,2
			C665.2000122,155.5999908,665,155.6999817,664.7000122,155.6999817z"/>
		<path d="M710.9000244,179.6999817c-2.7000122,0-5.4000244-0.6000061-7.7999878-2
			c-3.7999878-2.1000061-6.5999756-5.6000061-7.7999878-9.8000031s-0.7999878-8.6000061,1.2999878-12.5
			c0.2000122-0.3999939,0.7000122-0.6000061,1.2000122-0.3000031l27.2000122,14.8999939
			c0.2000122,0.1000061,0.2999878,0.3000031,0.4000244,0.5c0.0999756,0.1999969,0,0.3999939-0.0999756,0.6000061
			C722.2999878,176.5999908,716.7000122,179.6999817,710.9000244,179.6999817z M697.7000122,156.9999847
			c-1.5,3.1999969-1.7999878,6.8999939-0.7999878,10.3999939c1.0999756,3.8000031,3.5999756,6.8999939,7,8.8000031
			c6.7999878,3.8000031,15.4000244,1.5,19.5-5.1000061L697.7000122,156.9999847z"/>
		<path d="M705.4000244,178.6999817c-0.4000244,0-0.7000122-0.3000031-0.7999878-0.6999969
			c-0.0999756-0.5,0.2000122-0.8999939,0.5999756-1c4.9000244-1.1000061,5.9000244-2.3999939,6-3.1000061
			c0.0999756-0.6999969-0.5-1.5-1.2000122-2.3000031c-0.9000244-1.1000061-1.9000244-2.3999939-1.5999756-4
			c0.2999878-1.6000061,1.7999878-2.8000031,4.4000244-3.8000031c0.4000244-0.1999969,0.9000244,0.1000061,1.0999756,0.5
			c0.2000122,0.3999939-0.0999756,0.8999939-0.5,1.1000061c-2,0.6999969-3.2000122,1.6000061-3.4000244,2.5
			c-0.2000122,0.8000031,0.5,1.6999969,1.2999878,2.6000061c0.7999878,1,1.7999878,2.1999969,1.5,3.6999969
			c-0.2999878,2-2.5999756,3.3999939-7.2999878,4.5C705.5999756,178.6999817,705.5,178.6999817,705.4000244,178.6999817z"/>
		<path d="M697.2999878,156.6999817c-0.4000244,0-0.7999878-0.3000031-0.7999878-0.8000031
			c-0.0999756-0.8999939-0.4000244-4-3-6.1999969c-2.5-2.1000061-6.0999756-2.5-9.2999878-1.1000061
			c-0.4000244,0.1999969-0.9000244,0-1.0999756-0.3999939c-0.2000122-0.3999939,0-0.8999939,0.4000244-1.1000061
			c3.7999878-1.6000061,8.0999756-1.1000061,11.0999756,1.3999939s3.5,6,3.5999756,7.3999939
			C698.2000122,156.2999878,697.7999878,156.6999817,697.2999878,156.6999817L697.2999878,156.6999817z"/>
		<path d="M656.5999756,133.6999817c-0.2999878,0-0.7000122-0.1999969-0.7999878-0.5l-7.0999756-17.1999969
			c-0.2000122-0.4000015,0-0.9000015,0.5-1.0999985c0.4000244-0.1999969,0.9000244,0,1.0999756,0.5l7.0999756,17.2000046
			c0.2000122,0.3999939,0,0.8999939-0.5,1.1000061C656.7999878,133.6999817,656.7000122,133.6999817,656.5999756,133.6999817z"/>
		<path d="M724.5,171.6999817c-0.2999878,0-0.5999756-0.1000061-0.7000122-0.3999939
			c-0.2000122-0.3999939-0.0999756-0.8999939,0.2999878-1.1999969L734,163.9999847
			c0.4000244-0.1999969,0.9000244-0.1000061,1.2000122,0.3000031s0.0999756,0.8999939-0.2999878,1.1999969L725,171.5999908
			C724.7999878,171.5999908,724.7000122,171.6999817,724.5,171.6999817z"/>
	</g>
</g>
<rect x="169.6013184" y="293.3881836" transform="matrix(0.9883184 -0.1524028 0.1524028 0.9883184 -79.6767578 34.5671234)" width="32.0994072" height="487.290863"/>
<rect x="565.6710205" y="506.8831482" transform="matrix(0.1961931 -0.9805653 0.9805653 0.1961931 118.6026611 1190.5510254)" width="439.6155701" height="32.1011124"/>
<path d="M362.3999939,447.7999878C362.3999939,447.7999878,362.2999878,447.7999878,362.3999939,447.7999878l-59.2999878-1.3999939
	c-0.5,0-0.7999878-0.3999939-0.7999878-0.8999939s0.3999939-0.7999878,0.8999939-0.7999878l59.2000122,1.3999939
	c0.5,0,0.7999878,0.3999939,0.7999878,0.8999939C363.2000122,447.3999939,362.7999878,447.7999878,362.3999939,447.7999878z"/>
<path d="M859.9000244,459.5L859.9000244,459.5l-147.5-3.5c-0.5,0-0.7999878-0.3999939-0.7999878-0.8999939
	s0.4000244-0.7999878,0.7999878-0.7999878l0,0l147.5,3.5c0.5,0,0.7999878,0.3999939,0.7999878,0.8999939
	S860.4000244,459.5,859.9000244,459.5z"/>
<path d="M672,455.1000061L672,455.1000061l-269.2000122-6.2999878c-0.5,0-0.7999878-0.3999939-0.7999878-0.8999939
	s0.3999939-0.7999878,0.8999939-0.7999878l269.1999817,6.2999878c0.5,0,0.7999878,0.3999939,0.7999878,0.8999939
	C672.7999878,454.7000122,672.4000244,455.1000061,672,455.1000061z"/>
<path d="M262.7000122,445.5L262.7000122,445.5l-120.5-2.7999878c-0.5,0-0.8000031-0.3999939-0.8000031-0.8999939
	s0.3999939-0.7999878,0.8999939-0.7999878l120.4999847,2.7999878c0.5,0,0.7999878,0.3999939,0.7999878,0.8999939
	C263.5,445.1000061,263.1000061,445.5,262.7000122,445.5z"/>
<path class="st1" d="M233.6999969,472.2000122L233.6999969,472.2000122c-11.1999969-0.2999878-20-9.5-19.6999969-20.7000122
	l0.3999939-16.1000061c0.3000031-11.2000122,9.5-20,20.6999969-19.7000122l0,0c11.1999969,0.2999878,20,9.5,19.6999969,20.7000122
	L254.3999939,452.5C254.1000061,463.6000061,244.8000031,472.5,233.6999969,472.2000122z"/>
<path d="M282.7000122,474.2000122c-0.2000122,0-0.2999878,0-0.5,0
	c-11.6000061-0.2999878-20.7999878-9.8999939-20.6000061-21.6000061L262,436.5
	c0.2999878-11.6000061,10-20.7999878,21.6000061-20.6000061c8.6000061,0.2000122,16.1000061,5.5,19.2000122,13.5
	c0.8999939,2.3999939,1.3999939,4.8999939,1.3999939,7.5v0.5L303.8000183,453.5
	C303.5,465.1000061,294.1000061,474.2000122,282.7000122,474.2000122z M283.1000061,417.7000122
	c-10.5,0-19.1000061,8.3999939-19.3999939,18.8999939l-0.3999939,16.1000061
	c-0.2000122,10.7000122,8.2000122,19.6000061,18.8999939,19.7999878
	c10.7000122,0.2000122,19.6000061-8.2000122,19.7999878-18.8999939l0.3999939-16.5
	c0-2.3999939-0.3999939-4.7000122-1.2999878-6.8999939C298.3000183,422.8000183,291.3000183,418,283.5,417.8000183
	C283.3999939,417.7000122,283.2000122,417.7000122,283.1000061,417.7000122z"/>
<path class="st1" d="M357.2000122,438.2999878c0,0.2000122,0,0.2999878,0,0.5l-0.2000122,8l-0.2000122,8
	c-0.2999878,11.2000122-9.5,20-20.7000122,19.7000122s-20-9.5-19.7000122-20.7000122l0.2000122-8l0.2000122-8
	c0.2999878-11.2000122,9.5-20,20.7000122-19.7000122C348.5,418.3999939,357.2000122,427.3999939,357.2000122,438.2999878z"/>
<path d="M382.3999939,476.5c-0.2000122,0-0.2999878,0-0.5,0C376.2999878,476.3999939,371,474.1000061,367.1000061,470
	s-6-9.3999939-5.7999878-15l0.3999939-16.1000061c0.1000061-5.6000061,2.3999939-10.8999939,6.5-14.7999878
	s9.3999939-6,15-5.7999878c11.3999939,0.2999878,20.6000061,9.7000122,20.6000061,21.1000061v0.5l-0.3999939,16.1000061
	c-0.1000061,5.6000061-2.5,10.8999939-6.5,14.7999878C393,474.5,387.7999878,476.5,382.3999939,476.5z M382.7999878,420
	c-5,0-9.7000122,1.8999939-13.3999939,5.3999939C365.6999817,429,363.5,433.7999878,363.3999939,439L363,455
	c-0.1000061,5.2000122,1.7999878,10.1000061,5.3999939,13.7999878C372,472.5,376.7999878,474.6999817,382,474.7999878
	S392.1000061,473,395.7999878,469.5c3.7000122-3.6000061,5.8999939-8.3999939,6-13.6000061l0.3999939-16.5
	c0-10.3999939-8.5-19.1000061-18.8999939-19.3999939C383.1000061,420,382.8999939,420,382.7999878,420z"/>
<path class="st1" d="M543.2999878,479.5L543.2999878,479.5c-11.2000122-0.2999878-20-9.5-19.7000122-20.7000122L524,442.6999817
	c0.2999878-11.2000122,9.5-20,20.7000122-19.7000122l0,0c11.2000122,0.2999878,20,9.5,19.7000122,20.7000122L564,459.7999878
	C563.7000122,470.8999939,554.5,479.7999878,543.2999878,479.5z"/>
<path class="st1" d="M591.9000244,480.6000061L591.9000244,480.6000061c-11.2000122-0.2999878-20-9.5-19.7000122-20.7000122
	l0.4000244-16.1000061c0.2999878-11.2000122,9.5-20,20.7000122-19.7000122l0,0c11.2000122,0.2999878,20,9.5,19.7000122,20.7000122
	l-0.4000244,16.1000061C612.2999878,472.1000061,603,480.8999939,591.9000244,480.6000061z"/>
<path class="st1" d="M645.7999878,481.8999939L645.7999878,481.8999939c-11.2000122-0.2999878-20-9.5-19.7000122-20.7000122
	L626.5,445.0999756c0.2999878-11.2000122,9.5-20,20.7000122-19.7000122l0,0c11.2000122,0.2999878,20,9.5,19.7000122,20.7000122
	L666.5,462.1999817C666.2000122,473.2999878,656.9000244,482.2000122,645.7999878,481.8999939z"/>
<path d="M692,483.7999878c-0.2000122,0-0.2999878,0-0.5,0c-5.5999756-0.1000061-10.9000244-2.3999939-14.7999878-6.5
	s-6-9.3999939-5.7999878-15l0.4000244-16.1000061c0.0999756-5.6000061,2.4000244-10.8999939,6.5-14.7999878
	s9.4000244-5.8999939,15-5.7999878s10.9000244,2.3999939,14.7999878,6.5s6,9.3999939,5.7999878,15L713,463.2000122
	c-0.0999756,5.6000061-2.4000244,10.8999939-6.5,14.7999878C702.5999756,481.7999878,697.5,483.7999878,692,483.7999878z
	 M692.4000244,427.2999878c-5,0-9.7000122,1.8999939-13.4000244,5.3999939c-3.7000122,3.6000061-5.9000244,8.3999939-6,13.6000061
	l-0.4000244,16.1000061C672.5,467.6000061,674.3999634,472.5,678,476.1999817c3.5999756,3.7000122,8.4000244,5.8999939,13.5999756,6
	l0,0c5.2000122,0.1000061,10.0999756-1.7999878,13.7999878-5.3999939s5.9000244-8.3999939,6-13.6000061l0.4000244-16.1000061
	c0.0999756-5.2000122-1.7999878-10.1000061-5.4000244-13.7999878c-3.5999756-3.7000122-8.4000244-5.8999939-13.5999756-6
	C692.7000122,427.2999878,692.5,427.2999878,692.4000244,427.2999878z"/>
<g>
	<path d="M462.7000122,440.7999878c0,0.2000122,0,0.2999878,0,0.5l-0.2000122,8l-0.2000122,8
		c0,1.5-0.2000122,2.8999939-0.6000061,4.2000122c-1.7000122,7.2000122-7.2000122,12.8999939-14.2999878,14.7999878
		c-1.8999939,0.5-3.7999878,0.7999878-5.7999878,0.7000122c-11.2000122-0.2999878-20-9.5-19.7000122-20.7000122
		l0.3999939-16.1000061c0.2999878-11.2000122,9.5-20,20.7000122-19.7000122
		C453.8999939,420.8999939,462.7000122,429.8999939,462.7000122,440.7999878z"/>
	<path d="M442.1000061,478c-0.2000122,0-0.2999878,0-0.5,0C430,477.7000122,420.8000183,468,421,456.3999939l0.3999939-16.1000061
		c0.2999878-11.6000061,9.8999939-20.8999939,21.6000061-20.6000061
		c11.3999939,0.2999878,20.6000061,9.7000122,20.6000061,21.1000061v0.5l-0.3999939,16.1000061
		c0,1.5-0.2000122,3-0.6000061,4.3999939c-1.7999878,7.5-7.5,13.3999939-14.8999939,15.3999939
		C445.7999878,477.7000122,444,478,442.1000061,478z M442.3999939,421.3999939c-10.5,0-19.1000061,8.3999939-19.3999939,18.8999939
		l-0.3999939,16.1000061C422.3999939,467.1000061,430.8000183,476,441.5,476.1999817
		c1.8999939,0,3.7999878-0.2000122,5.6000061-0.7000122c6.7999878-1.8999939,12.1000061-7.2999878,13.7000122-14.2000122
		c0.2999878-1.2999878,0.5-2.7000122,0.5-4l0.3999939-16.5c0-10.3999939-8.5-19.1000061-18.8999939-19.3999939
		C442.7000122,421.3999939,442.6000061,421.3999939,442.3999939,421.3999939z"/>
</g>
<g>
	<path d="M508.2000122,441.8999939c0,0.2000122,0,0.2999878,0,0.5l-0.2000122,8l-0.2000122,8
		c-0.2999878,11.2000122-9.5,20-20.7000122,19.7000122s-20-9.5-19.7000122-20.7000122V455.5l0.1000061-6.1000061l0.2000122-8
		c0.1000061-6.1000061,2.8999939-11.3999939,7.2999878-15c3.6000061-3,8.2999878-4.7999878,13.3999939-4.7000122
		C499.5,421.8999939,508.2000122,430.8999939,508.2000122,441.8999939z"/>
	<path d="M487.6000061,479c-0.2000122,0-0.2999878,0-0.5,0C475.5,478.7000122,466.3000183,469.1000061,466.5,457.3999939
		l0.3999939-16.1000061C467,435.1999817,469.7999878,429.5,474.5,425.5999756c3.8999939-3.2999878,8.8999939-5,14-4.8999939
		c11.2999878,0.2999878,20.6000061,9.7000122,20.6000061,21.1000061v0.5l-0.3999939,16.1000061
		c-0.1000061,5.6000061-2.5,10.8999939-6.5,14.7999878C498.2000122,477,493.1000061,479,487.6000061,479z M488,422.5
		c-4.5,0-8.8999939,1.6000061-12.3999939,4.5c-4.2999878,3.6000061-6.7999878,8.7999878-7,14.3999939L468.2000122,457.5
		c-0.2999878,10.7000122,8.2000122,19.6000061,18.8999939,19.7999878c0.2000122,0,0.2999878,0,0.5,0
		c10.5,0,19.1000061-8.3999939,19.3999939-18.8999939l0.3999939-16.5c0-10.3999939-8.5-19.1000061-18.8999939-19.3999939
		C488.2999878,422.5,488.1000061,422.5,488,422.5z"/>
</g>
<path d="M254.8000031,547c-0.5,0-0.8000031-0.4000244-0.8000031-0.7999878c0-0.5,0.3000031-0.9000244,0.8000031-0.9000244
	L358,540.3999634c0.5,0,0.8999939,0.2999878,0.8999939,0.7999878s-0.2999878,0.9000244-0.7999878,0.9000244L254.8000031,547
	L254.8000031,547z"/>
<path d="M398.3999939,540.2999878c-0.5,0-0.7999878-0.4000244-0.7999878-0.7999878c0-0.5,0.2999878-0.9000244,0.7999878-0.9000244
	l120.1999817-5.7000122c0.5,0,0.9000244,0.2999878,0.9000244,0.7999878s-0.2999878,0.9000244-0.7999878,0.9000244
	L398.3999939,540.2999878L398.3999939,540.2999878z"/>
<path d="M620.5,529.7999878c-0.5,0-0.7999878-0.4000244-0.7999878-0.7999878c0-0.5,0.2999878-0.9000244,0.7999878-0.9000244
	l67.2999878-3.2000122c0.5,0,0.9000244,0.2999878,0.9000244,0.7999878s-0.2999878,0.9000244-0.7999878,0.9000244L620.5,529.7999878
	L620.5,529.7999878z"/>
<path d="M728.2000122,524.7000122c-0.5,0-0.7999878-0.4000244-0.7999878-0.7999878c0-0.5,0.2999878-0.9000244,0.7999878-0.9000244
	l98-4.5999756c0.5,0,0.9000244,0.2999878,0.9000244,0.7999878s-0.2999878,0.9000244-0.7999878,0.9000244L728.2000122,524.7000122
	L728.2000122,524.7000122z"/>
<path d="M559,532.7000122c-0.5,0-0.7999878-0.4000244-0.7999878-0.7999878C558.2000122,531.4000244,558.5,531,559,531l21.0999756-1
	c0.5,0,0.9000244,0.2999878,0.9000244,0.7999878s-0.2999878,0.9000244-0.7999878,0.9000244L559,532.7000122L559,532.7000122z"/>
<path d="M129.3999939,553c-0.5,0-0.8000031-0.4000244-0.8000031-0.7999878c0-0.5,0.3000031-0.9000244,0.8000031-0.9000244l85-4
	c0.5,0,0.8999939,0.2999878,0.8999939,0.7999878S214.9999847,549,214.4999847,549L129.3999939,553L129.3999939,553z"/>
<path d="M234.8999939,576.2000122c-11.1999969,0-20.5-8.7999878-21-20.0999756l-0.8000031-16.0999756
	c-0.3000031-5.5999756,1.6999969-11,5.5-15.2000122s9-6.5999756,14.6000061-6.9000244
	c5.6000061-0.2999878,11,1.7000122,15.1999969,5.5S255,532.4000244,255.2999878,538l0.7999878,16.0999756
	c0.2999878,5.5999756-1.6999969,11-5.5,15.2000122s-9,6.5999756-14.6000061,6.9000244
	C235.6000061,576.2000122,235.3000031,576.2000122,234.8999939,576.2000122z M234.1999969,519.7000122
	c-0.3000031,0-0.6000061,0-0.8999939,0c-5.1999969,0.2000122-9.8999939,2.5-13.3999939,6.2999878s-5.3000031,8.7999878-5,14
	l0.8000031,16.0999756c0.5,10.7000122,9.6000061,19,20.3000031,18.4000244l0,0
	c5.1999969-0.2000122,9.8999939-2.5,13.3999939-6.2999878s5.3000031-8.7999878,5-14l-0.8000031-16.0999756
	C253,527.7999878,244.5,519.7000122,234.1999969,519.7000122z"/>
<path class="st1" d="M279.8999939,573.0999756L279.8999939,573.0999756c-11.2000122,0.5-20.6000061-8.0999756-21.2000122-19.2000122
	l-0.7999878-16.0999756c-0.5-11.2000122,8.1000061-20.5999756,19.2000122-21.2000122l0,0
	c11.2000122-0.5,20.6000061,8.0999756,21.2000122,19.2000122l0.7999878,16.0999756
	C299.7000122,563.0999756,291.1000061,572.5999756,279.8999939,573.0999756z"/>
<path class="st1" d="M332,570.5L332,570.5c-11.2000122,0.5-20.6000061-8.0999756-21.2000122-19.2000122L310,535.2000122
	C309.5,524,318.1000061,514.6000366,329.2000122,514l0,0c11.2000122-0.5,20.6000061,8.0999756,21.2000122,19.2000122
	l0.7999878,16.0999756C351.7000122,560.5,343.1000061,570,332,570.5z"/>
<path d="M378.5,569.2999878c-5.2999878,0-10.2000122-1.9000244-14.2000122-5.5
	c-4.2000122-3.7999878-6.6000061-9-6.8999939-14.5999756l-0.7999878-16.0999756c-0.2999878-5.5999756,1.7000122-11,5.5-15.2000122
	s9-6.6000061,14.6000061-6.8999939s11,1.6999817,15.2000122,5.4999695s6.6000061,9,6.8999939,14.5999756l0.7999878,16.0999756
	c0.2999878,5.5999756-1.7000122,11-5.5,15.2000122s-9,6.5999756-14.6000061,6.9000244l0,0
	C379.2000122,569.2000122,378.8999939,569.2999878,378.5,569.2999878z M377.7999878,512.7000122
	c-0.2999878,0-0.6000061,0-0.8999939,0C371.6999817,512.9000244,367,515.2000122,363.5,519s-5.2999878,8.7999878-5,14
	l0.7999878,16.0999756C359.5,554.2999878,361.7999878,559,365.5999756,562.5s8.7999878,5.2999878,14,5l0,0
	c5.2000122-0.2000122,9.8999939-2.5,13.3999939-6.2999878s5.2999878-8.7999878,5-14l-0.7999878-16.0999756
	c-0.2000122-5.2000122-2.5-9.9000244-6.2999878-13.4000244C387.2000122,514.5,382.6000061,512.7000122,377.7999878,512.7000122z"/>
<path d="M539.0999756,561c-11.2000122,0-20.5-8.7999878-21-20.0999756l-0.7999878-16.0999756
	c-0.5-11.5999756,8.5-21.5,20.0999756-22c11.5999756-0.6000061,21.5,8.5,22,20.0999756L560.1999512,539
	c0.5,11.5999756-8.4000244,21.5-20.0999756,22l0,0C539.7999878,561,539.5,561,539.0999756,561z M540.0999756,560.2000122
	L540.0999756,560.2000122L540.0999756,560.2000122z M538.4000244,504.5c-0.2999878,0-0.5999756,0-0.9000244,0
	c-10.7000122,0.5-18.9000244,9.5999756-18.4000244,20.2999878l0.7999878,16.0999756
	c0.5,10.7000122,9.5999756,18.9000244,20.2999878,18.4000244l0,0c10.7000122-0.5,18.9000244-9.5999756,18.4000244-20.2999878
	l-0.7999878-16.0999756C557.2000122,512.5999756,548.5999756,504.5,538.4000244,504.5z"/>
<path d="M600.5999756,558.5c-11.2000122,0-20.5-8.7999878-21-20.0999756l-0.7999878-16.0999756
	c-0.5-11.6000061,8.4000244-21.5,20.0999756-22c11.5999756-0.6000061,21.5,8.5,22,20.0999756L621.6999512,536.5
	c0.5,11.5999756-8.4000244,21.5-20.0999756,22l0,0C601.2999878,558.5,601,558.5,600.5999756,558.5z M601.5999756,557.7000122
	L601.5999756,557.7000122L601.5999756,557.7000122z M599.9000244,502c-0.2999878,0-0.5999756,0-0.9000244,0
	c-10.7000122,0.5-18.9000244,9.6000061-18.4000244,20.2999878l0.7999878,16.0999756
	c0.5,10.7000122,9.5999756,19,20.2999878,18.4000244l0,0c10.7000122-0.5,18.9000244-9.5999756,18.4000244-20.2999878
	l-0.7999878-16.0999756C618.7999878,510.1000061,610.2000122,502,599.9000244,502z"/>
<path class="st1" d="M647.4000244,555.9000244L647.4000244,555.9000244c-11.2000122,0.5-20.5999756-8.0999756-21.2000122-19.2000122
	l-0.7999878-16.0999756c-0.5-11.2000122,8.0999756-20.6000061,19.2000122-21.2000122l0,0
	c11.2000122-0.5,20.5999756,8.1000061,21.2000122,19.2000122l0.7999878,16.0999756
	C667.2000122,545.9000244,658.5999756,555.4000244,647.4000244,555.9000244z"/>
<path d="M708.2999878,553.5c-11.2000122,0-20.5-8.7999878-21-20.0999756L686.5,517.3000488
	c-0.2999878-5.6000061,1.7000122-11,5.5-15.2000122s9-6.6000061,14.5999756-6.8999939
	c11.5999756-0.6000061,21.5,8.3999939,22,20.1000061l0.7999878,16.0999756c0.5,11.5999756-8.5,21.5-20.0999756,22l0,0
	C709,553.4000244,708.5999756,553.5,708.2999878,553.5z M707.5999756,496.8999939c-0.2999878,0-0.5999756,0-0.9000244,0
	c-5.2000122,0.2000122-9.9000244,2.5-13.4000244,6.2999878s-5.2999878,8.7999878-5,13.9999695l0.7999878,16.0999756
	c0.5,10.7000122,9.5999756,18.9000244,20.2999878,18.4000244s18.9000244-9.5999756,18.4000244-20.2999878l-0.7999878-16.0999756
	C726.4000244,505,717.7999878,496.8999939,707.5999756,496.8999939z"/>
<g>
	<path d="M434.2999878,565.5999756L434.2999878,565.5999756c-11.2000122,0.5-20.6000061-8.0999756-21.2000122-19.2000122
		l-0.7999878-16.0999756c-0.5-11.2000122,8.1000061-20.6000061,19.2000122-21.2000122l0,0
		c11.2000122-0.5,20.6000061,8.0999756,21.2000122,19.2000122L453.5,544.3999634
		C454.1000061,555.5999756,445.5,565,434.2999878,565.5999756z"/>
	<path d="M433.2999878,566.4000244c-5.2999878,0-10.2000122-1.9000244-14.2000122-5.5
		c-4.2000122-3.7999878-6.6000061-9-6.8999939-14.5999756l-0.7999878-16.0999756c-0.5-11.5999756,8.3999939-21.5,20.1000061-22
		c11.6000061-0.6000061,21.5,8.4000244,22,20.0999756l0.7999878,16.0999756c0.2999878,5.5999756-1.7000122,11-5.5,15.2000122
		s-9,6.5999756-14.6000061,6.9000244C434,566.4000244,433.7000122,566.4000244,433.2999878,566.4000244z M432.6000061,509.8999939
		c-0.2999878,0-0.6000061,0-0.8999939,0c-5.2000122,0.2000122-9.8999939,2.5000305-13.3999939,6.3000183s-5.2999878,8.7999878-5,14
		l0.7999878,16.0999756c0.2000122,5.2000122,2.5,9.9000244,6.2999878,13.4000244s8.7999878,5.2999878,14,5l0,0
		c5.2000122-0.2000122,9.8999939-2.5,13.3999939-6.2999878s5.2999878-8.7999878,5-14L452,528.3000488
		C451.5,518,442.8999939,509.8999939,432.6000061,509.8999939z"/>
</g>
<g>
	<path d="M495.7999878,563.4000244L495.7999878,563.4000244c-11.2000122,0.5-20.6000061-8.0999756-21.2000122-19.2000122
		l-0.7999878-16.0999756c-0.5-11.2000122,8.1000061-20.6000061,19.2000122-21.2000122l0,0
		c11.2000122-0.5,20.5999756,8.0999756,21.2000122,19.2000122L515,542.2000122
		C515.5999756,553.4000244,507,562.9000244,495.7999878,563.4000244z"/>
	<path d="M494.7999878,564.2999878c-5.2999878,0-10.2000122-1.9000244-14.2000122-5.5
		c-4.2000122-3.7999878-6.6000061-9-6.8999939-14.5999756l-0.7999878-16.0999756c-0.2999878-5.5999756,1.7000122-11,5.5-15.2000122
		s9-6.6000061,14.6000061-6.8999939s11,1.7000122,15.2000122,5.5c4.2000122,3.8000183,6.5999756,8.9999695,6.9000244,14.6000061
		l0.7999878,16.0999756c0.2999878,5.5999756-1.7000122,11-5.5,15.2000122s-9,6.5999756-14.6000061,6.9000244
		C495.5,564.2999878,495.2000122,564.2999878,494.7999878,564.2999878z M494.1000061,507.7999878
		c-0.2999878,0-0.6000061,0-0.8999939,0c-10.7000122,0.5-18.8999939,9.5999756-18.3999939,20.2999878l0.7999878,16.0999756
		c0.2000122,5.2000122,2.5,9.9000244,6.2999878,13.4000244s8.7999878,5.2999878,14,5l0,0
		c5.2000122-0.2000122,9.8999939-2.5,13.3999939-6.2999878s5.2999878-8.7999878,5-14L513.5,526.2000122
		c-0.2000122-5.2000122-2.5-9.9000244-6.2999878-13.4000244C503.6000061,509.6000061,499,507.7999878,494.1000061,507.7999878z"/>
</g>
<path d="M794.7000122,648.0999756L794.7000122,648.0999756h-0.7999878c-0.2999878,0-0.5999756,0-1,0h-0.2000122
	c-0.5,0-1.2000122-0.0999756-1.9000244-0.0999756l-3.9000244-0.2000122c-0.7000122,0-1.5-0.0999756-2.4000244-0.0999756
	l-1.7000122-0.0999756c-1.2000122-0.0999756-2.5-0.0999756-3.7999878-0.2000122l-4.2999878-0.2000122
	c-1.5-0.0999756-3.0999756-0.2000122-4.7000122-0.2000122c-1.2000122-0.0999756-2.4000244-0.0999756-3.7999878-0.2000122
	L760.7999268,646.5c-1.2999878-0.0999756-2.7999878-0.0999756-4.2999878-0.2000122h-0.4000244
	c-0.7999878,0-1.7000122-0.0999756-2.5999756-0.0999756h-0.2999878c-0.9000244,0-1.7999878-0.0999756-2.7000122-0.0999756
	l-7-0.4000244c-1.4000244-0.0999756-2.7999878-0.0999756-4.2000122-0.2000122c-0.5,0-1-0.0999756-1.5999756-0.0999756h-0.0999756
	l-4-0.2000122c-0.9000244,0-1.9000244-0.0999756-2.7999878-0.2000122c-2.2999878-0.0999756-4.7000122-0.2000122-7.0999756-0.4000244
	H723c-2.2000122-0.0999756-4.4000244-0.2000122-6.5999756-0.2999878c-4.9000244-0.2999878-10-0.5-15.0999756-0.7999878
	l-11.7000122-0.5999756c-1.2999878-0.0999756-2.5999756-0.0999756-4-0.2000122c-14.5-0.7999878-29.5-1.5999756-44.2999878-2.2999878
	c-4-0.2000122-8-0.4000244-12-0.5999756c-4-0.2000122-7.9000244-0.4000244-11.7999878-0.5999756l-11.5-0.5999756
	c-0.5,0-0.7999878-0.4000244-0.7999878-0.9000244s0.4000244-0.7999878,0.9000244-0.7999878l11.5,0.5999756
	c3.9000244,0.2000122,7.7999878,0.4000244,11.7999878,0.5999756c4,0.2000122,8,0.4000244,12,0.5999756
	C656.2000732,639.5,671.1000977,640.2999878,685.7000732,641c1.2999878,0.0999756,2.5999756,0.0999756,4,0.2000122
	l11.7000122,0.5999756c5.0999756,0.2999878,10.2000122,0.5,15.0999756,0.7999878
	c2.2000122,0.0999756,4.4000244,0.2000122,6.5999756,0.2999878h0.7000122
	c2.4000244,0.0999756,4.7999878,0.2000122,7.0999756,0.4000244c1,0.0999756,1.9000244,0.0999756,2.7999878,0.2000122l4,0.2000122
	h0.2000122c0.5,0,1,0.0999756,1.5,0.0999756C740.8000488,643.8999634,742.2000122,644,743.6000366,644l7,0.4000244
	C751.500061,644.5,752.4000244,644.5,753.3000488,644.5h0.2999878c0.9000244,0.0999756,1.7000122,0.0999756,2.5999756,0.0999756
	h0.4000244c1.5,0.0999756,2.9000244,0.2000122,4.2999878,0.2000122l5.4000244,0.2999878
	c1.2999878,0.0999756,2.5999756,0.0999756,3.7999878,0.2000122c1.5999756,0.0999756,3.2000122,0.2000122,4.7000122,0.2000122
	l4.2999878,0.2000122c1.4000244,0.0999756,2.5999756,0.0999756,3.7999878,0.2000122L784.6000366,646
	c0.7999878,0,1.5999756,0.0999756,2.4000244,0.0999756l3.9000244,0.2000122c0.7000122,0,1.2999878,0.0999756,1.9000244,0.0999756
	h0.2000122c0.4000244,0,0.7000122,0,1,0.0999756h0.0999756c0.0999756,0,0.0999756,0,0.2000122,0h0.4000244
	c0.5,0,0.7999878,0.4000244,0.7999878,0.9000244C795.5,647.7000122,795.0999756,648.0999756,794.7000122,648.0999756z"/>
<path d="M795.2000122,648.0999756L795.2000122,648.0999756L793.9000244,648c-0.2999878,0-0.5999756,0-1,0L770,646.7999878
	c-1.2000122-0.0999756-2.4000244-0.0999756-3.7999878-0.2000122l-5.4000244-0.2999878
	C759.3999634,646.2000122,758,646.2000122,756.5,646.0999756l-17.2000122-0.9000244c-0.5,0-1-0.0999756-1.5999756-0.0999756
	h-0.0999756l-4-0.2000122c-0.9000244,0-1.9000244-0.0999756-2.7999878-0.2000122l-7.7999878-0.4000244
	c-2.2000122-0.0999756-4.4000244-0.2000122-6.5999756-0.2999878l-26.7999878-1.4000244
	c-1.2999878-0.0999756-2.5999756-0.0999756-4-0.2000122l-79.7000122-4.2000122c-0.5,0-0.7999878-0.4000244-0.7999878-0.9000244
	s0.4000244-0.7999878,0.9000244-0.7999878l35.4000244,1.9000244l44.2999878,2.2999878
	c1.2999878,0.0999756,2.5999756,0.0999756,4,0.2000122l26.7999878,1.4000244
	c2.2000122,0.0999756,4.4000244,0.2000122,6.5999756,0.2999878l7.7999878,0.4000244
	c1,0.0999756,1.9000244,0.0999756,2.7999878,0.2000122l4,0.2000122h0.2000122c0.5,0,1,0.0999756,1.5,0.0999756l17.2000122,0.9000244
	c1.5,0.0999756,2.9000244,0.2000122,4.2999878,0.2000122l5.4000244,0.2999878
	c1.2999878,0.0999756,2.5999756,0.0999756,3.7999878,0.2000122l22.9000244,1.2000122c0.4000244,0,0.7000122,0,1,0.0999756h0.0999756
	c0.0999756,0,0.0999756,0,0.2000122,0h0.9000244c0.5,0,0.7999878,0.4000244,0.7999878,0.9000244
	C796,647.7999878,795.5999756,648.0999756,795.2000122,648.0999756z"/>
<path d="M565.7999878,636C565.7999878,636,565.7000122,636,565.7999878,636L462.5,630.5999756h-0.1000061l-108.6000061-5.7000122
	c-2.6000061-0.0999756-5.2000122-0.2999878-7.7000122-0.4000244l-2.2000122-0.0999756
	c-2.1000061-0.0999756-4.2999878-0.2000122-6.3999939-0.2999878l-7.3999939-0.4000244
	c-1.2000122-0.0999756-2.3999939-0.0999756-3.6000061-0.2000122l-7.1000061-0.4000244
	c-2-0.0999756-3.8999939-0.2000122-5.7999878-0.2999878l-1.7999878-0.0999756
	c-2.2999878-0.0999756-4.6000061-0.2000122-6.8999939-0.4000244l-35.5-1.9000244
	c-0.8999939,0-1.7000122-0.0999756-2.6000061-0.0999756l-36.1000061-1.9000244
	c-0.8999939,0-1.6999969-0.0999756-2.6000061-0.0999756l-62.8000031-3.2999878c-0.5,0-0.8000031-0.4000244-0.8000031-0.9000244
	s0.3999939-0.7999878,0.8999939-0.7999878l45.8000031,2.4000244l17,0.9000244c0.8000031,0,1.6999969,0.0999756,2.6000061,0.0999756
	l36.0999908,1.9000244c0.8999939,0,1.7000122,0.0999756,2.6000061,0.0999756l35.5,1.9000244
	c2.2999878,0.0999756,4.6000061,0.2000122,6.8999939,0.4000244l1.7999878,0.0999756
	c1.8999939,0.0999756,3.7999878,0.2000122,5.7999878,0.2999878l7.1000061,0.4000244
	c1.2000122,0.0999756,2.3999939,0.0999756,3.6000061,0.2000122l7.3999939,0.4000244
	c2.1000061,0.0999756,4.2000122,0.2000122,6.3999939,0.2999878l2.2000122,0.0999756
	c2.5,0.0999756,5.1000061,0.2999878,7.7000122,0.4000244l108.7000122,5.7000122h0.1000061l103.1999817,5.4000244
	c0.5,0,0.7999878,0.4000244,0.7999878,0.9000244C566.5999756,635.7000122,566.2000122,636,565.7999878,636z"/>
<path d="M565.7999878,636.0999756C565.7999878,636.0999756,565.7000122,636.0999756,565.7999878,636.0999756l-212-11.2000122
	c-2.6000061-0.0999756-5.2000122-0.2999878-7.7000122-0.4000244l-2.2000122-0.0999756
	c-2.1000061-0.0999756-4.2999878-0.2000122-6.3999939-0.2999878l-2.8999939-0.2000122c-1.5-0.0999756-3-0.2000122-4.5-0.2000122
	c-1.2000122-0.0999756-2.3999939-0.0999756-3.6000061-0.2000122c-2.3999939-0.0999756-4.7999878-0.2000122-7.1000061-0.4000244
	c-2-0.0999756-3.8999939-0.2000122-5.7999878-0.2999878l-1.7999878-0.0999756
	c-2.2999878-0.0999756-4.6000061-0.2000122-6.8999939-0.4000244l-4.6000061-0.2000122
	c-1.2000122-0.0999756-2.5-0.0999756-3.7000122-0.2000122l-6.7000122-0.2999878c-3.1000061-0.2000122-6.1000061-0.2999878-9-0.5
	c-1.1000061-0.0999756-2.2000122-0.0999756-3.2999878-0.2000122l-8.2000122-0.4000244
	c-0.8999939,0-1.7000122-0.0999756-2.6000061-0.0999756l-11-0.5999756c-1.1999969-0.0999756-2.3999939-0.0999756-3.5-0.2000122
	l-21.5-1.0999756c-0.8999939,0-1.6999969-0.0999756-2.6000061-0.0999756l-30.3000031-1.5999756
	c-0.8000031,0-1.6000061-0.0999756-2.3000031-0.0999756l-18.3000031-1c-0.6000061,0-1.1000061-0.0999756-1.6999969-0.0999756
	l-9.5-0.5h-0.1000061l-2.6000061-0.0999756c0,0-0.1000061,0-0.1999969,0l-1.3999939-0.0999756
	c-0.5,0-0.8000031-0.4000244-0.8000031-0.9000244s0.3999939-0.7999878,0.8999939-0.7999878l1.5,0.0999756h0.1999969h0.3000031
	h0.1999969l11.6999969,0.5999756c0.5,0,1.1000061,0.0999756,1.6999969,0.0999756l18.3000031,1
	c0.8000031,0,1.5,0.0999756,2.3000031,0.0999756l30.1999969,1.5999756c0.8000031,0,1.6999969,0.0999756,2.6000061,0.0999756
	l21.5,1.0999756c1.1999969,0.0999756,2.3000031,0.0999756,3.5,0.2000122l11,0.5999756
	c0.8999939,0,1.7000122,0.0999756,2.6000061,0.0999756l8.2000122,0.4000244
	c1.1000061,0.0999756,2.2000122,0.0999756,3.2999878,0.2000122c2.8999939,0.2000122,5.8999939,0.2999878,9,0.5l6.7000122,0.2999878
	c1.2000122,0.0999756,2.3999939,0.0999756,3.7000122,0.2000122l4.6000061,0.2000122
	c2.2999878,0.0999756,4.6000061,0.2000122,6.8999939,0.4000244l1.7999878,0.0999756
	c1.8999939,0.0999756,3.7999878,0.2000122,5.7999878,0.2999878c2.2999878,0.0999756,4.7000122,0.2000122,7.1000061,0.4000244
	c1.2000122,0.0999756,2.3999939,0.0999756,3.6000061,0.2000122c1.5,0.0999756,3,0.2000122,4.5,0.2000122l2.8999939,0.2000122
	c2.1000061,0.0999756,4.2000122,0.2000122,6.3999939,0.2999878l2.2000122,0.0999756
	c2.5,0.0999756,5.1000061,0.2999878,7.7000122,0.4000244l212,11.2000122c0.5,0,0.7999878,0.4000244,0.7999878,0.9000244
	C566.5999756,635.7000122,566.2000122,636.0999756,565.7999878,636.0999756z"/>
<path class="st1" d="M396.3999939,654.5999756L396.3999939,654.5999756C385.1999817,654,376.6999817,644.5,377.2999878,633.2999878
	l0.7999878-16c0.6000061-11.2000122,10.1000061-19.7000122,21.2999878-19.0999756l0,0
	c11.2000122,0.5999756,19.7000122,10.0999756,19.1000061,21.2999878l-0.7999878,16
	C417,646.5999756,407.5,655.2000122,396.3999939,654.5999756z"/>
<path d="M585.5999756,665.4000244c-0.4000244,0-0.7000122,0-1.0999756,0c-11.5999756-0.5999756-20.5-10.5-19.9000244-22.2000122
	l0.7999878-16c0.5999756-11.5999756,10.5-20.5,22.2000122-19.9000244c11.5999756,0.5999756,20.5,10.5,19.9000244,22.2000122
	l-0.7999878,16C606,656.5999756,596.7000122,665.4000244,585.5999756,665.4000244z M586.4000244,608.9000244
	c-4.7999878,0-9.4000244,1.7000122-12.9000244,5c-3.7999878,3.5-6.0999756,8.2000122-6.4000244,13.4000244l-0.7999878,16
	C565.7000122,654.000061,574,663.1000366,584.5999756,663.7000732c10.7000122,0.5,19.7999878-7.7000122,20.4000244-18.2999878
	l0.7999878-16c0.5999756-10.7000122-7.7000122-19.7999878-18.2999878-20.4000244
	C587.0999756,608.9000244,586.7000122,608.9000244,586.4000244,608.9000244z"/>
<g>
	<path d="M440.7999878,656.9000244L440.7999878,656.9000244c-11.2000122-0.5999756-19.7000122-10.0999756-19.1000061-21.2999878
		l0.7999878-16c0.6000061-11.2000122,10.1000061-19.7000122,21.2999878-19.0999756l0,0
		c11.2000122,0.5999756,19.7000122,10.0999756,19.1000061,21.2999878l-0.7999878,16
		C461.5,648.9000244,452,657.5,440.7999878,656.9000244z"/>
	<path d="M441.8999939,657.7999878c-0.3999939,0-0.7000122,0-1.1000061,0c-11.6000061-0.5999756-20.5-10.5-19.8999939-22.2000122
		l0.7999878-16c0.6000061-11.5999756,10.5-20.5,22.2000122-19.9000244c11.6000061,0.5999756,20.5,10.5,19.8999939,22.2000122
		l-0.7999878,16C462.2999878,649.0999756,453,657.7999878,441.8999939,657.7999878z M442.7000122,601.2999878
		c-10.2000122,0-18.7999878,8-19.2999878,18.4000244l-0.7999878,16
		c-0.6000061,10.7000122,7.7000122,19.7999878,18.2999878,20.4000244c10.7000122,0.5,19.7999878-7.7000122,20.3999939-18.2999878
		l0.7999878-16c0.6000061-10.7000122-7.7000122-19.7999878-18.2999878-20.4000244
		C443.3999939,601.2999878,443,601.2999878,442.7000122,601.2999878z"/>
</g>
<g>
	<path d="M506.5,660.4000244L506.5,660.4000244c-11.2000122-0.5999756-19.7000122-10.0999756-19.1000061-21.2999878l0.7999878-16
		c0.6000061-11.2000122,10.1000061-19.7000122,21.2999878-19.0999756l0,0
		c11.1999817,0.5999756,19.6999817,10.0999756,19.1000061,21.2999878l-0.7999878,16
		C527.2000122,652.4000244,517.7000122,661,506.5,660.4000244z"/>
	<path d="M507.6000061,661.2999878c-0.3999939,0-0.7999878,0-1.1000061,0c-11.6000061-0.5999756-20.5-10.5-19.8999939-22.2000122
		l0.7999878-16C487.6999817,617.5,490.1999817,612.2999878,494.2999878,608.5
		C498.5,604.7000122,503.8999939,602.7999878,509.5,603.0999756c5.5999756,0.2999878,10.7999878,2.7999878,14.5999756,6.9000244
		c3.7999878,4.2000122,5.7000122,9.5999756,5.4000244,15.2000122l-0.7999878,16
		c-0.2999878,5.5999756-2.7999878,10.7999878-6.9000244,14.5999756
		C517.7999878,659.4000244,512.7999878,661.2999878,507.6000061,661.2999878z M506.6000061,659.5
		c5.2000122,0.2999878,10.1000061-1.5,13.9999695-4.9000244c3.7999878-3.5,6.0999756-8.2000122,6.4000244-13.4000244l0.7999878-16
		c0.5999756-10.7000122-7.7000122-19.7999878-18.2999878-20.4000244c-10.6000061-0.5-19.7999878,7.7000122-20.3999939,18.2999878
		l-0.7999878,16C487.7000122,649.7999878,495.8999939,659,506.6000061,659.5z"/>
</g>
<circle cx="142.1999969" cy="441.7999878" r="3.7999954"/>
<circle cx="129.5" cy="552.0999756" r="3.7999954"/>
<circle cx="859.9000244" cy="458.7000122" r="3.7999878"/>
<circle cx="825.9000244" cy="519.2000122" r="3.7999878"/>
<circle cx="795.2000122" cy="647.2999878" r="3.7999878"/>
<circle cx="161.8000031" cy="613.7000122" r="3.7999954"/>
</svg>
