<svg xmlns="http://www.w3.org/2000/svg" width="17" height="17" viewBox="0 0 17 17">
  <path id="Path_149" data-name="Path 149" d="M12.5,4A8.5,8.5,0,1,0,21,12.5,8.509,8.509,0,0,0,12.5,4Zm0,1.417a7.051,7.051,0,0,1,4.671,1.771,5,5,0,0,1-.6.686,8.609,8.609,0,0,1-3.054,1.837,33.8,33.8,0,0,0-2.634-4.118A7.209,7.209,0,0,1,12.5,5.417Zm-3.01.664a33.1,33.1,0,0,1,2.656,4.05,27.172,27.172,0,0,1-6.574.863A7.066,7.066,0,0,1,9.49,6.081Zm8.655,2.147a7.075,7.075,0,0,1,1.439,4.095,13.172,13.172,0,0,0-2.767-.288,17.281,17.281,0,0,0-2.1.132c-.177-.4-.368-.794-.553-1.173a9.914,9.914,0,0,0,3.387-2.1A6.784,6.784,0,0,0,18.145,8.228Zm-5.357,3.187c.164.329.329.667.487,1.018a12.28,12.28,0,0,0-6.131,4.693A7.056,7.056,0,0,1,5.417,12.5v-.089A27.94,27.94,0,0,0,12.788,11.416Zm4.029,2.014a10.526,10.526,0,0,1,2.656.31,7.035,7.035,0,0,1-2.9,4.56,25.3,25.3,0,0,0-1.306-4.781C15.826,13.463,16.354,13.43,16.817,13.43Zm-2.988.332a23.526,23.526,0,0,1,1.439,5.269,7.141,7.141,0,0,1-7.083-.907C8.912,17.126,11.05,14.476,13.828,13.762Z" transform="translate(-4 -4)"/>
</svg>
