<?xml version="1.0" encoding="utf-8"?>
<!-- Generator: Adobe Illustrator 24.0.1, SVG Export Plug-In . SVG Version: 6.00 Build 0)  -->
<svg version="1.1" id="Layer_1" xmlns="http://www.w3.org/2000/svg" xmlns:xlink="http://www.w3.org/1999/xlink" x="0px" y="0px"
	 viewBox="0 0 17.1410007 23.0340004" style="enable-background:new 0 0 17.1410007 23.0340004;" xml:space="preserve">
<path id="Path_155" d="M14.8109989,5.0119853c-0.0589981,0-0.118,0-0.1759987,0.007V4.8399863
	c-0.0011024-1.2863653-1.0436325-2.3288953-2.329998-2.3299997c-0.0589981,0-0.118,0-0.1759987,0.007V2.3299863
	c-0.0019684-1.2868224-1.0467377-2.3284025-2.3335571-2.326436c-1.1259556,0.0017214-2.0895939,0.8083582-2.289444,1.9164362
	C6.3573112,1.3411909,4.9569073,1.8031832,4.3781128,2.9518735C4.2141514,3.2772768,4.128828,3.6366098,4.1290016,4.0009856
	v5.0000005C3.3123093,8.0065384,1.8440895,7.8624377,0.8496399,8.6791306
	c-0.7930775,0.6513157-1.0666294,1.7448349-0.6736393,2.6928558l2.4769993,6
	c0.9259052,3.9471798,4.8763218,6.3964062,8.8235035,5.470499c3.3193092-0.7786217,5.665657-3.7400932,5.6644974-7.1494999
	V7.3399863C17.1382465,6.0546279,16.0963573,5.0136333,14.8109989,5.0119853z M15.8220005,15.6939869
	c0.0133514,3.3258324-2.6719475,6.0327759-5.997776,6.0461235c-2.8305893,0.011364-5.2870159-1.9501762-5.9022236-4.7131233
	l-2.5319996-6.1590004c-0.2131824-0.516386,0.0326138-1.1078186,0.5490017-1.3209991
	c0.516386-0.2131824,1.1078167,0.0326138,1.3209991,0.5489998l1.1170006,2.7070007l1.066-1.2929993V4.0009856
	c0-0.5586355,0.4528637-1.0115011,1.0115013-1.0115011c0.5586357,0,1.0114994,0.4528656,1.0114994,1.0115011v6.6819997h1.3190002
	V2.3299863c0-0.5586368,0.4528637-1.0115005,1.0114994-1.0115005s1.0115013,0.4528637,1.0115013,1.0115005l0,0V3.050987
	c-0.5293083,0.4417-0.8351974,1.0956037-0.8349991,1.7849996v6.6820016h1.3190002V4.8399863
	c0.001133-0.3719692,0.207222-0.7130203,0.5359993-0.8869989c0.056881-0.0301933,0.116478-0.0549679,0.1780014-0.0739994
	c0.0200005-0.0060005,0.0390015-0.0130005,0.0589981-0.0189991c0.0777779-0.0199661,0.1576996-0.0303764,0.237999-0.0310001
	c0.5589104-0.0011024,1.0128937,0.4510896,1.0139961,1.0100019c0,0.0003319,0,0.0006638,0,0.0009956V5.560987
	c-0.5291977,0.4417877-0.8350563,1.0956345-0.8349991,1.7849998v6.6819997h1.3190002V7.3399863
	c0.0029984-0.4417515,0.2919197-0.8306198,0.7140007-0.9610004c0.0200005-0.0060005,0.0390015-0.0139999,0.0589981-0.0189991
	c0.0777779-0.0199661,0.1576996-0.0303764,0.237999-0.0310001C15.3701305,6.3295379,15.8224468,6.7818542,15.823,7.3399863
	v8.3520012L15.8220005,15.6939869z"/>
</svg>
