<svg xmlns="http://www.w3.org/2000/svg" width="17.141" height="23.034" viewBox="0 0 17.141 23.034">
  <path id="Path_155" data-name="Path 155" d="M37.21,18.872c-.059,0-.118,0-.176.007V18.7a2.332,2.332,0,0,0-2.33-2.33c-.059,0-.118,0-.176.007V16.19a2.33,2.33,0,0,0-4.623-.41,2.329,2.329,0,0,0-3.377,2.081v5a2.33,2.33,0,0,0-3.953,2.371l2.477,6A7.341,7.341,0,0,0,39.54,29.553V21.2A2.333,2.333,0,0,0,37.21,18.872Zm1.011,10.682a6.022,6.022,0,0,1-11.9,1.333l-2.532-6.159a1.011,1.011,0,1,1,1.87-.772l1.117,2.707,1.066-1.293V17.861a1.011,1.011,0,0,1,2.023,0v6.682h1.319V16.19a1.011,1.011,0,0,1,2.023,0v.721a2.324,2.324,0,0,0-.835,1.785v6.682h1.319V18.7a1.007,1.007,0,0,1,.536-.887,1.027,1.027,0,0,1,.178-.074c.02-.006.039-.013.059-.019a.988.988,0,0,1,.238-.031A1.012,1.012,0,0,1,35.716,18.7v.721a2.325,2.325,0,0,0-.835,1.785v6.682H36.2V21.2a1.013,1.013,0,0,1,.714-.961c.02-.006.039-.014.059-.019a.988.988,0,0,1,.238-.031A1.012,1.012,0,0,1,38.222,21.2v8.352Z" transform="translate(-22.399 -13.86)" fill="#fff"/>
</svg>
