<svg xmlns="http://www.w3.org/2000/svg" width="17" height="17" viewBox="0 0 17 17">
  <path id="Path_150" data-name="Path 150" d="M10,5a5.018,5.018,0,0,0-5,5v7a5.018,5.018,0,0,0,5,5h7a5.018,5.018,0,0,0,5-5V10a5.018,5.018,0,0,0-5-5Zm0,1.545h7A3.449,3.449,0,0,1,20.455,10v7A3.449,3.449,0,0,1,17,20.455H10A3.449,3.449,0,0,1,6.545,17V10A3.449,3.449,0,0,1,10,6.545Zm8.065,1.691a.7.7,0,1,0,.7.7A.7.7,0,0,0,18.064,8.236ZM13.5,8.864A4.636,4.636,0,1,0,18.136,13.5,4.649,4.649,0,0,0,13.5,8.864Zm0,1.545A3.091,3.091,0,1,1,10.409,13.5,3.077,3.077,0,0,1,13.5,10.409Z" transform="translate(-5 -5)"/>
</svg>
