<svg xmlns="http://www.w3.org/2000/svg" width="536" height="429.886" viewBox="0 0 536 429.886">
  <g id="Group_70" data-name="Group 70" transform="translate(0 0.026)">
    <g id="background" transform="translate(0 -0.026)">
      <g id="background-2" data-name="background">
        <path id="Path_75" data-name="Path 75" d="M40.927,706.336a3,3,0,0,1-1.785-.576,2.822,2.822,0,0,1-1.267-2.015,3.21,3.21,0,0,1,.518-2.3,2.822,2.822,0,0,1,2.015-1.267,3.275,3.275,0,0,1,2.3.518,2.822,2.822,0,0,1,1.267,2.015,3.21,3.21,0,0,1-.518,2.3,2.822,2.822,0,0,1-2.015,1.267h0A1.593,1.593,0,0,1,40.927,706.336Zm0-5.3a.981.981,0,0,0-.4.057,2.187,2.187,0,0,0-1.44.921,2.132,2.132,0,0,0-.346,1.67,2.187,2.187,0,0,0,.921,1.44,2.132,2.132,0,0,0,1.67.346h0a2.187,2.187,0,0,0,1.44-.921,2.132,2.132,0,0,0,.346-1.67,2.187,2.187,0,0,0-.921-1.44A2.53,2.53,0,0,0,40.927,701.038Z" transform="translate(-16.05 -296.95)"/>
        <circle id="Ellipse_1" data-name="Ellipse 1" cx="2.937" cy="2.937" r="2.937" transform="translate(240.935 391.765)" fill="#9050a6"/>
        <path id="Path_76" data-name="Path 76" d="M53.6,291.874a3.87,3.87,0,0,1-1.382-.23,4.78,4.78,0,0,1-3.167-5.931,4.861,4.861,0,0,1,2.3-2.822,4.677,4.677,0,0,1,3.628-.346,4.861,4.861,0,0,1,2.822,2.3,4.944,4.944,0,0,1,.346,3.628h0A4.785,4.785,0,0,1,53.6,291.874Zm0-8.638a3.74,3.74,0,0,0-1.785.461,3.985,3.985,0,0,0-1.9,2.3,3.88,3.88,0,0,0,7.428,2.246h0a3.744,3.744,0,0,0-.288-2.937,3.985,3.985,0,0,0-2.3-1.9A4.3,4.3,0,0,0,53.6,283.236Zm4.089,5.125Z" transform="translate(-20.722 -119.738)"/>
        <path id="Path_77" data-name="Path 77" d="M374.217,336.908a3.368,3.368,0,0,1-.749-.115,2.514,2.514,0,0,1-1.5-1.267,2.568,2.568,0,0,1,3.052-3.628,2.573,2.573,0,0,1,1.728,3.225h0a2.515,2.515,0,0,1-1.267,1.5A3.371,3.371,0,0,1,374.217,336.908Zm0-4.319a1.322,1.322,0,0,0-.806.23,1.931,1.931,0,0,0-.864,1.037,1.753,1.753,0,0,0,.115,1.324,1.931,1.931,0,0,0,1.037.864,1.752,1.752,0,0,0,1.324-.115,1.931,1.931,0,0,0,.864-1.037,1.688,1.688,0,0,0-1.152-2.131A.929.929,0,0,0,374.217,332.589Zm2.073,2.361Z" transform="translate(-157.64 -140.701)"/>
        <circle id="Ellipse_2" data-name="Ellipse 2" cx="2.419" cy="2.419" r="2.419" transform="translate(171.142 57.945)" fill="#9050a6"/>
        <circle id="Ellipse_3" data-name="Ellipse 3" cx="5.125" cy="5.125" r="5.125" transform="translate(0 283.217)" fill="#9050a6"/>
        <circle id="Ellipse_4" data-name="Ellipse 4" cx="3.628" cy="3.628" r="3.628" transform="translate(408.449 15.102)" fill="#9050a6"/>
        <circle id="Ellipse_5" data-name="Ellipse 5" cx="3.628" cy="3.628" r="3.628" transform="translate(528.744 219.241)" fill="#9050a6"/>
        <path id="Path_78" data-name="Path 78" d="M30.773,34.9a.44.44,0,0,1-.288-.115L21.9,26.261a.452.452,0,0,1,0-.633L30.427,17.1a.452.452,0,0,1,.633,0l8.523,8.523a.452.452,0,0,1,0,.633l-8.523,8.523A.44.44,0,0,1,30.773,34.9Zm-7.947-8.983L30.715,33.8,38.6,25.915l-7.832-7.889Z" transform="translate(-9.236 -7.185)"/>
        <path id="Path_79" data-name="Path 79" d="M189.967,583.424a.44.44,0,0,1-.288-.115l-4.664-4.664a.417.417,0,0,1,0-.576l4.664-4.664a.452.452,0,0,1,.633,0l4.664,4.664a.417.417,0,0,1,0,.576l-4.664,4.664A.819.819,0,0,1,189.967,583.424Zm-4.031-5.125,4.089,4.089,4.089-4.089-4.089-4.089Z" transform="translate(-78.426 -243.14)"/>
        <path id="Path_80" data-name="Path 80" d="M552.235,348.891a.346.346,0,0,1-.23-.058l-4.434-3.052a.447.447,0,0,1-.115-.576l3.052-4.434a.447.447,0,0,1,.576-.115l4.434,3.052a.447.447,0,0,1,.115.576l-3.052,4.434A.348.348,0,0,1,552.235,348.891Zm-3.858-3.57,3.743,2.534,2.534-3.743-3.743-2.534Z" transform="translate(-232.179 -144.449)"/>
        <path id="Path_81" data-name="Path 81" d="M390.175,176.209a.346.346,0,0,1-.23-.058l-5.874-4.031a.447.447,0,0,1-.115-.576l4.031-5.874a.447.447,0,0,1,.576-.115l5.874,4.031a.317.317,0,0,1,.173.288.731.731,0,0,1-.058.345l-4.031,5.874A.818.818,0,0,1,390.175,176.209Zm-5.3-4.549,5.183,3.513,3.513-5.183-5.183-3.513Z" transform="translate(-162.83 -70.18)"/>
        <path id="Path_82" data-name="Path 82" d="M868.068,93.754h-.058a.489.489,0,0,1-.288-.173l-4.664-7.025A.731.731,0,0,1,863,86.21a.49.49,0,0,1,.173-.288l7.025-4.664a.731.731,0,0,1,.346-.058.49.49,0,0,1,.288.173L875.5,88.4a.447.447,0,0,1-.115.576l-7.025,4.664A.972.972,0,0,1,868.068,93.754Zm-4.089-7.371,4.2,6.334,6.334-4.2-4.2-6.334Z" transform="translate(-366.043 -34.426)"/>
        <path id="Path_83" data-name="Path 83" d="M854.132,609.955h-.058a.317.317,0,0,1-.288-.173l-6.046-8.062a.381.381,0,0,1-.058-.345.317.317,0,0,1,.173-.288l8.062-6.046a.436.436,0,0,1,.576.058l6.046,8.062a.436.436,0,0,1-.057.576l-8.062,6.046C854.3,609.9,854.247,609.955,854.132,609.955Zm-5.413-8.407,5.528,7.371,7.371-5.528-5.528-7.371Z" transform="translate(-359.536 -252.338)"/>
        <path id="Path_84" data-name="Path 84" d="M804.613,158.557a.485.485,0,0,1-.4-.23l-5.643-12.784a.439.439,0,0,1,.806-.346l5.643,12.784a.421.421,0,0,1-.23.576Z" transform="translate(-338.694 -61.454)"/>
        <path id="Path_85" data-name="Path 85" d="M502.57,190.545a.212.212,0,0,1-.173-.058.421.421,0,0,1-.23-.576l5.067-13.014a.439.439,0,0,1,.806.346l-5.068,13.014A.368.368,0,0,1,502.57,190.545Z" transform="translate(-212.976 -74.899)"/>
        <path id="Path_86" data-name="Path 86" d="M506.995,724.45a.381.381,0,0,1-.4-.346.448.448,0,0,1,.346-.518l13.59-2.994a.44.44,0,0,1,.173.864l-13.59,2.994Z" transform="translate(-214.867 -305.62)"/>
        <path id="Path_87" data-name="Path 87" d="M415.283,58.733a.346.346,0,0,1-.23-.058.394.394,0,0,1-.115-.576l7.486-11.747a.415.415,0,0,1,.691.461L415.628,58.56A.492.492,0,0,1,415.283,58.733Z" transform="translate(-175.96 -19.56)"/>
        <path id="Path_88" data-name="Path 88" d="M655.483,112.033a.346.346,0,0,1-.23-.058.394.394,0,0,1-.115-.576l7.486-11.747a.415.415,0,1,1,.691.461l-7.486,11.747A.411.411,0,0,1,655.483,112.033Z" transform="translate(-277.841 -42.168)"/>
        <path id="Path_89" data-name="Path 89" d="M210.387,13.925a.433.433,0,0,1-.4-.288L205.089.565a.547.547,0,0,1,.23-.576.547.547,0,0,1,.576.23l4.895,13.072a.547.547,0,0,1-.23.576A.212.212,0,0,1,210.387,13.925Z" transform="translate(-86.982 0.026)"/>
        <path id="Path_90" data-name="Path 90" d="M357.227,651.512a.44.44,0,0,1-.288-.115L346.8,641.838a.448.448,0,1,1,.633-.634l10.135,9.559a.452.452,0,0,1,0,.633A.818.818,0,0,1,357.227,651.512Z" transform="translate(-147.043 -271.898)"/>
        <path id="Path_91" data-name="Path 91" d="M322.57,479.472a.212.212,0,0,1-.173-.058.421.421,0,0,1-.23-.576L327.637,466a.439.439,0,1,1,.806.346l-5.471,12.841A.456.456,0,0,1,322.57,479.472Z" transform="translate(-136.628 -197.521)"/>
        <path id="Path_92" data-name="Path 92" d="M545.8,607.861c-.23,0-.4-.115-.4-.345l-2.706-13.705a.44.44,0,0,1,.864-.173l2.706,13.705a.448.448,0,0,1-.346.518Z" transform="translate(-230.179 -251.626)"/>
        <path id="Path_93" data-name="Path 93" d="M717.069,634.971c-.115,0-.173-.058-.288-.115a.451.451,0,0,1-.058-.633l8.638-10.941a.45.45,0,1,1,.691.576L717.414,634.8A.5.5,0,0,1,717.069,634.971Z" transform="translate(-303.955 -264.282)"/>
        <path id="Path_94" data-name="Path 94" d="M839.049,725.428a.5.5,0,0,1-.346-.173l-8.58-11a.45.45,0,1,1,.691-.576l8.58,11a.456.456,0,0,1-.058.633A.317.317,0,0,1,839.049,725.428Z" transform="translate(-352.054 -302.625)"/>
        <path id="Path_95" data-name="Path 95" d="M464.824,429.222a.41.41,0,0,1-.345-.173l-8.235-11.229a.415.415,0,1,1,.691-.461l8.235,11.229a.394.394,0,0,1-.115.576C465,429.222,464.94,429.222,464.824,429.222Z" transform="translate(-193.485 -176.928)"/>
        <path id="Path_96" data-name="Path 96" d="M61.761,420.429a.435.435,0,0,1-.23-.058.411.411,0,0,1-.173-.576l6.68-12.266a.425.425,0,1,1,.749.4L62.106,420.2A.389.389,0,0,1,61.761,420.429Z" transform="translate(-26 -172.742)"/>
        <path id="Path_97" data-name="Path 97" d="M68.983,597.394a.317.317,0,0,1-.288-.115l-11.114-8.465a.45.45,0,0,1,.576-.691l11.114,8.523a.451.451,0,0,1,.058.633A.486.486,0,0,1,68.983,597.394Z" transform="translate(-24.354 -249.394)"/>
        <path id="Path_98" data-name="Path 98" d="M8.595,177.965a.381.381,0,0,1-.4-.345.448.448,0,0,1,.346-.518l13.59-3.11a.44.44,0,1,1,.173.864l-13.59,3.11Z" transform="translate(-3.47 -73.779)"/>
        <path id="Path_99" data-name="Path 99" d="M194.412,178.927a.44.44,0,0,1-.288-.115l-10.02-9.674a.448.448,0,0,1,.633-.633l10.02,9.674a.452.452,0,0,1,0,.633A.818.818,0,0,1,194.412,178.927Z" transform="translate(-78.033 -71.401)"/>
        <path id="Path_100" data-name="Path 100" d="M264.606,348.471a.5.5,0,0,1-.346-.173l-8.638-10.941a.45.45,0,0,1,.691-.576l8.638,10.941a.456.456,0,0,1-.058.633A.317.317,0,0,1,264.606,348.471Z" transform="translate(-108.379 -142.762)"/>
        <path id="Path_101" data-name="Path 101" d="M861.752,458.325c-.115,0-.173-.058-.288-.115l-10.884-8.7a.45.45,0,1,1,.576-.691l10.883,8.7a.451.451,0,0,1,.058.633A.411.411,0,0,1,861.752,458.325Z" transform="translate(-360.706 -190.31)"/>
        <path id="Path_102" data-name="Path 102" d="M903.3,263.947a.316.316,0,0,1-.345-.23.4.4,0,0,1,.173-.576l12.035-7.083a.425.425,0,0,1,.4.749l-12.035,7.083A.346.346,0,0,1,903.3,263.947Z" transform="translate(-382.966 -108.568)"/>
      </g>
    </g>
    <g id="general" transform="translate(56.817 32.403)">
      <g id="general-2" data-name="general">
        <g id="man_1" data-name="man 1" transform="translate(1.043 17.585)">
          <path id="legs" d="M239.758,575.213c-12.035-.058-36.048.23-43.3.23-.288,0-9.214-.057-11.171-.057.691-5.931,1.324-11.92,2.015-17.851-1.094.058-2.131.058-3.225.115.576-13.36,2.361-60.579,2.707-70.887-3.973-5.125-22.8-30.866-27.756-38.179q-3.369,54.85-6.68,109.757c-.864.058-2.246.115-3.916.23.864.749,1.728,1.382,2.534,1.958a23.693,23.693,0,0,0,5.355,2.246c6.737,2.131,9.041,1.094,12.266,2.476,2.419,1.037,5.528,3.455,7.947,10.077-12.035-.058-36.048.23-43.3.23-.288,0-9.214-.058-11.171-.058.576-5.355-.461-103.307-1.555-151.391,8.35-.633,62.883-4.895,64.38-5.01h0c2.822,4.607,6.1,9.962,9.617,15.951,19.694,33.226,21.825,41.634,22.746,48.314,0,0,.115.691.173,1.324,1.382,14.281-1.324,31.211-1.324,31.211-.749,5.874-1.612,11.862-2.419,17.851-1.152,7.889-2.3,15.721-3.513,23.379a24.93,24.93,0,0,0,4.089,3.4,23.693,23.693,0,0,0,5.355,2.246c6.737,2.131,9.041,1.094,12.266,2.476C234.23,566.172,237.4,568.59,239.758,575.213Z" transform="translate(-108.97 -227.76)"/>
          <path id="tshirt" d="M223.319,160.868c-.058,1.44-.173,3.052-.288,4.895-.288,4.089-.806,9.041-1.728,14.627-.173,1.152-.4,2.3-.633,3.513-.4,2.015-.749,3.973-1.094,5.758-2.591,13.245-4.664,21.134-11.287,27.238-3.513,3.225-9.1,5.643-20.385,10.308-7.025,2.937-12.957,5.01-17.16,6.334l3.455,34.9c.749,7.371,1.44,14.742,2.188,22.113h0c-3.513.115-20.788,1.267-31.96,2.3-13.072,1.209-25.049,2.188-32.42,2.764-.173,0-.921.058-1.094.058-1.382-14.051-3.685-38.352-5.758-60.982-1.67-18.2-3.225-35.357-3.973-45.089-.173-2.188-.346-3.973-.4-5.355-.058-1.094-.173-2.419-.23-3.973a55.615,55.615,0,0,1,1.152-14.627c.288-1.209.576-2.476.979-3.743,1.037-3.4,2.361-6.334,6.046-12.266,1.728-2.764,3.916-6.1,6.853-10.48.864-1.267,1.728-2.591,2.764-4.031.173-.288.4-.576.576-.864,2.764-4.031,5.931-8.638,9.559-13.705.921-1.267,1.843-2.534,2.764-3.858.173.115.461.23.691.4,2.649,1.5,9.156,5.355,12.9,7.659h0c.461.288.864.518,1.267.749s.691.461.921.576c-.23.346-.4.691-.633,1.094-1.209,2.131-2.649,4.492-4.089,6.968l-.518.864c-2.476,4.2-5.01,8.523-7.025,11.92-.461.864-1.037,1.728-1.555,2.591-2.937,5.01-6.392,10.941-9.386,16.009-.691,1.152-1.382,2.3-2.015,3.4l1.555,11.229c.461,3.11.864,6.219,1.324,9.329.576,4.2,1.152,8.407,1.785,12.669.691.115,6.565,1.382,13.072,2.764,4.2.864,8.638,1.843,12.15,2.591,3.455.749,6.046,1.324,6.565,1.44,4.2-1.152,8.407-2.246,12.611-3.34,8.58-2.3,17.16-4.607,25.683-6.853.806-3.052,1.555-6.1,2.3-9.271.749-3.052,1.44-6.162,2.131-9.329.346-1.5.633-2.994.979-4.492.518-2.534,1.037-5.067,1.555-7.544l.518-2.591c.346-1.785.691-3.57,1.037-5.3v-.058h.173c2.649.058,5.3.115,7.947.23a8.5,8.5,0,0,1,1.209.058c2.015.058,3.34.115,5.931.173A18.41,18.41,0,0,0,223.319,160.868Z" transform="translate(-100.477 -99.497)" fill="#fee200"/>
          <g id="hand_l" data-name="hand l" transform="translate(30.301)">
            <path id="Path_103" data-name="Path 103" d="M172.562,107.541a.316.316,0,0,1-.346-.23.433.433,0,0,1,.115-.576l1.612-1.037c.691-.4,1.324-.806,1.9-1.152q1.209-.777,2.246-1.382a2.591,2.591,0,0,0,1.267-1.324,2.346,2.346,0,0,0-.23-1.612,2.758,2.758,0,0,0-1.5-1.094c-.633-.23-1.267-.518-1.44-1.267a1.54,1.54,0,0,1,.115-1.037,1.914,1.914,0,0,0,.115-1.037,2.2,2.2,0,0,0-.4-.979,1.722,1.722,0,0,0-.979-.576,2.124,2.124,0,0,1-1.267-.749,2.455,2.455,0,0,1-.461-1.209,1.847,1.847,0,0,0-.288-.979,1.34,1.34,0,0,0-.633-.518,3.19,3.19,0,0,1-.864-.633,5.082,5.082,0,0,1-1.209-1.785,1.526,1.526,0,0,0-.346-.633c-.864-.576-3.8,1.612-5.471,3.282a75.1,75.1,0,0,0-10.077,12.553c-.173.23-.346.518-.518.806l-.058.058a.415.415,0,1,1-.691-.461c.173-.288.346-.576.518-.806a74.22,74.22,0,0,1,10.193-12.726c.806-.749,4.78-4.549,6.565-3.4a1.853,1.853,0,0,1,.691,1.037,3.3,3.3,0,0,0,.979,1.5,3.51,3.51,0,0,0,.691.518,2.559,2.559,0,0,1,1.382,2.188,1.267,1.267,0,0,0,.23.749,1.584,1.584,0,0,0,.864.461,2.6,2.6,0,0,1,1.44.864,2.428,2.428,0,0,1,.518,1.382,2.8,2.8,0,0,1-.173,1.5c-.058.23-.115.346-.058.518.058.288.4.461.921.691a3.487,3.487,0,0,1,1.958,1.44h0a3.126,3.126,0,0,1,.345,2.3,3.334,3.334,0,0,1-1.67,1.843c-.691.4-1.382.864-2.246,1.382-.576.346-1.209.749-1.9,1.152l-1.612,1.037C172.677,107.484,172.62,107.541,172.562,107.541Z" transform="translate(-153.096 -86.825)"/>
            <path id="Path_104" data-name="Path 104" d="M179.269,125.888a.435.435,0,0,1-.4-.23.448.448,0,0,1,.173-.576c.4-.173,1.037-.518,1.785-.921a78.824,78.824,0,0,1,7.486-3.225c2.591-1.037,4.319-1.728,4.319-2.419,0-.518-.749-1.152-1.324-1.382a4,4,0,0,0-2.591.058,5.535,5.535,0,0,0-1.612.633.425.425,0,1,1-.4-.749,9.552,9.552,0,0,1,1.785-.691,4.6,4.6,0,0,1,3.167,0c.633.288,1.843,1.094,1.843,2.188,0,1.324-1.612,1.958-4.837,3.225-1.958.806-4.434,1.728-7.428,3.225-.749.4-1.382.691-1.785.864C179.442,125.83,179.384,125.888,179.269,125.888Z" transform="translate(-164.007 -99.24)"/>
            <path id="Path_105" data-name="Path 105" d="M171.06,124.023h0l-2.706,1.152L153.9,116.306c.173-.288.346-.518.518-.806Z" transform="translate(-153.437 -98.988)"/>
          </g>
          <g id="hand_r" data-name="hand r" transform="translate(96.967 40.813)">
            <path id="Path_106" data-name="Path 106" d="M297.232,178.661h0a.445.445,0,0,1-.461-.4v-2.649c-.058-1.382-.115-2.706-.23-4.031a60,60,0,0,0-1.037-6.68,20.884,20.884,0,0,0-1.612-4.837c-.461-.864-.921-1.382-1.324-1.44a3.592,3.592,0,0,0-1.612.461,4.042,4.042,0,0,0-.518.346,1.854,1.854,0,0,1-.749.461,1.954,1.954,0,0,1-1.324-.115,1.594,1.594,0,0,0-.749-.173,1.927,1.927,0,0,0-.979.576,2.178,2.178,0,0,1-1.612.806,1.88,1.88,0,0,1-.691-.115,1.541,1.541,0,0,0-.633-.115,3.1,3.1,0,0,0-1.728.346,1.756,1.756,0,0,0-.806.921,2.662,2.662,0,0,1-1.094,1.209,2,2,0,0,1-1.037.23,1.549,1.549,0,0,0-.921.23,2.218,2.218,0,0,0-1.267,1.094,2.937,2.937,0,0,0,.4,2.131c.23.461.461.979.749,1.5l.058.173c.115.288.288.576.4.921v.058h0c.461,1.037.979,2.188,1.555,3.513a.439.439,0,0,1-.806.346c-.576-1.324-1.037-2.476-1.5-3.513v-.058c-.173-.346-.288-.633-.4-.921l-.058-.173c-.23-.518-.461-1.037-.691-1.5a3.815,3.815,0,0,1-.461-2.879,3.187,3.187,0,0,1,1.67-1.555,2.725,2.725,0,0,1,1.324-.288,1.119,1.119,0,0,0,.691-.173,1.789,1.789,0,0,0,.749-.864,2.612,2.612,0,0,1,1.152-1.267,4.249,4.249,0,0,1,2.188-.461,2.192,2.192,0,0,1,.864.173.623.623,0,0,0,.345.058c.461,0,.691-.288,1.037-.576a2.233,2.233,0,0,1,1.5-.806,2.152,2.152,0,0,1,1.152.23,1.151,1.151,0,0,0,.749.115,1.442,1.442,0,0,0,.4-.23c.173-.115.346-.288.633-.461a4.69,4.69,0,0,1,2.073-.576c.749,0,1.382.633,2.073,1.9a25.18,25.18,0,0,1,1.728,5.067,52.2,52.2,0,0,1,1.036,6.8c.115,1.324.23,2.706.23,4.089,0,.864.058,1.728,0,2.649C297.635,178.488,297.462,178.661,297.232,178.661Z" transform="translate(-271.875 -157.7)"/>
            <path id="Path_107" data-name="Path 107" d="M276.775,183.725a.44.44,0,0,1-.288-.115l-.921-.979c-.23-.288-.518-.576-.806-.921a52.99,52.99,0,0,1-4.78-6.1c-1.094-1.843-1.382-3.11-.864-4.031a2.439,2.439,0,0,1,2.131-.979c.576.058,1.152.288,2.994,2.706l.461.576c.23.288.4.576.576.749l.173.23a.44.44,0,0,1,.115.288.454.454,0,0,1-.461.461.44.44,0,0,1-.288-.115l-.058-.058-.173-.288c-.173-.23-.346-.461-.576-.749l-.461-.576c-1.612-2.015-2.131-2.361-2.419-2.361a1.507,1.507,0,0,0-1.324.576c-.23.4-.288,1.267.864,3.11a54.389,54.389,0,0,0,4.664,5.989c.288.346.576.633.806.864l.921.979a.452.452,0,0,1,0,.633A.44.44,0,0,1,276.775,183.725Z" transform="translate(-268.866 -163.167)"/>
            <path id="Path_108" data-name="Path 108" d="M299.582,191.391l-8.292-.173-9.386-.173v-.058h.173c-.173-.173-.346-.4-.576-.633,3.858-.346,14.051-1.209,18.024-1.555C299.582,189.664,299.582,190.528,299.582,191.391Z" transform="translate(-274.225 -170.891)"/>
          </g>
          <g id="head" transform="translate(33.999 71.506)">
            <path id="hair" d="M188.646,220.329c-.058.058-.173.058-.23.115-.058,0-.058.058-.115.058l-.864.346-1.209.518c-.346,1.209-.749,2.476-1.094,3.685-.346,1.152-.633,2.3-.979,3.4-.346,0-1.843-.173-2.131-.23a3.837,3.837,0,0,0-1.037-4.031c-1.44-1.267-3.57-.806-4.722-.115a4.9,4.9,0,0,0-2.131,4.78c.058.288.115.576.173.806a5.244,5.244,0,0,0,2.3,2.822c-.058.115-.173.173-.23.288-1.037,1.209-2.188,2.419-3.34,3.628-1.555,1.612-3.052,3.167-4.549,4.664-.864-.115-1.728-.288-2.591-.4l-1.209-.173c-1.555-.23-3.167-.518-4.722-.749h0c-.115,0-.23-.058-.346-.058a92.673,92.673,0,0,1,.058-9.9,54.383,54.383,0,0,1,.864-6.968,14.888,14.888,0,0,1,.518-2.3,10.884,10.884,0,0,1,1.094-2.591c2.994-5.125,8.753-6.45,9.444-6.622a16.88,16.88,0,0,1,13.187,3.052,10.123,10.123,0,0,1,3.628,5.183A4.243,4.243,0,0,1,188.646,220.329Z" transform="translate(-159.519 -211)"/>
            <path id="Path_109" data-name="Path 109" d="M189.847,249.441h-.115a6.774,6.774,0,0,1-1.152-.4,8.236,8.236,0,0,1-1.209-.691.415.415,0,1,1,.461-.691,6.783,6.783,0,0,0,1.094.633,3.659,3.659,0,0,0,1.037.346.412.412,0,0,1,.288.518A.433.433,0,0,1,189.847,249.441Z" transform="translate(-171.258 -226.522)"/>
            <g id="face" transform="translate(0.047 0.104)">
              <path id="Path_110" data-name="Path 110" d="M176.875,248.219a.454.454,0,0,1-.461-.461v-4.434a.411.411,0,0,1,.461-.4h.346a11.314,11.314,0,0,0,8.119-2.764c2.3-2.246,2.649-5.183,3.11-8.868l.173-1.555a30.9,30.9,0,0,0-.691-9.156v-.058h0c0-.115-.058-.23-.058-.4a5.326,5.326,0,0,0-.288-.576h0s-.346-.633-.691-1.152a15.922,15.922,0,0,0-2.706-2.879c-.576-.461-5.758-4.434-12.15-3.052a12.659,12.659,0,0,0-8.81,7.313,3.077,3.077,0,0,0-.346.806,13.335,13.335,0,0,0-.806,2.534,61.248,61.248,0,0,0-.921,6.622c-.288,2.822-.461,6.162-.576,9.9v.058l-.115,4.376a.433.433,0,0,1-.864-.058l.115-4.434v-.058c.115-3.743.345-7.083.576-9.9a50.486,50.486,0,0,1,.979-6.737,16.971,16.971,0,0,1,.864-2.706,5.81,5.81,0,0,1,.4-.864,13.529,13.529,0,0,1,9.386-7.832c6.8-1.44,12.266,2.764,12.9,3.225a18.452,18.452,0,0,1,2.879,3.11,7.723,7.723,0,0,1,.749,1.267,3.12,3.12,0,0,0,.346.633v.058c.058.173.058.288.115.461h0v.058a32.3,32.3,0,0,1,.691,9.386c-.058.518-.115,1.094-.173,1.612-.461,3.858-.864,6.968-3.4,9.386-2.764,2.706-6.507,3.052-8.58,3.052V247.7C177.279,248.046,177.106,248.219,176.875,248.219Z" transform="translate(-159.6 -211.181)"/>
              <path id="Path_111" data-name="Path 111" d="M186.2,265.552c0,.23-.058.461-.058.691-.115,1.267-.173,2.476-.23,3.628h0c-.576-.633-1.094-1.209-1.67-1.785-1.094-1.209-2.246-2.476-3.34-3.685a13.3,13.3,0,0,0,3.916,1.037A11.182,11.182,0,0,0,186.2,265.552Z" transform="translate(-168.634 -233.754)"/>
            </g>
          </g>
        </g>
        <g id="man_2" data-name="man 2" transform="translate(268.015 62.831)">
          <g id="hand_l-2" data-name="hand l" transform="translate(109.531 113.397)">
            <path id="Path_112" data-name="Path 112" d="M773.188,390.7a2.3,2.3,0,0,1-1.728-.864c-.633-.864-.4-1.958.115-3.455.288-.749.633-1.612,1.094-2.706l.518-1.209c.288-.691.576-1.44.864-2.188-1.555,1.9-2.764,3.513-3.685,4.837-.058.058-.633.864-1.44,1.785-2.3,2.591-3.225,2.822-3.685,2.764a2.333,2.333,0,0,1-1.728-1.324,2.768,2.768,0,0,1-.23-1.728,9.509,9.509,0,0,1,1.612-3.34,9.748,9.748,0,0,1,1.152-1.44c1.152-1.267,2.3-2.649,3.225-3.8-.461.4-.921.921-1.5,1.5-1.036,1.037-1.958,1.843-2.534,2.419-4.722,4.376-5.759,4.492-6.507,4.2a2.479,2.479,0,0,1-1.5-2.016c-.173-1.324.979-2.476,2.591-4.031.4-.4.749-.691.749-.691,1.094-.979,3.052-2.764,5.759-5.3-5.125,2.649-8.868,4.492-9.444,4.664a2.333,2.333,0,0,1-1.44-.058.885.885,0,0,1-.345-.23,2.616,2.616,0,0,1-.633-.979h0a3.267,3.267,0,0,1-.173-.864c.057-1.843,2.591-2.994,3.628-3.513,5.989-2.822,12.323-5.7,18.773-8.7l.518-.23c.346-.173.634-.288.979-.461l2.995-1.382a.439.439,0,0,1,.345.806l-2.994,1.382c-.346.173-.634.288-.979.461l-.518.23c-6.45,2.937-12.784,5.874-18.773,8.638-.864.4-3.11,1.44-3.167,2.764a1.681,1.681,0,0,0,.115.518h0a2,2,0,0,0,.4.633.715.715,0,0,0,.173.115,1.2,1.2,0,0,0,.864,0c.576-.173,4.952-2.361,12.093-6.1a.458.458,0,0,1,.576.115.443.443,0,0,1-.058.576c-3.973,3.743-6.68,6.277-8.119,7.486a9.373,9.373,0,0,0-.691.633c-1.44,1.44-2.419,2.419-2.361,3.34a1.61,1.61,0,0,0,.921,1.267c.4.115,1.382-.115,5.643-4.031.4-.4,1.209-1.094,2.534-2.361s2.246-2.188,2.879-2.822c1.5-1.5,1.612-1.555,1.958-1.267a.41.41,0,0,1,.173.346c.058.691-3.282,5.01-5.47,7.313,0,0-.461.518-1.037,1.324a8.594,8.594,0,0,0-1.5,2.994,1.843,1.843,0,0,0,.115,1.152,1.677,1.677,0,0,0,1.094.864c.057,0,.749,0,2.937-2.476.806-.921,1.44-1.728,1.44-1.728,1.209-1.728,3.052-4.089,5.413-6.968a.433.433,0,0,1,.576-.115.4.4,0,0,1,.173.518c-.634,1.67-1.267,3.225-1.843,4.722l-.518,1.209c-.461,1.094-.806,1.958-1.036,2.706-.518,1.5-.576,2.188-.23,2.649a1.231,1.231,0,0,0,1.037.518c.518,0,1.094-.461,1.612-1.382.23-.346.4-.749.576-1.037l.115-.288c.173-.288.288-.576.461-.864a.056.056,0,0,1,.057-.058c.806-1.612,1.67-3.225,2.419-4.837.4-.864.864-1.728,1.267-2.591a.389.389,0,0,1,.346-.23,17.334,17.334,0,0,0,4.549-.979,17.138,17.138,0,0,0,5.816-3.455,21.188,21.188,0,0,0,2.879-3.11.409.409,0,0,1,.633.518,19.647,19.647,0,0,1-9.1,6.8,20.091,20.091,0,0,1-4.549,1.036c-.4.806-.749,1.612-1.152,2.361l-2.419,4.837-.4-.115.4.173c-.173.288-.288.576-.461.921l-.115.288c-.173.346-.4.749-.633,1.152a3.379,3.379,0,0,1-2.476,1.785Zm-17.966-13.417Z" transform="translate(-754.3 -362.322)"/>
          </g>
          <g id="tshirt-2" data-name="tshirt" transform="translate(27.472 35.415)">
            <path id="Path_113" data-name="Path 113" d="M780.54,396.268c.921-1.324,2.534-3.455,5.413-6.968-.691,1.785-1.324,3.4-1.843,4.722-.691,1.67-1.209,2.937-1.555,3.916-1.152,0-2.3.058-3.455.058C779.906,397.074,780.54,396.268,780.54,396.268Z" transform="translate(-682.761 -295.782)"/>
            <path id="Path_114" data-name="Path 114" d="M795.391,400.437c-.633,0-1.325,0-1.958.058H792.8a.056.056,0,0,1,.058-.058l2.419-4.837C795.276,397.212,795.334,398.825,795.391,400.437Z" transform="translate(-688.571 -298.454)"/>
            <path id="tshirt-3" data-name="tshirt" d="M732.959,243.081a81.858,81.858,0,0,0-27.871-12.093c-2.534-.518-5.874-1.267-9.847-1.728V226.9c-3.858.115-7.889.173-11.92.173-4.146,0-8.235-.058-12.208-.173v4.434c-1.036.345-2.073.691-3.167,1.094-4.089,1.555-10.538,4.607-19.406,12.438-11.517,10.193-20.385,22.573-23.61,27.238q-3.8-7.774-7.6-15.893c-1.9-4.089-3.743-8.062-5.528-12.093.058,1.555.921,24.358.979,25.913.058,1.728.979,25.395,1.037,27.122a12.38,12.38,0,0,0,3.225,2.706,8.179,8.179,0,0,0,2.361,1.152c10.365,2.649,23.783-12.035,29.484-18.312a67.291,67.291,0,0,0,4.376-5.24q-1.555,11.143-3.11,22.458-2.159,15.375-4.492,30.4c19.176-.4,38.294-.749,57.47-1.152A8.582,8.582,0,0,1,704.684,326a6.731,6.731,0,0,1,1.094-1.324,39.9,39.9,0,0,0,5.355-7.025c-.115-.058-1.094,1.036-4.261,4.088-1.44,1.382-2.188,2.073-2.534,2.419-4.607,4.261-5.528,4.319-6.046,4.088a2.028,2.028,0,0,1-1.209-1.612c-.115-1.094.921-2.131,2.476-3.685.4-.4.691-.633.691-.633,1.152-1.037,3.57-3.225,8.12-7.486-6.622,3.455-11.517,5.931-12.15,6.1a1.778,1.778,0,0,1-1.152-.058c-.115-.058-.23-.115-.23-.173a2.168,2.168,0,0,1-.518-.806,2.512,2.512,0,0,1-.115-.691c.058-1.555,2.419-2.706,3.4-3.11,2.937-1.382,9.674-4.492,18.773-8.638.518.345,1.036.749,1.555,1.094,1.037.749,2.073,1.5,3.167,2.188,3.11,2.188,6.219,4.261,9.271,6.219,2.188,1.44,4.376,2.822,6.507,4.146a124.769,124.769,0,0,0,17.736-27.871c3.513-7.544,5.24-11.4,5.24-16.066C759.736,261.048,742.4,249.416,732.959,243.081Zm-5.125,46.759c-3.4,4.031-6.8,7.832-10.135,11.459l-.518-15.893c-.173-6.046-.4-12.841-.576-18.888,3.455,1.728,6.968,3.513,10.48,5.355,3.628,1.9,7.2,3.743,10.768,5.643C734.686,281.548,731.346,285.637,727.834,289.84Z" transform="translate(-611.8 -226.9)"/>
          </g>
          <g id="shoes" transform="translate(12.155 285.103)">
            <path id="Path_115" data-name="Path 115" d="M604.721,675.1c.576,4.434,1.152,8.58,1.612,12.381-5.874-.058-12.957-.058-21.134,0,2.419-7.716,5.759-10.423,8.523-11.459C597.581,674.582,600.287,675.964,604.721,675.1Z" transform="translate(-585.2 -666.693)"/>
            <path id="Path_116" data-name="Path 116" d="M657.087,681.4c-2.073.057-4.952.057-8.407.057l-2.534-3.225v3.225h-.173c-7.2,0-12.438-.115-14.512-.173h-3.973c-.058-4.319-.173-8.983-.288-14.108a25.353,25.353,0,0,0,7.486-6.68h20.04C655.532,667.468,656.338,674.436,657.087,681.4Z" transform="translate(-603.014 -660.5)"/>
            <path id="Path_117" data-name="Path 117" d="M756.365,678.279,758.9,681.5c3.167,0,5.874-.058,7.774-.058-.749-6.968-1.555-13.878-2.3-20.846-6.737.058-13.417.058-20.155.115-4.376,5.586-8.523,7.486-11.575,8.177-4.78,1.094-7.486-.518-11.517.979-2.706,1.037-6.1,3.743-8.523,11.459,11.978-.058,21.594,0,28.447.058,2.073,0,7.313.173,14.511.173h.749v-3.282Z" transform="translate(-639.237 -660.542)"/>
          </g>
          <g id="head-2" data-name="head" transform="translate(76.765)">
            <path id="Path_118" data-name="Path 118" d="M711.22,202.216a.385.385,0,0,1-.4-.346l-.346-1.728a11.883,11.883,0,0,1-7.716-1.785c-5.355-3.513-5.355-10.653-5.355-13.014a22.724,22.724,0,0,1,2.188-9.674c.058-.058.058-.115.115-.173a13.637,13.637,0,0,1,5.989-6.219c.691-.346,6.622-3.34,12.093-.749,3.8,1.843,6.219,5.758,7.889,12.784l.057.288a.419.419,0,1,1-.806.23l-.057-.346c-1.612-6.737-3.858-10.538-7.428-12.208-5.067-2.419-10.711.4-11.344.691a13.274,13.274,0,0,0-5.643,5.874.178.178,0,0,0-.058.115,22.349,22.349,0,0,0-2.073,9.329c0,2.246,0,8.983,4.952,12.266a11.672,11.672,0,0,0,7.544,1.612.438.438,0,0,1,.461.346c.115.691.288,1.44.4,2.131a.448.448,0,0,1-.346.518C711.278,202.216,711.278,202.216,711.22,202.216Z" transform="translate(-697.4 -166.283)"/>
            <path id="Path_119" data-name="Path 119" d="M738.6,201.3h-.288a.433.433,0,0,1,.058-.864,4.968,4.968,0,0,0,1.612-.23,4.71,4.71,0,0,0,2.764-5.758,4.345,4.345,0,0,0-2.3-2.534,4.5,4.5,0,0,0-3.455-.173,4.894,4.894,0,0,0-1.209.633,4.417,4.417,0,0,0-1.382,2.131.419.419,0,1,1-.806-.23,5.079,5.079,0,0,1,1.67-2.591h0a6.555,6.555,0,0,1,1.44-.806,5.308,5.308,0,0,1,4.089.23,5.739,5.739,0,0,1,2.764,3.052,5.573,5.573,0,0,1-3.225,6.8A3.715,3.715,0,0,1,738.6,201.3Z" transform="translate(-712.744 -176.078)"/>
            <g id="hair-2" data-name="hair" transform="translate(2.303)">
              <path id="hair-3" data-name="hair" d="M728.119,181.12a6.213,6.213,0,0,0-5.01-.633,5.3,5.3,0,0,0-1.843,1.209,4.421,4.421,0,0,0-.979,1.843L715.8,176.8a17.39,17.39,0,0,1-3.57-1.5,25.12,25.12,0,0,1-4.78-3.743,14.433,14.433,0,0,1-2.131,1.785,11.954,11.954,0,0,1-3.916,1.612,13.8,13.8,0,0,1,5.7-7.6,13.657,13.657,0,0,1,13.59-.288A14.505,14.505,0,0,1,728.119,181.12Z" transform="translate(-701.4 -165.4)"/>
              <path id="Path_120" data-name="Path 120" d="M747.858,204.2l.23,6.046L745.9,206.1Z" transform="translate(-720.275 -181.857)"/>
            </g>
            <path id="Path_121" data-name="Path 121" d="M750,218.164a.385.385,0,0,1-.4-.346c-.4-2.419-.749-4.837-1.152-7.256l-.173-1.037c-.173-1.324-.4-2.649-.576-3.973a.407.407,0,0,1,.806-.115c.173,1.324.4,2.649.576,3.973l.173,1.036c.346,2.419.749,4.837,1.152,7.256a.448.448,0,0,1-.346.518Z" transform="translate(-718.727 -182.23)"/>
          </g>
          <g id="legs-2" data-name="legs" transform="translate(38.701 136.937)">
            <path id="Path_122" data-name="Path 122" d="M748.25,551.984a.385.385,0,0,1-.4-.346c-1.44-9.674-2.995-19.924-4.607-30.462h0l-.346-2.3h0c-2.476-15.951-5.068-32.132-7.774-48.141l-.4-2.476c-.173-.921-.288-1.843-.461-2.706-2.073-12.266-4.2-24.646-6.565-38.006a.44.44,0,1,1,.864-.173c2.361,13.3,4.492,25.74,6.565,38.006.173.921.288,1.843.461,2.707l.4,2.476c2.649,16.009,5.3,32.19,7.774,48.141h0l.346,2.3h0c1.612,10.365,3.167,20.5,4.549,30.117l8.983-.058h2.649c3.513,0,6.968-.058,10.48-.058l5.355-.058L765.352,403.761a.433.433,0,0,1,.864-.058l10.826,147.648a.818.818,0,0,1-.115.346c-.058.115-.173.115-.288.115l-5.816.057c-3.513,0-6.968.058-10.48.058h-2.649l-9.444.058Z" transform="translate(-672.18 -403.242)"/>
            <path id="Path_123" data-name="Path 123" d="M658.192,552.185H631.761a.5.5,0,0,1-.345-.173.818.818,0,0,1-.115-.346l29.138-147.129a.44.44,0,0,1,.864.173l-29.08,146.611h25.568l.173-.576,21.94-68.526h0l10.538-32.939a.419.419,0,0,1,.806.23L680.708,482.45h0l-.23.691-22,68.7C658.538,552.07,658.422,552.185,658.192,552.185Z" transform="translate(-631.3 -403.616)"/>
            <g id="pattern" transform="translate(1.67)">
              <g id="Group_65" data-name="Group 65" transform="translate(28.044)">
                <circle id="Ellipse_6" data-name="Ellipse 6" cx="1.382" cy="1.382" r="1.382"/>
                <circle id="Ellipse_7" data-name="Ellipse 7" cx="1.382" cy="1.382" r="1.382" transform="translate(15.202)"/>
                <circle id="Ellipse_8" data-name="Ellipse 8" cx="1.382" cy="1.382" r="1.382" transform="translate(30.405)"/>
                <circle id="Ellipse_9" data-name="Ellipse 9" cx="1.382" cy="1.382" r="1.382" transform="translate(45.665)"/>
                <path id="Path_124" data-name="Path 124" d="M792.255,404.921a1.364,1.364,0,0,1-1.382,1.382H790.7c.23-.4.461-.749.633-1.094.173-.4.4-.749.576-1.152a.056.056,0,0,1,.058-.058l.058.058A2.136,2.136,0,0,1,792.255,404.921Z" transform="translate(-728.624 -403.539)"/>
                <circle id="Ellipse_10" data-name="Ellipse 10" cx="1.382" cy="1.382" r="1.382" transform="translate(7.601 7.083)"/>
                <circle id="Ellipse_11" data-name="Ellipse 11" cx="1.382" cy="1.382" r="1.382" transform="translate(22.804 7.083)"/>
                <circle id="Ellipse_12" data-name="Ellipse 12" cx="1.382" cy="1.382" r="1.382" transform="translate(38.064 7.083)"/>
                <circle id="Ellipse_13" data-name="Ellipse 13" cx="1.382" cy="1.382" r="1.382" transform="translate(53.266 7.083)"/>
                <circle id="Ellipse_14" data-name="Ellipse 14" cx="1.382" cy="1.382" r="1.382" transform="translate(0 15.26)"/>
                <circle id="Ellipse_15" data-name="Ellipse 15" cx="1.382" cy="1.382" r="1.382" transform="translate(15.202 15.26)"/>
                <circle id="Ellipse_16" data-name="Ellipse 16" cx="1.382" cy="1.382" r="1.382" transform="translate(30.405 15.26)"/>
                <circle id="Ellipse_17" data-name="Ellipse 17" cx="1.382" cy="1.382" r="1.382" transform="translate(45.665 15.26)"/>
                <circle id="Ellipse_18" data-name="Ellipse 18" cx="1.382" cy="1.382" r="1.382" transform="translate(60.867 15.26)"/>
                <circle id="Ellipse_19" data-name="Ellipse 19" cx="1.382" cy="1.382" r="1.382" transform="translate(7.601 22.285)"/>
                <circle id="Ellipse_20" data-name="Ellipse 20" cx="1.382" cy="1.382" r="1.382" transform="translate(22.804 22.285)"/>
                <circle id="Ellipse_21" data-name="Ellipse 21" cx="1.382" cy="1.382" r="1.382" transform="translate(38.064 22.285)"/>
                <circle id="Ellipse_22" data-name="Ellipse 22" cx="1.382" cy="1.382" r="1.382" transform="translate(53.266 22.285)"/>
              </g>
              <g id="Group_66" data-name="Group 66" transform="translate(20.443 31.038)">
                <circle id="Ellipse_23" data-name="Ellipse 23" cx="1.382" cy="1.382" r="1.382" transform="translate(7.601)"/>
                <circle id="Ellipse_24" data-name="Ellipse 24" cx="1.382" cy="1.382" r="1.382" transform="translate(22.804)"/>
                <circle id="Ellipse_25" data-name="Ellipse 25" cx="1.382" cy="1.382" r="1.382" transform="translate(38.006)"/>
                <circle id="Ellipse_26" data-name="Ellipse 26" cx="1.382" cy="1.382" r="1.382" transform="translate(53.266)"/>
                <circle id="Ellipse_27" data-name="Ellipse 27" cx="1.382" cy="1.382" r="1.382" transform="translate(68.468)"/>
                <circle id="Ellipse_28" data-name="Ellipse 28" cx="1.382" cy="1.382" r="1.382" transform="translate(0 7.083)"/>
                <circle id="Ellipse_29" data-name="Ellipse 29" cx="1.382" cy="1.382" r="1.382" transform="translate(15.202 7.083)"/>
                <circle id="Ellipse_30" data-name="Ellipse 30" cx="1.382" cy="1.382" r="1.382" transform="translate(30.405 7.083)"/>
                <circle id="Ellipse_31" data-name="Ellipse 31" cx="1.382" cy="1.382" r="1.382" transform="translate(45.665 7.083)"/>
                <circle id="Ellipse_32" data-name="Ellipse 32" cx="1.382" cy="1.382" r="1.382" transform="translate(60.867 7.083)"/>
                <circle id="Ellipse_33" data-name="Ellipse 33" cx="1.382" cy="1.382" r="1.382" transform="translate(7.601 15.26)"/>
                <circle id="Ellipse_34" data-name="Ellipse 34" cx="1.382" cy="1.382" r="1.382" transform="translate(22.804 15.26)"/>
                <circle id="Ellipse_35" data-name="Ellipse 35" cx="1.382" cy="1.382" r="1.382" transform="translate(38.006 15.26)"/>
                <circle id="Ellipse_36" data-name="Ellipse 36" cx="1.382" cy="1.382" r="1.382" transform="translate(53.266 15.26)"/>
                <circle id="Ellipse_37" data-name="Ellipse 37" cx="1.382" cy="1.382" r="1.382" transform="translate(68.468 15.26)"/>
                <circle id="Ellipse_38" data-name="Ellipse 38" cx="1.382" cy="1.382" r="1.382" transform="translate(0 22.285)"/>
                <circle id="Ellipse_39" data-name="Ellipse 39" cx="1.382" cy="1.382" r="1.382" transform="translate(15.202 22.285)"/>
                <circle id="Ellipse_40" data-name="Ellipse 40" cx="1.382" cy="1.382" r="1.382" transform="translate(30.405 22.285)"/>
                <circle id="Ellipse_41" data-name="Ellipse 41" cx="1.382" cy="1.382" r="1.382" transform="translate(45.665 22.285)"/>
                <circle id="Ellipse_42" data-name="Ellipse 42" cx="1.382" cy="1.382" r="1.382" transform="translate(60.867 22.285)"/>
              </g>
              <g id="Group_67" data-name="Group 67" transform="translate(14.223 62.076)">
                <path id="Path_125" data-name="Path 125" d="M662.47,512.382a1.4,1.4,0,0,1-1.382,1.382H660.8l.518-2.764A1.46,1.46,0,0,1,662.47,512.382Z" transform="translate(-659.706 -511)"/>
                <circle id="Ellipse_43" data-name="Ellipse 43" cx="1.382" cy="1.382" r="1.382" transform="translate(15.202)"/>
                <circle id="Ellipse_44" data-name="Ellipse 44" cx="1.382" cy="1.382" r="1.382" transform="translate(30.462)"/>
                <path id="Path_126" data-name="Path 126" d="M741.643,512.382a1.4,1.4,0,0,1-1.382,1.382c-.173-.921-.288-1.843-.461-2.707a1.123,1.123,0,0,1,.461-.058A1.4,1.4,0,0,1,741.643,512.382Z" transform="translate(-693.214 -511)"/>
                <circle id="Ellipse_45" data-name="Ellipse 45" cx="1.382" cy="1.382" r="1.382" transform="translate(60.867)"/>
                <circle id="Ellipse_46" data-name="Ellipse 46" cx="1.382" cy="1.382" r="1.382" transform="translate(76.07)"/>
                <circle id="Ellipse_47" data-name="Ellipse 47" cx="1.382" cy="1.382" r="1.382" transform="translate(7.601 7.083)"/>
                <circle id="Ellipse_48" data-name="Ellipse 48" cx="1.382" cy="1.382" r="1.382" transform="translate(22.804 7.083)"/>
                <circle id="Ellipse_49" data-name="Ellipse 49" cx="1.382" cy="1.382" r="1.382" transform="translate(53.266 7.083)"/>
                <circle id="Ellipse_50" data-name="Ellipse 50" cx="1.382" cy="1.382" r="1.382" transform="translate(68.468 7.083)"/>
                <circle id="Ellipse_51" data-name="Ellipse 51" cx="1.382" cy="1.382" r="1.382" transform="translate(0 15.26)"/>
                <circle id="Ellipse_52" data-name="Ellipse 52" cx="1.382" cy="1.382" r="1.382" transform="translate(15.202 15.26)"/>
                <circle id="Ellipse_53" data-name="Ellipse 53" cx="1.382" cy="1.382" r="1.382" transform="translate(30.462 15.26)"/>
                <circle id="Ellipse_54" data-name="Ellipse 54" cx="1.382" cy="1.382" r="1.382" transform="translate(60.867 15.26)"/>
                <circle id="Ellipse_55" data-name="Ellipse 55" cx="1.382" cy="1.382" r="1.382" transform="translate(76.07 15.26)"/>
                <circle id="Ellipse_56" data-name="Ellipse 56" cx="1.382" cy="1.382" r="1.382" transform="translate(7.601 22.285)"/>
                <circle id="Ellipse_57" data-name="Ellipse 57" cx="1.382" cy="1.382" r="1.382" transform="translate(22.804 22.285)"/>
                <circle id="Ellipse_58" data-name="Ellipse 58" cx="1.382" cy="1.382" r="1.382" transform="translate(53.266 22.285)"/>
                <circle id="Ellipse_59" data-name="Ellipse 59" cx="1.382" cy="1.382" r="1.382" transform="translate(68.468 22.285)"/>
                <path id="Path_127" data-name="Path 127" d="M804.546,552.47a1.308,1.308,0,0,1-.346-.921,1.157,1.157,0,0,1,.23-.749C804.488,551.376,804.488,551.894,804.546,552.47Z" transform="translate(-720.529 -527.881)"/>
              </g>
              <g id="Group_68" data-name="Group 68" transform="translate(6.622 93.115)">
                <circle id="Ellipse_60" data-name="Ellipse 60" cx="1.382" cy="1.382" r="1.382" transform="translate(7.601)"/>
                <circle id="Ellipse_61" data-name="Ellipse 61" cx="1.382" cy="1.382" r="1.382" transform="translate(22.804)"/>
                <circle id="Ellipse_62" data-name="Ellipse 62" cx="1.382" cy="1.382" r="1.382" transform="translate(68.468)"/>
                <circle id="Ellipse_63" data-name="Ellipse 63" cx="1.382" cy="1.382" r="1.382" transform="translate(83.671)"/>
                <path id="Path_128" data-name="Path 128" d="M649.355,578.582a1.4,1.4,0,0,1-1.382,1.382H647.8l.518-2.764A1.433,1.433,0,0,1,649.355,578.582Z" transform="translate(-646.591 -570.117)"/>
                <circle id="Ellipse_64" data-name="Ellipse 64" cx="1.382" cy="1.382" r="1.382" transform="translate(15.202 7.083)"/>
                <circle id="Ellipse_65" data-name="Ellipse 65" cx="1.382" cy="1.382" r="1.382" transform="translate(30.405 7.083)"/>
                <circle id="Ellipse_66" data-name="Ellipse 66" cx="1.382" cy="1.382" r="1.382" transform="translate(60.867 7.083)"/>
                <circle id="Ellipse_67" data-name="Ellipse 67" cx="1.382" cy="1.382" r="1.382" transform="translate(76.07 7.083)"/>
                <path id="Path_129" data-name="Path 129" d="M805.8,579.964h-.115a1.4,1.4,0,0,1-1.382-1.382,1.352,1.352,0,0,1,1.324-1.382C805.625,578.064,805.74,579.043,805.8,579.964Z" transform="translate(-712.97 -570.117)"/>
                <circle id="Ellipse_68" data-name="Ellipse 68" cx="1.382" cy="1.382" r="1.382" transform="translate(7.601 15.26)"/>
                <circle id="Ellipse_69" data-name="Ellipse 69" cx="1.382" cy="1.382" r="1.382" transform="translate(22.804 15.26)"/>
                <circle id="Ellipse_70" data-name="Ellipse 70" cx="1.382" cy="1.382" r="1.382" transform="translate(68.468 15.26)"/>
                <circle id="Ellipse_71" data-name="Ellipse 71" cx="1.382" cy="1.382" r="1.382" transform="translate(83.671 15.26)"/>
                <circle id="Ellipse_72" data-name="Ellipse 72" cx="1.382" cy="1.382" r="1.382" transform="translate(0 22.285)"/>
                <circle id="Ellipse_73" data-name="Ellipse 73" cx="1.382" cy="1.382" r="1.382" transform="translate(15.202 22.285)"/>
                <path id="Path_130" data-name="Path 130" d="M755.606,605.067a1.349,1.349,0,0,1-.461,1.037c-.115-.749-.23-1.555-.346-2.3A1.416,1.416,0,0,1,755.606,605.067Z" transform="translate(-691.975 -581.399)"/>
                <circle id="Ellipse_74" data-name="Ellipse 74" cx="1.382" cy="1.382" r="1.382" transform="translate(76.07 22.285)"/>
                <circle id="Ellipse_75" data-name="Ellipse 75" cx="1.382" cy="1.382" r="1.382" transform="translate(91.33 22.285)"/>
              </g>
              <g id="Group_69" data-name="Group 69" transform="translate(0 124.153)">
                <circle id="Ellipse_76" data-name="Ellipse 76" cx="1.382" cy="1.382" r="1.382" transform="translate(15.202)"/>
                <path id="Path_131" data-name="Path 131" d="M689.461,619.235l-.749,2.419h-.23a1.382,1.382,0,1,1,0-2.764A1.1,1.1,0,0,1,689.461,619.235Z" transform="translate(-656.638 -618.832)"/>
                <circle id="Ellipse_77" data-name="Ellipse 77" cx="1.382" cy="1.382" r="1.382" transform="translate(76.07)"/>
                <circle id="Ellipse_78" data-name="Ellipse 78" cx="1.382" cy="1.382" r="1.382" transform="translate(91.33)"/>
                <circle id="Ellipse_79" data-name="Ellipse 79" cx="1.382" cy="1.382" r="1.382" transform="translate(7.601 7.083)"/>
                <circle id="Ellipse_80" data-name="Ellipse 80" cx="1.382" cy="1.382" r="1.382" transform="translate(22.804 7.083)"/>
                <circle id="Ellipse_81" data-name="Ellipse 81" cx="1.382" cy="1.382" r="1.382" transform="translate(83.728 7.083)"/>
                <circle id="Ellipse_82" data-name="Ellipse 82" cx="1.382" cy="1.382" r="1.382" transform="translate(98.931 7.083)"/>
                <circle id="Ellipse_83" data-name="Ellipse 83" cx="1.382" cy="1.382" r="1.382" transform="translate(0 15.26)"/>
                <circle id="Ellipse_84" data-name="Ellipse 84" cx="1.382" cy="1.382" r="1.382" transform="translate(15.202 15.26)"/>
                <circle id="Ellipse_85" data-name="Ellipse 85" cx="1.382" cy="1.382" r="1.382" transform="translate(76.07 15.26)"/>
                <circle id="Ellipse_86" data-name="Ellipse 86" cx="1.382" cy="1.382" r="1.382" transform="translate(91.33 15.26)"/>
                <path id="Path_132" data-name="Path 132" d="M650.222,658.882a.73.73,0,0,1-.058.346h-2.706c0-.115-.058-.23-.058-.346a1.411,1.411,0,0,1,2.822,0Z" transform="translate(-639.799 -635.215)"/>
                <path id="Path_133" data-name="Path 133" d="M676.507,658.364l-.288.864h-2.361c0-.115-.058-.23-.058-.346a1.408,1.408,0,0,1,2.706-.518Z" transform="translate(-650.996 -635.215)"/>
                <path id="Path_134" data-name="Path 134" d="M782.364,658.882a1.268,1.268,0,0,1-.058.461h-2.649a1.122,1.122,0,0,1-.058-.461,1.382,1.382,0,0,1,2.764,0Z" transform="translate(-695.872 -635.215)"/>
                <path id="Path_135" data-name="Path 135" d="M808.722,658.882a.732.732,0,0,1-.057.346h-2.707a.73.73,0,0,1-.058-.346,1.411,1.411,0,0,1,2.822,0Z" transform="translate(-707.027 -635.215)"/>
              </g>
            </g>
          </g>
          <path id="Path_136" data-name="Path 136" d="M569.625,229.365a1.96,1.96,0,0,1-.576-.058,3.454,3.454,0,0,1-1.958-1.382,13.155,13.155,0,0,1-1.382-2.534l-.058-.115a14.882,14.882,0,0,1-1.555-6.737,15.512,15.512,0,0,1,3.455-8.983,17.248,17.248,0,0,1,6.853-5.24,6.142,6.142,0,0,1,1.094-.4c2.3-.749,4.952-.576,9.732-.23,2.073.115,3.628.346,4.607,1.037a2.465,2.465,0,0,1,.806.921,2.436,2.436,0,0,1-.173,2.419,2.928,2.928,0,0,1,2.073,2.015,2.657,2.657,0,0,1-.691,2.3,2.7,2.7,0,0,1-1.67.806,14.572,14.572,0,0,1-2.188-.058,18.89,18.89,0,0,0-1.958-.115,45.147,45.147,0,0,0-5.816.288c1.958.288,3.973.691,5.989,1.094a16.579,16.579,0,0,1,4.376,1.324.056.056,0,0,1,.058.058,2.438,2.438,0,0,1,1.036,1.267,2.5,2.5,0,0,1-.633,2.476c-.058.058-.115.115-.173.115a.056.056,0,0,0-.057.058c-.806.576-1.843.4-3.34.173-1.555-.23-3.052-.461-4.376-.633-1.267-.173-2.361-.346-3.225-.461a42.764,42.764,0,0,0,4.722,1.5c2.419.633,3.973,1.094,4.376,2.361a1.914,1.914,0,0,1-.058,1.5,2.359,2.359,0,0,1-1.67.921c-2.706.4-9.674-1.9-11.632-2.591a8.11,8.11,0,0,1-1.5,3.858C573.886,226.774,571.928,229.365,569.625,229.365Zm10.02-25.165a12.648,12.648,0,0,0-3.858.461,7.691,7.691,0,0,0-1.037.4,16.152,16.152,0,0,0-6.507,5.01,14.208,14.208,0,0,0-3.282,8.465,14.618,14.618,0,0,0,1.44,6.334l.058.115a10.6,10.6,0,0,0,1.324,2.419,2.431,2.431,0,0,0,1.5,1.094c2.015.4,4.089-2.419,4.319-2.764a8.033,8.033,0,0,0,1.382-3.973.5.5,0,0,1,.173-.346.473.473,0,0,1,.4-.058c.115.058,8.811,3.167,11.69,2.706.23-.058.806-.115,1.036-.518a1.164,1.164,0,0,0,0-.806c-.288-.864-1.785-1.267-3.8-1.785a46.739,46.739,0,0,1-5.355-1.728c-.576-.23-1.152-.461-1.5-.633a2.8,2.8,0,0,1-.4-.173l-.115-.058a.465.465,0,0,1-.23-.518.5.5,0,0,1,.461-.346l.633.058c.461.058,1.267.115,2.188.23.864.115,2.016.288,3.282.518,1.324.23,2.822.461,4.376.633,1.382.173,2.188.288,2.706,0l.058-.058c.058,0,.058-.058.115-.058a1.646,1.646,0,0,0,.4-1.612,1.549,1.549,0,0,0-.691-.806.056.056,0,0,1-.058-.058,14.7,14.7,0,0,0-4.031-1.209c-2.591-.518-5.125-.979-7.659-1.324a6.345,6.345,0,0,0-1.036-.115c-.23,0-.346-.173-.4-.4a.438.438,0,0,1,.346-.461l1.037-.173a37.207,37.207,0,0,1,7.774-.576,18.893,18.893,0,0,1,1.958.115,12.678,12.678,0,0,0,2.015.058,1.8,1.8,0,0,0,1.152-.518,1.69,1.69,0,0,0,.461-1.5,2.228,2.228,0,0,0-1.958-1.5c-.115,0-.23-.058-.346-.058-.057,0-.057,0-.115-.058a19.856,19.856,0,0,1-2.879.058h-.633c-1.267-.058-1.9-.058-2.246-.058a27.248,27.248,0,0,0-6.046.288.407.407,0,0,1-.115-.806,33,33,0,0,1,6.219-.288c.288,0,.979.058,2.188.058h.633c1.9.058,2.764.058,3.167-.173.058-.058.115-.058.173-.115a1.49,1.49,0,0,0,.058-1.555,1.634,1.634,0,0,0-.518-.576,9.687,9.687,0,0,0-4.146-.864A49.942,49.942,0,0,0,579.645,204.2Z" transform="translate(-564.092 -181.512)"/>
        </g>
        <g id="thread" transform="translate(0 11.06)">
          <path id="Path_137" data-name="Path 137" d="M653.517,184.957a.433.433,0,0,1-.4-.288,148.187,148.187,0,0,0-16.009-34.493c-6.853-10.768-21.076-33.169-39.964-44.859a.415.415,0,1,1,.461-.691c19.061,11.747,33.342,34.263,40.194,45.089a149.776,149.776,0,0,1,16.124,34.666.412.412,0,0,1-.288.518C653.632,184.957,653.574,184.957,653.517,184.957Z" transform="translate(-310.003 -87.808)"/>
          <path id="Path_138" data-name="Path 138" d="M486.858,204.864a51.74,51.74,0,0,1-24.358-6.219c-8.523-4.607-14.857-11.229-18.37-19.118a34.564,34.564,0,0,1-3.167-18.024c1.382-11.978,7.544-26.662,16.584-39.215,13.475-18.83,30.635-30.059,47.047-30.923a42,42,0,0,1,10.365.806,40.881,40.881,0,0,1,5.471,1.5c1.612.576,3.225,1.209,4.837,1.958a.439.439,0,1,1-.346.806,50.6,50.6,0,0,0-10.135-3.4,40.385,40.385,0,0,0-10.135-.806c-16.124.806-33.054,11.978-46.356,30.52-8.926,12.5-15.087,27.007-16.469,38.812a34.339,34.339,0,0,0,3.11,17.563c3.455,7.716,9.674,14.166,18.024,18.658a50.833,50.833,0,0,0,25.452,6.1,48.8,48.8,0,0,0,29.08-11.171.45.45,0,0,1,.576.691c-6.162,4.952-16.354,10.941-29.6,11.344A7.875,7.875,0,0,1,486.858,204.864Z" transform="translate(-243.773 -82.205)"/>
          <path id="Path_139" data-name="Path 139" d="M118.207,212.55a.433.433,0,0,1-.4-.288c-2.246-5.989-4.319-12.093-6.1-18.139l-.058-.115c-3.34-11.229-8.35-28.1-11.114-46.068-4.549-29.887-.749-51.02,11.229-62.71A39.2,39.2,0,0,1,123.5,77.4c5.067-2.073,9.789-2.476,13.705-1.094a16.744,16.744,0,0,1,8,6.449.415.415,0,1,1-.691.461,15.858,15.858,0,0,0-7.544-6.1c-7.889-2.764-18.312,2.591-24.589,8.753-11.8,11.517-15.49,32.363-11,61.961,2.706,17.909,7.774,34.781,11.056,45.953l.058.115c1.785,6.046,3.858,12.093,6.1,18.082a.547.547,0,0,1-.23.576C118.322,212.492,118.264,212.55,118.207,212.55Z" transform="translate(-98.666 -75.495)"/>
          <path id="Path_140" data-name="Path 140" d="M300.908,475.985c-10.711,0-19.809-2.764-26.144-8.062a32.838,32.838,0,0,1-8.062-10.365,30.867,30.867,0,0,1-3.167-10.711,24.738,24.738,0,0,1,.691-8.81c2.419-8.58,10.768-16.239,22.861-20.961a68.765,68.765,0,0,1,36.682-3.57c13.187,2.534,21.364,9.1,29.311,15.433,2.994,2.361,5.816,4.607,8.81,6.565,4.319-15.26,2.879-34.9-4.146-56.779-11.92,5.471-32.881,11.862-53.324,14.051-17.621,1.9-41.173,1.382-53.5-12.093a35.193,35.193,0,0,1-2.3-2.822c-8-11.229-6.046-25.395-5.125-32.248h0a61.466,61.466,0,0,1,9.559-25.28c5.816-8.753,13.532-15.087,22.4-18.254a42.257,42.257,0,0,1,12.5-2.476,38.233,38.233,0,0,1,.4-7.774A28.019,28.019,0,0,1,291,283.709c7.025-13.475,24.531-15.375,43.016-17.333,9.674-1.037,19.694-2.131,28.447-4.952-29.426-15.605-41.576-32.478-48.083-43.88a118.54,118.54,0,0,1-10.077-23.322C291.81,202,283.575,212.3,281.559,222.5c-1.267,6.622.346,11.632,2.131,16.93,2.015,6.046,4.089,12.381,1.267,21.134-4.492,13.82-16.988,22.228-26.316,25.222-12.9,4.146-29.6,1.612-42.613-6.507-7.141-4.434-12.381-10.25-14.684-16.3-4.376-11.4-.23-28.5,11.287-47.047A165.379,165.379,0,0,1,245.4,178.386c3.11-2.706,6.392-5.3,9.674-7.774,3.052-2.3,6.162-4.434,9.271-6.45a154.02,154.02,0,0,1,25.74-13.648,12.956,12.956,0,0,0-7.141-4.261c-7.141-1.612-13.82,2.534-20.846,6.968a.433.433,0,0,1-.576-.115.447.447,0,0,1,.115-.576c7.2-4.549,14.051-8.81,21.537-7.083a14.032,14.032,0,0,1,7.774,4.78c15.49-6.277,30.866-9.329,45.665-9.041a111.452,111.452,0,0,1,19.118,2.073c21.422,4.146,43.361,14.4,57.239,26.719a.45.45,0,1,1-.576.691c-13.763-12.208-35.587-22.4-56.836-26.547a109.516,109.516,0,0,0-18.945-2.073c-14.627-.288-29.771,2.706-45.089,8.868,4.031,5.3,6.046,13.59,8.58,24.013,1.324,5.471,2.822,11.632,4.78,17.966a73.084,73.084,0,0,1,34.263-10.6,52.6,52.6,0,0,1,19.924,2.879c6.046,2.188,20.731,8.868,27.122,24.243,0,.058.058.115.115.23,4.895,11.862,4.089,26.316-2.073,36.739-4.089,6.968-10.48,11.92-19.464,15.2,7.716,3.973,15.318,7.313,22.688,10.538,15.548,6.8,28.965,12.669,36.106,21.767a24.131,24.131,0,0,1,5.24,12.726,28.929,28.929,0,0,1-2.361,14.511v.058c-4.376,10.25-13.878,19.464-21.825,26.374,18.024,25.049,24.416,67.144,5.586,84.132-5.7,5.183-16.7,10.6-26.662,11a40.2,40.2,0,0,1-10.077-.979,38.394,38.394,0,0,1-10.941-4.78,46.157,46.157,0,0,1-6.968,14.108c-9.271,12.611-27.526,22.228-46.529,24.531C306.206,475.812,303.5,475.985,300.908,475.985Zm11.459-62.71a68.82,68.82,0,0,0-24.877,4.607c-11.863,4.607-19.982,12.035-22.343,20.385a23.05,23.05,0,0,0-.691,8.523,30.1,30.1,0,0,0,3.052,10.365,31.04,31.04,0,0,0,7.832,10.077c7.659,6.449,19.636,9.041,33.572,7.371,18.715-2.246,36.739-11.747,45.9-24.186a46.052,46.052,0,0,0,6.91-14.108,106.572,106.572,0,0,1-9.1-6.795c-7.832-6.277-15.951-12.726-28.908-15.26A66,66,0,0,0,312.367,413.275Zm50.387,22.688A37.063,37.063,0,0,0,373.7,440.8a39.91,39.91,0,0,0,9.847.921c9.732-.4,20.5-5.7,26.086-10.768,18.485-16.7,12.15-58.161-5.7-82.922-3.34,2.879-6.737,5.7-9.789,8.177a166.158,166.158,0,0,1-35.53,22.113C365.749,400.549,367.188,420.473,362.754,435.963ZM244.417,345.67h0c-.921,6.737-2.822,20.673,4.952,31.672q1.037,1.382,2.246,2.764c12.093,13.187,35.357,13.705,52.748,11.8,20.385-2.188,41.288-8.638,53.151-14.051-8.35-25.51-18.773-40.828-22.055-45.262-10.711,2.879-21.94,5.01-32.132-2.419-8.292-6.046-14.4-18.024-15.318-29.771a42.176,42.176,0,0,0-12.266,2.419C263.42,307.319,247.757,321.254,244.417,345.67Zm91.963-13.3c3.513,4.837,13.763,20.1,21.94,45.147a163.505,163.505,0,0,0,35.242-21.94c3.052-2.476,6.449-5.355,9.789-8.235-4.895-6.68-10.768-13.475-20.327-17.794-14.223-6.507-28.1-2.476-41.519,1.382C339.835,331.389,338.108,331.907,336.38,332.368Zm30.462-7.2a39.452,39.452,0,0,1,16.584,3.513c9.674,4.434,15.663,11.229,20.615,18.024,7.832-6.853,17.218-15.893,21.537-25.971v-.058a27.377,27.377,0,0,0,2.3-14.108,23.367,23.367,0,0,0-5.067-12.266c-6.968-8.868-20.327-14.742-35.76-21.479-7.6-3.34-15.433-6.8-23.437-10.941-8.983,3.052-19.349,4.146-29.426,5.24-18.254,1.958-35.472,3.8-42.325,16.872a25.535,25.535,0,0,0-2.534,7.832,36.325,36.325,0,0,0-.4,7.6,38.863,38.863,0,0,1,5.24.173c19.406,2.131,31.269,17.909,41.749,31.9,1.785-.518,3.628-1.037,5.471-1.555C349.625,327.646,358.147,325.17,366.843,325.17ZM288.93,300.351c.864,11.517,6.853,23.207,14.972,29.138,9.789,7.141,20.673,5.183,31.038,2.361C324.633,318.029,312.886,302.6,294,300.524A47.449,47.449,0,0,0,288.93,300.351Zm1.728-149.087A155.006,155.006,0,0,0,264.8,164.911c-3.052,2.015-6.162,4.146-9.214,6.45-3.282,2.476-6.507,5.067-9.617,7.716a167.626,167.626,0,0,0-32.593,37.315c-11.344,18.254-15.433,35.127-11.171,46.241,2.246,5.874,7.313,11.517,14.339,15.836,12.784,7.947,29.253,10.48,41.864,6.392,9.1-2.937,21.306-11.171,25.74-24.7,2.764-8.523.749-14.684-1.267-20.615-1.728-5.183-3.513-10.538-2.188-17.391,2.073-10.48,10.538-21.018,23.322-28.965-2.015-6.45-3.513-12.669-4.837-18.2C296.7,164.681,294.689,156.389,290.658,151.264Zm14.454,42.44a113.823,113.823,0,0,0,10.077,23.322c13.648,23.725,34.148,36.451,48.486,43.937,9.214-3.167,15.663-8.12,19.752-15.087,6.046-10.193,6.795-24.358,2.015-35.991,0-.058-.058-.115-.058-.173-6.277-15.087-20.731-21.652-26.6-23.783A51.938,51.938,0,0,0,339.2,183.05,72.771,72.771,0,0,0,305.112,193.7Z" transform="translate(-141.493 -103.35)"/>
          <path id="Path_141" data-name="Path 141" d="M229.121,154.193a41.8,41.8,0,0,1-5.931-.461c-4.376-.633-14.569-2.131-21.364-10.077-3.513-4.146-4.319-7.832-5.413-12.957-.576-2.534-1.152-5.471-2.246-8.926-.4-1.267-.864-2.649-1.382-4.031a.472.472,0,0,1,.23-.576.448.448,0,0,1,.576.173.2.2,0,0,1,.058.115c.518,1.382.979,2.764,1.382,4.031,1.094,3.513,1.728,6.45,2.3,8.983,1.094,5.01,1.843,8.58,5.24,12.553,6.622,7.716,16.584,9.156,20.846,9.789a37.841,37.841,0,0,0,14.627-.633,31.385,31.385,0,0,0,3.973-1.152l.23-.058.173.4.115.4-.23.058c-1.324.461-2.706.864-4.089,1.209A37.887,37.887,0,0,1,229.121,154.193Z" transform="translate(-138.578 -93.15)"/>
        </g>
        <g id="needle" transform="translate(269.833)">
          <path id="Path_142" data-name="Path 142" d="M604.778,527.808a.385.385,0,0,1-.4-.345c-1.9-13.648-3.743-27.353-5.471-40.712-5.586-42.5-10.711-85.456-15.26-127.723-.979-8.926-1.9-17.966-2.822-26.835-2.822-27.18-5.413-54.763-7.831-81.886-.23-3.282-.461-6.507-.691-9.732a.433.433,0,1,1,.864-.058c.23,3.167.461,6.449.691,9.674,2.419,27.18,5.01,54.706,7.832,81.886.921,8.868,1.843,17.909,2.822,26.835,4.549,42.267,9.674,85.226,15.26,127.723,1.44,11.056,2.937,22.343,4.492,33.687v-.4c0-.173-.288-17.621-.633-34.9-.288-14.454-3.282-94.957-8.868-239.15-.346-5.528-.691-10.884-.979-14.914l.4-.058h.461c.288,4.031.633,9.386.979,14.914,5.586,144.25,8.58,224.7,8.868,239.208.345,17.275.633,34.724.633,34.9v.115c.058,2.476.058,4.952.115,7.371a.489.489,0,0,1-.461.4Z" transform="translate(-569.391 -130.35)"/>
          <path id="Path_143" data-name="Path 143" d="M569.236,147.855a.394.394,0,0,1-.4-.4c-.288-5.067-.518-9.214-.691-13.072-1.152-24.589-1.209-43.649-.057-56.606.921-10.941,2.649-17.621,5.24-20.327.979-.979,1.9-1.382,2.879-1.037,1.209.4,4.895,1.555,9.041,28.1,2.188,14.051,4.2,33.63,6.1,58.1a.433.433,0,1,1-.864.058c-1.9-24.474-3.973-43.995-6.1-58.046-3.34-21.537-6.45-26.777-8.407-27.41a2.01,2.01,0,0,0-2.016.806c-2.418,2.534-4.089,9.214-5.01,19.809-1.094,12.9-1.094,31.9.058,56.491.173,3.858.4,8,.691,13.072a.454.454,0,0,1-.461.461Z" transform="translate(-567.249 -56.288)"/>
          <path id="Path_144" data-name="Path 144" d="M584.007,122.777h-3.4a.385.385,0,0,1-.4-.346,169.713,169.713,0,0,1-2.246-22.919c-.115-5.183-.058-11,.288-15.605.518-8.35,1.44-8.407,1.9-8.407s1.382-.058,2.764,8.062c.749,4.607,1.44,10.423,1.785,15.605h0a148.627,148.627,0,0,1-.23,23.207A.489.489,0,0,1,584.007,122.777Zm-3.052-.864H583.6a149.147,149.147,0,0,0,.173-22.688h0c-.749-10.941-2.591-21.537-3.628-22.8-.864,1.324-1.612,11.8-1.324,23.034A153.648,153.648,0,0,0,580.955,121.913Z" transform="translate(-571.769 -64.437)"/>
          <path id="Path_145" data-name="Path 145" d="M609.291,222.5h-.461c-.058-.691-.115-1.44-.173-2.188l-.058-1.152a.433.433,0,0,1,.864-.058l.058,1.152c.058.749.115,1.44.173,2.188Z" transform="translate(-584.788 -125.176)"/>
        </g>
      </g>
    </g>
  </g>
</svg>
