<?xml version="1.0" encoding="utf-8"?>
<!-- Generator: Adobe Illustrator 24.0.1, SVG Export Plug-In . SVG Version: 6.00 Build 0)  -->
<svg version="1.1" id="Layer_1" xmlns="http://www.w3.org/2000/svg" xmlns:xlink="http://www.w3.org/1999/xlink" x="0px" y="0px"
	 viewBox="0 0 476.8999939 166" style="enable-background:new 0 0 476.8999939 166;" xml:space="preserve">
<g id="XMLID_32_">
	<g id="XMLID_30_">
		<polygon id="XMLID_62_" points="0,108.5999832 20.1000061,108.5999832 20.1000061,156.9999847 33,156.9999847 33,108.5999832 
			53.1000061,108.5999832 53.1000061,97.6999817 0,97.6999817 		"/>
		<path id="XMLID_65_" d="M104.3999939,97.6999817l-25.7999878,59.3000031h13.1000061l4-9.3999939h30l4.1000061,9.3999939
			h13.1000061l-25.7999878-59.4000015h-12.7000427V97.6999817z M100.1000061,137.4999847l4.7999878-10.9000015
			c2.7000122-6.1999969,5.8999939-15.4000015,5.8999939-15.4000015s3.2999878,9.3000031,6,15.4000015l4.7999878,10.9000015
			H100.1000061z"/>
		<rect id="XMLID_66_" x="180.2999878" y="97.6999817" width="12.7999878" height="59.4000092"/>
		<polygon id="XMLID_67_" points="249.2999878,97.6999817 236.5,97.6999817 236.5,156.9999847 283.6000061,156.9999847 
			283.6000061,145.9999847 249.2999878,145.9999847 		"/>
		<path id="XMLID_70_" d="M346.1999817,96.6999817c-18.2999878,0-31.4000244,13.5999985-31.4000244,30.5999985
			s13.0999756,30.7000046,31.4000244,30.7000046c18.2999878,0,31.4000244-13.6000061,31.4000244-30.6999969
			C377.6000061,110.3999863,364.4999695,96.6999817,346.1999817,96.6999817z M346.3000183,146.3999786
			c-10.5,0-18.0999756-8.6999969-18.0999756-19.0999985c0-10.3000031,7.5999756-19,18.0999756-19c10.2999878,0,18,8.6999969,18,19
			C364.3000183,137.6999817,356.6999817,146.3999786,346.3000183,146.3999786z"/>
		<path id="XMLID_73_" d="M458.9999695,139.7999878c7.0999756-4.1999969,11.2000122-11.1999969,11.2000122-19.1999969
			c0-12.5999985-9-22.9000015-26.5999756-22.9000015h-25.4000244v59.2999954h12.7999878v-13.6000061h6.9000244
			c1.2000122,0,5.5999756,0,8.5999756-0.1999969l9.2000122,13.6999969h15.7000122L458.9999695,139.7999878z
			 M444.1000061,132.4999847h-13.0999756v-23.8000031h13.2000122c7.9000244,0,12.5,5.3000031,12.5,11.9000015
			C456.8000183,127.1999817,452.1000061,132.4999847,444.1000061,132.4999847z"/>
	</g>
	<g id="XMLID_27_">
		<path id="XMLID_28_" d="M26,67.8999863c-9.1000061,0-14.7000122-3.0999985-19.6000061-6.5999985l-4.6000061,9.9000015
			c3.1999969,2.6999969,10,8.0999985,24.1000061,8.0999985c11.8999939,0,24.5-5.6999969,24.5-18.5
			c0-11.5-11.1000061-16.4000015-22.6000061-19c-6.7999878-1.5-11-2.9000015-11-6.7000008
			c0-4.7000008,6-5.7000008,9.2999878-5.7000008c6,0,11.3999939,1.3999996,17,4.9000015l4.7000122-9.8999996
			c-6-3.8999996-12.7000122-6.3000011-21.7000122-6.3000011c-11.3999939,0-22.1999969,5.7000008-22.1999969,17.1000023
			c0,12.2999992,11.5999908,15.9000015,22.5999908,18.4000015c5.5,1.2000008,11,2.7000008,11,7.0999985
			C37.3999939,64.7999878,32.1999817,67.8999863,26,67.8999863z"/>
		<path id="XMLID_60_" d="M103.7999878,64.7999878h12.5C134,64.7999878,143,54.4999886,143,41.8999863
			s-9-22.8999996-26.6000061-22.8999996h-25.5v59.4000015h12.7999878V64.7999878H103.7999878z M103.7999878,29.9999847h13.2999878
			c7.7999878,0,12.5,5.2999992,12.5,11.9000015s-4.7000122,11.9000015-12.5,11.9000015h-13.2000122V29.9999847H103.7999878z"/>
		<path id="XMLID_61_" d="M313.3999939,62.8999863c-3.5,3.0999985-8.2000122,4.8000031-13.2999878,4.8000031
			c-10.5,0-18.0999756-8.7000008-18.0999756-19.0999985c0-10.2999992,7.5-19,19-19c3.7999878,0,7.5999756,0.7999992,11.2999878,3.5
			l7.4000244-8.7000008c-5.2000122-4-12-6.3999996-19.5999756-6.3999996c-18.2999878,0-31.4000244,13.6000004-31.4000244,30.6000004
			s13.0999756,30.6999969,31.4000244,30.6999969c8.4000244,0,15.7999878-2.8000031,21.2000122-7.5999985L313.3999939,62.8999863z"/>
		<polygon id="XMLID_74_" points="197,59.299984 197,52.9999847 197,52.8999863 228.7999878,52.8999863 228.7999878,41.8999863 
			197,41.8999863 197,29.9999847 231,29.9999847 231,18.9999847 184.1999817,18.9999847 184.1999817,78.2999878 
			232.1999817,78.2999878 232.1999817,67.2999878 197,67.2999878 		"/>
	</g>
</g>
</svg>
