<svg xmlns="http://www.w3.org/2000/svg" width="46.11" height="39.939" viewBox="0 0 46.11 39.939">
  <g id="Logo" transform="translate(-7.4 -9.6)">
    <path id="Path_1" data-name="Path 1" d="M41.963,9.6H18.921L7.4,29.57l11.521,19.97H41.963L53.51,29.57ZM23.079,18.737l-.662-3.814h2.807l.238,1.271c.026.106.026.291.053.5.344-.318.742-.662.874-.768l1.192-1.006h3.284l-4.953,4.158.795,4.079h-2.86l-.265-1.642a2.894,2.894,0,0,1-.079-.45L21.066,23.16H17.756ZM39.764,45.7H21.146L11.823,29.57H30.442L39.764,13.44l9.3,16.129Z"/>
  </g>
</svg>
