<?xml version="1.0" encoding="utf-8"?>
<!-- Generator: Adobe Illustrator 19.0.0, SVG Export Plug-In . SVG Version: 6.00 Build 0)  -->
<svg version="1.1" id="Layer_1" xmlns="http://www.w3.org/2000/svg" xmlns:xlink="http://www.w3.org/1999/xlink" x="0px" y="0px"
	 viewBox="0 0 723 166" style="enable-background:new 0 0 723 166;" xml:space="preserve">
<g id="XMLID_1_">
	<path id="XMLID_5_" d="M137.9,9.6h-87L7.4,85l43.5,75.4h87L181.5,85L137.9,9.6z M66.6,44.1l-2.5-14.4h10.6l0.9,4.8
		c0.1,0.4,0.1,1.1,0.2,1.9c1.3-1.2,2.8-2.5,3.3-2.9l4.5-3.8h12.4L77.3,45.4l3,15.4H69.5l-1-6.2c-0.1-0.3-0.2-0.9-0.3-1.7l-9.2,7.9
		H46.5L66.6,44.1z M129.6,145.9H59.3L24.1,85h70.3l35.2-60.9L164.7,85L129.6,145.9z"/>
	<g id="XMLID_32_">
		<g id="XMLID_30_">
			<polygon id="XMLID_62_" points="246.1,108.6 266.2,108.6 266.2,157 279.1,157 279.1,108.6 299.2,108.6 299.2,97.7 246.1,97.7 			
				"/>
			<path id="XMLID_65_" d="M350.5,97.7L324.7,157h13.1l4-9.4h30l4.1,9.4h13.1l-25.8-59.4H350.5z M346.2,137.5l4.8-10.9
				c2.7-6.2,5.9-15.4,5.9-15.4s3.3,9.3,6,15.4l4.8,10.9H346.2z"/>
			<rect id="XMLID_66_" x="426.4" y="97.7" width="12.8" height="59.4"/>
			<polygon id="XMLID_67_" points="495.4,97.7 482.6,97.7 482.6,157 529.7,157 529.7,146 495.4,146 			"/>
			<path id="XMLID_70_" d="M592.3,96.7c-18.3,0-31.4,13.6-31.4,30.6c0,17,13.1,30.7,31.4,30.7c18.3,0,31.4-13.6,31.4-30.7
				C623.7,110.4,610.6,96.7,592.3,96.7z M592.4,146.4c-10.5,0-18.1-8.7-18.1-19.1c0-10.3,7.6-19,18.1-19c10.3,0,18,8.7,18,19
				C610.4,137.7,602.8,146.4,592.4,146.4z"/>
			<path id="XMLID_73_" d="M705.1,139.8c7.1-4.2,11.2-11.2,11.2-19.2c0-12.6-9-22.9-26.6-22.9h-25.4V157h12.8v-13.6h6.9
				c1.2,0,5.6,0,8.6-0.2l9.2,13.7h15.7L705.1,139.8z M690.2,132.5h-13.1v-23.8h13.2c7.9,0,12.5,5.3,12.5,11.9
				C702.9,127.2,698.2,132.5,690.2,132.5z"/>
		</g>
		<g id="XMLID_27_">
			<path id="XMLID_28_" d="M272.1,67.9c-9.1,0-14.7-3.1-19.6-6.6l-4.6,9.9c3.2,2.7,10,8.1,24.1,8.1c11.9,0,24.5-5.7,24.5-18.5
				c0-11.5-11.1-16.4-22.6-19c-6.8-1.5-11-2.9-11-6.7c0-4.7,6-5.7,9.3-5.7c6,0,11.4,1.4,17,4.9l4.7-9.9c-6-3.9-12.7-6.3-21.7-6.3
				c-11.4,0-22.2,5.7-22.2,17.1c0,12.3,11.6,15.9,22.6,18.4c5.5,1.2,11,2.7,11,7.1C283.5,64.8,278.3,67.9,272.1,67.9z"/>
			<path id="XMLID_60_" d="M349.9,64.8h12.5c17.7,0,26.7-10.3,26.7-22.9c0-12.6-9-22.9-26.6-22.9H337v59.4h12.8V64.8z M349.9,30
				h13.3c7.8,0,12.5,5.3,12.5,11.9c0,6.6-4.7,11.9-12.5,11.9h-13.2V30z"/>
			<path id="XMLID_61_" d="M559.5,62.9c-3.5,3.1-8.2,4.8-13.3,4.8c-10.5,0-18.1-8.7-18.1-19.1c0-10.3,7.5-19,19-19
				c3.8,0,7.6,0.8,11.3,3.5l7.4-8.7c-5.2-4-12-6.4-19.6-6.4c-18.3,0-31.4,13.6-31.4,30.6c0,17,13.1,30.7,31.4,30.7
				c8.4,0,15.8-2.8,21.2-7.6L559.5,62.9z"/>
			<polygon id="XMLID_74_" points="443.1,59.3 443.1,53 443.1,52.9 474.9,52.9 474.9,41.9 443.1,41.9 443.1,30 477.1,30 477.1,19 
				430.3,19 430.3,78.3 478.3,78.3 478.3,67.3 443.1,67.3 			"/>
		</g>
	</g>
</g>
</svg>
