<?xml version="1.0" encoding="utf-8"?>
<!-- Generator: Adobe Illustrator 24.0.1, SVG Export Plug-In . SVG Version: 6.00 Build 0)  -->
<svg version="1.1" id="Layer_1" xmlns="http://www.w3.org/2000/svg" xmlns:xlink="http://www.w3.org/1999/xlink" x="0px" y="0px"
	 viewBox="0 0 942 722.2000122" style="enable-background:new 0 0 942 722.2000122;" xml:space="preserve">
<style type="text/css">
	.st0{fill:#2D3CFE;}
	.st1{fill:#FEE200;}
</style>
<g id="background">
	<g id="background_1_">
		<path d="M833.9000244,278.2000122c-7.7999878,0-16-5.7000122-24.4000244-16.8999939
			c-0.2000122-0.2999878-0.2000122-0.7999878,0.2000122-1c0.2999878-0.2000122,0.7999878-0.2000122,1,0.2000122
			c8.4000244,11.2000122,16.4000244,16.7000122,23.9000244,16.2999878c6.0999756-0.2999878,10.2999878-4.2999878,14.7999878-8.5
			c4.5-4.2999878,9.2000122-8.7000122,16.0999756-9c7.5999756-0.3999939,15.5,4.5,23.4000244,14.3999939
			C889.2000122,274,889.1000366,274.5,888.8000488,274.8000183s-0.7999878,0.2000122-1.0999756-0.1000061
			c-7.5999756-9.5-15.0999756-14.2000122-22.2000122-13.7999878c-6.2999878,0.2999878-10.5999756,4.2999878-15.0999756,8.6000061
			c-4.5,4.2000122-9.0999756,8.5-15.7000122,8.8999939C834.4000244,278.1000061,834.0999756,278.2000122,833.9000244,278.2000122z"
			/>
		<path d="M27.8999996,621.4000244c-8.8999996,0-18.2000008-6.5-27.7999992-19.2999878c-0.2-0.2999878-0.2-0.7999878,0.2-1
			c0.3-0.2000122,0.8-0.2000122,1,0.2000122c9.6000004,12.7999878,18.7999992,19.0999756,27.5,18.7000122
			c7.0000019-0.4000244,11.8999996-4.9000244,17.0000019-9.7000122c5.2000008-4.9000244,10.5-9.9000244,18.3000031-10.2999878
			c8.6999969-0.4000244,17.5999985,5.0999756,26.6999969,16.4000244c0.3000031,0.2999878,0.1999969,0.7999878-0.0999985,1.0999756
			c-0.3000031,0.2999878-0.8000031,0.2000122-1.0999985-0.0999756
			c-8.6999969-10.9000244-17.3000031-16.2000122-25.4000015-15.7999878c-7.2000008,0.2999878-12.2000008,5-17.4000015,9.9000244
			c-5.0999985,4.7999878-10.4000015,9.7999878-17.8999996,10.0999756
			C28.6000004,621.4000244,28.2999992,621.4000244,27.8999996,621.4000244z"/>
		<path d="M124.9000015,71.0999832c-8.3000031,0-17-6.0999985-26-18.0999985c-0.1999969-0.2999992-0.1999969-0.7999992,0.1999969-1
			c0.3000031-0.2000008,0.8000031-0.2000008,1,0.2000008c9,11.9999962,17.5999985,17.8999977,25.5999985,17.3999977
			c6.5-0.3000031,11.1000061-4.5999985,15.8000031-9.0999985c4.8000031-4.5999985,9.8999939-9.2999992,17.1999969-9.5999985
			c8.1000061-0.4000015,16.5,4.7999992,25,15.4000015c0.3000031,0.3000031,0.1999969,0.8000031-0.1000061,1.0999985
			c-0.3000031,0.3000031-0.8000031,0.1999969-1.1000061-0.0999985
			c-8.1999817-10.3000031-16.1999817-15.3000031-23.7999878-14.9000015C152,52.6999855,147.3999939,56.9999847,142.5,61.599987
			c-4.8000031,4.5000038-9.6999969,9.1000023-16.8000031,9.5000038C125.5,71.0999832,125.1999969,71.0999832,124.9000015,71.0999832
			z"/>
		<polygon class="st0" points="73.8000031,254.3999786 57.5,243.5999908 68.9000015,228.0999908 85.0999985,238.8999786 		"/>
		<path d="M536.4000244,522.7000122h-0.0999756L526.4000244,521c-0.2000122,0-0.4000244-0.0999756-0.5-0.2999878
			s-0.2000122-0.4000244-0.0999756-0.5999756l1.7999878-9.3999939c0.0999756-0.3999939,0.5-0.7000122,0.9000244-0.6000061
			l9.9000244,1.7000122c0.2000122,0,0.4000244,0.1000061,0.5,0.2999878
			c0.0999756,0.2000122,0.2000122,0.4000244,0.0999756,0.5999756l-1.7999878,9.4000244
			C537,522.4000244,536.7000122,522.7000122,536.4000244,522.7000122z M527.4000244,519.5999756l8.4000244,1.5l1.5-8l-8.4000244-1.5
			L527.4000244,519.5999756z"/>
		<path d="M359.7999878,18.8999844c-0.1000061,0-0.2000122,0-0.2999878-0.1000004
			c-0.3999939-0.2000008-0.6000061-0.6000004-0.3999939-1l7-17.3999996c0.2000122-0.4,0.6000061-0.6,1-0.4
			s0.6000061,0.6,0.3999939,1l-7,17.3999996C360.3999939,18.6999855,360.1000061,18.8999844,359.7999878,18.8999844z"/>
		<path d="M175,321.7000122c-0.1999969,0-0.5-0.1000061-0.6000061-0.2999878c-0.1999969-0.2999878-0.1000061-0.7999878,0.1999969-1
			l16.1000061-10.5c0.3000031-0.2000122,0.8000031-0.1000061,1,0.2000122c0.1999969,0.2999878,0.1000061,0.7999878-0.1999969,1
			l-16.1000061,10.5C175.3000031,321.7000122,175.1000061,321.7000122,175,321.7000122z"/>
		<path d="M285.5,640.2999878c-0.2000122,0-0.3999939-0.0999756-0.5-0.2000122
			c-0.2999878-0.2999878-0.2999878-0.7999878,0-1.0999756l12.8999939-14c0.2999878-0.2999878,0.7999878-0.2999878,1.1000061,0
			c0.2999878,0.2999878,0.2999878,0.7999878,0,1.0999756L286,640
			C285.8999939,640.2000122,285.7000122,640.2999878,285.5,640.2999878z"/>
		<path d="M922.7999878,25.1999855c-0.2999878,0-0.5999756-0.2000008-0.7000122-0.5c-0.0999756-0.3999996,0.0999756-0.7999992,0.5-1
			L941,17.3999863c0.4000244-0.1000004,0.7999878,0.1000004,1,0.5s-0.0999756,0.7999992-0.5,1L923,25.1999855
			C923,25.1999855,922.9000244,25.1999855,922.7999878,25.1999855z"/>
		<path d="M291.8999939,167.6999817c-0.2000122,0-0.5-0.1000061-0.6000061-0.3000031l-10.2000122-15.8999939
			c-0.2000122-0.3000031-0.1000061-0.8000031,0.2000122-1c0.2999878-0.1999969,0.7999878-0.1000061,1,0.1999969L292.5,166.5999756
			c0.2000122,0.3000031,0.1000061,0.8000031-0.2000122,1C292.2000122,167.5999908,292.1000061,167.6999817,291.8999939,167.6999817z
			"/>
		<path d="M432.8999939,446.7000122c-0.1000061,0-0.2000122,0-0.2999878-0.1000061L415.3000183,438
			c-0.3999939-0.2000122-0.5-0.6000061-0.2999878-1s0.6000061-0.5,1-0.2999878l17.2999878,8.6000061
			c0.3999939,0.2000122,0.5,0.6000061,0.2999878,1C433.3999939,446.5,433.2000122,446.7000122,432.8999939,446.7000122z"/>
		<path d="M637.2000122,710c-0.2000122,0-0.4000244-0.0999756-0.5999756-0.2999878l-12-14.7000122
			c-0.2999878-0.2999878-0.2000122-0.7999878,0.0999756-1.0999756S625.5,693.7000122,625.7999878,694l12,14.7000122
			C638.0999756,709,638,709.5,637.7000122,709.7999878C637.5,710,637.4000244,710,637.2000122,710z"/>
		<path d="M524.5,344.2000122c-0.2000122,0-0.5-0.1000061-0.5999756-0.2999878
			c-0.2000122-0.2999878-0.2000122-0.7999878,0.2000122-1l15.5999756-11.2000122C540,331.5,540.5,331.5,540.7000122,331.9000244
			c0.2000122,0.2999878,0.2000122,0.7999878-0.2000122,1L525,344
			C524.7999878,344.1000061,524.7000122,344.2000122,524.5,344.2000122z"/>
		<path d="M773.2000122,407.7999878c-0.2000122,0-0.4000244-0.1000061-0.5-0.2000122l-14-13
			c-0.2999878-0.2999878-0.2999878-0.7999878,0-1.1000061c0.2999878-0.2999878,0.7999878-0.2999878,1.0999756,0l14,13
			c0.2999878,0.2999878,0.2999878,0.7999878,0,1.1000061C773.5999756,407.7000122,773.4000244,407.7999878,773.2000122,407.7999878z
			"/>
		<path d="M853.5999756,650.7999878c-0.2000122,0-0.2999878-0.0999756-0.5-0.2000122l-14.9000244-12
			c-0.2999878-0.2999878-0.4000244-0.7000122-0.0999756-1.0999756c0.2999878-0.2999878,0.7000122-0.4000244,1.0999756-0.0999756
			l14.9000244,12c0.2999878,0.2999878,0.4000244,0.7000122,0.0999756,1.0999756
			C854,650.7000122,853.7999878,650.7999878,853.5999756,650.7999878z"/>
		<path d="M922.7999878,386.7999878c-0.2999878,0-0.5999756-0.2000122-0.7000122-0.5L916,368.5999756
			c-0.0999756-0.3999939,0.0999756-0.7999878,0.5-1c0.4000244-0.1000061,0.7999878,0.1000061,1,0.5l6.0999756,17.7000122
			c0.0999756,0.3999939-0.0999756,0.7999878-0.5,1C923,386.7999878,922.9000244,386.7999878,922.7999878,386.7999878z"/>
		<ellipse class="st0" cx="470.3999939" cy="632.5" rx="8.2999878" ry="7.9000244"/>
		<ellipse class="st0" cx="817.5" cy="93.3999863" rx="9.5999756" ry="9.1999969"/>
		<path d="M90.1999969,459.3999939c-3.3000031,0-6.0999985-2.3999939-6.4000015-5.6000061
			c-0.1999969-1.6000061,0.3000031-3.2000122,1.4000015-4.3999939c1.0999985-1.2999878,2.6999969-2.1000061,4.4000015-2.2999878
			c3.5-0.2999878,6.6999969,2.2000122,7,5.5l0,0c0.1999969,1.6000061-0.3000031,3.2000122-1.4000015,4.3999939
			c-1.0999985,1.2999878-2.6999969,2.1000061-4.4000015,2.2999878
			C90.5999985,459.3999939,90.4000015,459.3999939,90.1999969,459.3999939z M90.1999969,448.6000061c-0.1999969,0-0.3000031,0-0.5,0
			c-1.4000015,0.1000061-2.5999985,0.7999878-3.4000015,1.7999878c-0.8000031,0.8999939-1.0999985,2.1000061-1,3.2999878
			c0.3000031,2.6000061,2.6999969,4.5,5.4000015,4.2000122c1.4000015-0.1000061,2.5999985-0.7999878,3.4000015-1.7999878
			c0.8000031-0.8999939,1.0999985-2.1000061,1-3.2999878l0,0C94.9000015,450.3999939,92.6999969,448.6000061,90.1999969,448.6000061
			z"/>
		<path d="M868.9000244,522.5c-1.5999756,0-3.2999878-0.5999756-4.5-1.7999878S862.5,518,862.5,516.2999878
			s0.7000122-3.2000122,1.9000244-4.3999939l0,0c2.5-2.3999939,6.5999756-2.3999939,9.0999756,0
			c1.2000122,1.1999817,1.9000244,2.6999817,1.9000244,4.3999939S874.7000122,519.5,873.5,520.7000122
			C872.2000122,521.9000244,870.5999756,522.5,868.9000244,522.5z M865.4000244,513C864.5,513.9000244,864,515,864,516.2999878
			c0,1.2000122,0.5,2.4000244,1.4000244,3.2999878c1.9000244,1.7999878,5.0999756,1.7999878,7,0
			c0.9000244-0.9000244,1.4000244-2,1.4000244-3.2999878c0-1.2000122-0.5-2.4000244-1.4000244-3.2999878
			C870.5,511.2000122,867.4000244,511.2000122,865.4000244,513L865.4000244,513z"/>
	</g>
</g>
<g id="basket_1_">
	<path d="M459.7000122,258.7999878c-0.2000122,0-0.5-0.1000061-0.6000061-0.2999878
		c-0.1000061-0.2000122-0.2000122-0.3999939-0.2000122-0.6000061L465.5,224.2999725
		c0.1000061-0.3999939,0.3999939-0.6000061,0.7000122-0.6000061l0,0c0.3999939,0,0.7000122,0.3000031,0.7000122,0.6000061
		c0,0.1000061,0,0.3000031,0,0.3999939c-2,10.3000031-4,20.5-6,30.3999939l-0.6000061,3.0000153
		C460.3999939,258.5,460.1000061,258.7999878,459.7000122,258.7999878z"/>
	<path d="M482.6000061,258.7999878c-0.2000122,0-0.5-0.1000061-0.6000061-0.2999878
		c-0.1000061-0.2000122-0.2000122-0.3999939-0.2000122-0.6000061l6.6000061-33.6000214l-10.6000061-54.6999969l-3.6000061,18.5
		c-2.2999878,11.8999939-4.7000122,24.3000031-7.2000122,36.6999969c-0.1000061,0.3999939-0.3999939,0.6000061-0.7000122,0.6000061
		l0,0c-0.3999939,0-0.7000122-0.3000031-0.7000122-0.6000061v-0.1999969c0-0.1000061,0-0.1999969,0-0.3000031l11.5-58.8000031
		l-2.3999939-12.5c0-0.1000061,0-0.1000061,0-0.1999969c0-0.3999939,0.2999878-0.8000031,0.7000122-0.8000031
		c0.3999939,0,0.7000122,0.3000031,0.7000122,0.6000061l2.5,12.6999969v0.1000061v0.1000061l10.7000122,55
		c2.8999939-14.6999969,5.7000122-29.3999939,8.3999939-43l2.3999939-12.1999969c0.1000061-0.5,0.2000122-1,0.2999878-1.5
		l0.2000122-1c0.1000061-0.3999939,0.5-0.6999969,0.8999939-0.6000061c0.3999939,0.1000061,0.7000122,0.5,0.6000061,0.8999939
		l-0.2000122,1c-0.1000061,0.5-0.2000122,1-0.2999878,1.5l-2.3999939,12.1999969
		c-2.8999939,14.8000031-6,30.8000031-9.1000061,46.6999969c0,0,0,0,0,0.1000061
		c-2.2000122,11.3000031-4.3999939,22.6999969-6.6000061,33.6000061C483.2999878,258.5,483,258.7999878,482.6000061,258.7999878z"/>
	<path d="M472.1000061,137.2999878c-0.3999939,0-0.7000122-0.3000031-0.7000122-0.6000061v-0.1000061
		c0-0.1000061,0-0.1000061,0-0.1999969c0-0.3999939,0.2999878-0.8000031,0.7000122-0.8000031l0,0
		c0.3999939,0,0.7000122,0.3000031,0.7000122,0.6000061v0.1999969c0.1000061,0.3999939-0.2000122,0.8000031-0.6000061,0.8999939
		C472.2000122,137.2999878,472.2000122,137.2999878,472.1000061,137.2999878z"/>
	<path d="M477.7999878,166.1999817L477.7999878,166.1999817c-0.3999939,0-0.7000122-0.3000031-0.7000122-0.6000061l-2.5-12.6999969
		c-0.1000061-0.3999939,0.2000122-0.8000031,0.6000061-0.8999939c0.3999939-0.1000061,0.7999878,0.1999969,0.8999939,0.6000061
		l1.7000122,8.8999939l1.7999878-9.3000031c0.1000061-0.3999939,0.5-0.6999969,0.8999939-0.6000061
		c0.3999939,0.1000061,0.7000122,0.5,0.6000061,0.8999939l-2.6000061,13.1000061
		C478.3999939,165.9999847,478.1000061,166.1999817,477.7999878,166.1999817z"/>
	<path d="M472.2000122,137.2999878c-0.3999939,0-0.7000122-0.3000031-0.7000122-0.6000061v-0.1000061
		c-0.1000061-0.3999939,0.1000061-0.8000031,0.5-0.8999939c0.3999939-0.1000061,0.7999878,0.1000061,0.8999939,0.5
		c0,0.1000061,0,0.1999969,0.1000061,0.3000031c0.1000061,0.3999939-0.2000122,0.8000031-0.6000061,0.8000031
		C472.2000122,137.2999878,472.2000122,137.2999878,472.2000122,137.2999878z"/>
	<path d="M498.1000061,152.4999847c-0.3999939,0-0.7000122-0.1999969-0.7000122-0.6000061l-0.1000061-0.6999969
		c-0.1000061-0.3999939,0.2000122-0.8000031,0.6000061-0.8999939c0.3999939-0.1000061,0.7999878,0.1999969,0.8999939,0.6000061
		l0.1000061,0.6999969c0.1000061,0.3999939-0.2000122,0.8000031-0.6000061,0.8999939
		C498.2000122,152.4999847,498.1000061,152.4999847,498.1000061,152.4999847z"/>
	<path d="M489.2000122,225.0999908L489.2000122,225.0999908c-0.3999939,0-0.7000122-0.3000031-0.7000122-0.6000061
		c-1.7000122-8.6999969-3.3999939-17.3999939-5.1000061-26.1000061l-6.2999878-32.5v-0.1000061c0,0,0-0.1000061,0-0.1999969
		l2.6000061-13.1999969c0.1000061-0.3999939,0.5-0.6999969,0.8999939-0.6000061
		c0.3999939,0.1000061,0.7000122,0.5,0.6000061,0.8999939l-2.5,13.1000061L485,198.1999664
		c1.3999939,7.3999939,2.8999939,14.8999939,4.2999878,22.3000031l10.7999878-55.0999908
		c0.1000061-0.3999939,0.5-0.6999969,0.8999939-0.6000061c0.3999939,0.1000061,0.7000122,0.5,0.6000061,0.8999939l-11.5,58.8999939
		C489.8999939,224.7999878,489.6000061,225.0999908,489.2000122,225.0999908z"/>
	<path d="M498.1000061,152.4999847c-0.3999939,0-0.7000122-0.1999969-0.7000122-0.6000061l-0.1000061-0.6999969
		c-0.1000061-0.3999939,0.2000122-0.8000031,0.6000061-0.8999939c0.3999939-0.1000061,0.7999878,0.1999969,0.8999939,0.6000061
		l0.1000061,0.6999969c0.1000061,0.3999939-0.2000122,0.8000031-0.6000061,0.8999939
		C498.2000122,152.4999847,498.1000061,152.4999847,498.1000061,152.4999847z"/>
	<path d="M409,166.3999786h-0.1000061c-0.3999939-0.1000061-0.7000122-0.5-0.6000061-0.8999939l0,0l8.3999939-43.4000015
		c0.1000061-0.4000015,0.5-0.6999969,0.8999939-0.5999985s0.7000122,0.5,0.6000061,0.9000015l0,0l-8.3999939,43.4000015
		C409.7000122,166.0999908,409.3999939,166.3999786,409,166.3999786z"/>
	<path d="M472.7000122,258.7999878c-0.3999939,0-0.7000122-0.2000122-0.7000122-0.6000061l0,0l-5.2999878-27.6000214
		c-0.3999939-1.8999939-0.7000122-3.8000031-1.1000061-5.6999969l0,0l0,0
		c-0.1000061-0.3999939,0.2000122-0.8000031,0.6000061-0.8999939c0.3999939-0.1000061,0.7999878,0.1999969,0.8999939,0.6000061l0,0
		l1.1000061,5.6999969c1.5,7.6000061,2.8999939,15.1000061,4.3999939,22.6999969l1,5.0000305
		c0.1000061,0.3999939-0.2000122,0.7999878-0.6000061,0.8999939
		C472.7999878,258.7999878,472.7999878,258.7999878,472.7000122,258.7999878z"/>
	<path d="M423.2999878,239.7999878c-0.3999939,0-0.7000122-0.1999969-0.7000122-0.6000061v-0.1000061
		c-2.7000122-13.8999939-5.2999878-27.1000061-5.5-28c-1.3999939-7.1999969-4-20.5-6.2000122-31.6000061l-2.7000122-13.6000061
		c-2-10.1000061-3.7999878-19.3999939-5.2999878-27.5l-3.1000061-16.0999985
		c-0.1000061-0.4000015,0.2000122-0.8000031,0.6000061-0.9000015s0.7999878,0.1999969,0.8999939,0.5999985l0,0
		l19.2000122,98.4000015l10.6000061-54.8000031c-2.2000122-11.5-4.2999878-22.1000061-6-31l-2.3999939-12.4000015
		c-0.1000061-0.4000015,0.2000122-0.8000031,0.6000061-0.9000015s0.7999878,0.1999969,0.8999939,0.5999985l0,0l7.7000122,39.4999924
		l5.2999878-27.1999969c0.7000122-3.6999969,1.3999939-7.4000015,2.2000122-11.1999969l0.2000122-1.1999969
		c0.1000061-0.4000015,0.5-0.6999969,0.8999939-0.5999985s0.7000122,0.5,0.6000061,0.9000015l0,0l-8.3999939,43.1999969
		l11.6000061,59.0999908c0,0.1000061,0,0.1999969,0,0.3000031v0.1999969
		c-0.1000061,0.3999939-0.3999939,0.6000061-0.7000122,0.6000061l0,0c-0.3999939,0-0.7000122-0.3000031-0.7000122-0.6000061
		L441.5,217.6999512c-3.2999878-16.6999969-6.5-33.1999969-9.3999939-48.3000031L421.5,224.0999451l2.7999878,14.5v0.1000061l0,0
		c0.1000061,0.3999939-0.2000122,0.8000031-0.6000061,0.8999939
		C423.3999939,239.7999878,423.3999939,239.7999878,423.2999878,239.7999878z"/>
	<path d="M458.6000061,147.3999786H458.5c-0.3999939-0.1000061-0.7000122-0.5-0.6000061-0.8999939l0.2999878-1.5
		c0.1000061-0.3999939,0.5-0.6999969,0.8999939-0.6000061c0.3999939,0.1000061,0.7000122,0.5,0.6000061,0.8999939l-0.2999878,1.5
		C459.2999878,147.1999817,459,147.3999786,458.6000061,147.3999786z"/>
	<path d="M460.3999939,138.1999817h-0.1000061c-0.3999939-0.1000061-0.7000122-0.5-0.6000061-0.8999939l0.3999939-1.8999939
		c0.1000061-0.3999939,0.5-0.6999969,0.8999939-0.6000061c0.3999939,0.1000061,0.7000122,0.5,0.6000061,0.8999939
		l-0.3999939,1.8999939C461.1000061,137.8999786,460.7999878,138.1999817,460.3999939,138.1999817z"/>
	<path d="M443.6000061,226.0999908L443.6000061,226.0999908c-0.3999939,0-0.7000122-0.3000031-0.7000122-0.6000061
		l-0.1000061-0.6000061c0-0.1000061,0-0.1999969,0-0.3000031l11.3999939-58.6999969l-2.5-12.8999939v-0.1000061
		c0-0.3999939,0.2000122-0.6999969,0.6000061-0.6999969c0.3999939-0.1000061,0.7999878,0.1999969,0.8999939,0.6000061
		l1.7999878,9.1999969l1.7000122-8.5c0.1000061-0.3999939,0.5-0.6999969,0.8999939-0.6000061
		c0.3999939,0.1000061,0.7000122,0.5,0.6000061,0.8999939l-2.3999939,12.3000031l0,0
		c0.1000061,0.1999969,0.1000061,0.3000031,0.1000061,0.5C452,187.1999817,448.1999817,206.4999847,444.5,225.4999847
		C444.2999878,225.7999878,444,226.0999908,443.6000061,226.0999908z"/>
	<path d="M451.2999878,148.1999817c-0.3999939,0-0.7000122-0.1999969-0.7000122-0.6000061l-0.5-2.5
		c-0.1000061-0.3999939,0.2000122-0.8000031,0.6000061-0.8999939c0.3999939-0.1000061,0.7999878,0.1999969,0.8999939,0.6000061
		l0.5,2.5c0.1000061,0.3999939-0.2000122,0.8000031-0.6000061,0.8999939
		C451.3999939,148.1999817,451.3999939,148.1999817,451.2999878,148.1999817z"/>
	<path d="M449.5,138.9999847c-0.3999939,0-0.7000122-0.1999969-0.7000122-0.6000061l-0.6000061-3.1000061
		c0-0.1999969,0-0.3999939,0.2000122-0.6000061C448.5,134.4999695,448.7999878,134.3999634,449,134.3999634l0,0
		c0.3999939,0,0.7000122,0.3000031,0.7000122,0.6000061l0.6000061,3.1000061
		c0.1000061,0.3999939-0.2000122,0.8000031-0.6000061,0.8999939C449.6000061,138.9999847,449.6000061,138.9999847,449.5,138.9999847
		z"/>
	<path d="M458.7000122,147.3999786h-0.1000061c-0.3999939-0.1000061-0.7000122-0.5-0.6000061-0.8999939l0.2999878-1.5
		c0.1000061-0.3999939,0.5-0.6999969,0.8999939-0.6000061c0.3999939,0.1000061,0.7000122,0.5,0.6000061,0.8999939l-0.2999878,1.5
		C459.3999939,147.1999817,459.1000061,147.3999786,458.7000122,147.3999786z"/>
	<path d="M460.5,138.1999817h-0.1000061c-0.3999939-0.1000061-0.7000122-0.5-0.6000061-0.8999939l0.3999939-1.8999939
		c0.1000061-0.3999939,0.5-0.6999969,0.8999939-0.6000061c0.3999939,0.1000061,0.7000122,0.5,0.6000061,0.8999939
		l-0.3999939,1.8999939C461.1000061,137.8999786,460.7999878,138.1999817,460.5,138.1999817z"/>
	<path d="M466.2000122,225.1999817c-0.3999939,0-0.7000122-0.1999969-0.7000122-0.6000061l-11.2000122-58.0999908
		c0-0.1000061,0-0.1999969,0-0.3000031l2.3999939-12.8999939c0.1000061-0.3999939,0.5-0.6999969,0.8999939-0.6000061
		c0.3999939,0.1000061,0.7000122,0.5,0.6000061,0.8999939l-2.3999939,12.6999969l11.2000122,58
		c0.1000061,0.3999939-0.2000122,0.8000031-0.6000061,0.8999939
		C466.2999878,225.1999817,466.2999878,225.1999817,466.2000122,225.1999817z"/>
	<path d="M447.6000061,129.0999908c-0.3999939,0-0.7000122-0.1999969-0.7000122-0.6000061l-0.2000122-1.3000031l0,0
		l-0.8999939-4.8000031c-0.1000061-0.4000015,0.2000122-0.8000031,0.6000061-0.9000015s0.7999878,0.1999969,0.8999939,0.5999985
		L448.5,128.1999817v0.1000061c0,0.3999939-0.2000122,0.6999969-0.6000061,0.6999969
		C447.7000122,129.0999908,447.7000122,129.0999908,447.6000061,129.0999908z"/>
	<path d="M466.2000122,225.1999817c-0.3999939,0-0.7000122-0.3000031-0.7000122-0.6000061l-4.7000122-24.3000031
		c-0.1000061-0.3999939,0.2000122-0.8000031,0.6000061-0.8999939c0.3999939-0.1000061,0.7999878,0.1999969,0.8999939,0.6000061
		L467,224.2999878v0.1000061l0,0C467,224.8999786,466.7000122,225.1999817,466.2000122,225.1999817
		C466.2999878,225.1999817,466.2999878,225.1999817,466.2000122,225.1999817z"/>
	<path d="M732.5999756,569.9000244C728,576.5,709,603.7000122,704.1999512,610.6000366l-0.7999878-79.7999878
		C704.7000122,532.5999756,731.7999878,568.7999878,732.5999756,569.9000244z"/>
	<path d="M470.3999939,127.0999832h-75.8000183v-9.6999969h57.1000061
		c-1.6000061,0.1999969-2.8999939,0.6999969-3.7999878,1.8000031c-0.2000122,0.1999969-1,1.1999969-0.7999878,2.3000031
		c0.5,2.0999985,4.7999878,2.8000031,8.1000061,3.3000031c2.6000061,0.4000015,5.1000061,0.8000031,7.5,1.1999969l0,0
		C465.3999939,126.2999878,467.8999939,126.6999817,470.3999939,127.0999832L470.3999939,127.0999832L470.3999939,127.0999832
		C470.2999878,126.9999847,470.3999939,127.0999832,470.3999939,127.0999832z"/>
	<path d="M489.7999878,122.2999878c-13-1.5999985-22.2999878-3-29.6000061-4.4000015
		c-1.1000061-0.1999969-2.6000061-0.5-4.2999878-0.6999969h23.7999878
		C484.3999939,120.0999832,489.7999878,122.2999878,489.7999878,122.2999878z"/>
	<path d="M514.5,117.2999878v9.6999969h-1.0999756c-1.6000061-0.9000015-3.1000061-1.8000031-4.6000061-2.6999969
		c-4.3999939-2.5999985-8.2999878-4.9000015-11.7999878-7H514.5z"/>
</g>
<g>
	<path class="st1" d="M389.6000061,268.7000122C392.5,262.8000183,396.2000122,255.5999908,399,250.8000031
		c0.2999878-0.6000061,0.7999878-1.3000031,1.2999878-2c0.6000061-0.8000031,1.2999878-1.6000061,2-2.1000061l0,0
		c0.1000061-0.1000061,0.1000061-0.1000061,0.2000122-0.1000061c0.2000122-0.1000061,0.3999939-0.1999969,0.6000061-0.3000031l0,0
		c0.2999878-0.1000061,0.7000122-0.1999969,1.1000061-0.1999969c0.6000061,0,1.2999878,0.3999939,1.7999878,0.8000031
		c0.2999878,0.3000031,0.5,0.6000061,0.7000122,0.8999939c0,0.1000061,0.1000061,0.1000061,0.1000061,0.1999969
		c0.3999939,0.8999939,0.2000122,1.8999939-0.1000061,2.8000031c-0.2000122,0.6000061-0.5,1.1000061-0.7999878,1.5
		c-3.2999878,5.6000061-6.3999939,11.4000244-6.1000061,11.5c0.2000122,0.2000122,4.3999939-4.6000061,9.6000061-9.7000122
		c1.5-1.5,3.1000061-3,4.6000061-4.5c0.2000122-0.1999969,0.5-0.5,0.7999878-0.6999969
		c2.6000061-2.3000031,5.2000122-4.3999939,7.3999939-5.6999969c0.7999878-0.3999939,1.5-0.8000031,2.1000061-1
		c0.2999878-0.1000061,0.5-0.1999969,0.7999878-0.1999969c0.7000122-0.1999969,1.2999878-0.1999969,1.7999878,0
		c0.2999878,0.1000061,1.6000061,0.6000061,1.8999939,1.6999969c0.3999939,1.3999939-1,2.8999939-2,3.8000031
		c-0.2000122,0.1999969-0.3999939,0.3999939-0.5,0.5c-1,0.8999939-9.3999939,9.1000214-12.1000061,11.9000092
		c1.7000122-1,3.2999878-2,4.7999878-2.8999939c0.7999878-0.5,1.6000061-1.0000153,2.3999939-1.5000153
		c1.7000122-1,3.1000061-2,4.5-2.8999939c0.3999939-0.1999969,0.7000122-0.5,1.1000061-0.6999969c0.5-0.3999939,1-0.6999969,1.5-1
		c0.1000061-0.1000061,0.2000122-0.1000061,0.2000122-0.1999969c1.1000061-0.6999969,2.2000122-1.5,3.2999878-2.1000061
		c1.7999878-1,3.5-1.6000061,4.7999878-0.8999939c0.8999939,0.5,1.6000061,1.6000061,1.6000061,2.6000061
		c0,1.6999969-1.7000122,3-3,3.8999939l0,0l-1,0.6000061c-1,0.6000061-2,1.3000031-3.2000122,2.1000214
		c-0.6000061,0.3999939-1.2000122,0.7999878-1.7999878,1.2000122c-2.7999878,2-6.1000061,4.2999878-10,7.2000122
		c3.6000061-1.2000122,6.5-2.5,8.7000122-3.6000061c0.6000061-0.2999878,1.1000061-0.6000061,1.6000061-0.7999878
		c0.8999939-0.5,1.7999878-1,2.7000122-1.5c2.2999878-1.3999939,4.2000122-2.6000061,5.7000122-3.2000122l0,0
		c0.1000061,0,0.2000122-0.1000061,0.3999939-0.2000122c0.5-0.2000122,1-0.4000092,1.5-0.3000183
		c0.7999878,0,1.3999939,0.6000061,1.6000061,0.9000244c0.2999878,0.3999939,0.5,0.7999878,0.6000061,1.2000122
		c0.2000122,1.7999878-2.1000061,3.5-4.1000061,4.7000122c-0.1000061,0.1000061-0.2000122,0.1000061-0.2999878,0.2000122
		c-0.8999939,0.6000061-1.8999939,1.2000122-3,1.8999939c-2.7000122,1.6000061-6.1000061,3.6000061-10.2000122,5.7000122
		c3.3999939-0.2999878,6-1.2000122,7.7000122-2c1.2999878-0.6000061,2.3999939-1.2000122,3.3999939-1.7000122
		c1.2000122-0.6000061,2.1000061-1.2000122,3-1.3999939c0.6000061-0.2000122,1.2000122-0.2000122,1.7999878,0.1000061
		c0.7999878,0.2999878,1.5,1.1000061,1.6000061,1.8999939c0.1000061,1-0.7000122,1.8999939-1.6000061,2.6000061
		c-0.7000122,0.6000061-1.6000061,1.1000061-2.2000122,1.5c-0.1000061,0.1000061-0.2000122,0.1000061-0.2999878,0.2000122
		c-4.1000061,2.2999878-12,6-18.6000061,9l0,0c-0.6000061,0.2999878-1.2000122,0.5-1.7999878,0.7999878
		c-1.3999939,0.6000061-2.7999878,1.2999878-4,1.7999878c-2.5,1.1000061-4.2999878,1.8999939-5,2.2000122
		c-0.1000061,0.1000061-0.2999878,0.2999878-0.5,0.5c-0.1000061,0.2000122-0.2000122,0.3999939-0.2999878,0.5
		c2,0.8999939,3.6000061,1.3999939,4.3999939,1.7000122c0.8999939,0.2999878,1.7000122,0.5,1.7000122,0.5
		c0.2000122,0.1000061,0.3999939,0.1000061,0.7000122,0.2000122c1.6000061,0.3999939,3.2000122,0.7000122,4.7999878,0.8999939l0,0
		c8.7999878,1.1000061,17.3999939-0.7000122,24.7000122-4.7000122c0.7000122-0.3999939,1.5-0.7999878,2.2000122-1.2999878
		c0.6000061-0.3999939,1.2000122-0.7999878,1.7999878-1.2000122l0,0l0,0
		c6.6000061-4.7999878,11.6000061-11.6000061,13.8999939-19.7999878c0.1000061-0.2000122,0.1000061-0.3999939,0.2000122-0.6000061
		c2.3999939-9.0000153,1-18.0000153-3-25.7000122c-0.2000122-0.5-0.5-0.8999939-0.7999878-1.3999939
		c-4.8999939-8.3999939-13.2000122-14.8999939-23.7000122-17.6000061c-0.3999939-0.1000061-0.8999939-0.1999969-1.2999878-0.3000031
		s-0.8999939-0.1999969-1.2999878-0.3000031l0,0c-6.6000061-1.1999969-13.1000061-0.8000031-19.2000122,1.1000061
		c-0.8999939,0.3000031-1.7000122,0.6000061-2.6000061,0.8999939c-1.2999878,0.5-2.6000061,1-3.7999878,1.6999969
		c-7.2999878,3.6999969-13.3999939,9.6999969-17,17.1999969c-0.7999878,1.6999969-1.5,3.3999939-2,5.3000031
		c-0.1000061,0.1999969-0.1000061,0.3999939-0.2000122,0.6000061
		C384.7999878,252.1999817,385.7999878,261.1000061,389.6000061,268.7000122"/>
</g>
<path d="M419.3999939,290.3999939L419.3999939,290.3999939c-0.3999939,0-0.7999878-0.2999878-0.7999878-0.7000122l0,0
	c0.2000122-3,0.2000122-6-0.1000061-9.1000061c0-0.3999939,0.2999878-0.7999878,0.7000122-0.7999878
	C419.6000061,279.7999878,420,280.0999756,420,280.5c0.2999878,3.1000061,0.2999878,6.2999878,0.1000061,9.2999878
	C420.2000122,290.1000061,419.7999878,290.3999939,419.3999939,290.3999939z"/>
<path d="M402.6000061,247.2999878c-0.2000122,0-0.3999939-0.1000061-0.5-0.1999969
	c-3.7999878-3.5-8.2000122-6.5-12.8999939-8.8000031c-0.3999939-0.1999969-0.5-0.6000061-0.2999878-1s0.6000061-0.5,1-0.3000031
	c4.8999939,2.3999939,9.2999878,5.5,13.2999878,9.1000061c0.2999878,0.3000031,0.2999878,0.8000031,0,1.1000061
	C403,247.1999817,402.7999878,247.2999878,402.6000061,247.2999878z"/>
<path d="M409.3999939,254.8999786c-0.2000122,0-0.5-0.1000061-0.6000061-0.3000031
	c-0.1000061-0.1000061-0.2000122-0.3000031-0.2999878-0.3999939c-0.7999878-1-1.6000061-2-2.2999878-2.8999939
	c-0.2999878-0.3000031-0.2000122-0.8000031,0.1000061-1.1000061c0.2999878-0.3000031,0.7999878-0.1999969,1.1000061,0.1000061
	c0.7999878,0.8999939,1.6000061,1.8999939,2.3999939,3c0.1000061,0.1999969,0.2000122,0.3000031,0.2999878,0.5
	c0.2000122,0.3000031,0.1000061,0.8000031-0.2000122,1C409.7000122,254.7999878,409.5,254.8999786,409.3999939,254.8999786z"/>
<path d="M461,266.3999939c-0.1000061,0-0.2999878,0-0.3999939-0.1000061
	c-6.3999939-3.6000061-11.8999939-8.2999878-16.2999878-13.9000092c-10.5-13.3000031-11.7999878-27.8999939-11.6000061-35.5
	c0-0.3999939,0.3999939-0.6999969,0.7999878-0.6999969s0.7000122,0.3999939,0.7000122,0.8000031
	c-0.2000122,7.3000031,1.1000061,21.6000061,11.2999878,34.5C449.7999878,256.8999939,455.2000122,261.5,461.3999939,265
	c0.3999939,0.2000122,0.5,0.7000122,0.2999878,1C461.5,266.2999878,461.2999878,266.3999939,461,266.3999939z"/>
<path d="M424.2999878,242.9999847c-0.2999878,0-0.6000061-0.1999969-0.7000122-0.3999939l-11.3999939-24.3999939
	c-0.2000122-0.3999939,0-0.8000031,0.3999939-1s0.7999878,0,1,0.3999939l11.3999939,24.3999939
	c0.2000122,0.3999939,0,0.8000031-0.3999939,1C424.5,242.8999786,424.3999939,242.9999847,424.2999878,242.9999847z"/>
<path d="M432.2999878,260.2000122c-0.2999878,0-0.6000061-0.2000122-0.7000122-0.3999939
	c-0.3999939-0.7999878-0.7999878-1.7000122-1.2000122-2.5c-0.2000122-0.3999939,0-0.7999878,0.3999939-1s0.7999878,0,1,0.3999939
	c0.3999939,0.7999878,0.7999878,1.7000122,1.2000122,2.5c0.2000122,0.3999939,0,0.7999878-0.3999939,1
	C432.5,260.2000122,432.3999939,260.2000122,432.2999878,260.2000122z"/>
<path d="M444.2000122,285.7000122c-0.2999878,0-0.6000061-0.2000122-0.7000122-0.3999939l-6.2000122-13.3999939
	c-0.2000122-0.3999939,0-0.7999878,0.3999939-1s0.7999878,0,1,0.3999939l6.2000122,13.3999939
	c0.2000122,0.3999939,0,0.7999878-0.3999939,1C444.3999939,285.6000061,444.2999878,285.7000122,444.2000122,285.7000122z"/>
<path d="M435.7000122,267.3999939c-0.2999878,0-0.5-0.2000122-0.7000122-0.3999939
	c-0.2999878-0.7000122-0.6000061-1.2999878-0.8999939-2c-0.2000122-0.3999939,0-0.7999878,0.3999939-1s0.7999878,0,1,0.3999939
	c0.2999878,0.7000122,0.6000061,1.2999878,0.8999939,2c0.2000122,0.3999939,0,0.7999878-0.3999939,1
	C435.8999939,267.3999939,435.7999878,267.3999939,435.7000122,267.3999939z"/>
<path d="M428.2999878,251.6999817c-0.2999878,0-0.6000061-0.1999969-0.7000122-0.3999939l-0.5-1.1999969
	c-0.3999939-0.8000031-0.7000122-1.5-1.1000061-2.3000031c-0.2000122-0.3999939,0-0.8000031,0.3999939-1s0.7999878,0,1,0.3999939
	c0.2999878,0.8000031,0.7000122,1.5,1.1000061,2.3000031l0.5,1.1999969c0.2000122,0.3999939,0,0.8000031-0.3999939,1
	C428.5,251.6999817,428.3999939,251.6999817,428.2999878,251.6999817z"/>
<path d="M436.7000122,248.4999847c-0.2999878,0-0.5-0.1000061-0.7000122-0.3999939c-0.2000122-0.3999939,0-0.8000031,0.2999878-1
	l22.5-11.3999939c0.3999939-0.1999969,0.7999878,0,1,0.3000031c0.2000122,0.3999939,0,0.8000031-0.2999878,1L437,248.3999786
	C436.8999939,248.4999847,436.7999878,248.4999847,436.7000122,248.4999847z"/>
<g id="tshirt_3_">
	<path class="st1" d="M618.9000244,215.0999908c-3.5,7.6999969-12.2000122,25.8000031-22.7000122,30.8999939
		c-0.7999878,0.3999939-1.5,0.6999969-1.5,0.6999969c-9.7000122,4-18.9000244,2.6999969-22.2000122,2.1000061
		c-24.0999756-3.8000031-38.0999756-26.8000031-54.5-53.5999908C513.0999756,187.0999908,507.1000061,176.3999939,501.2000122,163
		v-0.1000061c-0.6000061-1.3000031-1.2000122-2.6999969-1.7999878-4.1000061l0,0l0,0c-0.7999878-2-1.7000122-4-2.5-6.1000061
		c0.3999939-0.3000031,0.7000122-0.6000061,1.1000061-0.8999939c0.2999878-0.3000031,0.7000122-0.5,1-0.8000031
		c7.7000122-6.1999969,15.4999695-12.5,23.1999817-18.8000031c1.2000122-0.8999939,2.4000244-1.8999939,3.5-2.8000031
		c15.7999878,24.1000061,31.7000122,48.3000031,47.5,72.3999939c7.0999756-18.6999969,19.7000122-47.8999939,39.2000122-74.3000031
		c7.4000244-10,15.9000244-19.6999969,29.9000244-24.5c2.5999756-0.9000015,13.7000122-4.5999985,23.7999878-2.1999969
		c18.5999756,4.4000015,27.7999878,27.8999939,39.7999878,69.1999969C713.5,196.1999664,722.5,230.6999664,730.8000488,272.1999817
		c-77.5999756,26.7999878-105.5,36.3999939-107.7999878,37.2000122c-3.9000244,1.2999878-7.9000244,2.7000122-7.9000244,2.7000122
		h-0.0999756c0,0-0.4000244,0.2000122-0.5,0.2000122C616.0999756,279.7999878,617.5,247.3999786,618.9000244,215.0999908z"/>
	<path class="st1" d="M617.0999756,219.5999908c-0.0999756,0-0.2000122,0-0.2999878-0.1000061
		c-0.4000244-0.1999969-0.5-0.6000061-0.2999878-1l16.5-33.3999939c0.2000122-0.3999939,0.5999756-0.5,1-0.3000031
		s0.5,0.6000061,0.2999878,1l-16.5,33.4000092C617.7000122,219.4999847,617.4000244,219.5999908,617.0999756,219.5999908z"/>
</g>
<g id="shoes_3_">
	<path d="M593.0999756,660.9000244c-0.4000244,0-0.7000122-0.2999878-0.7000122-0.7000122
		c-0.2999878-3.2999878-0.0999756-6.4000244,0.7000122-9.0999756c0.5-1.5999756,1.0999756-3.0999756,2-4.5
		C598.8999634,640.4000244,605,638.4000244,618.5,633.9000244c1.7999878-0.5999756,3.7000122-1.2000122,5.7999878-1.9000244
		c8.0999756-2.7000122,16.5-5.7000122,25-9c0.4000244-0.0999756,0.7999878,0,1,0.4000244
		c0.0999756,0.4000244,0,0.7999878-0.4000244,1c-8.5999756,3.2000122-17,6.2999878-25.0999756,9
		c-2.0999756,0.7000122-4,1.2999878-5.7999878,1.9000244c-13.2000122,4.4000244-19.2000122,6.2999878-22.5999756,12.0999756
		C595.6000366,648.7000122,595,650.1000366,594.6000366,651.5c-0.7000122,2.4000244-0.9000244,5-0.7000122,7.7999878
		L665.6000366,655.5c4.4000244-0.2000122,8.7999878-0.5,13.2000122-0.7000122L703.6000366,653.5v-35.2999878
		c0-0.4000244,0.2999878-0.7999878,0.7999878-0.7999878s0.7999878,0.2999878,0.7999878,0.7999878v36
		c0,0.4000244-0.2999878,0.7000122-0.7000122,0.7000122l-25.5,1.2999878c-4.4000244,0.2000122-8.7999878,0.5-13.2000122,0.7000122
		L593.0999756,660.9000244L593.0999756,660.9000244z"/>
	<path d="M704.2999878,632.5v-14.2000122l-0.0999756-7.7000122l-0.2999878-25.7999878l22.2000122-22.7000122
		c8.2000122,9,16.5,18.0999756,24.7000122,27.0999756C735.4000244,603.7000122,719.7999878,618.0999756,704.2999878,632.5z"/>
	<path d="M704.2999878,644v10.2999878c-8.2999878,0.4000244-16.5999756,0.9000244-24.9000244,1.2999878
		c-4.5999756,0.2000122-9.2000122,0.5-13.7999878,0.7000122c-24.0999756,1.2999878-48.2999878,2.5-72.4000244,3.7999878
		c-0.2000122-2.2999878-0.2999878-5.5,0.7000122-8.7999878C618.0999756,649.5999756,673.7999878,646,704.2999878,644z"/>
</g>
<g id="head_3_">
	<path d="M645,79.0999832c-0.4000244,0-0.7999878-0.3000031-0.7999878-0.8000031S644.5,77.4999771,645,77.4999771
		c4.5999756,0,8.4000244-3.5999985,8.4000244-7.9000015c0-4.4000015-3.7000122-7.9000015-8.4000244-7.9000015
		c-2.5999756,0-5,1.0999985-6.5999756,3.0999985c-0.2999878,0.3000031-0.7000122,0.4000015-1.0999756,0.0999985
		c-0.2999878-0.3000031-0.4000244-0.6999969-0.0999756-1.0999985c1.9000244-2.2999992,4.7000122-3.7000008,7.7999878-3.7000008
		c5.4000244,0,9.9000244,4.2000008,9.9000244,9.3999977C654.7999878,74.8999863,650.4000244,79.0999832,645,79.0999832z"/>
	<path id="hair_3_" d="M608.7000122,40.6999855c0.2000122,1.9000015,0.9000244,5.2999992,3.2999878,8.6000023
		c4.9000244,6.5999985,12.9000244,7.4000015,14.2999878,7.5999985c2.4000244,5.5,4.9000244,11,7.2999878,16.5
		c1.2000122-0.5999985,2.5-1.3000031,3.7000122-1.9000015c-0.0999756-0.4000015-1.2000122-4.4000015,1.5-7.5
		c1.5-1.7000008,3.4000244-2.4000015,4.2999878-2.5999985C647.5,60.2999878,650.8999634,63.099987,651,63.1999855
		c2.4000244,1.9999962,2.7999878,4.7000008,2.9000244,5.6000023c0.0999756,0.8000031,0.4000244,3.6999969-1.7000122,6.3000031
		c-1.2000122,1.5-2.7000122,2.1999969-3.5,2.5c1.2999878,3.8000031,2.5999756,7.5,3.9000244,11.3000031
		c2.5-0.8000031,5-1.5999985,7.4000244-2.5c-0.5999756-3.4000015-1.2000122-6.8000031-1.7999878-10.1999969
		c1.7000122-2.5999985,4.0999756-6.9000015,5.2000122-12.7000008c1.4000244-7.7999992,0.2999878-17.3999977-4.2999878-23.1000023
		C651.2000122,30.3999844,629.2000122,28.4999847,608.7000122,40.6999855z"/>
	<g id="face_3_">
		<path d="M665,101.1999817c-0.2999878,0-0.5999756-0.1999969-0.7000122-0.5l-5.5999756-14.1999969
			c-0.2000122-0.4000015,0-0.8000031,0.4000244-1s0.7999878,0,1,0.4000015l5.5999756,14.1999969
			c0.2000122,0.4000015,0,0.8000031-0.4000244,1C665.2000122,101.1999817,665.0999756,101.1999817,665,101.1999817z"/>
		<path d="M634.5999756,107.0999832c-0.2999878,0-0.5999756-0.1999969-0.7000122-0.5c-0.5-1.3000031-1-2.5999985-1.5-3.9000015
			l-1.2999878-3.4000015c0,0,0,0,0-0.0999985l-0.5999756-1.5c-1.5999756,0.4000015-3.2000122,0.5999985-4.5999756,0.6999969
			c-2.7999878,0.1999969-5.4000244-0.1999969-7.7999878-1.0999985c-5-1.9000015-9.0999756-6.3000031-11.7999878-12.3000031
			c-3.9000244-8.9000015-4-20-0.4000244-28.9000015c0,0,1.5-3.7999992,4.7999878-8.2000008
			c0.2999878-0.2999992,0.7000122-0.4000015,1.0999756-0.0999985s0.4000244,0.7000008,0.0999756,1.0999985
			c-3.2000122,4.2000008-4.5999756,7.7999992-4.5999756,7.7999992c-3.5,8.4000015-3.2999878,19.2999954,0.2999878,27.7999954
			c2.5,5.6999969,6.4000244,9.8000031,10.9000244,11.5c2.2000122,0.8000031,4.5999756,1.1999969,7.2000122,1
			c1.5-0.0999985,3.0999756-0.3000031,4.7000122-0.8000031c0.0999756,0,0.0999756,0,0.2000122,0h0.0999756
			c0.4000244-0.0999985,0.7000122,0.0999985,0.9000244,0.5l0.7999878,2.0999985c0,0,0,0,0,0.0999985l1.2999878,3.5
			c0.5,1.3000031,1,2.5999985,1.5,3.9000015c0.0999756,0.4000015,0,0.8000031-0.4000244,1
			C634.7999878,107.0999832,634.7000122,107.0999832,634.5999756,107.0999832z"/>
		<path d="M640.7000122,88.7999878c-0.2000122,1.5-0.7999878,3.5-2,5.6999969
			c-1.7999878,3.3000031-4.2999878,5.4000015-6.0999756,6.5999985c-0.2000122-0.6999969-0.5-1.4000015-0.7999878-2.1999969
			c-0.4000244-1-0.9000244-1.8000031-1.4000244-2.5c1.0999756-0.3000031,2.5-0.8000031,3.7999878-1.5999985
			C637.7000122,92.9999847,639.7000122,90.3999863,640.7000122,88.7999878z"/>
	</g>
</g>
<g id="hand_4_">
	<path d="M521.7999878,132.6999817c-0.0999756,0-0.2999878,0-0.4000244-0.1000061
		c-10.2000122-6.0999985-19.2999878-11.5-26.6000061-15.8000031l-7.2999878-4.3000031
		c-2.7999878-1.5999985-9.2000122-5.5-12.2000122-3.5c-0.6000061,0.4000015-1.1000061,1.0999985-1.2000122,1.8000031
		c-0.5,3.3000031,7.8999939,8.0999985,15.8999939,11.1999969c0.3999939,0.0999985,0.6000061,0.5999985,0.3999939,1
		c-0.1000061,0.4000015-0.6000061,0.5999985-1,0.4000015c-4.2000122-1.5999985-17.7000122-7.3000031-16.7999878-12.8000031
		c0.2000122-1.0999985,0.8999939-2.0999985,1.8999939-2.8000031c3.7000122-2.5,10.5,1.5,13.7000122,3.5l7.2999878,4.3000031
		c7.2999878,4.3000031,16.5,9.6999969,26.5999756,15.7999954c0.4000244,0.1999969,0.5,0.6999969,0.2999878,1
		C522.2999878,132.5999908,522,132.6999817,521.7999878,132.6999817z"/>
	<path d="M459.2999878,154.2999878c-0.6000061,0-1.2999878,0-1.8999939,0c-0.1000061,0-0.2000122,0-0.2000122,0
		c-2-0.1000061-3.7000122-0.3000031-5-0.6999969c-1.7000122-0.5-2.7999878-1.3000031-3.2000122-2.3000031
		c-0.2999878-0.8999939-0.2999878-2,0.2000122-2.8000031c0.3999939-0.6999969,1-1.1999969,1.7999878-1.6000061
		c1.8999939-0.8999939,4.6000061-0.8999939,5.8999939-0.8999939c0.6000061,0,1.1000061,0,1.6000061,0h0.1000061
		c0.2000122,0,0.5,0,0.7000122,0c-0.2000122,0-0.2999878,0-0.5,0h-0.1000061
		c-2.5-0.1000061-4.7000122-0.1999969-6.6000061-0.1999969h-0.2000122c-0.3999939,0-0.7999878,0-1.2999878,0
		c-3.3999939-0.1000061-5.5-0.8999939-6.2999878-2.5c-0.1000061-0.1999969-0.7000122-1.5-0.2000122-2.8000031
		c0.6000061-1.5,2.2000122-2.3999939,5.1000061-2.8999939c1.7000122-0.3000031,3.8999939-0.5,6.7000122-0.6000061
		c0.8999939,0,2.2000122-0.1000061,4.2000122-0.1999969h0.1000061c1-0.1000061,2-0.1000061,3-0.1999969
		c-1-0.1000061-1.8999939-0.1000061-2.7000122-0.1999969h-0.1000061C456,136.0999908,452.3999939,136,449.6000061,136
		c-0.2999878,0-0.6000061,0-1,0c-3.7000122-0.1000061-6-0.8999939-6.8999939-2.5
		C441.6000061,133.3999939,441,132.1000061,441.5,130.6999969c0.6000061-1.5,2.3999939-2.5,5.6000061-3
		c1.6000061-0.3000031,3.6000061-0.4000015,6.2000122-0.5c2-0.0999985,5.8999939-0.0999985,8.6000061-0.0999985
		c0.2999878,0,0.5,0,0.7999878,0c-2.5-0.4000015-6.2999878-1.0999985-11.7999878-2.0999985
		c-1.3999939-0.3000031-4.2000122-0.8000031-4.7999878-2.8000031c-0.1000061-0.4000015-0.1000061-1.0999985,0-1.6999969
		c0.2000122-1,0.6000061-1.6999969,0.7999878-1.9000015c0.1000061-0.0999985,1.1000061-1.4000015,3.6000061-1.8000031
		c2.6000061-0.4000015,17.8999939,1.8000031,39,5.4000015c0.3999939,0.0999985,0.7000122,0.5,0.6000061,0.9000015
		s-0.5,0.6999969-0.8999939,0.5999985c-23.8999939-4.0999985-36.5-5.5999985-38.6000061-5.3000031
		c-1.8999939,0.3000031-2.6000061,1.0999985-2.6000061,1.1999969c-0.1000061,0.0999985-0.3999939,0.5999985-0.5,1.3000031
		c-0.1000061,0.5,0,0.9000015,0,1c0.3999939,1.1999969,2.7000122,1.5999985,3.7000122,1.8000031
		c11,2.1999969,15.2999878,2.6999969,15.3999939,2.6999969c1.6000061,0.1999969,4.1000061,0.5,7.2000122,0.9000015
		c0.3999939,0.0999985,0.7000122,0.4000015,0.7000122,0.7999954s-0.3999939,0.6999969-0.7000122,0.6999969c0,0-1.5,0-3.6000061,0
		c-2.2000122,0-5.2000122,0-8.1000061,0.1000061c-2.7999878,0-6.6000061,0.1000061-8.6000061,0.1000061
		c-2.5,0.1000061-4.5,0.1999969-6,0.5c-2.6000061,0.3999939-4.1000061,1.1000061-4.5,2
		c-0.2999878,0.6999969,0.1000061,1.5,0.1000061,1.6000061c0.6000061,1.1000061,2.5,1.6999969,5.5,1.6999969
		c0.5,0,0.8999939,0,1.2000122,0c2.7999878,0,6.3999939,0.1000061,10.7000122,0.3999939c0,0,0,0,0.1000061,0
		c2.8999939,0.1999969,6.3999939,0.3999939,11.2999878,0.8000031l1.2000122,0.1000061
		c0.3999939,0,0.7000122,0.3999939,0.7000122,0.6999969c0,0.3999939-0.2999878,0.6999969-0.7000122,0.8000031
		c0,0-0.3999939,0-1.2000122,0.1000061c-2.3999939,0.1999969-7.6000061,0.6000061-11.7000122,0.8999939h-0.1000061
		c-2,0.1000061-3.3999939,0.1999969-4.2999878,0.1999969c-2.7999878,0.1000061-4.8999939,0.3000031-6.5,0.6000061
		c-2.2999878,0.3999939-3.6000061,1.1000061-4,2c-0.2999878,0.6999969,0.1000061,1.5,0.1000061,1.6000061
		c0.3999939,0.6999969,1.6000061,1.6000061,5,1.6999969c0.5,0,0.8999939,0,1.2000122,0h0.2000122
		c1.8999939,0,4.1000061,0.1000061,6.6000061,0.1999969h0.1000061c3.7000122,0.1999969,8.1000061,0.5,13.5,0.8999939
		c0.3999939,0,0.7000122,0.3999939,0.7000122,0.6999969c0,0.3999939-0.2999878,0.8000031-0.7000122,0.8000031
		c-5.7999878,0.3999939-10.2999878,0.6000061-13.7999878,0.6000061h-0.1000061c-0.5,0-1.1000061,0-1.6000061,0
		c-1.2999878,0-3.7999878,0-5.3999939,0.6999969c-0.5,0.3000031-0.8999939,0.6000061-1.1000061,1
		c-0.2999878,0.5-0.2999878,1.1000061-0.1000061,1.5c0.2000122,0.6000061,1,1.1000061,2.2000122,1.3999939
		c1.2000122,0.3999939,2.7999878,0.6000061,4.7000122,0.6000061h0.2000122c2.2000122,0.1000061,4.2999878,0,5.5-0.1000061
		c3.7000122-0.1999969,7.7999878-0.3999939,12.2999878-0.6999969l5-0.3000031c0,0,0,0,0.1000061,0
		c5.7999878-0.3000031,11.7000122-0.6999969,17.5-1.3999939h0.2999878c0.3999939,0,0.7999878,0.3000031,0.7999878,0.6999969
		s-0.2999878,0.8000031-0.7000122,0.8000031h-0.2999878c-5.7999878,0.6000061-11.7000122,1.1000061-17.6000061,1.3999939
		c0,0,0,0-0.1000061,0l0,0l-5,0.3000031c-4.5,0.3000031-8.6000061,0.5-12.2999878,0.6999969
		C461.8999939,154.2999878,460.6000061,154.2999878,459.2999878,154.2999878z"/>
	<path d="M521,131.3999786c-9.2999878,6.6999969-18.6000061,13.3999939-27.8999939,20
		c1.8999939-0.1000061,3.7000122-0.1000061,5.6000061-0.1999969c1.1000061-0.8999939,5.2999878-4.1999969,6.3999939-5.1000061
		c5.7000122-4.6000061,11.4999695-9.3000031,17.1999817-13.8999939
		C521.9000244,131.9999847,521.4000244,131.6999817,521,131.3999786z"/>
</g>
<g id="legs_3_">
	<path d="M649.5999756,624.5c-0.2000122,0-0.2999878-0.0999756-0.5-0.2000122
		c-0.2000122-0.0999756-0.2999878-0.2999878-0.2999878-0.5l-5.2000122-61.5999756l-21.4000244-252.7999878
		c0-0.3999939,0.2999878-0.7999878,0.7000122-0.7999878s0.7999878,0.2999878,0.7999878,0.7000122l21.4000244,252.7999878
		l5.0999756,60.7999878l53.2999878-5.2000122l-0.9000244-86.7999878l-2.5-248c0-0.3999939,0.2999878-0.7999878,0.7000122-0.7999878
		l0,0c0.4000244,0,0.7000122,0.2999878,0.7999878,0.7000122l3.4000244,335.5c0,0.4000244-0.2999878,0.7000122-0.7000122,0.7999878
		L649.5999756,624.5L649.5999756,624.5z"/>
	<path d="M644.4000244,562.0999756c-10.7000122-14-24.2000122-32.0999756-39.5999756-53.2999878
		c-25.5999756-35.2000122-34.7999878-49.3999939-34.7999878-69.2000122c0-6.5,1.9000244-13.3999939,5.5999756-27.2999878
		c7.5999756-28.1000061,15.7999878-42.8999939,29.2000122-74.6000061c2.7000122-6.5,6.2999878-15.2000122,10.2999878-25.6000061
		c2.5999756-0.8999939,5.2999878-1.7999878,7.9000244-2.7000122L644.4000244,562.0999756z"/>
	<path d="M700.9000244,282.7999878c-25.7999878,10.5-51.5999756,20.8999939-77.4000244,31.3999939l-0.4000244-4.8999939
		C649,300.5,674.9000244,291.7000122,700.9000244,282.7999878z"/>
</g>
<g id="man_1_1_">
	<path id="tshirt_2_" d="M408.6000061,285.2999878c-1.2999878,19.5-8,106.1000061-37.2999878,110.6000061
		c-6.2000122,1-16.8999939-1.2999878-32.8999939-21.7000122c-1.5,8.5-11.8999939,54.5-15.7000122,67.3000183
		c-17.8999939-2.7999878-37.1000061-6.3999939-57.3999939-11.2999878c-17.6999969-4.2000122-34.1999969-8.8999939-49.5-13.7999878
		c11.3999939-30.2999878,42-105.1000061,88-138.3999939c8.6000061-6.2000122,17.6000061-10.8999939,26.7999878-9.1000061
		c28,5.7000122,33,67.2999878,33.2000122,70.3999939c6.7999878-20.5,13.7000122-40.8999939,20.5-61.3999939
		C392.3999939,280.5,400.5,282.8999939,408.6000061,285.2999878z"/>
	<path d="M408.6000061,286.1000061c-0.1000061,0-0.1000061,0-0.2000122,0l-23.7000122-6.8999939
		c-0.2000122-0.1000061-0.3999939-0.2000122-0.5-0.3999939c-0.1000061-0.2000122-0.1000061-0.3999939,0-0.6000061
		c0.8999939-1.7999878,2.6000061-5.2999878,4.7000122-9.7000122l1.7000122-3.6000061
		c6.6000061-13.7000122,9.2999878-19.3000183,13.3999939-19.2000122c0.2000122,0,2.1000061,0.1000061,3,1.3999939
		c1.2000122,1.6999969,0,4.1000061-1.7000122,7.3000031L405,254.9999847
		c-0.7999878,1.5000153-1.6000061,3.1000214-2.3999939,4.6000214C407,254.8999939,413.3999939,248.2999878,418.5,244.3999939
		c2.2000122-1.6999969,5.3999939-3.8000031,8.2999878-2.8999939c1,0.3000031,1.7000122,0.8999939,2,1.6000061
		c0.7999878,1.8000031-1.1000061,3.8000031-2,4.8000031c-2,2.1999969-4.6000061,4.8999939-7,7.1999969
		c2.7999878-1.6999969,5.5-3.5,8.2999878-5.1000061c3.1000061-1.8999939,7-4.1999969,9.3999939-2.6999969
		c1.2999878,0.8000031,1.5,2.3999939,1.5,2.6000061c0.2000122,2.6999969-2.7999878,4.6999969-6.7000122,7.1000214
		l-1.2000122,0.7999878c-2.2999878,1.5-4.6000061,3.1000061-6.8999939,4.7999878c3.1000061-1.3999939,6-2.8999939,8.7000122-4.5
		l0.6000061-0.3999939c2.7000122-1.7000275,5.7999878-3.5000153,7.8999939-2.3000183
		c0.7999878,0.5,1.3999939,1.5000305,1.5,2.5000305c0.1000061,2.3999939-2.6000061,4-8,7.2000122l-0.1000061,0.1000061
		c-1.1000061,0.6000061-2.8999939,1.7000122-5.7000122,3.2999878c0.8999939-0.2000122,1.7999878-0.5,2.6000061-0.7999878
		c1.3999939-0.6000061,2.7000122-1.2000122,3.7999878-1.7999878c2.1000061-1.1000061,3.7999878-2,5.3999939-1.2000122
		c0.2999878,0.1000061,1.5,0.7999878,1.7000122,2.1000061c0.5,2.7999878-4.5,5.1000061-14.3999939,9.7000122
		c-2.5,1.2000122-5.2999878,2.5-8.3999939,3.8999939c-3.7000122,1.7999878-7.5,3.6000061-11,5.5
		C408.7999878,286,408.7000122,286.1000061,408.6000061,286.1000061z M385.8999939,278L408.5,284.5
		c3.5-1.7999878,7.2000122-3.6000061,10.7999878-5.3999939c3.1000061-1.5,5.8999939-2.7999878,8.3999939-3.8999939
		c7.7000122-3.6000061,13.7999878-6.3999939,13.5-8c-0.1000061-0.5-0.7000122-0.8999939-0.8999939-1
		c-0.8999939-0.3999939-2.1000061,0.1000061-4.1000061,1.2000122c-1.1000061,0.6000061-2.3999939,1.2000122-3.8999939,1.7999878
		c-2.2000122,0.7999878-4.5,1.3999939-7,1.6000061c-0.3999939,0-0.7000122-0.2000122-0.7999878-0.5
		c-0.1000061-0.2999878,0-0.7000122,0.2999878-0.8999939C429.5,266.7000122,432.5,264.9000244,434,264.0000305l0.1000061-0.1000061
		c4.6000061-2.7000122,7.2999878-4.2999878,7.2000122-5.7999878c0-0.5-0.2999878-1.1000061-0.7000122-1.2999878
		c-1.2999878-0.7999878-4.2000122,1-6.2999878,2.2999878l-0.7000122,0.3999939c-4.2000122,2.5-8.8999939,4.7999878-14,6.6000061
		c-0.2999878,0.1000061-0.7000122,0-0.8999939-0.2999878c-0.2000122-0.2999878-0.1000061-0.7000122,0.2000122-1
		c3.7000122-3,7.5-5.7000122,11.3999939-8.2000122l1.2999878-0.8000183c3.2999878-2.1000061,6.1000061-3.8999939,6-5.6999969
		c0,0-0.1000061-1-0.7999878-1.5c-1.6000061-1-5.2999878,1.1999969-7.7999878,2.6999969
		c-4.7999878,2.8999939-9.7000122,6.0000305-14.5,9.1000061c-0.2999878,0.2000122-0.7999878,0.1000061-1-0.2000122
		c-0.2000122-0.2999878-0.2000122-0.7000122,0.1000061-1c2.3999939-2.2999878,8.5-8.3000183,12.2999878-12.4000092
		c0.5-0.6000061,2.1000061-2.3000031,1.7000122-3.1999969c-0.1000061-0.3000031-0.5-0.6000061-1.1000061-0.6999969
		c-2.5-0.8000031-5.8999939,1.8000031-7,2.6999969c-6.5,5-15.5,14.7000122-19.1000061,18.7000122
		c-0.2000122,0.2999878-0.7000122,0.2999878-1,0.1000061c-0.2999878-0.2000122-0.3999939-0.6000061-0.2999878-0.8999939
		c1.5-3.2000122,3-6.2999878,4.5-9.2000122l0.3999939-0.6999969c1.3999939-2.6999969,2.5-4.8000031,1.7999878-5.8000031
		c-0.3999939-0.6000061-1.5-0.8000031-1.8999939-0.8000031c-3.1000061-0.1000061-5.8999939,5.6999969-12,18.4000092
		l-1.7000122,3.6000061C388.3999939,272.8999939,386.8999939,276,385.8999939,278z"/>
	<g id="shoes_2_">
		<path d="M143.6000061,651.5999756c3.6999969-1.5999756,6.6000061,2.9000244,17.6999969,7
			c9.1000061,3.2999878,13.5,2.5999756,14.8999939,5.7000122c0.8999939,1.9000244,0.5,5.2999878-5.3000031,11.5999756
			c1.3000031,6.2999878,4,10.0999756,6.1999969,12.5c9.5,10,24.6000061,7.4000244,27.8999939,16.0999756
			c0.1999969,0.5,1.1999969,3.2999878-0.1000061,5.7999878c-3,5.5-15.6000061,5.0999756-23.5,3.2000122
			c-6.6000061-1.5-9.1000061-3.7999878-25.3000031-15.4000244c-18.8999939-13.5999756-24.5-17.0999756-24.1000061-22.5999756
			c0.1999969-2.9000244,1.8000031-2.5999756,5.6999969-11.2000122C141.6000061,655.2999878,141,652.7000122,143.6000061,651.5999756
			z"/>
		<path d="M341.2999878,683.5C343,682,344.5,682.4000244,354.1999817,682.2000122c13.1000061-0.4000244,16-1.2999878,18,0.9000244
			c2.7999878,3-1,6.7999878,1.2999878,11c2.6000061,4.7000122,9.7000122,4.0999756,25.2999878,6.4000244
			c21.7999878,3.2999878,26.7999878,6.7999878,29.2999878,10.7000122c1.2000122,1.7999878,3.1000061,4.7000122,2,7.2999878
			c-3.7999878,9.7999878-40.5-3.5999756-72.6999817-0.0999756c-2.6000061,0.2999878-13.5,1.5999756-16.6000061-3.2000122
			c-0.8999939-1.4000244-1.1000061-3.4000244-1.3999939-6.2000122c-0.3999939-3.9000244,0.2000122-6.7000122,0.2000122-8.5999756
			C339.6000061,689.2999878,338.6000061,685.9000244,341.2999878,683.5z"/>
	</g>
	<g id="head_2_">
		<path d="M322.5,255.4999847c-1.5,0-3.7000122-0.3000031-5.7000122-1.8999939
			c-2.2000122-1.6999969-3.3999939-4.3000031-3.3999939-6.8999939c0.1000061-2.6000061,1.5-5.3000031,3.7000122-7.1999969
			c1.8999939-1.6000061,4-2.1999969,6.1000061-1.8999939c4.3999939,0.6999969,6.3999939,5.6999969,6.3999939,5.8999939
			c0.1000061,0.3999939-0.1000061,0.8000031-0.3999939,1c-0.3999939,0.1000061-0.7999878-0.1000061-1-0.3999939
			c0,0-1.7000122-4.3999939-5.2999878-4.8999939c-1.6000061-0.3000031-3.3999939,0.3000031-4.8999939,1.6000061
			c-1.8999939,1.6000061-3.1000061,3.8999939-3.1000061,6.1000061c-0.1000061,2.1999969,1,4.3000031,2.7999878,5.6999969
			c2.6000061,2,5.7000122,1.6000061,6.2000122,1.5c0.3999939-0.1000061,0.7999878,0.1999969,0.8999939,0.6000061
			c0.1000061,0.3999939-0.2000122,0.8000031-0.6000061,0.8999939
			C323.7999878,255.3999786,323.2000122,255.4999847,322.5,255.4999847z"/>
		<path id="hair_2_" d="M355.2000122,223.8999786c-7,2-14,4.1000061-21,6.1000061l-5.6000061,12.6000061
			c-0.2000122-0.5-0.8999939-2.5-3-3.6000061c-2.2000122-1.1999969-4.3999939-0.6000061-5.2999878-0.3999939
			c-3.3999939,0.8999939-5,3.6000061-5.2000122,4c-1.5,2.6999969-1.5,6.3999939,0.8999939,9.1000061
			c2.7000122,3.1000061,6.7999878,3,7.2999878,3c0.2999878,0.6999969,0.5,1.7000275,0.3999939,2.8000031
			c-0.2999878,3.7000122-3.7999878,5.7000122-4.2999878,6c0.1000061-0.2999878,0.7000122-2.3999939,0.7999878-2.6000061
			c0.1000061-0.2000122,0.6000061-2,0.7000122-2.2000122c-1.3999939-1-3.2999878-2.5-5.1000061-4.6000214
			c-0.3999939-0.5-3-3.6999969-4.2999878-7.8999939c-2.8999939-9.3000031,2-18,2.7999878-19.3000031
			c1.2999878-2.1000061,6.7000122-11.3999939,17.8999939-13
			C340.7999878,212.7999878,349.7000122,216.6999817,355.2000122,223.8999786z"/>
		<g id="face_2_">
			<path d="M342.2999878,276.2999878c-0.1000061,0-0.1000061,0-0.2000122,0c-0.3999939-0.1000061-0.6000061-0.5-0.5-0.8999939
				l2.7000122-9.1000061c0.1000061-0.2999878,0.2999878-0.5,0.6000061-0.5c0.2999878,0,0.7000122-0.1000061,1-0.1000061
				c2.3999939-0.3999939,4.6000061-1.2000122,6.5-2.3999939c9.3999939-5.8999939,11.3999939-20.5000153,7.3999939-30.5000153
				c-2.3999939-5.8999939-7.1000061-11.3999939-12.6000061-14.6999969c-4.7999878-2.8999939-9.8999939-4-15-3.3000031
				c-6.6000061,0.8999939-12.3999939,4.8000031-16.3999939,11c-4.1000061,6.3000031-5.3999939,14-3.6000061,20.3000031
				c1.7000122,5.8000031,5.8999939,9.8000031,9.1000061,12.1000061c0.2999878,0.2000122,0.3999939,0.5,0.2999878,0.7999878
				c-0.3999939,1.5-0.8999939,2.8999939-1.2999878,4.3999939v0.1000061l-2.1000061,7.1000061
				c-0.1000061,0.3999939-0.5,0.6000061-0.8999939,0.5s-0.6000061-0.5-0.5-0.8999939l2.1000061-7.2000122v-0.1000061
				c0.3999939-1.2999878,0.7999878-2.6000061,1.1000061-3.7999878c-3.3999939-2.5-7.5-6.6000214-9.2999878-12.6000214
				c-2-6.8000031-0.5-14.8000031,3.7999878-21.5c4.2000122-6.5,10.3999939-10.6999969,17.5-11.6999969
				c5.3999939-0.8000031,10.8999939,0.3999939,16,3.5c5.7999878,3.5,10.7000122,9.1999969,13.2000122,15.3999939
				c5.5,13.5,0.1000061,27.3000183-8,32.4000244c-2.1000061,1.2999878-4.3999939,2.1000061-7,2.6000061
				c-0.2000122,0-0.3999939,0.1000061-0.6000061,0.1000061l-2.5,8.6000061
				C342.8999939,276.1000061,342.6000061,276.2999878,342.2999878,276.2999878z"/>
			<path d="M345.8999939,265.8999939C345.5,266.6999817,345.1000061,267.5,344.6999817,268.5
				c-0.2999878,0.7000122-0.6000061,1.2999878-0.7999878,1.8999939c-1.6000061-0.7000122-4.3999939-2.2999878-6.5-5.3999939
				c-0.7999878-1.1000061-1.2999878-2.2000122-1.6000061-3.2000122C337.0999756,263,339.6999817,265,343.3999939,265.6999817
				C344.2000122,265.7999878,345.1000061,265.8999939,345.8999939,265.8999939z"/>
		</g>
	</g>
	<g id="legs_2_">
		<path d="M330.2999878,677.2999878c-0.3999939,0-0.7000122-0.2999878-0.7000122-0.7000122
			c-2.7999878-28.5999756-5.6000061-57.2000122-8.3999939-85.9000244l-4.2999878-43.7999878
			c-19.3999939-19.2999878-38.2999878-39-54.6000061-56.8999939c-2.8999939-3.2000122-5.6000061-6.2000122-8.1999969-9
			c-5-5.6000061-9.6000061-10.8999939-13.8000031-15.7999878c-5.1999969-6.1000061-14.8999939-17.5-17.1999969-34.2999878
			c-0.5-4-0.6000061-8.1000061-0.3000031-12.1000061c0-0.3999939,0.3999939-0.7000122,0.8000031-0.7000122
			c0.3999939,0,0.6999969,0.3999939,0.6999969,0.7999878c-0.3000031,3.8999939-0.3000031,7.7999878,0.3000031,11.7000122
			c2.1999969,16.2999878,11.6999969,27.5,16.8000031,33.5c4.1999969,4.8999939,8.8000031,10.2000122,13.8000031,15.7999878
			c2.5000153,2.7999878,5.3000031,5.8999939,8.1999969,9c16.3999939,17.8999939,35.2999878,37.7000122,54.7000122,57
			c0.1000061,0.0999756,0.2000122,0.2999878,0.2000122,0.5l4.2999878,44.0999756
			c2.7999878,28.4000244,5.5,56.7999878,8.2999878,85.2000122c7.5,0,14.8999939-0.0999756,22.3999939-0.0999756L375.5999756,675.5
			c0.5-25,1-72.0999756-1-111.0999756c-0.3999939-8.7000122-1.1000061-17.4000244-4.5-28.5999756
			c-2.2999878-7.5-5.2999878-15.2000122-23.6000061-45.1000061c-6-9.7000122-12.2000122-19.6000061-18.5-29.3999939
			c-4.3999939-6.5-8.8999939-13.5-13.2999878-20.5c-0.2000122-0.3999939-0.1000061-0.7999878,0.2000122-1
			c0.3999939-0.2000122,0.7999878-0.1000061,1,0.2000122c4.3999939,7.1000061,8.8999939,14,13.2999878,20.5
			c6.2999878,9.7999878,12.6000061,19.7000122,18.6000061,29.3999939c18.3999939,30.1000061,21.5,37.8000183,23.7999878,45.4999695
			c3.3999939,11.2999878,4.1000061,20.0999756,4.5,28.9000244c2,39.5,1.5,87.0999756,1,112
			c0,0.4000244-0.2999878,0.7000122-0.7000122,0.7000122l-23.1000061,0.0999756
			C345.6000061,677.2000122,337.8999939,677.2999878,330.2999878,677.2999878L330.2999878,677.2999878z M376.3999939,676.2999878
			L376.3999939,676.2999878L376.3999939,676.2999878z"/>
		<path d="M180.8999939,659.4000244c-0.1000061,0-0.1000061,0-0.1999969,0l-21.6000061-6.2999878
			c-7.1999969-2.0999756-14.3000031-4.2000122-21.5-6.2999878c-0.1999969-0.0999756-0.3999939-0.2000122-0.5-0.4000244
			s-0.1000061-0.4000244,0-0.5999756c23-61.7999878,46.0999908-123.7000122,69.0999908-185.5l15.6000061-41.8999939
			c0.1000061-0.3999939,0.6000061-0.6000061,1-0.3999939c0.3999939,0.1000061,0.6000061,0.6000061,0.3999939,1
			l-15.6000061,41.8999939c-23,61.6000061-45.8999939,123.1999817-68.8999939,184.6999817c6.8999939,2,13.8000031,4,20.6999969,6
			l21,6.0999756l81.5999908-168.5c0.2000122-0.3999939,0.6000061-0.5,1-0.2999878s0.5,0.6000061,0.2999878,1L181.6000061,659
			C181.3999939,659.2000122,181.1999969,659.4000244,180.8999939,659.4000244z"/>
		<path d="M369.2000122,681.7999878h-0.7999878l-0.2000122-5C368.2000122,676.3999634,368.5,676,368.9000244,676
			c0.3999939,0,0.7999878,0.2999878,0.7999878,0.7000122l0.2000122,5.0999756H369.2000122z"/>
		<path d="M342.2999878,683.5999756c-0.3999939,0-0.7000122-0.2999878-0.7000122-0.7000122l-0.2999878-6.4000244
			c0-0.4000244,0.2999878-0.7999878,0.7000122-0.7999878c0.3999939,0,0.7999878,0.2999878,0.7999878,0.7000122l0.2999878,6.4000244
			C343,683.2000122,342.7000122,683.5999756,342.2999878,683.5999756L342.2999878,683.5999756z"/>
		<path d="M172.1000061,662.2999878c-0.1000061,0-0.1999969,0-0.3000031-0.0999756
			c-0.3999939-0.2000122-0.6000061-0.5999756-0.3999939-1L173.1000061,657l-24.3999939-7.0999756l-0.8000031,1.9000244
			c-0.1999969,0.4000244-0.6000061,0.5999756-1,0.4000244c-0.3999939-0.2000122-0.6000061-0.5999756-0.3999939-1l1-2.5
			c0.1000061-0.4000244,0.5-0.5,0.8999939-0.4000244l25.8999939,7.5999756c0.1999969,0.0999756,0.3999939,0.2000122,0.5,0.4000244
			s0.1000061,0.4000244,0,0.5999756l-2,4.9000244C172.6999969,662.2000122,172.3999939,662.2999878,172.1000061,662.2999878z"/>
		<path d="M358,677.0999756c-0.3999939,0-0.7000122-0.2999878-0.7000122-0.7000122l-0.1000061-0.5
			c-5.2000122-53.0999756-9-91.4000244-10.1000061-105.2999878v-0.4000244c-0.2999878-4.0999756-1-13.5999756-3.7999878-26.2000122
			c0-0.0999756-1.2999878-5.9000244-2.7999878-11c-4.5-15.5-18-37.7999878-39.2000122-64.3999939
			c-3.5-4.3999939-6.7999878-9-10.1000061-13.5c-4.1000061-5.7000122-8.2999878-11.5-12.8999939-17
			c-0.6000061-0.7000122-1.2000122-1.3999939-1.7999878-2.1000061c-0.8999939-1-1.7000122-2-2.6000061-3
			c-0.2999878-0.2999878-0.2000122-0.7999878,0.1000061-1.1000061c0.2999878-0.2999878,0.7999878-0.2000122,1.1000061,0.1000061
			c0.7999878,1,1.7000122,2,2.5,3c0.6000061,0.7000122,1.2000122,1.3999939,1.7999878,2.1000061
			c4.6000061,5.5,8.8999939,11.3999939,13,17c3.2000122,4.5,6.5,9.1000061,10,13.3999939
			c21.2999878,26.7999878,34.8999939,49.2000122,39.3999939,64.9000244c1.5,5.2000122,2.7999878,11,2.7999878,11.0999756
			c2.7999878,12.7000122,3.5,22.2999878,3.7999878,26.4000244v0.4000244c1,13.9000244,4.7999878,52.2999878,10.1000061,105.2999878
			l0.1000061,0.5C358.7999878,676.7000122,358.5,677.0999756,358,677.0999756L358,677.0999756z"/>
		<path d="M163.6999969,654.4000244c-0.1000061,0-0.1999969,0-0.3000031-0.0999756
			c-0.3999939-0.2000122-0.6000061-0.5999756-0.3999939-1c23.1999969-54.4000244,64.3000031-151,79-186.6000061
			c0.1999969-0.3999939,0.6000061-0.6000061,1-0.3999939s0.6000061,0.6000061,0.3999939,1
			c-14.6999969,35.6000061-55.8000031,132.2000122-79,186.5999756C164.3000031,654.2000122,164,654.4000244,163.6999969,654.4000244
			z"/>
		<path d="M342,676.5c9.2000122,0.5999756,18.2999878,1.0999756,27.5,1.7000122c0-0.5,0-1,0.1000061-1.5
			C360.2999878,676.5999756,351.2000122,676.5,342,676.5z"/>
		<path d="M148.1000061,649.5c8.3000031,3.2999878,16.6000061,6.5999756,24.8999939,9.9000244l1.1000061-2.7999878
			C165.3999939,654.2999878,156.6999969,651.9000244,148.1000061,649.5z"/>
	</g>
</g>
</svg>
