<?xml version="1.0" encoding="utf-8"?>
<!-- Generator: Adobe Illustrator 22.1.0, SVG Export Plug-In . SVG Version: 6.00 Build 0)  -->
<svg version="1.1" xmlns="http://www.w3.org/2000/svg" xmlns:xlink="http://www.w3.org/1999/xlink" x="0px" y="0px"
	 viewBox="0 0 922.5 828.2" style="enable-background:new 0 0 922.5 828.2;" xml:space="preserve">
<style type="text/css">
	.st0{fill:#9050A6;}
	.st1{fill:#FEE200;}
</style>
<g id="background">
	<g id="background_1_">
		<path d="M117.6,782.3c-4.7,0-8.5-3.8-8.5-8.5s3.8-8.5,8.5-8.5c4.7,0,8.5,3.8,8.5,8.5S122.3,782.3,117.6,782.3z M117.6,766.9
			c-3.8,0-7,3.1-7,7c0,3.8,3.1,7,7,7s7-3.1,7-7C124.6,770,121.4,766.9,117.6,766.9z"/>
		<circle class="st0" cx="431.2" cy="704.8" r="5.1"/>
		<path d="M64.8,318.3c-0.8,0-1.6-0.1-2.4-0.4c-2.1-0.6-3.8-2.1-4.9-4s-1.2-4.2-0.6-6.3c1.3-4.3,5.9-6.8,10.3-5.5
			c4.3,1.3,6.8,5.9,5.5,10.3l0,0c-0.6,2.1-2.1,3.8-4,4.9C67.5,318,66.1,318.3,64.8,318.3z M64.8,303.3c-2.9,0-5.5,1.9-6.4,4.8
			c-0.5,1.7-0.4,3.5,0.5,5.1c0.8,1.6,2.3,2.7,4,3.3c3.5,1.1,7.3-0.9,8.4-4.5l0,0c1.1-3.5-0.9-7.3-4.5-8.4
			C66.1,303.4,65.5,303.3,64.8,303.3z"/>
		<circle class="st0" cx="273" cy="40.8" r="7.5"/>
		<circle class="st0" cx="15.1" cy="589.8" r="14.4"/>
		<path d="M771.2,79.5c-1.9,0-3.7-0.6-5.3-1.6c-2.1-1.4-3.5-3.6-3.9-6c-0.5-2.5,0.1-5,1.5-7c1.4-2.1,3.6-3.5,6-3.9
			c2.5-0.5,5,0.1,7,1.5c2.1,1.4,3.5,3.6,3.9,6c0.5,2.5-0.1,5-1.5,7c-1.4,2.1-3.6,3.5-6,3.9C772.3,79.5,771.7,79.5,771.2,79.5z
			 M771.2,62.2c-0.5,0-1,0-1.5,0.1c-2.1,0.4-3.9,1.6-5.1,3.3c-1.2,1.7-1.6,3.8-1.2,5.9c0.4,2.1,1.6,3.9,3.3,5.1
			c1.7,1.2,3.8,1.6,5.9,1.2s3.9-1.6,5.1-3.3l0,0c1.2-1.7,1.6-3.8,1.2-5.9c-0.4-2.1-1.6-3.9-3.3-5.1
			C774.3,62.7,772.8,62.2,771.2,62.2z"/>
		<path d="M793.8,412.8c-1.1,0-2.3-0.3-3.3-1c-1.3-0.9-2.2-2.2-2.5-3.8c-0.3-1.5,0-3.1,0.9-4.4c1.8-2.7,5.5-3.4,8.2-1.5
			c2.7,1.8,3.4,5.5,1.5,8.2l0,0C797.5,411.9,795.7,412.8,793.8,412.8z M793.8,402.5c-1.4,0-2.8,0.7-3.6,1.9c-0.7,1-0.9,2.1-0.7,3.3
			c0.2,1.2,0.9,2.2,1.8,2.8c2,1.4,4.7,0.9,6.1-1.1c1.4-2,0.9-4.7-1.1-6.1C795.5,402.8,794.7,402.5,793.8,402.5z M798,409.8
			L798,409.8L798,409.8z"/>
		<path d="M57.3,99.3c-0.2,0-0.4-0.1-0.5-0.2l-27-27c-0.3-0.3-0.3-0.8,0-1.1l27-27c0.3-0.3,0.8-0.3,1.1,0l27,27
			c0.3,0.3,0.3,0.8,0,1.1l-27,27C57.7,99.2,57.5,99.3,57.3,99.3z M31.3,71.5l26,26l26-26l-26-26L31.3,71.5z"/>
		<path d="M202.5,682.5c-0.2,0-0.4-0.1-0.5-0.2l-18-18c-0.1-0.1-0.2-0.3-0.2-0.5s0.1-0.4,0.2-0.5l18-18c0.3-0.3,0.8-0.3,1.1,0l18,18
			c0.1,0.1,0.2,0.3,0.2,0.5s-0.1,0.4-0.2,0.5l-18,18C202.9,682.5,202.7,682.5,202.5,682.5z M185.6,663.8l16.9,16.9l16.9-16.9
			l-16.9-16.9L185.6,663.8z"/>
		
			<rect x="875.1" y="137.7" transform="matrix(0.7071 -0.7071 0.7071 0.7071 154.1473 670.8101)" class="st0" width="23.4" height="23.4"/>
		<path d="M868.2,670.9c-0.2,0-0.5-0.1-0.6-0.3l-19.4-25.9c-0.2-0.3-0.2-0.8,0.1-1l25.9-19.4c0.2-0.1,0.4-0.2,0.6-0.1
			c0.2,0,0.4,0.1,0.5,0.3l19.4,25.9c0.1,0.2,0.2,0.4,0.1,0.6c0,0.2-0.1,0.4-0.3,0.5l-25.9,19.4C868.6,670.9,868.4,670.9,868.2,670.9
			z M849.9,644.4l18.5,24.7l24.7-18.5l-18.5-24.7L849.9,644.4z"/>
		<path d="M847.3,252.5c-0.2,0-0.3-0.1-0.5-0.2c-0.3-0.3-0.4-0.7-0.1-1.1l15.1-18.9c0.3-0.3,0.7-0.4,1.1-0.1
			c0.3,0.3,0.4,0.7,0.1,1.1l-15.1,18.9C847.7,252.4,847.5,252.5,847.3,252.5z"/>
		<path d="M90.5,516.9c-0.2,0-0.3-0.1-0.5-0.2c-0.3-0.3-0.4-0.7-0.1-1.1l15.1-18.9c0.3-0.3,0.7-0.4,1.1-0.1c0.3,0.3,0.4,0.7,0.1,1.1
			l-15.1,18.9C90.9,516.8,90.7,516.9,90.5,516.9z"/>
		<path d="M468.7,22.2c-0.3,0-0.5-0.1-0.6-0.4L455.4,1.1c-0.2-0.4-0.1-0.8,0.2-1c0.4-0.2,0.8-0.1,1,0.3L469.3,21
			c0.2,0.4,0.1,0.8-0.2,1C468.9,22.2,468.8,22.2,468.7,22.2z"/>
		<path d="M363.9,664.3c-0.2,0-0.4-0.1-0.5-0.2l-17.6-16.6c-0.3-0.3-0.3-0.8,0-1.1c0.3-0.3,0.8-0.3,1.1,0l17.6,16.6
			c0.3,0.3,0.3,0.8,0,1.1C364.3,664.2,364.1,664.3,363.9,664.3z"/>
		<path d="M921.8,453c-0.2,0-0.3-0.1-0.5-0.2l-18.9-15.1c-0.3-0.3-0.4-0.7-0.1-1.1c0.3-0.3,0.7-0.4,1.1-0.1l18.9,15.1
			c0.3,0.3,0.4,0.7,0.1,1.1C922.2,452.9,922,453,921.8,453z"/>
	</g>
</g>
<g id="general_1_">
	<g id="general">
		<g id="lines">
			<g>
				<path class="st1" d="M862.2,329.4c6.4,7.9-3.7,35.5-20.8,40.7c-12.1,3.6-27-4-46.4-3.1c-3.1,0.1-6.8,0.5-10.6,2.6
					c-5.9,3.3-6.4,7.7-10.2,10.2c-7.8,5.1-21.2-2.7-23.1-3.8c-14.1-8.1-18.9-22.8-27-49.2c-1.2-3.8-2.2-7.2-3.2-10.5
					c17.2,8.3,36,11.7,51.5,7.4c20.8-5.8,30.5-24.6,42.3-19c8,3.8,6.8,13.7,17.4,19.9C845.1,332.5,857.3,323.4,862.2,329.4z"/>
				<path class="st1" d="M657.1,41.8c3,9.9-1,21.8-8.6,26.5c-11.7,7.2-22.2-8.4-42-6.9c-14.8,1.2-19.8,10.9-35.6,24.9
					c-10.4-15.2-14.4-34.7-8.9-40.1c4.8-4.8,15.9,2.1,21.8-4.5c4.8-5.4,0.2-12.9,5.6-18c4.5-4.2,12-3.1,15.9-2.6
					c11.1,1.6,12.4,7.8,21.8,8.1c7.6,0.3,8.8-3.7,15-2.5C649.2,28.2,655,35.1,657.1,41.8z"/>
				<path class="st1" d="M640.8,184.3c3,9.2,3.3,19.4,0,28.4c-6.9,18.9-28.4,29.3-48.6,29.2c-20.1-0.1-39.2-8.4-57.4-17
					c-18.2-8.6-36.7-17.8-56.7-19.8c-45-4.5-86,27.9-131.1,31.5c-38.3,3.1-75.1-14.8-113.4-17.6c-21.1-1.5-44.7,0.9-60.8-12.8
					c-12.8-10.9-16-29.6-10.9-45.8c19,4.8,38,9.6,57,14.5c16.6,4.2,34,8.4,50.5,4c22.3-5.9,37.7-25.8,57.1-38.3
					c24.7-15.9,57-19.2,84.4-8.5c27.1,10.5,49.5,33.7,78.3,37c39.4,4.5,77.5-29.6,115.7-19.2C621.5,154.5,635.5,167.9,640.8,184.3z"
					/>
				<path class="st1" d="M473.7,567.1c4.9,16.6-5,35.5-20.5,43.1c-15.5,7.6-35,4.7-49.3-5c-19.3-13-35.1-38.5-58.1-34.5
					c-8.5,1.5-15.6,7-22.8,11.6c-24.2,15.5-53.7,22.7-82.4,20c-26.4-2.5-55.6-17.8-58.5-44.2c-1.2-11,2.6-19.7,6.3-27.2
					c3.9-8.1,9.5-15.7,16.1-22.3c21,18.5,54.9,32.8,87.7,34.3c35,1.6,34.6-8.3,88.1-14.9c29.6-3.6,62.8,0.5,83.2,22.2
					C468.1,555.1,471.8,560.8,473.7,567.1z"/>
			</g>
			<g>
				<path d="M668,398c-2,0-4.1-0.2-6.1-0.5c-12.3-2.2-23.5-11.2-28-22.5c-2.2-5.7-1.8-9.5-1.3-13.1c0.4-3.2,0.7-6.3-1-10.4
					c-6.7-16-34.3-25.8-52.8-18.7c-6.3,2.4-10,6.4-13.3,9.9c-3.9,4.1-7.6,8.1-14.6,8.1c-9.7,0.1-22-6.1-24.7-15.5
					c-1.9-6.7,1.7-12.3,5.2-17.7c3.5-5.5,7.2-11.3,5.7-18.5c-2.2-10.2-13.4-16.1-16.7-17.7c-9.4-4.4-17.3-2.5-25-0.6
					c-7,1.7-14.3,3.4-22.5,0.3c-9.6-3.6-12.8-10.9-15.9-17.9c-2.7-6.1-5.2-11.8-11.7-14.9c-11.7-5.6-24.3,3-40.2,13.7
					c-15.9,10.8-34,23.1-57.1,25.5c-23.2,2.4-47.8-5.8-73.2-24.4c-0.3-0.2-0.4-0.7-0.2-1s0.7-0.4,1-0.2
					c25.1,18.4,49.4,26.5,72.2,24.1c22.8-2.4,40.7-14.5,56.4-25.2c15.6-10.6,29.1-19.8,41.7-13.8c7.1,3.3,9.8,9.6,12.5,15.6
					c3,6.7,6,13.6,15,17.1c7.8,2.9,14.5,1.3,21.6-0.4c7.9-1.9,16.1-3.9,26,0.7c3.5,1.6,15.2,7.8,17.6,18.7
					c1.7,7.8-2.2,13.8-5.9,19.6c-3.4,5.4-6.7,10.5-5,16.5c2.5,8.7,14,14.5,23.2,14.4c6.3-0.1,9.7-3.6,13.5-7.7
					c3.4-3.6,7.3-7.7,13.9-10.2c19.1-7.4,47.7,2.8,54.7,19.5c1.9,4.5,1.5,7.9,1.1,11.1c-0.4,3.5-0.8,7.1,1.3,12.4
					c4.2,10.8,15,19.4,26.8,21.5c13.8,2.5,27-4.3,34.2-10.8c5.5-5,8.6-10.7,8.2-15.1c-0.3-4.3-3.8-6.4-8.5-9.3
					c-5.4-3.4-12.2-7.5-17.5-16.9c-4.1-7.3-4.4-12.7-4.6-17.5c-0.3-4.7-0.5-8.7-3.9-13.8c-6.5-9.5-16.9-11.5-26-13.3
					c-7.9-1.5-14.6-2.9-16.7-8.7c-2.5-6.9,2.8-16.3,8.6-22.8c7.2-8.1,18.4-15.4,27.2-13.4c5.6,1.3,7.8,6.2,10.8,13.1
					c1.6,3.7,3.4,7.8,6.1,12.3c8.7,14.5,23.8,27.7,41.3,36.2c0.4,0.2,0.5,0.6,0.3,1c-0.2,0.4-0.6,0.5-1,0.3
					c-17.8-8.6-33-22-41.9-36.7c-2.8-4.6-4.6-8.8-6.2-12.5c-2.9-6.7-4.9-11.1-9.8-12.2c-8.2-1.9-18.8,5.2-25.7,13
					c-6.9,7.8-10.1,16.1-8.3,21.3c1.8,5.1,8.2,6.3,15.6,7.8c9,1.8,20.1,3.9,27,13.9c3.7,5.4,3.9,9.8,4.2,14.5
					c0.3,4.8,0.5,9.8,4.5,16.8c5.1,9,11.7,13.1,17,16.4c4.9,3,8.8,5.4,9.2,10.5c0.4,5-2.8,11-8.7,16.4C691,392,680,398,668,398z"/>
				<path d="M767.7,382.4c-6.5,0-13.6-3.6-17-5.6c-14.6-8.5-19.4-24-27.4-49.7c-1.2-3.8-2.3-7.3-3.2-10.5c-0.1-0.3,0-0.6,0.2-0.8
					c0.2-0.2,0.5-0.2,0.8-0.1c18,8.7,36.5,11.4,50.9,7.3c9.2-2.6,16.1-7.7,22.2-12.2c7.6-5.6,13.7-10.1,20.6-6.8
					c4,1.9,5.9,5.3,7.8,8.8c2.1,3.9,4.3,7.9,9.6,11.1c6.9,4.1,13.6,3.4,19.1,2.8c4.8-0.5,8.9-1,11.4,2.1c2.6,3.2,2.8,9.5,0.6,16.8
					c-3.1,10.2-11.1,21.9-21.8,25.1c-6.7,2-14,0.7-22.6-0.8c-7.1-1.3-15.1-2.7-24-2.3c-3.2,0.1-6.7,0.5-10.3,2.6
					c-3.2,1.8-4.7,3.9-6.1,5.9c-1.2,1.6-2.3,3.1-4.1,4.3C772.5,381.9,770.2,382.4,767.7,382.4z M722,317.8c0.8,2.8,1.7,5.7,2.7,8.8
					c8.5,27.5,13.2,41,26.7,48.9c3.5,2,15.4,8.3,22.3,3.8c1.6-1,2.5-2.4,3.7-3.9c1.5-2.1,3.2-4.4,6.6-6.3c3.8-2.2,7.5-2.6,10.9-2.7
					c9-0.4,17.2,1.1,24.3,2.3c8.4,1.5,15.6,2.8,21.9,0.8c10.2-3.1,17.8-14.3,20.8-24.1c2.1-6.7,1.9-12.6-0.3-15.4
					c-2-2.5-5.6-2.1-10.1-1.6c-5.6,0.6-12.7,1.4-20-3c-5.7-3.4-8.1-7.8-10.2-11.7c-1.9-3.5-3.5-6.5-7.1-8.2
					c-6.1-2.9-11.8,1.3-19.1,6.6c-6.2,4.6-13.2,9.7-22.7,12.4C758.1,328.5,739.8,326.1,722,317.8z"/>
				<path d="M720.8,317.1c-0.3,0-0.6-0.2-0.7-0.5c-5.5-18.3-7-28.5-1.3-36.6c6.3-8.9,17.2-12.6,24.1-11c4.6,1.1,6.9,3.9,9.3,6.9
					c2.1,2.6,4.2,5.3,8.1,7.3c10.5,5.4,25.4,2,32.8-4.6c6.9-6.1,10.2-17.4,9.2-30.9c-1.4-17.8-9.7-34.1-21.2-41.5
					c-13.2-8.5-29.1-4.8-43.2-1.5c-11.8,2.7-22,5.1-26.8-1.3c-5.8-7.7,0.7-21.2,7-34.2c5.7-11.8,11.7-24.1,6.7-29.9
					c-3.5-4.1-10.4-2.3-19.1-0.1c-10.8,2.8-24.3,6.4-37.3-0.4c-9.4-4.9-13.3-12.3-17.2-19.5c-3.9-7.4-7.6-14.3-16.9-17.5
					c-7.8-2.6-13.4-0.5-19.4,1.7c-5.8,2.2-11.9,4.4-20.2,2.3c-11.4-2.9-19.6-12-24.5-19.1c-0.2-0.3-0.1-0.8,0.2-1
					c0.3-0.2,0.8-0.1,1,0.2c4.7,6.9,12.6,15.7,23.6,18.5c7.9,2,13.7-0.1,19.3-2.2c5.9-2.2,12.1-4.5,20.4-1.7
					c9.9,3.3,13.7,10.5,17.8,18.2c3.7,7,7.6,14.3,16.5,18.9c12.5,6.5,25.7,3,36.3,0.3c9.2-2.4,16.5-4.3,20.6,0.5
					c5.5,6.6-0.3,18.7-6.5,31.5c-6.1,12.6-12.4,25.6-7.1,32.6c4.2,5.6,14,3.4,25.3,0.8c13.7-3.1,30.7-7.1,44.4,1.7
					c11.9,7.7,20.5,24.4,21.9,42.6c1.1,14-2.5,25.7-9.7,32.2c-7.8,6.9-23.5,10.5-34.5,4.8c-4.2-2.2-6.6-5.1-8.6-7.7
					c-2.3-2.9-4.3-5.4-8.4-6.4c-8.1-1.9-17.8,3.8-22.5,10.4c-5.4,7.6-3.8,17.4,1.5,35.3c0.1,0.4-0.1,0.8-0.5,0.9
					C720.9,317.1,720.9,317.1,720.8,317.1z"/>
				<path d="M570.8,87C570.8,87,570.7,87,570.8,87c-0.3,0-0.5-0.1-0.6-0.3c-10.4-15.3-14.7-35.2-8.8-41.1c2.5-2.4,6.2-2.1,10.1-1.8
					c4.3,0.3,8.7,0.7,11.7-2.6c2.2-2.4,2.3-5.3,2.4-8.4c0.1-3.4,0.3-6.9,3.2-9.7c4.8-4.5,12.7-3.3,16.5-2.8
					c5.6,0.8,8.9,2.8,11.8,4.6c2.9,1.8,5.5,3.4,10,3.5c3.5,0.1,5.6-0.7,7.6-1.5c2.1-0.9,4.2-1.7,7.6-1c7.9,1.6,13.6,9.2,15.6,15.6
					c3.1,10.1-0.9,22.3-9,27.3c-6.5,4-12.6,1.4-19.6-1.7c-6.3-2.7-13.5-5.8-22.7-5.1c-10.7,0.9-16.3,6.4-24.7,14.8
					c-3,3-6.4,6.3-10.5,10C571.2,87,571,87,570.8,87z M567.7,45.1c-2.1,0-4,0.3-5.3,1.6c-5.3,5.2-1.1,24.1,8.5,38.5
					c3.8-3.4,6.9-6.5,9.8-9.3c8.7-8.6,14.4-14.3,25.6-15.2c9.6-0.8,16.9,2.4,23.4,5.2c7,3,12.5,5.4,18.3,1.8
					c7.4-4.6,11.2-16.3,8.3-25.6c-1.9-6-7.2-13.1-14.5-14.5c-3-0.6-4.7,0.1-6.7,0.9c-2,0.8-4.3,1.7-8.2,1.6
					c-4.9-0.2-7.8-1.9-10.7-3.8c-2.9-1.8-5.8-3.6-11.2-4.4c-3.6-0.5-11-1.6-15.2,2.4c-2.5,2.4-2.7,5.4-2.8,8.6
					c-0.1,3.2-0.2,6.5-2.7,9.3c-3.4,3.9-8.5,3.5-12.9,3.1C570.1,45.2,568.9,45.1,567.7,45.1z"/>
				<path d="M161.7,161.2c-0.1,0-0.1,0-0.2,0c-0.4-0.1-0.6-0.5-0.5-0.9c1.8-5.8,4.6-11.2,8.3-15.7c13.2-16.4,36.9-25,61.8-22.4
					c1.8,0.2,3.6,0.4,5.3,0.6c6,0.8,12.1,1.6,18,0.4c11.7-2.4,16.3-10.6,21.3-19.4c4.1-7.2,8.2-14.6,16.6-19
					c12.6-6.7,24.4-1.8,36.8,3.3c12.6,5.1,25.5,10.5,41.1,5.5c12.6-4.1,18.2-12.8,23.6-21.2c5.4-8.4,10.4-16.4,22-18.1
					c27.2-3.9,57,31.3,60.3,35.3c5.3,6.5,8.4,11.9,10.9,16.2c3.6,6.2,6,10.4,12.3,12.8c15,5.7,32.8-5.7,50.1-16.8
					c7.7-4.9,14.6-10.1,21.1-15.9c0.3-0.3,0.8-0.2,1.1,0.1s0.2,0.8-0.1,1.1c-6.6,5.8-13.5,11.1-21.2,16c-17.6,11.3-35.8,23-51.4,17
					c-6.7-2.6-9.2-6.9-13-13.4c-2.5-4.3-5.5-9.6-10.8-16c-3.3-4-32.6-38.6-59-34.8c-10.9,1.6-15.5,8.9-20.9,17.4
					c-5.3,8.3-11.2,17.6-24.4,21.8c-16.1,5.2-29.9-0.5-42.1-5.5c-12.2-5-23.6-9.7-35.6-3.4c-8,4.2-12,11.4-16,18.4
					c-4.9,8.6-9.9,17.6-22.3,20.1c-6.1,1.3-12.4,0.4-18.5-0.4c-1.7-0.2-3.5-0.5-5.3-0.6c-24.4-2.5-47.5,5.8-60.5,21.9
					c-3.5,4.3-6.3,9.6-8,15.2C162.3,161,162,161.2,161.7,161.2z"/>
				<path d="M592.3,242.7c-0.1,0-0.1,0-0.2,0c-20.1,0-38.8-8.1-57.7-17.1l-2.9-1.4c-17.1-8.1-34.7-16.5-53.5-18.4
					c-25-2.5-49.3,6.6-72.8,15.5c-18.8,7.1-38.2,14.4-58.2,16c-22.3,1.8-44.4-3.6-65.8-8.8c-15.6-3.8-31.7-7.6-47.7-8.8
					c-4.1-0.3-8.4-0.4-12.5-0.6c-17.5-0.6-35.6-1.2-48.8-12.4c-12.1-10.3-16.6-29-11.2-46.6c0.1-0.4,0.5-0.6,0.9-0.5l57,14.5
					c15.7,4,33.4,8.5,50.2,4c14.3-3.8,25.9-13.6,37.2-23.1c6.2-5.3,12.7-10.7,19.6-15.1c24.9-16,57.5-19.3,85.1-8.6
					c10.8,4.2,20.9,10.4,30.7,16.4c14.8,9.1,30.2,18.5,47.5,20.5c18.2,2.1,36.5-4.3,54.2-10.4c20.2-7,41.1-14.3,61.7-8.7
					c16.8,4.6,31.2,18.3,36.5,34.9c3.2,9.9,3.2,20.1,0,28.9C634,233.4,610.8,242.7,592.3,242.7z M469.4,203.9c2.9,0,5.8,0.1,8.7,0.4
					c19.1,1.9,36.8,10.4,54,18.5l2.9,1.4c18.8,8.9,37.3,16.9,57.1,16.9c0.1,0,0.1,0,0.2,0c17.9,0,40.5-9,47.7-28.7
					c3.1-8.5,3.1-18.4,0-27.9c-5.2-16.1-19.1-29.4-35.5-33.9c-20.1-5.5-39.9,1.4-60.8,8.7c-17.8,6.2-36.3,12.6-54.8,10.5
					c-17.7-2-33.1-11.6-48.1-20.8c-9.7-6-19.8-12.2-30.4-16.3c-27.2-10.6-59.2-7.3-83.7,8.5c-6.8,4.4-13.2,9.8-19.4,15
					c-11.4,9.6-23.2,19.5-37.8,23.4c-17.1,4.5-35.1,0-50.9-4l-56.3-14.3c-5,16.8-0.6,34.5,10.9,44.3c12.8,10.8,30.6,11.5,47.8,12.1
					c4.1,0.1,8.4,0.3,12.6,0.6c16.2,1.2,32.4,5.1,48,8.8c21.3,5.1,43.3,10.5,65.4,8.7c19.8-1.6,39.1-8.9,57.8-15.9
					C425.6,212.1,447.2,203.9,469.4,203.9z"/>
				<path d="M204.6,509.4c-0.2,0-0.4-0.1-0.5-0.2c-13-11.5-20.3-23.6-21.1-35.3c-0.3-3.7,0.2-7.3,0.6-10.8
					c0.8-6.6,1.4-12.2-2.7-16.9c-4.3-4.9-10.6-4.7-17.2-4.4c-6.1,0.2-12.4,0.5-18-3.1c-10.6-6.7-16.8-26.7-15.2-48.6
					c1.6-20.8,9.6-36.4,21.4-41.5c17.8-7.8,43.1,7.9,55.4,21.4c7.3,8.1,9.7,14.6,11.9,21c2.2,6.2,4.3,12,11,18.6
					c14.1,14,36.5,19.5,51.3,17.7c6.5-0.8,11.1-2.9,13-6c3.1-5-1.5-12.1-6.2-19.5c-5.4-8.4-11.5-17.9-7.6-26.3
					c7.2-15.6,43-14,63.9-9.3c26.7,6,42,15.1,43.1,25.6c1,9-8.2,16.1-17.1,22.9c-8.2,6.3-15.9,12.3-14.5,18.9
					c1.6,7.5,14.6,12.6,25.1,12c20.5-1,34.5-24,39.5-37.4c5.3-14.1,4.3-25.5,3.4-34.7c-0.8-8.8-1.4-15.8,4.2-20.7
					c7.1-6.1,17.8-3.4,28.1-0.9c10.6,2.7,20.5,5.2,27-0.9c7.3-6.9,6.6-21.5,1.1-30c-9.1-13.9-32.3-12.1-44.8-11.1
					c-22.7,1.8-32.7,6.5-50.8,15.1c-4.3,2-9.2,4.4-14.7,6.9c-28.4,12.9-50.6,14.8-68,5.8c-12.5-6.5-21.4-18.5-30-30.1
					c-10.7-14.4-20.8-28-37.3-31.6c-9.6-2.1-19.5-0.1-29.1,1.9c-3.6,0.7-7.3,1.5-10.9,2c-20.7,3-42.7-1.4-62.1-12.6
					s-34.3-27.9-42.1-47.3c-7.5-18.6-7.9-43.2,7.9-56.5c15.1-12.7,37.1-9.4,58.6-3.9l0.6,0.1c0.4,0.1,0.6,0.5,0.5,0.9
					c-0.1,0.4-0.5,0.6-0.9,0.5l-0.6-0.1c-21.1-5.4-42.7-8.6-57.3,3.6c-15.2,12.8-14.7,36.8-7.5,54.8c7.7,19.1,22.4,35.6,41.4,46.6
					s40.8,15.4,61.1,12.4c3.6-0.5,7.3-1.3,10.8-2c9.8-2,19.9-4,29.8-1.9c17,3.7,27.7,18.2,38.1,32.2c8.5,11.4,17.3,23.3,29.5,29.6
					c16.9,8.8,38.7,6.9,66.6-5.8c5.6-2.5,10.4-4.8,14.7-6.9c18.3-8.7,28.3-13.5,51.3-15.3c12.8-1,36.6-2.9,46.2,11.7
					c5.9,8.9,6.5,24.4-1.3,31.9c-7,6.7-17.9,3.9-28.4,1.3c-9.9-2.5-20.2-5.1-26.7,0.5c-5.1,4.4-4.5,10.7-3.7,19.4
					c0.8,9.4,1.9,21-3.5,35.4c-5.2,13.7-19.6,37.3-40.9,38.4c-13.8,0.7-25.1-6.4-26.6-13.2c-1.6-7.5,6.5-13.8,15.1-20.4
					c8.5-6.6,17.4-13.5,16.5-21.6c-1.1-9.8-16-18.4-42-24.3c-22-4.9-55.8-5.6-62.3,8.4c-3.5,7.7,2.1,16.5,7.5,24.9
					c5,7.9,9.8,15.3,6.3,21.1c-2.1,3.5-7.2,5.9-14.1,6.7c-15.2,1.8-38.1-3.8-52.5-18.1c-6.9-6.9-9.1-12.9-11.4-19.2
					c-2.2-6.2-4.5-12.6-11.6-20.5c-12-13.2-36.6-28.5-53.7-21.1c-11.3,4.9-19,20-20.5,40.3c-1.6,21.4,4.3,40.8,14.5,47.2
					c5.2,3.3,11.3,3.1,17.2,2.8c7-0.3,13.6-0.5,18.4,4.9c4.6,5.1,3.8,11.4,3,18.1c-0.4,3.4-0.8,6.9-0.6,10.5
					c0.8,11.2,7.9,23,20.6,34.2c0.3,0.3,0.3,0.7,0.1,1.1C205,509.3,204.8,509.4,204.6,509.4z"/>
				<path d="M433.8,615.2c-10.3,0-21.1-3.2-30.3-9.4c-5.9-4-11.6-9.2-17-14.2c-12.8-11.8-24.9-22.9-40.5-20.2
					c-7,1.2-13.1,5.3-19.1,9.2c-1.2,0.8-2.3,1.5-3.5,2.3c-24.5,15.7-53.9,22.8-82.8,20.1c-13.9-1.3-27.9-6.1-38.4-13.3
					c-12.2-8.3-19.4-19.2-20.8-31.6c-1.2-11,2.5-19.7,6.4-27.6c3.9-7.9,9.5-15.7,16.3-22.5c0.3-0.3,0.7-0.3,1,0
					c21.9,19.3,56.1,32.7,87.2,34.1c18.6,0.9,27.3-1.6,39.3-5c10.6-3,23.8-6.8,48.6-9.8c49-6,73.5,11.5,83.8,22.4
					c5.1,5.5,8.6,11.2,10.4,17.1c4.9,16.3-4.5,36-20.9,44C447.5,613.8,440.7,615.2,433.8,615.2z M350.6,569.5
					c14.1,0,25.7,10.7,36.9,21c5.4,5,11,10.1,16.8,14.1c15,10.1,34,12,48.6,4.9c15.7-7.7,24.8-26.6,20.1-42.2
					c-1.7-5.6-5.1-11.2-10-16.5c-10.1-10.8-34.2-27.9-82.6-22c-24.7,3.1-37.9,6.8-48.4,9.8c-12.1,3.5-20.9,5.9-39.8,5.1
					c-31.1-1.5-65.4-14.8-87.6-34c-6.5,6.6-11.8,14.1-15.5,21.6c-3.8,7.7-7.4,16.1-6.2,26.8c2.8,25.3,31.2,41,57.8,43.5
					c28.6,2.7,57.7-4.4,81.9-19.9c1.2-0.7,2.3-1.5,3.5-2.3c6.1-4,12.4-8.2,19.6-9.4C347.4,569.7,349,569.5,350.6,569.5z"/>
				<path d="M204.6,509.4c-0.2,0-0.4-0.1-0.5-0.2c-0.3-0.3-0.3-0.8,0-1.1c20.7-20.9,47.8-30.4,67.5-23.8c7.5,2.5,12.4,6.7,16.7,10.4
					c4.8,4.2,8.7,7.5,14.2,6.3c6.3-1.3,8.6-7,11.2-13.6c2.4-6.1,5.2-12.9,11.8-16.7c11.8-6.7,25.5,1.8,41.3,11.6
					c16.7,10.4,35.7,22.1,56,17.2c10.4-2.5,16-8.1,22-13.9c6.8-6.7,13.8-13.7,28.4-15.8c13.5-2,24.3,1.6,32.2,4.2
					c6.6,2.2,11.4,3.7,14.2,1c5-5-2-18.3-9.4-32.3c-9.1-17.2-18.5-35.1-10.7-44.9c4.7-6,15.3-8.5,29.8-7
					c13.2,1.3,27.9,5.9,39.4,12.2c3.3,1.8,6.4,3.8,9.3,6c0.3,0.2,0.4,0.7,0.2,1c-0.2,0.3-0.7,0.4-1,0.2c-2.9-2.1-5.9-4.1-9.2-5.8
					c-22.6-12.5-57.7-17.8-67.2-5.6c-7.2,9.1,2.4,27.2,10.9,43.3c8,15.1,14.9,28.2,9.1,34c-3.4,3.4-8.6,1.7-15.7-0.6
					c-7.8-2.5-18.4-6-31.5-4.1c-14.1,2.1-20.9,8.8-27.5,15.4c-5.8,5.8-11.9,11.7-22.7,14.3c-20.9,5-40.1-6.9-57.1-17.4
					c-15.4-9.5-28.7-17.8-39.7-11.6c-6.2,3.5-8.7,9.8-11.2,15.9c-2.7,6.7-5.2,13.1-12.3,14.6c-6.2,1.3-10.5-2.4-15.5-6.6
					c-4.2-3.6-9-7.7-16.2-10.1c-19.2-6.4-45.7,3-66,23.5C205,509.3,204.8,509.4,204.6,509.4z"/>
			</g>
		</g>
		<g id="floor_line">
			<path d="M593.6,749.9h-31.4c-0.4,0-0.8-0.3-0.8-0.8s0.3-0.8,0.8-0.8h31.4c0.4,0,0.8,0.3,0.8,0.8S594,749.9,593.6,749.9z"/>
			<path d="M839.6,749.9h-69.7c-0.4,0-0.8-0.3-0.8-0.8s0.3-0.8,0.8-0.8h69.7c0.4,0,0.8,0.3,0.8,0.8S840,749.9,839.6,749.9z"/>
			<path d="M263.9,750.3c-0.4,0-0.7-0.3-0.8-0.7c0-0.4,0.3-0.8,0.7-0.8l223.5-0.5c0,0,0,0,0,0c0.4,0,0.7,0.3,0.8,0.7
				c0,0.4-0.3,0.8-0.7,0.8L263.9,750.3C263.9,750.3,263.9,750.3,263.9,750.3z"/>
		</g>
		<g id="man">
			<path id="shoe" d="M493.6,773.8c-1.9,7.7-3.8,15.4-5.8,23c-33.3-14-61.9-9.6-69.7,4.5c-1.4,2.5-4.4,9.5,0.2,22.5
				c41.7-0.7,83.5-1.3,125.2-2c0-14.3,0-28.7,0-43C526.9,777.1,510.2,775.5,493.6,773.8z"/>
			<g id="hand">
				<path d="M638.1,441.2c-0.3,0-0.5-0.2-0.7-0.4c-0.7-1.5-1.6-3.1-2.5-4.6c-0.1-0.2-0.5-0.8-1-1.6c-6.1-9.5-11.8-14.7-15.4-13.8
					c-0.2,0-1.1,0.3-1.8,1.2c-0.6,0.8-0.9,1.9-0.7,3.3l0.1,0.5c0,0.2,0.1,0.3,0.1,0.5c0.1,0.4-0.1,0.8-0.5,0.9
					c-0.4,0.1-0.8-0.1-0.9-0.5c-0.1-0.2-0.1-0.4-0.1-0.7l-0.1-0.5c-0.2-1.8,0.2-3.3,1.1-4.4c1-1.2,2.3-1.6,2.6-1.7
					c5.8-1.5,13.2,8.4,17,14.5c0.5,0.8,0.9,1.4,1,1.6c1,1.6,1.8,3.2,2.6,4.8c0.2,0.4,0,0.8-0.3,1
					C638.3,441.2,638.2,441.2,638.1,441.2z"/>
				<path d="M638.9,440.6c-7.9-5-15.8-9.9-23.6-14.9c-0.2-0.2-0.4-0.3-0.5-0.5c0.2,0,0.3,0,0.5,0l19.3,8.9c0.3,0.5,0.7,1.1,1,1.6
					C636.6,437.5,637.7,439.1,638.9,440.6z"/>
				<path d="M616.5,463.2C616.5,463.2,616.5,463.2,616.5,463.2c-0.7,0-7.1-0.3-10.6-6c-2.4-3.9-2.6-8.8-0.4-12.9
					c0.2-0.4,0.6-0.5,1-0.3c0.4,0.2,0.5,0.7,0.3,1c-2,3.6-1.8,8,0.3,11.4c3.2,5.1,9.1,5.3,9.4,5.3c0.4,0,0.7,0.4,0.7,0.8
					C617.2,462.9,616.9,463.2,616.5,463.2z"/>
				<path d="M615.3,473.6c-0.1,0-0.2,0-0.2,0c-0.6-0.2-5.6-2-7-7.1c-0.9-3.1,0-5.7,0.6-7c0.2-0.4,0.6-0.5,1-0.4
					c0.4,0.2,0.5,0.6,0.4,1c-0.5,1.1-1.2,3.4-0.5,6c1.2,4.4,5.6,5.9,6,6.1c0.4,0.1,0.6,0.6,0.5,0.9
					C615.9,473.4,615.6,473.6,615.3,473.6z"/>
				<path d="M620.1,487.5c-0.1,0-0.3,0-0.4-0.1c-1.6-1-3.2-2.2-4.6-3.5c-1.4-1.3-2.8-2.6-3.9-4.3c-2-3.3-1.7-7.1-1.2-9.7
					c0.1-0.4,0.5-0.7,0.9-0.6c0.4,0.1,0.7,0.5,0.6,0.9c-0.5,2.3-0.7,5.7,1,8.7c0.9,1.5,2.2,2.7,3.6,4c1.3,1.2,2.8,2.3,4.3,3.3
					c0.4,0.2,0.5,0.7,0.2,1C620.6,487.3,620.3,487.5,620.1,487.5z"/>
				<path d="M661.9,496.1C661.9,496.1,661.9,496.1,661.9,496.1c-0.4,0-0.8-0.3-0.8-0.8c0-7.6-1.2-15-3.6-22
					c-0.6-1.8-1.4-3.6-2.1-5.4c-0.2-0.4,0-0.8,0.4-1c0.4-0.2,0.8,0,1,0.4c0.8,1.8,1.5,3.6,2.2,5.5c2.5,7.1,3.7,14.7,3.7,22.5
					C662.7,495.8,662.3,496.1,661.9,496.1z"/>
				<path d="M618.9,449.4c-0.1,0-0.2,0-0.2,0c-5.3-1.7-10.4-3.7-15.2-6.1c-5.5-2.7-8.6-4.8-9.2-8c-0.2-1.3,0-2.6,0.6-4
					c0.2-0.3,0.3-0.5,0.5-0.7c0.2-0.2,0.5-0.4,0.7-0.6c0.4-0.2,0.8-0.1,1,0.3c0.2,0.4,0.1,0.8-0.3,1c-0.2,0.1-0.3,0.2-0.4,0.3
					c-0.1,0.1-0.2,0.2-0.3,0.4c-0.5,1.1-0.7,2.1-0.5,3.1c0.4,2.3,2.5,4.1,8.3,6.9c4.8,2.3,9.8,4.3,15,6c0.4,0.1,0.6,0.5,0.5,0.9
					C619.5,449.2,619.2,449.4,618.9,449.4z"/>
			</g>
			<g id="head">
				<path d="M769.1,502.4c-0.4,0-0.7-0.3-0.7-0.7c-0.5-5.4-1.1-10.9-1.6-16.3c0-0.4,0.3-0.8,0.7-0.8c0.4-0.1,0.8,0.3,0.8,0.7
					c0.5,5.4,1.1,10.9,1.6,16.3C769.9,502,769.6,502.3,769.1,502.4C769.2,502.4,769.1,502.4,769.1,502.4z M735.1,502.4
					c-0.4,0-0.7-0.3-0.8-0.7l-0.1-3.9c-8.2,0-15.2-3.2-20-8.9c-4.8-5.7-6.5-13.3-5-21.4c1.5-8,6.1-15.5,12.9-21.2
					c1.8-1.5,3.6-2.8,5.5-3.8c13.5-7.8,29.4-6.2,37.8,3.9c4.4,5.3,6.3,12.3,5.3,19.8c0,0.2-0.1,0.4-0.1,0.6
					c-0.1,0.4-0.5,0.7-0.9,0.6c-0.4-0.1-0.7-0.5-0.6-0.9c0-0.2,0.1-0.3,0.1-0.5c0.9-7.1-0.8-13.7-5-18.6c-7.9-9.5-23-11.1-35.9-3.6
					c-1.8,1-3.6,2.3-5.3,3.7c-6.5,5.4-10.9,12.6-12.4,20.3c-1.4,7.6,0.3,14.8,4.7,20.2c4.6,5.5,11.5,8.5,19.5,8.3
					c0.4,0,0.7,0.2,0.7,0.6c0,0.1,0,0.1,0,0.2l0.1,4.6C735.8,502,735.5,502.4,735.1,502.4C735.1,502.4,735.1,502.4,735.1,502.4z"/>
				<path d="M769.8,486.4c-0.8,0-1.7-0.1-2.5-0.3c-0.4-0.1-0.6-0.5-0.5-0.9c0.1-0.4,0.5-0.6,0.9-0.5c0.7,0.2,1.4,0.3,2.1,0.3
					c4.8,0,8.8-3.9,8.8-8.8s-3.9-8.8-8.8-8.8c-0.4,0-1.4,0-2.6,0.4c-3.5,1.2-5.2,4.4-5.8,5.7c-0.2,0.4-0.6,0.6-1,0.4
					c-0.4-0.2-0.6-0.6-0.4-1c0.6-1.5,2.6-5.2,6.7-6.6c1.5-0.5,2.6-0.5,3-0.5c5.7,0,10.3,4.6,10.3,10.2S775.5,486.4,769.8,486.4z"/>
				<path d="M770.1,466.6c-0.4,0-0.8,0-1.4,0c-0.2,0-0.8,0.1-1.7,0.4c-0.4,0.1-1.6,0.6-2.9,1.6c-1.7,1.3-2.8,2.8-3.4,3.9
					c-2.6-6.8-5.3-13.6-7.9-20.4l-24.9-9c13.6-7.6,29.1-5.4,36.9,3.8C771.2,454.3,770.3,464.1,770.1,466.6z"/>
				<path d="M735.2,500.5c1.9-0.2,4-0.7,6.2-1.4c9.2-3,15-9.3,17.9-13c-2.1,1.8-4.8,3.7-8.2,5.4c-6.4,3.3-12.3,4.3-16.3,4.7
					C734.9,497.7,735.1,499.1,735.2,500.5z"/>
			</g>
			<g id="legs">
				<path d="M667.2,651.8c-38.7,19-53.5,10.8-58,7.4c-28.2-21-6-103.4-3.3-113.3C634.7,568.7,654.8,614.6,667.2,651.8z"/>
				<path d="M678.5,828.2c-8.6,0-28.3-1.6-46.9-14.2c-18.5-12.6-30.1-32-38.8-64.6c-5-19-8.9-41.6-13.2-69.6l-0.3-2.2c0,0,0,0,0,0
					c-0.9-6.1-1.9-12.4-2.8-18.9l-0.2-1.1c-1.3-8.5-2.4-17-3.5-26.1c-0.4-3.6-0.8-6.7-1.1-9.5c0-0.4,0.3-0.8,0.7-0.8
					c0.4,0,0.8,0.3,0.8,0.7c0.3,2.7,0.6,5.9,1,9.4c1.1,9,2.2,17.5,3.4,26l0.2,1.1c1,6.5,1.9,12.8,2.8,18.9c0,0,0,0,0,0l0.3,2.2
					c4.3,28,8.2,50.6,13.2,69.5c8.6,32.3,20,51.4,38.2,63.8c21.7,14.8,45.1,14.1,49.5,13.9c19.4-1.3,37.4-10.1,53.5-26.3
					c12.3-12.4,19.1-24.9,20.4-27.2c0.2-0.4,0.6-0.5,1-0.3c0.4,0.2,0.5,0.6,0.3,1c-2.7,5.2-28.2,51.2-75.1,54.3
					C681.4,828.1,680.1,828.2,678.5,828.2z"/>
				<path d="M554.6,780.6C554.5,780.6,554.5,780.6,554.6,780.6l-70.1-7c-0.2,0-0.4-0.1-0.5-0.3c-0.1-0.2-0.2-0.4-0.2-0.6
					c0.8-8,1.8-16,2.8-23.7c2.9-22.5,6.7-45.2,11.2-67.4c14.9-73,29-142,66.1-150.1c7.1-1.6,15.3-0.5,24.4,3
					c6.1,2.4,12.2,6,18.1,10.6c0.3,0.3,0.4,0.7,0.1,1.1c-0.3,0.3-0.7,0.4-1.1,0.1c-5.7-4.5-11.7-8-17.7-10.4
					c-8.8-3.5-16.7-4.5-23.6-3c-16.2,3.5-28.9,19.1-39.9,49c-9.6,25.9-16.7,59.2-25,99.9c-4.5,22.1-8.3,44.7-11.2,67.2
					c-1,7.5-1.9,15.2-2.7,22.9L554,779l2.9-11.8c1.5-6.1,3-12.2,4.6-18.3l17.9-71.8c0.1-0.3,0.4-0.6,0.7-0.6c0.4,0,0.8,0.3,0.8,0.7
					v0c0,0.1,0,0.1,0,0.2l-17.9,71.8c-1.5,6.1-3,12.2-4.6,18.3l-3.1,12.4C555.2,780.3,554.9,780.6,554.6,780.6z"/>
				<path d="M680.1,780.7c-0.9,0-1.7,0-2.5-0.1c-3.5-0.3-10.7-1.4-18.6-6.1c-8.8-5.2-16.1-13.4-22.5-24.9
					c-16.7-30.3-23.5-80.2-29.4-124.2l-0.3-2.3c-2.7-20-6-44.9-22.4-52.2c-0.1,0-7.2-3.1-15.7-1.5c-27.7,5.2-42.4,114.9-48.7,179.8
					c-0.9,8.9-1.7,17.9-2.4,26.9c0,0.4-0.4,0.7-0.8,0.7c-0.4,0-0.7-0.4-0.7-0.8c0.7-9,1.6-18.1,2.4-26.9
					c7.8-79.8,22.7-176,49.9-181.2c9-1.7,16.2,1.4,16.5,1.6c17.2,7.6,20.6,33,23.3,53.4l0.3,2.3c5.9,43.9,12.6,93.6,29.2,123.7
					c6.2,11.3,13.4,19.3,22,24.4c7.7,4.6,14.6,5.7,18,5.9c23.7,1.7,43.2-20.7,50.5-30.4c0.1-0.2,0.3-0.4,0.4-0.5l0.2-0.3
					c0.2-0.3,0.7-0.4,1.1-0.1c0.3,0.2,0.4,0.7,0.1,1.1l-0.2,0.2c-0.1,0.2-0.3,0.3-0.4,0.5C709.6,776,690.8,780.7,680.1,780.7z"/>
				<path d="M692,778.6c-0.3,0-0.5-0.2-0.7-0.4c-5.1-10.4-7.7-20.2-7.9-29c-0.2-11,3.5-18.7,6.6-23.2c3.4-4.9,6.9-7.1,7.1-7.2
					c0.4-0.2,0.8-0.1,1,0.2c0.2,0.3,0.1,0.8-0.2,1c-0.1,0.1-13.4,8.8-13,29.1c0.2,8.6,2.8,18.2,7.7,28.4c0.2,0.4,0,0.8-0.3,1
					C692.2,778.5,692.1,778.6,692,778.6z"/>
				<path d="M580.4,679.5c-0.1-0.7-0.2-1.5-0.3-2.2c-6,23.9-11.9,47.9-17.9,71.8c-2.5,10.2-5.1,20.5-7.6,30.7
					c-3.7-0.4-7.3-0.7-11-1.1l6-29.6l24-117.8L580.4,679.5z"/>
			</g>
			<g id="sweater">
				<path class="st1" d="M769.9,749.1c-5.5,15-9.6,24.9-10.4,26.7c0,0-0.1-0.1-0.1-0.1c-9.7-8.9-19.5-17.7-29.2-26.6
					c-0.3-0.3-0.6-0.5-0.8-0.8c-10.6-9.7-21.2-19.3-31.8-29c-5.2-4.7-10.3-9.4-15.5-14.1c-4.9-17.8-9.9-35.7-14.8-53.5
					c-4.7-14-10.4-29.3-17.4-44.1c-6.7-14.4-14.6-28.4-23.5-40.4c-6.2-8.3-13-15.6-20.4-21.5c2.8-11.4,5.6-22.8,8.3-34.4
					c0.9-3.9,1.9-7.8,2.8-11.7c1-4.3,2-8.7,3.1-13c6.7,0.9,13.8,2.1,21.2,3.6c7.5,1.6,14.6,3.3,21.2,5.1
					c-1.5,10.6-4.6,33.5-9.1,64.9c-2.8,19.7-3.8,26.7-0.9,28.2c4.9,2.4,14.2-13.2,27.7-31.4c12.6-17,28.9-36.2,48.7-45.2v-10.4h48
					v11h0c3.9,1.8,7.1,3.8,9.4,5.6c13,9.8,19.3,26.8,21.3,47.5C812.9,622.1,785.6,706.4,769.9,749.1z"/>
				<path d="M682.1,706.1c-0.3,0-0.7-0.2-0.7-0.6c-2.6-11.7-7.1-30.1-14-51.1l-0.8-2.4c-0.1-0.3,0-0.7,0.4-0.9
					c13.8-7.1,26.8-15.7,38.8-25.6c13.7-11.3,26-24.2,36.7-38.5c0.2-0.3,0.7-0.4,1-0.2c0.3,0.2,0.4,0.7,0.2,1
					c-10.7,14.4-23.1,27.4-36.9,38.8c-11.9,9.8-24.8,18.3-38.5,25.4l0.6,1.8c6.9,21.1,11.5,39.5,14.1,51.3c0.1,0.4-0.2,0.8-0.6,0.9
					C682.2,706.1,682.1,706.1,682.1,706.1z"/>
				<g id="pattern">
					<path d="M712.2,538.6c-0.2,0-0.4-0.1-0.6-0.3c-0.3-0.3-0.2-0.8,0.1-1.1l12.5-10.2c0.3-0.3,0.8-0.2,1.1,0.1
						c0.3,0.3,0.2,0.8-0.1,1.1l-12.5,10.2C712.5,538.6,712.3,538.6,712.2,538.6z"/>
					<path d="M743.6,528.4c-0.3,0-0.6-0.2-0.7-0.5l-4.8-12.1c-0.2-0.4,0-0.8,0.4-1c0.4-0.2,0.8,0,1,0.4l4.8,12.1
						c0.2,0.4,0,0.8-0.4,1C743.8,528.4,743.7,528.4,743.6,528.4z"/>
					<path d="M750.4,645.6c-0.3,0-0.6-0.2-0.7-0.5l-4.8-12.1c-0.2-0.4,0-0.8,0.4-1c0.4-0.2,0.8,0,1,0.4l4.8,12.1
						c0.2,0.4,0,0.8-0.4,1C750.6,645.6,750.5,645.6,750.4,645.6z"/>
					<path d="M765.3,729.7c-0.3,0-0.6-0.2-0.7-0.5l-4.8-12.1c-0.2-0.4,0-0.8,0.4-1c0.4-0.2,0.8,0,1,0.4l4.8,12.1
						c0.2,0.4,0,0.8-0.4,1C765.5,729.7,765.4,729.7,765.3,729.7z"/>
					<path d="M699.3,635.1c-0.3,0-0.6-0.2-0.7-0.5l-4.8-12.1c-0.2-0.4,0-0.8,0.4-1c0.4-0.2,0.8,0,1,0.4l4.8,12.1
						c0.2,0.4,0,0.8-0.4,1C699.5,635.1,699.4,635.1,699.3,635.1z"/>
					<path d="M789.3,627.4c-0.3,0-0.6-0.2-0.7-0.5l-4.8-12.1c-0.2-0.4,0-0.8,0.4-1c0.4-0.2,0.8,0,1,0.4l4.8,12.1
						c0.2,0.4,0,0.8-0.4,1C789.5,627.4,789.4,627.4,789.3,627.4z"/>
					<path d="M754,615.3c-0.3,0-0.6-0.2-0.7-0.5l-4.8-12.1c-0.2-0.4,0-0.8,0.4-1c0.4-0.2,0.8,0,1,0.4l4.8,12.1c0.2,0.4,0,0.8-0.4,1
						C754.2,615.3,754.1,615.3,754,615.3z"/>
					<path d="M751.6,681c-0.3,0-0.6-0.2-0.7-0.5l-4.8-12.1c-0.2-0.4,0-0.8,0.4-1c0.4-0.2,0.8,0,1,0.4l4.8,12.1c0.2,0.4,0,0.8-0.4,1
						C751.8,681,751.7,681,751.6,681z"/>
					<path d="M794.1,584.5c-0.3,0-0.6-0.2-0.7-0.5l-4.8-12.1c-0.2-0.4,0-0.8,0.4-1c0.4-0.2,0.8,0,1,0.4l4.8,12.1
						c0.2,0.4,0,0.8-0.4,1C794.3,584.5,794.2,584.5,794.1,584.5z"/>
					<path d="M751.6,549.6c-0.2,0-0.4-0.1-0.5-0.2c-0.3-0.3-0.3-0.8,0-1.1l10.1-11c0.3-0.3,0.8-0.3,1.1,0c0.3,0.3,0.3,0.8,0,1.1
						l-10.1,11C752,549.5,751.8,549.6,751.6,549.6z"/>
					<path d="M639,555.1c-0.2,0-0.4-0.1-0.5-0.2c-0.3-0.3-0.3-0.8,0-1.1l10.1-11c0.3-0.3,0.8-0.3,1.1,0c0.3,0.3,0.3,0.8,0,1.1
						l-10.1,11C639.4,555,639.2,555.1,639,555.1z"/>
					<path d="M647.5,611c-0.2,0-0.4-0.1-0.5-0.2c-0.3-0.3-0.3-0.8,0-1.1l6.6-7.2c0.3-0.3,0.8-0.3,1.1,0c0.3,0.3,0.3,0.8,0,1.1
						l-6.6,7.2C647.9,610.9,647.7,611,647.5,611z"/>
					<path d="M725.1,597.2c-0.2,0-0.4-0.1-0.5-0.2c-0.3-0.3-0.3-0.8,0-1.1l10.1-11c0.3-0.3,0.8-0.3,1.1,0c0.3,0.3,0.3,0.8,0,1.1
						l-10.1,11C725.5,597.1,725.3,597.2,725.1,597.2z"/>
					<path d="M707.1,717.1c-0.2,0-0.4-0.1-0.5-0.2c-0.3-0.3-0.3-0.8,0-1.1l10.1-11c0.3-0.3,0.8-0.3,1.1,0c0.3,0.3,0.3,0.8,0,1.1
						l-10.1,11C707.5,717,707.3,717.1,707.1,717.1z"/>
					<path d="M699.5,605.3c-0.2,0-0.4-0.1-0.5-0.2c-0.3-0.3-0.3-0.8,0-1.1l10.1-11c0.3-0.3,0.8-0.3,1.1,0c0.3,0.3,0.3,0.8,0,1.1
						l-10.1,11C700,605.2,699.8,605.3,699.5,605.3z"/>
					<path d="M672.1,651.1c-0.2,0-0.4-0.1-0.5-0.2c-0.3-0.3-0.3-0.8,0-1.1l10.1-11c0.3-0.3,0.8-0.3,1.1,0c0.3,0.3,0.3,0.8,0,1.1
						l-10.1,11C672.5,651.1,672.3,651.1,672.1,651.1z"/>
					<path d="M672.1,617.6c-0.2,0-0.4-0.1-0.5-0.2c-0.3-0.3-0.3-0.8,0-1.1l10.1-11c0.3-0.3,0.8-0.3,1.1,0c0.3,0.3,0.3,0.8,0,1.1
						l-10.1,11C672.5,617.6,672.3,617.6,672.1,617.6z"/>
					<path d="M623.6,571.1c-0.2,0-0.4-0.1-0.5-0.2c-0.3-0.3-0.3-0.8,0-1.1l3.8-4.1c0.3-0.3,0.8-0.3,1.1,0c0.3,0.3,0.3,0.8,0,1.1
						l-3.8,4.1C624,571,623.8,571.1,623.6,571.1z"/>
					<path d="M794.1,543.7c-0.2,0-0.3-0.1-0.5-0.2l-12.5-10.2c-0.3-0.3-0.4-0.7-0.1-1.1c0.3-0.3,0.7-0.4,1.1-0.1l12.5,10.2
						c0.3,0.3,0.4,0.7,0.1,1.1C794.5,543.6,794.3,543.7,794.1,543.7z"/>
					<path d="M725.4,561.7c-0.1,0-0.2,0-0.3-0.1c-0.4-0.2-0.6-0.6-0.4-1l4.8-12.1c0.2-0.4,0.6-0.6,1-0.4c0.4,0.2,0.6,0.6,0.4,1
						l-4.8,12.1C726,561.5,725.7,561.7,725.4,561.7z"/>
					<path d="M751.6,761.9c-0.1,0-0.2,0-0.3-0.1c-0.4-0.2-0.6-0.6-0.4-1l4.8-12.1c0.2-0.4,0.6-0.6,1-0.4c0.4,0.2,0.6,0.6,0.4,1
						l-4.8,12.1C752.2,761.8,751.9,761.9,751.6,761.9z"/>
					<path d="M677.1,592.2c-0.1,0-0.2,0-0.3-0.1c-0.4-0.2-0.6-0.6-0.4-1l4.8-12.1c0.2-0.4,0.6-0.6,1-0.4c0.4,0.2,0.6,0.6,0.4,1
						l-4.8,12.1C677.7,592.1,677.4,592.2,677.1,592.2z"/>
					<path d="M705.9,576.7c-0.1,0-0.2,0-0.3-0.1c-0.4-0.2-0.6-0.6-0.4-1l4.8-12.1c0.2-0.4,0.6-0.6,1-0.4c0.4,0.2,0.6,0.6,0.4,1
						l-4.8,12.1C706.5,576.5,706.2,576.7,705.9,576.7z"/>
					<path d="M628.3,528.4c-0.1,0-0.2,0-0.3-0.1c-0.4-0.2-0.6-0.6-0.4-1l4.8-12.1c0.2-0.4,0.6-0.6,1-0.4c0.4,0.2,0.6,0.6,0.4,1
						L629,528C628.9,528.3,628.6,528.4,628.3,528.4z"/>
					<path d="M695.4,556c-0.4,0-0.7-0.3-0.7-0.7l-1.5-11.3c-0.1-0.4,0.2-0.8,0.6-0.8c0.4-0.1,0.8,0.2,0.8,0.6l1.5,11.3
						c0.1,0.4-0.2,0.8-0.6,0.8C695.4,556,695.4,556,695.4,556z"/>
					<path d="M762.9,582.6c-0.2,0-0.3-0.1-0.5-0.2l-12.5-10.2c-0.3-0.3-0.4-0.7-0.1-1.1c0.3-0.3,0.7-0.4,1.1-0.1l12.5,10.2
						c0.3,0.3,0.4,0.7,0.1,1.1C763.4,582.5,763.1,582.6,762.9,582.6z"/>
					<path d="M760.5,693.8c-0.4,0-0.7-0.3-0.8-0.7c0-0.4,0.3-0.8,0.7-0.8l16.1-0.4c0,0,0,0,0,0c0.4,0,0.7,0.3,0.8,0.7
						c0,0.4-0.3,0.8-0.7,0.8L760.5,693.8C760.5,693.8,760.5,693.8,760.5,693.8z"/>
					<path d="M786,675.2c-0.4,0-0.7-0.3-0.8-0.7c0-0.4,0.3-0.8,0.7-0.8l7.5-0.2c0.4,0,0.8,0.3,0.8,0.7c0,0.4-0.3,0.8-0.7,0.8
						L786,675.2C786,675.2,786,675.2,786,675.2z"/>
					<path d="M731,693.8c-0.2,0-0.3-0.1-0.5-0.2L718,683.4c-0.3-0.3-0.4-0.7-0.1-1.1c0.3-0.3,0.7-0.4,1.1-0.1l12.5,10.2
						c0.3,0.3,0.4,0.7,0.1,1.1C731.4,693.7,731.2,693.8,731,693.8z"/>
					<path d="M727.8,661.5c-0.4,0-0.7-0.3-0.8-0.7l0-16.2c0-0.4,0.3-0.8,0.7-0.8h0c0.4,0,0.7,0.3,0.8,0.7l0,16.2
						C728.6,661.2,728.2,661.5,727.8,661.5L727.8,661.5z"/>
					<path d="M771.2,672.1c-0.4,0-0.7-0.3-0.7-0.6l-2.6-15.9c-0.1-0.4,0.2-0.8,0.6-0.9c0.4-0.1,0.8,0.2,0.9,0.6l2.6,15.9
						c0.1,0.4-0.2,0.8-0.6,0.9C771.3,672.1,771.2,672.1,771.2,672.1z"/>
					<path d="M731.7,626.4c-0.2,0-0.3-0.1-0.5-0.2l-12.5-10.2c-0.3-0.3-0.4-0.7-0.1-1.1c0.3-0.3,0.7-0.4,1.1-0.1l12.5,10.2
						c0.3,0.3,0.4,0.7,0.1,1.1C732.1,626.4,731.9,626.4,731.7,626.4z"/>
					<path d="M622.3,504.8c-0.2,0-0.3-0.1-0.5-0.2l-5.3-4.3c-0.3-0.3-0.4-0.7-0.1-1.1c0.3-0.3,0.7-0.4,1.1-0.1l5.3,4.3
						c0.3,0.3,0.4,0.7,0.1,1.1C622.7,504.7,622.5,504.8,622.3,504.8z"/>
					<path d="M617.2,543.7c-0.2,0-0.3-0.1-0.5-0.2l-8.9-7.2c-0.3-0.3-0.4-0.7-0.1-1.1c0.3-0.3,0.7-0.4,1.1-0.1l8.9,7.2
						c0.3,0.3,0.4,0.7,0.1,1.1C617.7,543.6,617.5,543.7,617.2,543.7z"/>
					<path d="M737.3,747.3c-0.2,0-0.3-0.1-0.5-0.2l-12.5-10.2c-0.3-0.3-0.4-0.7-0.1-1.1c0.3-0.3,0.7-0.4,1.1-0.1l12.5,10.2
						c0.3,0.3,0.4,0.7,0.1,1.1C737.7,747.2,737.5,747.3,737.3,747.3z"/>
					<path d="M694.7,698.4c-0.2,0-0.3-0.1-0.5-0.2l-12.5-10.2c-0.3-0.3-0.4-0.7-0.1-1.1c0.3-0.3,0.7-0.4,1.1-0.1l12.5,10.2
						c0.3,0.3,0.4,0.7,0.1,1.1C695.2,698.4,694.9,698.4,694.7,698.4z"/>
					<path d="M805.9,609.4c-0.2,0-0.3-0.1-0.5-0.2l-11.8-9.6c-0.3-0.3-0.4-0.7-0.1-1.1c0.3-0.3,0.7-0.4,1.1-0.1l11.8,9.6
						c0.3,0.3,0.4,0.7,0.1,1.1C806.4,609.3,806.2,609.4,805.9,609.4z"/>
					<path d="M807.7,566.5c-0.2,0-0.3-0.1-0.5-0.2l-9-6.9c-0.3-0.3-0.4-0.7-0.1-1.1s0.7-0.4,1.1-0.1l9,6.9c0.3,0.3,0.4,0.7,0.1,1.1
						C808.1,566.4,807.9,566.5,807.7,566.5z"/>
					<path d="M658.7,520.1c-0.2,0-0.3-0.1-0.5-0.2l-10.9-8.8c-0.3-0.3-0.4-0.7-0.1-1.1c0.3-0.3,0.7-0.4,1.1-0.1l10.9,8.8
						c0.3,0.3,0.4,0.7,0.1,1.1C659.2,520,658.9,520.1,658.7,520.1z"/>
					<path d="M790.9,656c-0.3,0-0.6-0.2-0.7-0.5l-6.2-14.9c-0.2-0.4,0-0.8,0.4-1c0.4-0.2,0.8,0,1,0.4l6.2,14.9c0.2,0.4,0,0.8-0.4,1
						C791.1,656,791,656,790.9,656z"/>
					<path d="M773.4,564.6c-0.1,0-0.2,0-0.3-0.1c-0.4-0.2-0.6-0.6-0.4-1l4.8-12.1c0.2-0.4,0.6-0.6,1-0.4c0.4,0.2,0.6,0.6,0.4,1
						l-4.8,12.1C774,564.5,773.7,564.6,773.4,564.6z"/>
					<path d="M702.2,670.2c-0.1,0-0.2,0-0.3-0.1c-0.4-0.2-0.6-0.6-0.4-1l4.8-12.1c0.2-0.4,0.6-0.6,1-0.4c0.4,0.2,0.6,0.6,0.4,1
						l-4.8,12.1C702.8,670,702.5,670.2,702.2,670.2z"/>
					<path d="M769.9,603.2c-0.1,0-0.2,0-0.3-0.1c-0.4-0.2-0.6-0.6-0.4-1l4.8-12.1c0.2-0.4,0.6-0.6,1-0.4c0.4,0.2,0.6,0.6,0.4,1
						l-4.8,12.1C770.4,603.1,770.2,603.2,769.9,603.2z"/>
					<path d="M741.2,717.7c-0.1,0-0.2,0-0.3-0.1c-0.4-0.2-0.6-0.6-0.4-1l4.8-12.1c0.2-0.4,0.6-0.6,1-0.4c0.4,0.2,0.6,0.6,0.4,1
						l-4.8,12.1C741.8,717.5,741.5,717.7,741.2,717.7z"/>
					<path d="M762.4,641.1c-0.1,0-0.2,0-0.3-0.1c-0.4-0.2-0.6-0.6-0.4-1l4.8-12.1c0.2-0.4,0.6-0.6,1-0.4c0.4,0.2,0.6,0.6,0.4,1
						l-4.8,12.1C763,641,762.7,641.1,762.4,641.1z"/>
					<path d="M769.9,515.8c-0.2,0-0.4-0.1-0.6-0.2l-7.7-8.4c-0.3-0.3-0.3-0.8,0-1.1c0.3-0.3,0.8-0.3,1.1,0l7.7,8.4
						c0.3,0.3,0.3,0.8,0,1.1C770.2,515.7,770,515.8,769.9,515.8z"/>
				</g>
			</g>
		</g>
		<g id="pencil">
			<path d="M660.8,472.8c-0.2,0-0.3-0.1-0.5-0.2c-0.8-0.6-1.6-1.3-2.3-2c-0.8-0.8-1.7-1.6-2.5-2.4c-0.1-0.1-0.1-0.1-0.1-0.2
				c-1-2.4-2.2-4.8-3.7-7c-4.2-6.4-9-10-20.6-17c-25.8-15.5-30.9-15-33.7-13.2c-0.3,0.2-0.7,0.5-1,0.7c-0.2,0.2-0.6,0.3-0.9,0.1
				c-0.6-0.4-1.4-0.9-2.3-1.5c-0.5-0.3-1.6-1.1-3-2c-1.5-1.1-3-2.2-4.5-3.4c-0.3-0.3-0.4-0.7-0.1-1.1c0.3-0.3,0.7-0.4,1.1-0.1
				c1.5,1.2,3,2.3,4.5,3.3c1.4,1,2.4,1.7,2.9,2c0.7,0.4,1.3,0.8,1.8,1.2c0.2-0.2,0.5-0.4,0.7-0.5c3.4-2.2,8.7-2.8,35.2,13.2
				c11.8,7.1,16.7,10.8,21.1,17.4c1.5,2.2,2.7,4.6,3.7,7.1c0.7,0.8,1.5,1.5,2.3,2.2c0.5,0.5,1,0.9,1.6,1.4l1.9-3.3
				c1.5-2.7,3.1-5.5,4.6-8.2l-5.6-3.5c-22.6-14.1-45.2-28.1-67.9-42.2c-0.4-0.2-0.5-0.7-0.2-1c0.2-0.4,0.7-0.5,1-0.2
				c22.6,14.1,45.3,28.1,67.9,42.2l6.2,3.8c0.3,0.2,0.5,0.7,0.3,1c-1.7,2.9-3.3,5.9-5,8.8l-2.3,4.1c-0.1,0.2-0.3,0.3-0.5,0.4
				C660.9,472.8,660.9,472.8,660.8,472.8z"/>
			<path d="M585.8,424.7c-4.7-6.2-9.3-12.5-14-18.7c7.5,2.1,15.1,4.2,22.6,6.4c0.3,1.6,0.7,3.3,1,4.9c-1.8,0.3-3.6,0.6-5.5,1
				c0.9,1.9,1.8,3.7,2.7,5.6C590.3,424.1,588,424.4,585.8,424.7z"/>
			<path d="M653.4,463.2c-0.1,0-0.3,0-0.4-0.1c-0.4-0.2-0.5-0.7-0.3-1l5-8.7c0.2-0.4,0.7-0.5,1-0.3c0.4,0.2,0.5,0.7,0.3,1l-5,8.7
				C654,463.1,653.7,463.2,653.4,463.2z"/>
		</g>
	</g>
</g>
</svg>
