<?xml version="1.0" encoding="utf-8"?>
<!-- Generator: Adobe Illustrator 22.1.0, SVG Export Plug-In . SVG Version: 6.00 Build 0)  -->
<svg version="1.1" xmlns="http://www.w3.org/2000/svg" xmlns:xlink="http://www.w3.org/1999/xlink" x="0px" y="0px"
	 viewBox="0 0 930.8 746.5" style="enable-background:new 0 0 930.8 746.5;" xml:space="preserve">
<style type="text/css">
	.st0{fill:#9050A6;}
	.st1{fill:#FEE200;}
</style>
<g id="background">
	<g id="background_1_">
		<path d="M43.2,710.9c-1.1,0-2.1-0.3-3.1-1c-1.2-0.8-2-2-2.2-3.5s0.1-2.8,0.9-4c0.8-1.2,2-2,3.5-2.2c1.4-0.2,2.8,0.1,4,0.9
			c1.2,0.8,2,2,2.2,3.5s-0.1,2.8-0.9,4c-0.8,1.2-2,2-3.5,2.2l0,0C43.8,710.9,43.5,710.9,43.2,710.9z M43.2,701.7
			c-0.2,0-0.5,0-0.7,0.1c-1,0.2-1.9,0.7-2.5,1.6c-0.6,0.8-0.8,1.9-0.6,2.9c0.2,1,0.7,1.9,1.6,2.5c0.8,0.6,1.9,0.8,2.9,0.6l0,0
			c1-0.2,1.9-0.7,2.5-1.6c0.6-0.8,0.8-1.9,0.6-2.9c-0.2-1-0.7-1.9-1.6-2.5C44.7,702,44,701.7,43.2,701.7z"/>
		<circle class="st0" cx="423.5" cy="685.4" r="5.1"/>
		<path d="M57.1,298.9c-0.8,0-1.6-0.1-2.4-0.4c-4.3-1.3-6.8-5.9-5.5-10.3c0.6-2.1,2.1-3.8,4-4.9s4.2-1.2,6.3-0.6
			c2.1,0.6,3.8,2.1,4.9,4c1,1.9,1.2,4.2,0.6,6.3l0,0C63.9,296.6,60.6,298.9,57.1,298.9z M57.1,283.9c-1.1,0-2.2,0.3-3.1,0.8
			c-1.6,0.8-2.7,2.3-3.3,4c-1.1,3.5,0.9,7.3,4.5,8.4c3.5,1.1,7.3-0.9,8.4-4.5l0,0c0.5-1.7,0.4-3.5-0.5-5.1c-0.8-1.6-2.3-2.7-4-3.3
			C58.4,284,57.7,283.9,57.1,283.9z M64.2,292.8L64.2,292.8L64.2,292.8z"/>
		<path d="M376.1,340.7c-0.4,0-0.9-0.1-1.3-0.2c-1.1-0.4-2.1-1.1-2.6-2.2c-0.6-1.1-0.7-2.3-0.3-3.4c0.3-1.1,1.1-2.1,2.2-2.6
			c1.1-0.6,2.3-0.7,3.4-0.3c2.4,0.7,3.7,3.2,3,5.6l0,0c-0.4,1.1-1.1,2.1-2.2,2.6C377.6,340.5,376.8,340.7,376.1,340.7z M376.1,333.2
			c-0.5,0-1,0.1-1.4,0.4c-0.7,0.4-1.2,1-1.5,1.8c-0.2,0.8-0.2,1.6,0.2,2.3c0.4,0.7,1,1.2,1.8,1.5c0.8,0.2,1.6,0.2,2.3-0.2
			c0.7-0.4,1.2-1,1.5-1.8c0.5-1.6-0.4-3.2-2-3.7C376.7,333.3,376.4,333.2,376.1,333.2z M379.7,337.3L379.7,337.3L379.7,337.3z"/>
		<circle class="st0" cx="301.4" cy="104.8" r="4.2"/>
		<circle class="st0" cx="8.9" cy="500.7" r="8.9"/>
		<circle class="st0" cx="715.6" cy="32.5" r="6.3"/>
		<circle class="st0" cx="924.5" cy="387" r="6.3"/>
		<path d="M37.4,48.1c-0.2,0-0.4-0.1-0.5-0.2L22,33.1c-0.3-0.3-0.3-0.8,0-1.1l14.8-14.8c0.3-0.3,0.8-0.3,1.1,0L52.7,32
			c0.3,0.3,0.3,0.8,0,1.1L37.9,47.9C37.8,48,37.6,48.1,37.4,48.1z M23.6,32.5l13.7,13.7l13.7-13.7L37.4,18.8L23.6,32.5z"/>
		<path d="M193.7,590.9c-0.2,0-0.4-0.1-0.5-0.2l-8.1-8.1c-0.1-0.1-0.2-0.3-0.2-0.5s0.1-0.4,0.2-0.5l8.1-8.1c0.3-0.3,0.8-0.3,1.1,0
			l8.1,8.1c0.1,0.1,0.2,0.3,0.2,0.5s-0.1,0.4-0.2,0.5l-8.1,8.1C194.1,590.8,193.9,590.9,193.7,590.9z M186.7,582l7.1,7.1l7.1-7.1
			l-7.1-7.1L186.7,582z"/>
		<path d="M555.8,355c-0.1,0-0.3,0-0.4-0.1l-7.7-5.3c-0.3-0.2-0.4-0.7-0.2-1l5.3-7.7c0.2-0.3,0.7-0.4,1-0.2l7.7,5.3
			c0.3,0.2,0.4,0.7,0.2,1l-5.3,7.7C556.3,354.9,556.1,355,555.8,355z M549.1,348.8l6.5,4.4l4.4-6.5l-6.5-4.4L549.1,348.8z"/>
		<path d="M394.8,184.1c-0.1,0-0.3,0-0.4-0.1l-10.2-7c-0.3-0.2-0.4-0.7-0.2-1l7-10.2c0.2-0.3,0.7-0.4,1-0.2l10.2,7
			c0.2,0.1,0.3,0.3,0.3,0.5c0,0.2,0,0.4-0.1,0.6l-7,10.2C395.2,184,395,184.1,394.8,184.1z M385.6,176.2l9,6.1l6.1-9l-9-6.1
			L385.6,176.2z"/>
		<path d="M871.8,103c0,0-0.1,0-0.1,0c-0.2,0-0.4-0.2-0.5-0.3l-8.1-12.2c-0.1-0.2-0.1-0.4-0.1-0.6c0-0.2,0.2-0.4,0.3-0.5l12.2-8.1
			c0.2-0.1,0.4-0.1,0.6-0.1c0.2,0,0.4,0.2,0.5,0.3l8.1,12.2c0.2,0.3,0.1,0.8-0.2,1l-12.2,8.1C872.1,102.9,871.9,103,871.8,103z
			 M864.7,90.2l7.3,11l11-7.3l-7.3-11L864.7,90.2z"/>
		<path d="M858.9,621c0,0-0.1,0-0.1,0c-0.2,0-0.4-0.1-0.5-0.3l-10.5-14c-0.1-0.2-0.2-0.4-0.1-0.6c0-0.2,0.1-0.4,0.3-0.5l14-10.5
			c0.3-0.2,0.8-0.2,1,0.1l10.5,14c0.2,0.3,0.2,0.8-0.1,1l-14,10.5C859.2,620.9,859.1,621,858.9,621z M849.5,606.4l9.6,12.8l12.8-9.6
			l-9.6-12.8L849.5,606.4z"/>
		<path d="M809.1,168.6c-0.3,0-0.6-0.2-0.7-0.4l-9.8-22.2c-0.2-0.4,0-0.8,0.4-1c0.4-0.2,0.8,0,1,0.4l9.8,22.2c0.2,0.4,0,0.8-0.4,1
			C809.3,168.6,809.2,168.6,809.1,168.6z"/>
		<path d="M502.9,200.8c-0.1,0-0.2,0-0.3-0.1c-0.4-0.2-0.6-0.6-0.4-1l8.8-22.6c0.2-0.4,0.6-0.6,1-0.4c0.4,0.2,0.6,0.6,0.4,1
			l-8.8,22.6C503.5,200.7,503.2,200.8,502.9,200.8z"/>
		<path d="M507.3,727.3c-0.3,0-0.7-0.2-0.7-0.6c-0.1-0.4,0.2-0.8,0.6-0.9l23.6-5.2c0.4-0.1,0.8,0.2,0.9,0.6c0.1,0.4-0.2,0.8-0.6,0.9
			l-23.6,5.2C507.4,727.3,507.4,727.3,507.3,727.3z"/>
		<path d="M415.6,68c-0.1,0-0.3,0-0.4-0.1c-0.3-0.2-0.5-0.7-0.2-1l13-20.4c0.2-0.3,0.7-0.5,1-0.2c0.3,0.2,0.5,0.7,0.2,1l-13,20.4
			C416.1,67.8,415.9,68,415.6,68z"/>
		<path d="M655.8,121.3c-0.1,0-0.3,0-0.4-0.1c-0.3-0.2-0.5-0.7-0.2-1l13-20.4c0.2-0.3,0.7-0.5,1-0.2c0.3,0.2,0.5,0.7,0.2,1l-13,20.4
			C656.3,121.2,656,121.3,655.8,121.3z"/>
		<path d="M214.3,24.2c-0.3,0-0.6-0.2-0.7-0.5L205.1,1c-0.1-0.4,0.1-0.8,0.4-1c0.4-0.1,0.8,0.1,1,0.4l8.5,22.7
			c0.1,0.4-0.1,0.8-0.4,1C214.5,24.2,214.4,24.2,214.3,24.2z"/>
		<path d="M365,659.2c-0.2,0-0.4-0.1-0.5-0.2l-17.6-16.6c-0.3-0.3-0.3-0.8,0-1.1c0.3-0.3,0.8-0.3,1.1,0l17.6,16.6
			c0.3,0.3,0.3,0.8,0,1.1C365.4,659.1,365.2,659.2,365,659.2z"/>
		<path d="M322.9,489.6c-0.1,0-0.2,0-0.3-0.1c-0.4-0.2-0.6-0.6-0.4-1l9.5-22.3c0.2-0.4,0.6-0.6,1-0.4c0.4,0.2,0.6,0.6,0.4,1
			l-9.5,22.3C323.4,489.5,323.1,489.6,322.9,489.6z"/>
		<path d="M548.1,618.6c-0.4,0-0.7-0.2-0.7-0.6l-4.7-23.8c-0.1-0.4,0.2-0.8,0.6-0.9c0.4-0.1,0.8,0.2,0.9,0.6l4.7,23.8
			c0.1,0.4-0.2,0.8-0.6,0.9C548.2,618.6,548.2,618.6,548.1,618.6z"/>
		<path d="M717.4,643.7c-0.2,0-0.3-0.1-0.5-0.2c-0.3-0.3-0.4-0.7-0.1-1.1l15-19c0.3-0.3,0.7-0.4,1.1-0.1c0.3,0.3,0.4,0.7,0.1,1.1
			l-15,19C717.8,643.6,717.6,643.7,717.4,643.7z"/>
		<path d="M845.7,734.2c-0.2,0-0.4-0.1-0.6-0.3l-14.9-19.1c-0.3-0.3-0.2-0.8,0.1-1.1c0.3-0.3,0.8-0.2,1.1,0.1l14.9,19.1
			c0.3,0.3,0.2,0.8-0.1,1.1C846,734.2,845.9,734.2,845.7,734.2z"/>
		<path d="M471.2,438.1c-0.2,0-0.5-0.1-0.6-0.3l-14.3-19.5c-0.2-0.3-0.2-0.8,0.2-1c0.3-0.2,0.8-0.2,1,0.2l14.3,19.5
			c0.2,0.3,0.2,0.8-0.2,1C471.5,438.1,471.4,438.1,471.2,438.1z"/>
		<path d="M62.1,430.1c-0.1,0-0.2,0-0.4-0.1c-0.4-0.2-0.5-0.7-0.3-1L73,407.7c0.2-0.4,0.7-0.5,1-0.3c0.4,0.2,0.5,0.7,0.3,1
			l-11.6,21.3C62.6,429.9,62.4,430.1,62.1,430.1z"/>
		<path d="M77.5,604.3c-0.2,0-0.3,0-0.5-0.2l-19.3-14.7c-0.3-0.3-0.4-0.7-0.1-1.1c0.3-0.3,0.7-0.4,1.1-0.1L78,603
			c0.3,0.3,0.4,0.7,0.1,1.1C78,604.2,77.8,604.3,77.5,604.3z"/>
		<path d="M8.9,180.9c-0.3,0-0.7-0.2-0.7-0.6c-0.1-0.4,0.2-0.8,0.6-0.9l23.6-5.4c0.4-0.1,0.8,0.2,0.9,0.6c0.1,0.4-0.2,0.8-0.6,0.9
			l-23.6,5.4C9,180.9,8.9,180.9,8.9,180.9z"/>
		<path d="M202.1,186.7c-0.2,0-0.4-0.1-0.5-0.2l-17.4-16.8c-0.3-0.3-0.3-0.8,0-1.1c0.3-0.3,0.8-0.3,1.1,0l17.4,16.8
			c0.3,0.3,0.3,0.8,0,1.1C202.5,186.6,202.3,186.7,202.1,186.7z"/>
		<path d="M271.3,357.2c-0.2,0-0.4-0.1-0.6-0.3l-15-19c-0.3-0.3-0.2-0.8,0.1-1.1c0.3-0.3,0.8-0.2,1.1,0.1l15,19
			c0.3,0.3,0.2,0.8-0.1,1.1C271.6,357.2,271.5,357.2,271.3,357.2z"/>
		<path d="M870.1,465.4c-0.2,0-0.3-0.1-0.5-0.2l-18.9-15.1c-0.3-0.3-0.4-0.7-0.1-1.1c0.3-0.3,0.7-0.4,1.1-0.1l18.9,15.1
			c0.3,0.3,0.4,0.7,0.1,1.1C870.6,465.3,870.3,465.4,870.1,465.4z"/>
		<path d="M903.6,269.8c-0.3,0-0.5-0.1-0.6-0.4c-0.2-0.4-0.1-0.8,0.3-1l20.9-12.3c0.4-0.2,0.8-0.1,1,0.3c0.2,0.4,0.1,0.8-0.3,1
			L904,269.7C903.9,269.8,903.7,269.8,903.6,269.8z"/>
	</g>
</g>
<g id="general_1_">
	<g id="general">
		<g id="man_1">
			<path id="legs" d="M327.6,690.2c-20.9-0.1-62.6,0.4-75.2,0.4c-0.5,0-16-0.1-19.4-0.1c1.2-10.3,2.3-20.7,3.5-31
				c-1.9,0.1-3.7,0.1-5.6,0.2c1-23.2,4.1-105.2,4.7-123.1c-6.9-8.9-39.6-53.6-48.2-66.3c-3.9,63.5-7.7,127-11.6,190.6
				c-1.5,0.1-3.9,0.2-6.8,0.4c1.5,1.3,3,2.4,4.4,3.4c1.2,0.7,3.8,2.2,9.3,3.9c11.7,3.7,15.7,1.9,21.3,4.3c4.2,1.8,9.6,6,13.8,17.5
				c-20.9-0.1-62.6,0.4-75.2,0.4c-0.5,0-16-0.1-19.4-0.1c1-9.3-0.8-179.4-2.7-262.9c14.5-1.1,109.2-8.5,111.8-8.7c0,0,0,0,0,0
				c4.9,8,10.6,17.3,16.7,27.7c34.2,57.7,37.9,72.3,39.5,83.9c0,0,0.2,1.2,0.3,2.3c2.4,24.8-2.3,54.2-2.3,54.2
				c-1.3,10.2-2.8,20.6-4.2,31c-2,13.7-4,27.3-6.1,40.6c2.5,2.5,4.9,4.5,7.1,5.9c1.2,0.7,3.8,2.2,9.3,3.9
				c11.7,3.7,15.7,1.9,21.3,4.3C318,674.5,323.5,678.7,327.6,690.2z"/>
			<path id="tshirt" class="st1" d="M313.8,193.4c-0.1,2.5-0.3,5.3-0.5,8.5c-0.5,7.1-1.4,15.7-3,25.4c-0.3,2-0.7,4-1.1,6.1
				c-0.7,3.5-1.3,6.9-1.9,10c-4.5,23-8.1,36.7-19.6,47.3c-6.1,5.6-15.8,9.8-35.4,17.9c-12.2,5.1-22.5,8.7-29.8,11
				c2,20.2,4,40.4,6,60.6c1.3,12.8,2.5,25.6,3.8,38.4c0,0,0,0,0,0c-6.1,0.2-36.1,2.2-55.5,4c-22.7,2.1-43.5,3.8-56.3,4.8
				c-0.3,0-1.6,0.1-1.9,0.1c-2.4-24.4-6.4-66.6-10-105.9c-2.9-31.6-5.6-61.4-6.9-78.3c-0.3-3.8-0.6-6.9-0.7-9.3
				c-0.1-1.9-0.3-4.2-0.4-6.9c-0.3-6.6-0.2-15.4,2-25.4c0.5-2.1,1-4.3,1.7-6.5c1.8-5.9,4.1-11,10.5-21.3c3-4.8,6.8-10.6,11.9-18.2
				c1.5-2.2,3-4.5,4.8-7c0.3-0.5,0.7-1,1-1.5c4.8-7,10.3-15,16.6-23.8c1.6-2.2,3.2-4.4,4.8-6.7c0.3,0.2,0.8,0.4,1.2,0.7
				c4.6,2.6,15.9,9.3,22.4,13.3h0c0.8,0.5,1.5,0.9,2.2,1.3c0.7,0.4,1.2,0.8,1.6,1c-0.4,0.6-0.7,1.2-1.1,1.9
				c-2.1,3.7-4.6,7.8-7.1,12.1c-0.3,0.5-0.6,1-0.9,1.5c-4.3,7.3-8.7,14.8-12.2,20.7c-0.8,1.5-1.8,3-2.7,4.5
				c-5.1,8.7-11.1,19-16.3,27.8c-1.2,2-2.4,4-3.5,5.9c0.9,6.5,1.8,13,2.7,19.5c0.8,5.4,1.5,10.8,2.3,16.2c1,7.3,2,14.6,3.1,22
				c1.2,0.2,11.4,2.4,22.7,4.8c7.3,1.5,15,3.2,21.1,4.5c6,1.3,10.5,2.3,11.4,2.5c7.3-2,14.6-3.9,21.9-5.8c14.9-4,29.8-8,44.6-11.9
				c1.4-5.3,2.7-10.6,4-16.1c1.3-5.3,2.5-10.7,3.7-16.2c0.6-2.6,1.1-5.2,1.7-7.8c0.9-4.4,1.8-8.8,2.7-13.1c0.3-1.5,0.6-3,0.9-4.5
				c0.6-3.1,1.2-6.2,1.8-9.2c0,0,0,0,0-0.1c0.1,0,0.2,0,0.3,0h0c4.6,0.1,9.2,0.2,13.8,0.4c0.7,0,1.4,0,2.1,0.1
				c3.5,0.1,5.8,0.2,10.3,0.3C309.4,193.3,313.2,193.4,313.8,193.4z"/>
			<g id="hand_l">
				<path d="M186.9,122.8c-0.3,0-0.5-0.1-0.6-0.4c-0.2-0.4-0.1-0.8,0.2-1l2.8-1.8c1.2-0.7,2.3-1.4,3.3-2c1.4-0.9,2.7-1.7,3.9-2.4
					c0.7-0.4,1.8-1.1,2.2-2.3c0.4-1.4-0.4-2.8-0.4-2.8c-0.6-1.1-1.7-1.5-2.6-1.9c-1.1-0.4-2.2-0.9-2.5-2.2c-0.2-0.7,0-1.3,0.2-1.8
					c0.2-0.5,0.3-1,0.2-1.8c-0.1-0.4-0.2-1.1-0.7-1.7c-0.5-0.6-1-0.8-1.7-1c-0.7-0.2-1.5-0.4-2.2-1.3c-0.6-0.8-0.7-1.5-0.8-2.1
					c0-0.5-0.1-1-0.5-1.7c-0.4-0.5-0.6-0.7-1.1-0.9c-0.4-0.2-0.9-0.5-1.5-1.1c-1.3-1.2-1.7-2.3-2.1-3.1c-0.2-0.6-0.4-0.9-0.6-1.1
					c-1.5-1-6.6,2.8-9.5,5.7c-6.2,6.1-12.1,13.5-17.5,21.8c-0.3,0.4-0.6,0.9-0.9,1.4c0,0-0.1,0.1-0.1,0.1c-0.2,0.3-0.7,0.4-1,0.2
					c-0.3-0.2-0.4-0.7-0.2-1c0.3-0.5,0.6-1,0.9-1.4c5.4-8.4,11.4-15.9,17.7-22.1c1.4-1.3,8.3-7.9,11.4-5.9c0.7,0.4,0.9,1.1,1.2,1.8
					c0.3,0.8,0.6,1.6,1.7,2.6c0.5,0.5,0.9,0.7,1.2,0.9c0.5,0.3,1,0.6,1.6,1.4c0.7,1,0.7,1.8,0.8,2.4c0,0.5,0.1,0.8,0.4,1.3
					c0.4,0.5,0.9,0.6,1.5,0.8c0.7,0.2,1.7,0.5,2.5,1.5c0.7,0.9,0.9,1.9,0.9,2.4c0.2,1.2-0.1,2-0.3,2.6c-0.1,0.4-0.2,0.6-0.1,0.9
					c0.1,0.5,0.7,0.8,1.6,1.2c1.1,0.4,2.5,1,3.4,2.5l0,0c0,0,1.2,1.9,0.6,4c-0.5,1.8-2.1,2.7-2.9,3.2c-1.2,0.7-2.4,1.5-3.9,2.4
					c-1,0.6-2.1,1.3-3.3,2l-2.8,1.8C187.1,122.7,187,122.8,186.9,122.8z"/>
				<path d="M179.6,133.1c-0.3,0-0.5-0.1-0.7-0.4c-0.2-0.4,0-0.8,0.3-1c0.7-0.3,1.8-0.9,3.1-1.6c5.3-2.6,9.5-4.3,13-5.6
					c4.5-1.8,7.5-3,7.5-4.2c0-0.9-1.3-2-2.3-2.4c-1.4-0.7-3.1-0.2-4.5,0.1c-1,0.2-1.9,0.6-2.8,1.1c-0.4,0.2-0.8,0.1-1-0.3
					c-0.2-0.4-0.1-0.8,0.3-1c1-0.5,2-0.9,3.1-1.2c1.6-0.4,3.6-0.9,5.5,0c1.1,0.5,3.2,1.9,3.2,3.8c0,2.3-2.8,3.4-8.4,5.6
					c-3.4,1.4-7.7,3-12.9,5.6c-1.3,0.7-2.4,1.2-3.1,1.5C179.9,133,179.8,133.1,179.6,133.1z"/>
				<path d="M183.7,130.3L183.7,130.3l-4.7,2l-25.1-15.4c0.3-0.5,0.6-0.9,0.9-1.4L183.7,130.3z"/>
			</g>
			<g id="hand_r">
				<path d="M312.9,194.1C312.9,194.1,312.9,194.1,312.9,194.1c-0.4,0-0.8-0.3-0.8-0.7c0-1.6,0-3.1,0-4.6c-0.1-2.4-0.2-4.7-0.4-7
					c-0.4-4-1-7.9-1.8-11.6c0-0.2-1.1-5.2-2.8-8.4c-0.8-1.5-1.6-2.4-2.3-2.5c-0.3,0-1.6,0.1-2.8,0.8c-0.4,0.2-0.6,0.4-0.9,0.6
					c-0.3,0.3-0.7,0.6-1.3,0.8c-1,0.3-1.7,0-2.3-0.2c-0.4-0.2-0.8-0.3-1.3-0.3c-0.7,0.1-1.1,0.5-1.7,1c-0.6,0.6-1.4,1.4-2.8,1.4
					c-0.6,0-0.9-0.1-1.2-0.2c-0.3-0.1-0.5-0.2-1.1-0.2c-1.5-0.1-2.4,0.3-3,0.6c-0.8,0.4-1.1,1-1.4,1.6c-0.4,0.7-0.8,1.5-1.9,2.1
					c-0.8,0.4-1.3,0.4-1.8,0.4c-0.5,0-0.9,0-1.6,0.4c-0.5,0.2-1.8,0.8-2.2,1.9c-0.5,1.3,0.3,2.8,0.7,3.7c0.4,0.8,0.8,1.7,1.3,2.6
					l0.1,0.3c0.2,0.5,0.5,1,0.7,1.6c0,0,0,0,0,0.1h0c0.8,1.8,1.7,3.8,2.7,6.1c0.2,0.4,0,0.8-0.4,1c-0.4,0.2-0.8,0-1-0.4
					c-1-2.3-1.8-4.3-2.6-6.1c0,0,0-0.1,0-0.1c-0.3-0.6-0.5-1.1-0.7-1.6l-0.1-0.3c-0.4-0.9-0.8-1.8-1.2-2.6c-0.5-1.1-1.5-3-0.8-5
					c0.6-1.6,2.3-2.4,2.9-2.7c1.1-0.5,1.7-0.5,2.3-0.5c0.4,0,0.7,0,1.2-0.3c0.7-0.4,1-0.9,1.3-1.5c0.4-0.7,0.8-1.6,2-2.2
					c1-0.6,2.3-0.8,3.8-0.8c0.8,0,1.2,0.2,1.5,0.3c0.2,0.1,0.3,0.1,0.6,0.1c0.8,0,1.2-0.5,1.8-1c0.6-0.6,1.3-1.3,2.6-1.4
					c0.9-0.1,1.5,0.2,2,0.4c0.5,0.2,0.8,0.3,1.3,0.2c0.3-0.1,0.4-0.2,0.7-0.4c0.3-0.2,0.6-0.5,1.1-0.8c1.4-0.8,3-1,3.6-1
					c1.3,0,2.4,1.1,3.6,3.3c1.8,3.4,2.9,8.5,3,8.8c0.8,3.8,1.5,7.8,1.8,11.8c0.2,2.3,0.4,4.7,0.4,7.1c0,1.5,0.1,3,0,4.6
					C313.6,193.8,313.3,194.1,312.9,194.1z"/>
				<path d="M282.6,193.4c-0.2,0-0.4-0.1-0.5-0.2l-1.6-1.7c-0.4-0.5-0.9-1-1.4-1.6c-2.7-3.2-6.2-7.1-8.3-10.6
					c-1.9-3.2-2.4-5.4-1.5-7c0.8-1.2,2.4-1.8,3.7-1.7c1,0.1,2,0.5,5.2,4.7l0.8,1c0.4,0.5,0.7,1,1,1.3l0.3,0.4
					c0.1,0.1,0.2,0.3,0.2,0.5c0,0.4-0.3,0.8-0.8,0.8c-0.2,0-0.4-0.1-0.5-0.2c0,0-0.1-0.1-0.1-0.1l-0.3-0.5c-0.3-0.4-0.6-0.8-1-1.3
					l-0.8-1c-2.8-3.5-3.7-4.1-4.2-4.1c-0.8-0.1-1.8,0.3-2.3,1c-0.4,0.7-0.5,2.2,1.5,5.4c2,3.3,5.4,7.2,8.1,10.4
					c0.5,0.6,1,1.1,1.4,1.5l1.6,1.7c0.3,0.3,0.3,0.8,0,1.1C283,193.3,282.8,193.4,282.6,193.4z"/>
				<path d="M312.9,193.3l-14.4-0.3l-16.3-0.3c0,0,0,0,0-0.1c0.1,0,0.2,0,0.3,0c-0.3-0.3-0.6-0.7-1-1.1c6.7-0.6,24.4-2.1,31.3-2.7
					C312.9,190.3,312.9,191.8,312.9,193.3z"/>
			</g>
			<g id="head">
				<path id="hair" d="M210.1,227.2c-0.1,0.1-0.3,0.1-0.4,0.2c-0.1,0-0.1,0.1-0.2,0.1c-0.5,0.2-1,0.4-1.5,0.6
					c-0.7,0.3-1.4,0.6-2.1,0.9c-0.6,2.1-1.3,4.3-1.9,6.4c-0.6,2-1.1,4-1.7,5.9c-0.6,0-3.2-0.3-3.7-0.4c0.8-2.6,0.1-5.3-1.8-7
					c-2.5-2.2-6.2-1.4-8.2-0.2c-2.9,1.8-4.1,5.3-3.7,8.3c0.1,0.5,0.2,1,0.3,1.4c1,3.1,3.6,4.7,4,4.9c-0.1,0.2-0.3,0.3-0.4,0.5
					c-1.8,2.1-3.8,4.2-5.8,6.3c-2.7,2.8-5.3,5.5-7.9,8.1c-1.5-0.2-3-0.5-4.5-0.7c-0.7-0.1-1.4-0.2-2.1-0.3c-2.7-0.4-5.5-0.9-8.2-1.3
					v0c-0.2,0-0.4-0.1-0.6-0.1c-0.3-6.6-0.2-12.3,0.1-17.2c0.3-4.9,0.9-9,1.5-12.1c0.2-1.4,0.5-2.7,0.9-4c0.4-1.5,1-2.9,1.9-4.5
					c5.2-8.9,15.2-11.2,16.4-11.5c0.4-0.1,2.5-0.5,5.6-0.5c4.7,0,11.5,1,17.3,5.8c1.7,1.4,5,4.2,6.3,9
					C209.9,226.2,210,226.8,210.1,227.2z"/>
				<path d="M191.8,250.8c-0.1,0-0.1,0-0.2,0c-0.7-0.2-1.4-0.4-2-0.7c-0.7-0.3-1.5-0.8-2.1-1.2c-0.3-0.2-0.4-0.7-0.2-1
					c0.2-0.3,0.7-0.4,1-0.2c0.6,0.4,1.2,0.8,1.9,1.1c0.6,0.3,1.2,0.5,1.8,0.6c0.4,0.1,0.6,0.5,0.5,0.9
					C192.4,250.6,192.1,250.8,191.8,250.8z"/>
				<g id="face">
					<path d="M189.6,275.5c-0.4,0-0.8-0.3-0.8-0.8l0-7.7c0-0.4,0.3-0.7,0.8-0.7c0.2,0,0.4,0,0.6,0c3.3,0.1,9.5-0.4,14.1-4.8
						c4-3.9,4.6-9,5.4-15.4c0.1-0.9,0.2-1.8,0.3-2.7c0.4-5.2,0-10.6-1.2-15.9c0,0,0,0,0-0.1c0,0,0,0,0,0c0-0.2-0.1-0.4-0.1-0.7
						c-0.1-0.3-0.3-0.6-0.5-1l0,0c0,0-0.6-1.1-1.2-2c-1-1.4-3.2-3.9-4.7-5c-1-0.8-10-7.7-21.1-5.3c-8.5,1.8-13,7.9-15.3,12.7
						c-0.3,0.5-0.5,1-0.6,1.4c-0.8,1.9-1.2,3.4-1.4,4.4c-0.6,3-1.2,6.9-1.6,11.5c-0.5,4.9-0.8,10.7-1,17.2c0,0,0,0.1,0,0.1l-0.2,7.6
						c0,0.4-0.4,0.7-0.8,0.7c-0.4,0-0.7-0.4-0.7-0.8l0.2-7.7c0,0,0-0.1,0-0.1c0.2-6.5,0.6-12.3,1-17.2c0.4-4.7,1-8.6,1.7-11.7
						c0.2-1,0.7-2.7,1.5-4.7c0.2-0.5,0.4-1,0.7-1.5c2.4-5.1,7.3-11.7,16.3-13.6c11.8-2.5,21.3,4.8,22.4,5.6c1.5,1.2,3.9,3.8,5,5.4
						c0.7,1,1.3,2.1,1.3,2.2c0.2,0.5,0.4,0.8,0.6,1.1c0,0,0,0.1,0,0.1c0.1,0.3,0.1,0.5,0.2,0.8h0c0,0,0,0.1,0,0.1
						c1.2,5.4,1.6,10.9,1.2,16.3c-0.1,0.9-0.2,1.9-0.3,2.8c-0.8,6.7-1.5,12.1-5.9,16.3c-4.8,4.7-11.3,5.3-14.9,5.3l0,6.9
						C190.3,275.2,190,275.5,189.6,275.5z"/>
					<path d="M190.1,266.4c0,0.4-0.1,0.8-0.1,1.2c-0.2,2.2-0.3,4.3-0.4,6.3l0,0c-1-1.1-1.9-2.1-2.9-3.1c-1.9-2.1-3.9-4.3-5.8-6.4
						c1.8,0.8,4.1,1.5,6.8,1.8C188.5,266.3,189.3,266.4,190.1,266.4z"/>
				</g>
			</g>
		</g>
		<g id="man_2">
			<g id="hand_l_1_">
				<path d="M787.1,411.6c-1.1,0-2.3-0.6-3-1.5c-1.1-1.5-0.7-3.4,0.2-6c0.5-1.3,1.1-2.8,1.9-4.7l0.9-2.1c0.5-1.2,1-2.5,1.5-3.8
					c-2.7,3.3-4.8,6.1-6.4,8.4c-0.1,0.1-1.1,1.5-2.5,3.1c-4,4.5-5.6,4.9-6.4,4.8c-1.5-0.2-2.5-1.3-3-2.3c-0.4-0.8-0.6-1.8-0.4-3
					c0.4-2.2,1.9-4.5,2.8-5.8c1-1.5,1.9-2.4,2-2.5c2-2.2,4-4.6,5.6-6.6c-0.8,0.7-1.6,1.6-2.6,2.6c-1.8,1.8-3.4,3.2-4.4,4.2
					c-8.2,7.6-10,7.8-11.3,7.3c-1.5-0.5-2.4-2.1-2.6-3.5c-0.3-2.3,1.7-4.3,4.5-7c0.7-0.7,1.3-1.2,1.3-1.2c1.9-1.7,5.3-4.8,10-9.2
					c-8.9,4.6-15.4,7.8-16.4,8.1c-1.4,0.4-2.4-0.1-2.5-0.1c-0.3-0.1-0.5-0.3-0.6-0.4c-0.4-0.3-0.8-1-1.1-1.7c0,0,0,0,0,0
					c-0.1-0.4-0.3-0.9-0.3-1.5c0.1-3.2,4.5-5.2,6.3-6.1c10.4-4.9,21.4-9.9,32.6-15.1l0.9-0.4c0.6-0.3,1.1-0.5,1.7-0.8l5.2-2.4
					c0.4-0.2,0.8,0,1,0.4c0.2,0.4,0,0.8-0.4,1l-5.2,2.4c-0.6,0.3-1.1,0.5-1.7,0.8l-0.9,0.4c-11.2,5.1-22.2,10.2-32.6,15
					c-1.5,0.7-5.4,2.5-5.5,4.8c0,0.3,0.1,0.6,0.2,0.9c0,0,0,0,0,0l0,0c0.2,0.5,0.5,0.9,0.7,1.1c0,0,0.1,0.1,0.3,0.2
					c0,0,0.6,0.3,1.5,0c1-0.3,8.6-4.1,21-10.6c0.3-0.2,0.7-0.1,1,0.2c0.2,0.3,0.2,0.7-0.1,1c-6.9,6.5-11.6,10.9-14.1,13
					c0,0-0.5,0.4-1.2,1.1c-2.5,2.5-4.2,4.2-4.1,5.8c0.1,0.8,0.7,1.9,1.6,2.2c0.7,0.2,2.4-0.2,9.8-7c0.7-0.7,2.1-1.9,4.4-4.1
					c2.3-2.2,3.9-3.8,5-4.9c2.6-2.6,2.8-2.7,3.4-2.2c0.2,0.1,0.3,0.4,0.3,0.6c0.1,1.2-5.7,8.7-9.5,12.7c0,0-0.8,0.9-1.8,2.3
					c-0.8,1.2-2.3,3.3-2.6,5.2c-0.1,0.8-0.1,1.5,0.2,2c0.3,0.6,1.1,1.4,1.9,1.5c0.1,0,1.3,0,5.1-4.3c1.4-1.6,2.5-3,2.5-3
					c2.1-3,5.3-7.1,9.4-12.1c0.2-0.3,0.6-0.4,1-0.2c0.3,0.2,0.5,0.6,0.3,0.9c-1.1,2.9-2.2,5.6-3.2,8.2l-0.9,2.1
					c-0.8,1.9-1.4,3.4-1.8,4.7c-0.9,2.6-1,3.8-0.4,4.6c0.4,0.6,1.1,0.9,1.8,0.9c0.9,0,1.9-0.8,2.8-2.4c0.4-0.6,0.7-1.3,1-1.8
					l0.2-0.5c0.3-0.5,0.5-1,0.8-1.5c0,0,0-0.1,0.1-0.1c1.4-2.8,2.9-5.6,4.2-8.4c0.7-1.5,1.5-3,2.2-4.5c0.1-0.2,0.3-0.4,0.6-0.4
					c2.7-0.2,5.4-0.8,7.9-1.7c3.7-1.3,7.1-3.3,10.1-6c1.8-1.6,3.5-3.4,5-5.4c0.2-0.3,0.7-0.4,1-0.1c0.3,0.2,0.4,0.7,0.1,1
					c-1.5,2.1-3.3,4-5.2,5.6c-3.2,2.8-6.7,4.9-10.6,6.2c-2.5,0.9-5.2,1.5-7.9,1.8c-0.7,1.4-1.3,2.8-2,4.1c-1.4,2.8-2.8,5.6-4.2,8.4
					l-0.7-0.2l0.7,0.3c-0.3,0.5-0.5,1-0.8,1.6l-0.2,0.5c-0.3,0.6-0.7,1.3-1.1,2C790,410.5,788.7,411.5,787.1,411.6
					C787.2,411.6,787.2,411.6,787.1,411.6z M755.9,388.3L755.9,388.3L755.9,388.3z"/>
			</g>
			<g id="tshirt_2_">
				<path d="M781.6,401.4c1.6-2.3,4.4-6,9.4-12.1c-1.2,3.1-2.3,5.9-3.2,8.2c-1.2,2.9-2.1,5.1-2.7,6.8c-2,0-4,0.1-6,0.1
					C780.5,402.8,781.6,401.4,781.6,401.4z"/>
				<path d="M797.3,404c-1.1,0-2.3,0-3.4,0.1c-0.3,0-0.6,0-1,0h-0.1c0,0,0-0.1,0.1-0.1c1.4-2.8,2.8-5.6,4.2-8.4
					C797.1,398.4,797.2,401.2,797.3,404z"/>
				<path id="tshirt_1_" d="M822.2,255c-22.4-15-42.7-19.8-48.4-21c-4.4-0.9-10.2-2.2-17.1-3v-4.1c-6.7,0.2-13.7,0.3-20.7,0.3
					c-7.2,0-14.3-0.1-21.2-0.3v7.7c-1.8,0.6-3.6,1.2-5.5,1.9c-7.1,2.7-18.3,8-33.7,21.6c-20,17.7-35.4,39.2-41,47.3
					c-4.4-9-8.8-18.2-13.2-27.6c-3.3-7.1-6.5-14-9.6-21c0.1,2.7,1.6,42.3,1.7,45c0.1,3,1.7,44.1,1.8,47.1c1.2,1.4,3,3.2,5.6,4.7
					c0,0,1.9,1.4,4.1,2c18,4.6,41.3-20.9,51.2-31.8c3.3-3.6,5.9-6.8,7.6-9.1c-1.8,12.9-3.6,25.9-5.4,39c-2.5,17.8-5.1,35.4-7.8,52.8
					c33.3-0.7,66.5-1.3,99.8-2c0.3-2,1.8-4.2,2.7-5.5c0.9-1.3,1.7-2.2,1.9-2.3c4.8-5.1,9.5-12,9.3-12.2c-0.2-0.1-1.9,1.8-7.4,7.1
					c-2.5,2.4-3.8,3.6-4.4,4.2c-8,7.4-9.6,7.5-10.5,7.1c-1.2-0.4-2-1.8-2.1-2.8c-0.2-1.9,1.6-3.7,4.3-6.4c0.7-0.7,1.2-1.1,1.2-1.1
					c2-1.8,6.2-5.6,14.1-13c-11.5,6-20,10.3-21.1,10.6c-1.2,0.3-2-0.1-2-0.1c-0.2-0.1-0.4-0.2-0.4-0.3c-0.3-0.3-0.7-0.8-0.9-1.4
					c0,0-0.2-0.6-0.2-1.2c0.1-2.7,4.2-4.7,5.9-5.4c5.1-2.4,16.8-7.8,32.6-15c0.9,0.6,1.8,1.3,2.7,1.9c1.8,1.3,3.6,2.6,5.5,3.8
					c5.4,3.8,10.8,7.4,16.1,10.8c3.8,2.5,7.6,4.9,11.3,7.2c8.5-10.1,20.5-26.2,30.8-48.4c6.1-13.1,9.1-19.8,9.1-27.9
					C868.7,286.2,838.6,266,822.2,255z M813.3,336.2c-5.9,7-11.8,13.6-17.6,19.9l-0.9-27.6c-0.3-10.5-0.7-22.3-1-32.8
					c6,3,12.1,6.1,18.2,9.3c6.3,3.3,12.5,6.5,18.7,9.8C825.2,321.8,819.4,328.9,813.3,336.2z"/>
			</g>
			<g id="shoes">
				<path d="M619.1,675.1c1,7.7,2,14.9,2.8,21.5c-10.2-0.1-22.5-0.1-36.7,0c4.2-13.4,10-18.1,14.8-19.9
					C606.7,674.2,611.4,676.6,619.1,675.1z"/>
				<path d="M679.1,696.8c-3.6,0.1-8.6,0.1-14.6,0.1l-4.4-5.6v5.6h-0.3c-12.5,0-21.6-0.2-25.2-0.3c-2.1,0-4.4,0-6.9,0
					c-0.1-7.5-0.3-15.6-0.5-24.5c4-2.2,8.4-5.8,13-11.6h34.8C676.4,672.6,677.8,684.7,679.1,696.8z"/>
				<path d="M788.6,691.3l4.4,5.6c5.5,0,10.2-0.1,13.5-0.1c-1.3-12.1-2.7-24.1-4-36.2c-11.7,0.1-23.3,0.1-35,0.2
					c-7.6,9.7-14.8,13-20.1,14.2c-8.3,1.9-13-0.9-20,1.7c-4.7,1.8-10.6,6.5-14.8,19.9c20.8-0.1,37.5,0,49.4,0.1
					c3.6,0,12.7,0.3,25.2,0.3c0.5,0,0.9,0,1.3,0V691.3z"/>
			</g>
			<g id="head_1_">
				<path d="M721.4,227.8c-0.4,0-0.7-0.3-0.7-0.6c-0.2-1-0.4-2-0.6-3c-5.1,0.4-9.7-0.6-13.4-3.1c-9.3-6.1-9.3-18.5-9.3-22.6
					c0-2.8,0.4-10,3.8-16.8c0.1-0.1,0.1-0.2,0.2-0.3c2.4-4.8,5.9-8.5,10.4-10.8c1.2-0.6,11.5-5.8,21-1.3c6.6,3.2,10.8,10,13.7,22.2
					l0.1,0.5c0.1,0.4-0.1,0.8-0.5,0.9c-0.4,0.1-0.8-0.1-0.9-0.5l-0.1-0.6c-2.8-11.7-6.7-18.3-12.9-21.2c-8.8-4.2-18.6,0.7-19.7,1.2
					c-4.2,2.2-7.5,5.7-9.8,10.2c-0.1,0.1-0.1,0.2-0.1,0.2c-3.2,6.5-3.6,13.5-3.6,16.2c0,3.9,0,15.6,8.6,21.3
					c3.6,2.3,8.1,3.3,13.1,2.8c0.4,0,0.7,0.2,0.8,0.6c0.2,1.2,0.5,2.5,0.7,3.7c0.1,0.4-0.2,0.8-0.6,0.9
					C721.5,227.8,721.5,227.8,721.4,227.8z"/>
				<path d="M742.3,209.2c-0.2,0-0.3,0-0.5,0c-0.4,0-0.7-0.4-0.7-0.8s0.4-0.7,0.8-0.7c1,0,1.9-0.1,2.8-0.4c3.1-1.2,6.4-5.3,4.8-10
					c-0.7-2-2.1-3.5-4-4.4c-1.9-0.9-4-1-6-0.3c-1.1,0.4-2,1-2.1,1.1c-1.5,1.2-2.1,2.8-2.4,3.7c-0.1,0.4-0.5,0.6-0.9,0.5
					c-0.4-0.1-0.6-0.5-0.5-0.9c0.3-1,1-3,2.9-4.5l0,0c0.7-0.7,2.4-1.3,2.5-1.4c2.3-0.8,4.9-0.7,7.1,0.4c2.2,1.1,3.9,3,4.8,5.3
					c1.9,5.5-2,10.4-5.6,11.8C744.3,209.1,743.3,209.2,742.3,209.2z"/>
				<g id="hair_2_">
					<path id="hair_1_" d="M747.8,192.7c-0.6-0.4-4.7-2.6-8.7-1.1c-1.9,0.7-3.2,2.1-3.2,2.1c-1.1,1.2-1.5,2.5-1.7,3.2
						c-2.6-3.9-5.2-7.8-7.8-11.7c-2.8-0.8-4.9-1.9-6.2-2.6c-4.4-2.5-8.3-6.5-8.3-6.5c-0.9,1-2.2,2-3.7,3.1c-2.6,1.7-5.1,2.4-6.8,2.8
						c0.6-2,3-8.9,9.9-13.2c7.6-4.8,16.9-4.1,23.6-0.5C743.5,172.8,748.6,182.5,747.8,192.7z"/>
					<polygon points="749.3,204.2 749.7,214.7 745.9,207.5 					"/>
				</g>
				<path d="M751.7,227.8c-0.4,0-0.7-0.3-0.7-0.6c-0.7-4.2-1.3-8.4-2-12.6l-0.3-1.8c-0.3-2.3-0.7-4.6-1-6.9
					c-0.1-0.4,0.2-0.8,0.6-0.8c0.4-0.1,0.8,0.2,0.8,0.6c0.3,2.3,0.7,4.6,1,6.9l0.3,1.8c0.6,4.2,1.3,8.4,2,12.6
					c0.1,0.4-0.2,0.8-0.6,0.9C751.7,227.8,751.7,227.8,751.7,227.8z"/>
			</g>
			<g id="legs_1_">
				<path d="M763.4,661.5c-0.4,0-0.7-0.3-0.7-0.6c-2.5-16.8-5.2-34.6-8-52.9c0,0,0,0,0,0l-0.6-4c0,0,0,0,0,0
					c-4.3-27.7-8.8-55.8-13.5-83.6l-0.7-4.3c-0.3-1.6-0.5-3.2-0.8-4.7c-3.6-21.3-7.3-42.8-11.4-66c-0.1-0.4,0.2-0.8,0.6-0.9
					c0.4-0.1,0.8,0.2,0.9,0.6c4.1,23.1,7.8,44.7,11.4,66c0.3,1.6,0.5,3.2,0.8,4.7l0.7,4.3c4.6,27.8,9.2,55.9,13.5,83.6c0,0,0,0,0,0
					l0.6,4c0,0,0,0,0,0c2.8,18,5.5,35.6,7.9,52.3l15.6-0.1c1.6,0,3.1,0,4.6,0c6.1,0,12.1-0.1,18.2-0.1l9.3-0.1l-18.7-255.6
					c0-0.4,0.3-0.8,0.7-0.8c0.4,0,0.8,0.3,0.8,0.7l18.8,256.4c0,0.2-0.1,0.4-0.2,0.6c-0.1,0.2-0.3,0.2-0.5,0.2l-10.1,0.1
					c-6.1,0-12.1,0.1-18.2,0.1c-1.5,0-3.1,0-4.6,0L763.4,661.5C763.4,661.5,763.4,661.5,763.4,661.5z"/>
				<path d="M678,661.2h-45.9c-0.2,0-0.4-0.1-0.6-0.3c-0.1-0.2-0.2-0.4-0.2-0.6l50.6-255.5c0.1-0.4,0.5-0.7,0.9-0.6
					c0.4,0.1,0.7,0.5,0.6,0.9l-50.5,254.6h44.4l0.3-1l38.1-119c0,0,0,0,0,0l18.3-57.2c0.1-0.4,0.5-0.6,0.9-0.5
					c0.4,0.1,0.6,0.5,0.5,0.9l-18.3,57.2c0,0,0,0,0,0l-0.4,1.2l-38.2,119.3C678.6,661,678.4,661.2,678,661.2z"/>
				<g id="pattern">
					<g>
						<circle cx="685.3" cy="405.6" r="2.4"/>
						<circle cx="711.7" cy="405.6" r="2.4"/>
						<circle cx="738.1" cy="405.6" r="2.4"/>
						<circle cx="764.6" cy="405.6" r="2.4"/>
						<path d="M793.4,405.6c0,1.4-1.1,2.4-2.4,2.4c-0.1,0-0.2,0-0.3,0c0.4-0.7,0.8-1.3,1.1-1.9c0.3-0.7,0.7-1.3,1-2
							c0,0,0-0.1,0.1-0.1c0,0,0.1,0.1,0.1,0.1C793.2,404.5,793.4,405.1,793.4,405.6z"/>
						<circle cx="698.5" cy="417.9" r="2.4"/>
						<circle cx="724.9" cy="417.9" r="2.4"/>
						<circle cx="751.4" cy="417.9" r="2.4"/>
						<circle cx="777.8" cy="417.9" r="2.4"/>
						<circle cx="685.3" cy="432.1" r="2.4"/>
						<circle cx="711.7" cy="432.1" r="2.4"/>
						<circle cx="738.1" cy="432.1" r="2.4"/>
						<circle cx="764.6" cy="432.1" r="2.4"/>
						<circle cx="791" cy="432.1" r="2.4"/>
						<circle cx="698.5" cy="444.3" r="2.4"/>
						<circle cx="724.9" cy="444.3" r="2.4"/>
						<circle cx="751.4" cy="444.3" r="2.4"/>
						<circle cx="777.8" cy="444.3" r="2.4"/>
					</g>
					<g>
						<circle cx="685.3" cy="459.5" r="2.4"/>
						<circle cx="711.7" cy="459.5" r="2.4"/>
						<circle cx="738.1" cy="459.5" r="2.4"/>
						<circle cx="764.6" cy="459.5" r="2.4"/>
						<circle cx="791" cy="459.5" r="2.4"/>
						<circle cx="672.1" cy="471.8" r="2.4"/>
						<circle cx="698.5" cy="471.8" r="2.4"/>
						<circle cx="724.9" cy="471.8" r="2.4"/>
						<circle cx="751.4" cy="471.8" r="2.4"/>
						<circle cx="777.8" cy="471.8" r="2.4"/>
						<circle cx="685.3" cy="486" r="2.4"/>
						<circle cx="711.7" cy="486" r="2.4"/>
						<circle cx="738.1" cy="486" r="2.4"/>
						<circle cx="764.6" cy="486" r="2.4"/>
						<circle cx="791" cy="486" r="2.4"/>
						<circle cx="672.1" cy="498.2" r="2.4"/>
						<circle cx="698.5" cy="498.2" r="2.4"/>
						<circle cx="724.9" cy="498.2" r="2.4"/>
						<circle cx="751.4" cy="498.2" r="2.4"/>
						<circle cx="777.8" cy="498.2" r="2.4"/>
					</g>
					<g>
						<path d="M663.7,513.4c0,1.3-1.1,2.4-2.4,2.4c-0.2,0-0.3,0-0.5,0l0.9-4.8C662.9,511.3,663.7,512.3,663.7,513.4z"/>
						<circle cx="687.7" cy="513.4" r="2.4"/>
						<circle cx="714.2" cy="513.4" r="2.4"/>
						<path d="M743,513.4c0,1.3-1.1,2.4-2.4,2.4c-0.3-1.6-0.5-3.2-0.8-4.7c0.2-0.1,0.5-0.1,0.8-0.1C741.9,511,743,512.1,743,513.4z"
							/>
						<circle cx="767" cy="513.4" r="2.4"/>
						<circle cx="793.4" cy="513.4" r="2.4"/>
						<circle cx="674.5" cy="525.7" r="2.4"/>
						<circle cx="700.9" cy="525.7" r="2.4"/>
						<circle cx="753.8" cy="525.7" r="2.4"/>
						<circle cx="780.2" cy="525.7" r="2.4"/>
						<circle cx="661.3" cy="539.9" r="2.4"/>
						<circle cx="687.7" cy="539.9" r="2.4"/>
						<circle cx="714.2" cy="539.9" r="2.4"/>
						<circle cx="767" cy="539.9" r="2.4"/>
						<circle cx="793.4" cy="539.9" r="2.4"/>
						<circle cx="674.5" cy="552.1" r="2.4"/>
						<circle cx="700.9" cy="552.1" r="2.4"/>
						<circle cx="753.8" cy="552.1" r="2.4"/>
						<circle cx="780.2" cy="552.1" r="2.4"/>
						<path d="M804.8,553.7c-0.4-0.4-0.6-1-0.6-1.6c0-0.5,0.1-0.9,0.4-1.3C804.7,551.8,804.7,552.7,804.8,553.7z"/>
					</g>
					<g>
						<circle cx="661.3" cy="567.3" r="2.4"/>
						<circle cx="687.7" cy="567.3" r="2.4"/>
						<circle cx="767" cy="567.3" r="2.4"/>
						<circle cx="793.4" cy="567.3" r="2.4"/>
						<path d="M650.5,579.6c0,1.3-1.1,2.4-2.4,2.4c-0.1,0-0.2,0-0.3,0l0.9-4.8C649.7,577.5,650.5,578.4,650.5,579.6z"/>
						<circle cx="674.5" cy="579.6" r="2.4"/>
						<circle cx="700.9" cy="579.6" r="2.4"/>
						<circle cx="753.8" cy="579.6" r="2.4"/>
						<circle cx="780.2" cy="579.6" r="2.4"/>
						<path d="M806.9,582c-0.1,0-0.1,0-0.2,0c-1.3,0-2.4-1.1-2.4-2.4c0-1.3,1-2.4,2.3-2.4C806.6,578.7,806.8,580.4,806.9,582z"/>
						<circle cx="661.3" cy="593.8" r="2.4"/>
						<circle cx="687.7" cy="593.8" r="2.4"/>
						<circle cx="767" cy="593.8" r="2.4"/>
						<circle cx="793.4" cy="593.8" r="2.4"/>
						<circle cx="648.1" cy="606" r="2.4"/>
						<circle cx="674.5" cy="606" r="2.4"/>
						<path d="M756.2,606c0,0.7-0.3,1.4-0.8,1.8c-0.2-1.3-0.4-2.7-0.6-4C755.6,604.2,756.2,605,756.2,606z"/>
						<circle cx="780.2" cy="606" r="2.4"/>
						<circle cx="806.7" cy="606" r="2.4"/>
					</g>
					<g>
						<circle cx="663" cy="621.2" r="2.4"/>
						<path d="M691.2,619.5l-1.3,4.2c-0.1,0-0.2,0-0.4,0c-1.3,0-2.4-1.1-2.4-2.4c0-1.3,1.1-2.4,2.4-2.4
							C690.1,618.8,690.7,619,691.2,619.5z"/>
						<circle cx="768.7" cy="621.2" r="2.4"/>
						<circle cx="795.2" cy="621.2" r="2.4"/>
						<circle cx="649.8" cy="633.5" r="2.4"/>
						<circle cx="676.2" cy="633.5" r="2.4"/>
						<circle cx="782" cy="633.5" r="2.4"/>
						<circle cx="808.4" cy="633.5" r="2.4"/>
						<circle cx="636.6" cy="647.7" r="2.4"/>
						<circle cx="663" cy="647.7" r="2.4"/>
						<circle cx="768.7" cy="647.7" r="2.4"/>
						<circle cx="795.2" cy="647.7" r="2.4"/>
						<path d="M652.3,659.9c0,0.2,0,0.4-0.1,0.6h-4.7c0-0.2-0.1-0.4-0.1-0.6c0-1.3,1.1-2.4,2.4-2.4
							C651.2,657.5,652.3,658.6,652.3,659.9z"/>
						<path d="M678.5,659l-0.5,1.5h-4.1c0-0.2-0.1-0.4-0.1-0.6c0-1.3,1.1-2.4,2.4-2.4C677.3,657.5,678.1,658.1,678.5,659z"/>
						<path d="M784.4,659.9c0,0.3,0,0.5-0.1,0.8h0c-1.5,0-3.1,0-4.6,0c-0.1-0.2-0.1-0.5-0.1-0.8c0-1.3,1.1-2.4,2.4-2.4
							C783.3,657.5,784.4,658.6,784.4,659.9z"/>
						<path d="M810.8,659.9c0,0.2,0,0.4-0.1,0.6c-1.6,0-3.1,0-4.7,0c-0.1-0.2-0.1-0.4-0.1-0.6c0-1.3,1.1-2.4,2.4-2.4
							C809.7,657.5,810.8,658.6,810.8,659.9z"/>
					</g>
				</g>
			</g>
			<path d="M573.7,248.5c-0.3,0-0.7,0-1-0.1c-1.3-0.3-2.4-1.1-3.4-2.4c-0.9-1.2-1.7-2.8-2.4-4.4l-0.1-0.2c-1.9-4-2.8-8-2.7-11.7
				c0.1-5.3,2.3-10.8,6-15.6c3.2-4,7.4-7.3,11.9-9.1c0.6-0.3,1.2-0.5,1.9-0.7c4-1.3,8.6-1,16.9-0.4c3.6,0.2,6.3,0.6,8,1.8
				c0.6,0.4,1.1,1,1.4,1.6c0.5,1.2,0.7,3-0.3,4.2c1.9,0.6,3.2,1.9,3.6,3.5c0.3,1.4-0.2,2.9-1.2,4c-0.7,0.8-1.7,1.2-2.9,1.4
				c-1.1,0.1-2.3,0-3.8-0.1c-1-0.1-2.1-0.2-3.4-0.2c-3.6-0.1-7.2,0.2-10.1,0.5c3.4,0.5,6.9,1.2,10.4,1.9c3.2,0.7,5.9,1.3,7.6,2.3
				c0,0,0.1,0,0.1,0.1c0.9,0.6,1.5,1.3,1.8,2.2c0.5,1.4,0,3.2-1.1,4.3c-0.1,0.1-0.2,0.2-0.3,0.2c0,0-0.1,0-0.1,0.1
				c-1.4,1-3.2,0.7-5.8,0.3c-2.7-0.4-5.3-0.8-7.6-1.1c-2.2-0.3-4.1-0.6-5.6-0.8c3.1,1.2,5.9,2,8.2,2.6c4.2,1.1,6.9,1.9,7.6,4.1
				c0.1,0.3,0.5,1.5-0.1,2.6c-0.7,1.2-2.3,1.5-2.9,1.6c-4.7,0.7-16.8-3.3-20.2-4.5c-0.3,2.5-1.2,4.8-2.6,6.7
				C581.1,244,577.7,248.5,573.7,248.5z M591.1,204.8c-2.7,0-4.8,0.2-6.7,0.8c-0.6,0.2-1.2,0.4-1.8,0.7c-4.3,1.8-8.3,4.8-11.3,8.7
				c-3.6,4.5-5.6,9.7-5.7,14.7c-0.1,3.5,0.8,7.2,2.5,11l0.1,0.2c0.7,1.6,1.4,3.1,2.3,4.2c0.8,1.1,1.6,1.7,2.6,1.9
				c3.5,0.7,7.1-4.2,7.5-4.8c1.4-2,2.2-4.4,2.4-6.9c0-0.2,0.1-0.4,0.3-0.6c0.2-0.1,0.4-0.2,0.7-0.1c0.2,0.1,15.3,5.5,20.3,4.7
				c0.4-0.1,1.4-0.2,1.8-0.9c0.3-0.6,0-1.4,0-1.4c-0.5-1.5-3.1-2.2-6.6-3.1c-2.6-0.7-5.8-1.6-9.3-3c-1-0.4-2-0.8-2.6-1.1
				c-0.3-0.1-0.5-0.2-0.7-0.3l-0.2-0.1c-0.3-0.2-0.5-0.5-0.4-0.9c0.1-0.3,0.4-0.6,0.8-0.6l1.1,0.1c0.8,0.1,2.2,0.2,3.8,0.4
				c1.5,0.2,3.5,0.5,5.7,0.9c2.3,0.4,4.9,0.8,7.6,1.1c2.4,0.3,3.8,0.5,4.7,0c0,0,0,0,0.1-0.1c0.1,0,0.1-0.1,0.2-0.1
				c0.7-0.7,1-1.8,0.7-2.8c-0.2-0.6-0.6-1-1.2-1.4c0,0-0.1,0-0.1-0.1c-1.5-0.9-4.1-1.5-7-2.1c-4.5-0.9-8.9-1.7-13.3-2.3
				c-0.6-0.1-1.2-0.2-1.8-0.2c-0.4,0-0.6-0.3-0.7-0.7c0-0.4,0.2-0.7,0.6-0.8c0,0,0.6-0.1,1.8-0.3c3.3-0.6,8.3-1.2,13.5-1
				c1.3,0,2.4,0.1,3.4,0.2c1.5,0.1,2.6,0.2,3.5,0.1c0.9-0.1,1.5-0.4,2-0.9c0.7-0.7,1-1.8,0.8-2.6c-0.3-1.3-1.6-2.3-3.4-2.6
				c-0.2,0-0.4-0.1-0.6-0.1c-0.1,0-0.1,0-0.2-0.1c-1,0.2-2.5,0.1-5,0.1l-1.1,0c-2.2-0.1-3.3-0.1-3.9-0.1c-3.3-0.2-6.8-0.1-10.5,0.5
				c-0.4,0.1-0.8-0.2-0.8-0.6c-0.1-0.4,0.2-0.8,0.6-0.8c3.8-0.5,7.4-0.7,10.8-0.5c0.5,0,1.7,0.1,3.8,0.1l1.1,0
				c3.3,0.1,4.8,0.1,5.5-0.3c0.1-0.1,0.2-0.1,0.3-0.2c0.5-0.6,0.6-1.8,0.1-2.7c-0.2-0.4-0.5-0.7-0.9-1c-1.5-1-4.3-1.3-7.2-1.5
				C596.8,205,593.7,204.8,591.1,204.8z"/>
		</g>
		<g id="thread">
			<path d="M695.2,244.2c-0.3,0-0.6-0.2-0.7-0.5c-6.7-21.2-16.1-41.4-27.8-59.9c-11.9-18.7-36.6-57.6-69.4-77.9
				c-0.4-0.2-0.5-0.7-0.2-1c0.2-0.4,0.7-0.5,1-0.2c33.1,20.4,57.9,59.5,69.8,78.3c11.8,18.6,21.2,38.9,28,60.2
				c0.1,0.4-0.1,0.8-0.5,0.9C695.4,244.2,695.3,244.2,695.2,244.2z"/>
			<path d="M520.8,288.5c-14.5,0-29.4-3.8-42.3-10.8c-14.8-8-25.8-19.5-31.9-33.2c-6.3-14.1-6.2-25.7-5.5-31.3
				c2.4-20.8,13.1-46.3,28.8-68.1c23.4-32.7,53.2-52.2,81.7-53.7c6-0.3,12,0.2,18,1.4c3.1,0.6,6.3,1.5,9.5,2.6
				c2.8,1,5.6,2.1,8.4,3.4c0.4,0.2,0.5,0.6,0.4,1c-0.2,0.4-0.6,0.5-1,0.4c-2.7-1.3-5.5-2.4-8.3-3.3c-3.1-1.1-6.2-2-9.3-2.6
				c-5.9-1.2-11.8-1.7-17.6-1.4c-28,1.4-57.4,20.8-80.5,53c-15.5,21.7-26.2,46.9-28.6,67.4c-0.5,4.4-1,16.3,5.4,30.5
				c6,13.4,16.8,24.6,31.3,32.4c13.5,7.3,29.2,11.1,44.2,10.6c22.7-0.7,40-10.9,50.5-19.4c0.3-0.3,0.8-0.2,1.1,0.1
				c0.3,0.3,0.2,0.8-0.1,1.1c-10.7,8.6-28.4,19-51.4,19.7C522.6,288.5,521.7,288.5,520.8,288.5z"/>
			<path d="M132.6,313.5c-0.3,0-0.6-0.2-0.7-0.5c-3.9-10.4-7.5-21-10.6-31.5l-0.1-0.2c-5.8-19.5-14.5-48.8-19.3-80
				c-7.9-51.9-1.3-88.6,19.5-108.9c5.8-5.7,13.3-10.6,20.4-13.6c8.8-3.6,17-4.3,23.8-1.9c5.2,1.8,9.8,5.5,13.9,11.2
				c0.2,0.3,0.2,0.8-0.2,1c-0.3,0.2-0.8,0.2-1-0.2c-3.9-5.4-8.2-8.9-13.1-10.6c-13.7-4.8-31.8,4.5-42.7,15.2
				c-20.5,20-26.9,56.2-19.1,107.6c4.7,31.1,13.5,60.4,19.2,79.8l0.1,0.2c3.1,10.5,6.7,21,10.6,31.4c0.1,0.4-0.1,0.8-0.4,1
				C132.8,313.4,132.7,313.5,132.6,313.5z"/>
			<path d="M375.5,722.6c-18.6,0-34.4-4.8-45.4-14c-5.6-4.7-10.5-11-14-18c-3-6-4.9-12.4-5.5-18.6c-0.5-5.4-0.1-10.5,1.2-15.3
				c4.2-14.9,18.7-28.2,39.7-36.4c19.9-7.8,43.8-10.1,63.7-6.2c22.9,4.4,37.1,15.8,50.9,26.8c5.2,4.1,10.1,8,15.3,11.4
				c7.5-26.5,5-60.6-7.2-98.6c-20.7,9.5-57.1,20.6-92.6,24.4c-30.6,3.3-71.5,2.4-92.9-21c-1.4-1.6-2.8-3.2-4-4.9
				c-13.9-19.5-10.5-44.1-8.9-56c0,0,0,0,0,0c2.1-15.4,8-31,16.6-43.9c10.1-15.2,23.5-26.2,38.9-31.7c7-2.5,14.3-4,21.7-4.3
				c-0.2-4.7,0-9.2,0.7-13.5c0.9-5.1,2.4-9.9,4.6-14.1c12.2-23.4,42.6-26.7,74.7-30.1c16.8-1.8,34.2-3.7,49.4-8.6
				c-51.1-27.1-72.2-56.4-83.5-76.2c-6.9-12.1-12.7-25.3-17.5-40.5c-21.7,13.5-36,31.4-39.5,49.1c-2.2,11.5,0.6,20.2,3.7,29.4
				c3.5,10.5,7.1,21.5,2.2,36.7c-7.8,24-29.5,38.6-45.7,43.8c-22.4,7.2-51.4,2.8-74-11.3c-12.4-7.7-21.5-17.8-25.5-28.3
				c-7.6-19.8-0.4-49.5,19.6-81.7c14.2-22.9,33.9-45.5,56.9-65.2c5.4-4.7,11.1-9.2,16.8-13.5c5.3-4,10.7-7.7,16.1-11.2
				c14.5-9.5,29.6-17.5,44.7-23.7c-3.4-3.9-7.5-6.3-12.4-7.4c-12.4-2.8-24,4.4-36.2,12.1c-0.4,0.2-0.8,0.1-1-0.2s-0.1-0.8,0.2-1
				c12.5-7.9,24.4-15.3,37.4-12.3c5.4,1.2,9.8,4,13.5,8.3c26.9-10.9,53.6-16.2,79.3-15.7c10.7,0.2,21.9,1.4,33.2,3.6
				c37.2,7.2,75.3,25,99.4,46.4c0.3,0.3,0.3,0.7,0.1,1.1c-0.3,0.3-0.7,0.3-1.1,0.1c-23.9-21.2-61.8-38.9-98.7-46.1
				c-11.2-2.2-22.3-3.4-32.9-3.6c-25.4-0.5-51.7,4.7-78.3,15.4c7,9.2,10.5,23.6,14.9,41.7c2.3,9.5,4.9,20.2,8.3,31.2
				c18.4-11.1,39.4-17.6,59.5-18.4c12.3-0.5,24,1.2,34.6,5c10.5,3.8,36,15.4,47.1,42.1c0,0.1,0.1,0.2,0.2,0.4
				c8.5,20.6,7.1,45.7-3.6,63.8c-7.1,12.1-18.2,20.7-33.8,26.4c13.4,6.9,26.6,12.7,39.4,18.3c27,11.8,50.3,22,62.7,37.8
				c5.3,6.7,8.2,13.9,9.1,22.1c0.9,8.2-0.5,16.7-4.1,25.2c0,0,0,0,0,0.1c-7.6,17.8-24.1,33.8-37.9,45.8
				c31.3,43.5,42.4,116.6,9.7,146.1c-9.9,9-29,18.4-46.3,19.1c-9.1,0.4-17.4-1.7-17.5-1.7c-6.4-1.6-12.5-4.3-19-8.3
				c-2.8,9.2-6.9,17.5-12.1,24.5c-16.1,21.9-47.8,38.6-80.8,42.6C384.7,722.3,380,722.6,375.5,722.6z M395.4,613.7
				c-14.6,0-29.8,2.7-43.2,8c-20.6,8-34.7,20.9-38.8,35.4c-1.3,4.6-1.7,9.5-1.2,14.8c0.6,6,2.4,12.2,5.3,18
				c3.4,6.9,8.1,12.9,13.6,17.5c13.3,11.2,34.1,15.7,58.3,12.8c32.5-3.9,63.8-20.4,79.7-42c5.2-7,9.2-15.3,12-24.5
				c-5.4-3.5-10.5-7.5-15.8-11.8c-13.6-10.9-27.7-22.1-50.2-26.5C408.8,614.3,402.2,613.7,395.4,613.7z M482.9,653.1
				c6.5,4.1,12.6,6.8,19,8.4c0.1,0,8.2,2,17.1,1.6c16.9-0.7,35.6-9.9,45.3-18.7c32.1-29,21.1-101-9.9-144c-5.8,5-11.7,9.9-17,14.2
				c-18,14.8-38.7,27.7-61.7,38.4C488.1,591.6,490.6,626.2,482.9,653.1z M277.4,496.3C277.4,496.3,277.4,496.4,277.4,496.3
				c-1.6,11.7-4.9,35.9,8.6,55c1.2,1.6,2.5,3.2,3.9,4.8c21,22.9,61.4,23.8,91.6,20.5c35.4-3.8,71.7-15,92.3-24.4
				c-14.5-44.3-32.6-70.9-38.3-78.6c-18.6,5-38.1,8.7-55.8-4.2c-14.4-10.5-25-31.3-26.6-51.7c-7.3,0.3-14.5,1.8-21.3,4.2
				C310.4,429.7,283.2,453.9,277.4,496.3z M437.1,473.2c6.1,8.4,23.9,34.9,38.1,78.4c22.8-10.6,43.4-23.4,61.2-38.1
				c5.3-4.3,11.2-9.3,17-14.3c-8.5-11.6-18.7-23.4-35.3-30.9c-24.7-11.3-48.8-4.3-72.1,2.4C443.1,471.5,440.1,472.4,437.1,473.2z
				 M490,460.7c9.5,0,19.1,1.7,28.8,6.1c16.8,7.7,27.2,19.5,35.8,31.3c13.6-11.9,29.9-27.6,37.4-45.1c0,0,0,0,0-0.1
				c3.6-8.4,4.9-16.4,4-24.5c-0.9-7.9-3.7-14.9-8.8-21.3c-12.1-15.4-35.3-25.6-62.1-37.3c-13.2-5.8-26.8-11.8-40.7-19
				c-15.6,5.3-33.6,7.2-51.1,9.1c-31.7,3.4-61.6,6.6-73.5,29.3c-2.1,4-3.6,8.6-4.4,13.6c-0.7,4.1-0.9,8.6-0.7,13.2
				c3.1-0.1,6.3,0,9.1,0.3c33.7,3.7,54.3,31.1,72.5,55.4c3.1-0.9,6.3-1.8,9.5-2.7C460.1,465,474.9,460.7,490,460.7z M354.7,417.6
				c1.5,20,11.9,40.3,26,50.6c17,12.4,35.9,9,53.9,4.1c-17.9-24-38.3-50.8-71.1-54.4C360.8,417.7,357.8,417.5,354.7,417.6z
				 M357.7,158.7c-15.2,6.2-30.3,14.2-44.9,23.7c-5.3,3.5-10.7,7.2-16,11.2c-5.7,4.3-11.3,8.8-16.7,13.4
				c-22.8,19.6-42.4,42.1-56.6,64.8c-19.7,31.7-26.8,61-19.4,80.3c3.9,10.2,12.7,20,24.9,27.5c22.2,13.8,50.8,18.2,72.7,11.1
				c15.8-5.1,37-19.4,44.7-42.9c4.8-14.8,1.3-25.5-2.2-35.8c-3-9-6.1-18.3-3.8-30.2c3.6-18.2,18.3-36.5,40.5-50.3
				c-3.5-11.2-6.1-22-8.4-31.6C368.2,182,364.7,167.6,357.7,158.7z M382.8,232.4c4.8,15.2,10.5,28.5,17.5,40.5
				c23.7,41.2,59.3,63.3,84.2,76.3c16-5.5,27.2-14.1,34.3-26.2c10.5-17.7,11.8-42.3,3.5-62.5c0-0.1-0.1-0.2-0.1-0.3
				c-10.9-26.2-36-37.6-46.2-41.3c-10.4-3.8-21.9-5.4-34-5C421.9,214.8,401,221.3,382.8,232.4z"/>
			<path d="M255.9,181.5c-3.4,0-6.8-0.3-10.3-0.8c-7.6-1.1-25.3-3.7-37.1-17.5c-6.1-7.2-7.5-13.6-9.4-22.5c-1-4.4-2-9.5-3.9-15.5
				c-0.7-2.2-1.5-4.6-2.4-7c-0.1-0.4,0-0.8,0.4-1c0.4-0.2,0.8,0,1,0.3c0,0,0.1,0.1,0.1,0.2c0.9,2.4,1.7,4.8,2.4,7
				c1.9,6.1,3,11.2,4,15.6c1.9,8.7,3.2,14.9,9.1,21.8c11.5,13.4,28.8,15.9,36.2,17c8.7,1.3,17,0.9,25.4-1.1c2.3-0.5,4.7-1.2,6.9-2
				l0.4-0.1l0.3,0.7l0.2,0.7l-0.4,0.1c-2.3,0.8-4.7,1.5-7.1,2.1C266.4,180.8,261.2,181.5,255.9,181.5z"/>
		</g>
		<g id="needle">
			<path d="M628.7,746.5c-0.4,0-0.7-0.3-0.7-0.6c-3.3-23.7-6.5-47.5-9.5-70.7c-9.7-73.8-18.6-148.4-26.5-221.8
				c-1.7-15.5-3.3-31.2-4.9-46.6c-4.9-47.2-9.4-95.1-13.6-142.2c-0.4-5.7-0.8-11.3-1.2-16.9c0-0.4,0.3-0.8,0.7-0.8
				c0.4,0,0.8,0.3,0.8,0.7c0.4,5.5,0.8,11.2,1.2,16.8c4.2,47.2,8.7,95,13.6,142.2c1.6,15.4,3.2,31.1,4.9,46.6
				c7.9,73.4,16.8,148,26.5,221.8c2.5,19.2,5.1,38.8,7.8,58.5c0-0.2,0-0.4,0-0.5l0-0.2c0-0.3-0.5-30.6-1.1-60.6
				c-0.5-25.1-5.7-164.9-15.4-415.3c-0.6-9.6-1.2-18.9-1.7-25.9l0.7-0.1h0.8c0.5,7,1.1,16.3,1.7,25.9
				c9.7,250.5,14.9,390.2,15.4,415.4c0.6,30,1.1,60.3,1.1,60.6l0,0.2c0.1,4.3,0.1,8.6,0.2,12.8C629.4,746.2,629.1,746.5,628.7,746.5
				C628.7,746.5,628.7,746.5,628.7,746.5z"/>
			<path d="M570.7,215.3c-0.4,0-0.7-0.3-0.7-0.7c-0.5-8.8-0.9-16-1.2-22.7c-2-42.7-2.1-75.8-0.1-98.3c1.6-19,4.6-30.6,9.1-35.3
				c1.7-1.7,3.3-2.4,5-1.8c2.1,0.7,8.5,2.7,15.7,48.8c3.8,24.4,7.3,58.4,10.6,100.9c0,0.4-0.3,0.8-0.7,0.8c-0.4,0-0.8-0.3-0.8-0.7
				c-3.3-42.5-6.9-76.4-10.6-100.8c-5.8-37.4-11.2-46.5-14.6-47.6c-1.1-0.3-2.3,0.1-3.5,1.4c-4.2,4.4-7.1,16-8.7,34.4
				c-1.9,22.4-1.9,55.4,0.1,98.1c0.3,6.7,0.7,13.9,1.2,22.7C571.5,214.9,571.2,215.3,570.7,215.3
				C570.8,215.3,570.8,215.3,570.7,215.3z"/>
			<path d="M588.5,157.6h-5.9c-0.4,0-0.7-0.3-0.7-0.6c-2.2-13.1-3.5-26.5-3.9-39.8c-0.2-9-0.1-19.1,0.5-27.1
				c0.9-14.5,2.5-14.6,3.3-14.6c0.8,0,2.4-0.1,4.8,14c1.3,8,2.5,18.1,3.1,27.1l0,0c0.9,13.4,0.8,27-0.4,40.3
				C589.2,157.3,588.9,157.6,588.5,157.6z M583.2,156.1h4.6c1.1-13,1.2-26.3,0.3-39.4l0,0c-1.3-19-4.5-37.4-6.3-39.6
				c-1.5,2.3-2.8,20.5-2.3,40C579.8,130.2,581,143.3,583.2,156.1z"/>
			<path d="M609.8,225.3l-0.8,0c-0.1-1.2-0.2-2.5-0.3-3.8l-0.1-2c0-0.4,0.3-0.8,0.7-0.8c0.4,0,0.8,0.3,0.8,0.7l0.1,2
				c0.1,1.3,0.2,2.5,0.3,3.8L609.8,225.3z"/>
		</g>
	</g>
</g>
</svg>
