<svg xmlns="http://www.w3.org/2000/svg" width="94.855" height="24.133" viewBox="0 0 94.855 24.133">
  <g id="thinkerfox" transform="translate(-166.414 -248.488)">
    <g id="Group_58" data-name="Group 58" transform="translate(166.414 248.488)">
      <path id="Path_22" data-name="Path 22" d="M169.59,255.33l3.771,7.191,4.881,9.307.265.505a.584.584,0,0,0,.913.118l5.54-6.28,6.384-7.237.095-.107a.594.594,0,0,0,0-.822l-3.1-3.379.15.257-2.382-5.982a.587.587,0,0,0-1.121,0l-2.346,5.709.561-.427H174.82l.561.427-2.346-5.709a.587.587,0,0,0-1.122,0l-2.382,5.982.15-.257L166.58,258a.593.593,0,0,0,0,.822l5.066,5.744,6.771,7.675.181.206a.585.585,0,0,0,.914-.118l3.771-7.191,4.881-9.307.265-.505c.348-.663-.655-1.251-1-.587l-3.771,7.191-4.881,9.307-.265.505.913-.118-6.389-7.243-4.973-5.637L167.4,258v.822l3.063-3.337a1.482,1.482,0,0,0,.263-.487l.361-.907q.566-1.418,1.13-2.837l.816-2.048h-1.122l2.346,5.71a.6.6,0,0,0,.561.426H183.2a.6.6,0,0,0,.56-.426l2.346-5.71h-1.121l1.764,4.431.617,1.55a2.365,2.365,0,0,0,.518.658l.944,1.028,1.789,1.949V258l-5.539,6.28-6.384,7.237-.095.107.914.118-3.771-7.191-4.881-9.307-.265-.506c-.348-.664-1.352-.077-1,.587Z" transform="translate(-166.414 -248.488)"/>
    </g>
    <g id="Group_59" data-name="Group 59" transform="translate(197.197 251.817)">
      <path id="Path_23" data-name="Path 23" d="M256.41,271.13v.511c.493,0,.987-.017,1.191-.017v.766c-.2,0-.987-.017-1.191-.017V277c0,.6.018,1.718.018,2.041h-.783c0-.323.017-1.446.017-2.041V271.13c0-.6-.017-1.718-.017-2.042h.783C256.427,269.412,256.41,270.535,256.41,271.13Z" transform="translate(-255.644 -265.311)"/>
      <path id="Path_24" data-name="Path 24" d="M267.258,260.773v3.913a6.1,6.1,0,0,1-.1,1.276l.068.035a2.82,2.82,0,0,1,2.347-1.345,2.444,2.444,0,0,1,2.45,2.62v2.944c0,.6.017,1.718.017,2.041h-.783c0-.323.017-1.446.017-2.041v-2.824c0-1.277-.731-2.009-1.7-2.009a2.5,2.5,0,0,0-2.313,2.45v2.382c0,.6.017,1.718.017,2.041h-.783c0-.323.018-1.446.018-2.041v-9.443c0-.6-.018-1.719-.018-2.042h.783C267.275,259.054,267.258,260.178,267.258,260.773Z" transform="translate(-262.75 -258.527)"/>
      <path id="Path_25" data-name="Path 25" d="M289.887,272.908c0-.6-.018-1.718-.018-2.042h.783c0,.324-.017,1.447-.017,2.042v3.318c0,.6.017,1.718.017,2.041h-.783c0-.323.018-1.446.018-2.041Zm.748-3.9c0,.119-.17.2-.374.2s-.374-.085-.374-.2v-.9c0-.119.17-.2.391-.2.2,0,.357.085.357.2Z" transform="translate(-278.062 -264.537)"/>
      <path id="Path_26" data-name="Path 26" d="M300.593,277.034l.068.033a2.911,2.911,0,0,1,2.314-1.174,2.435,2.435,0,0,1,2.484,2.672v2.893c0,.6.018,1.718.018,2.041h-.783c0-.323.017-1.446.017-2.041v-2.723c0-1.191-.544-2.11-1.735-2.11a2.249,2.249,0,0,0-2.28,2.178v2.655c0,.6.017,1.718.017,2.041h-.783c0-.323.016-1.446.016-2.041v-3.318c0-.6-.016-1.718-.016-2.042h.749A4.288,4.288,0,0,1,300.593,277.034Z" transform="translate(-284.652 -269.768)"/>
      <path id="Path_27" data-name="Path 27" d="M323.077,260.773c0-.6-.017-1.719-.017-2.042h.783c0,.323-.017,1.447-.017,2.042v5.377a9.577,9.577,0,0,1-.1,1.837l.068.034a9.748,9.748,0,0,1,1.122-1.327l.783-.851c.238-.272.9-.987.9-.987h1.038c-.2.238-.97,1.055-1.4,1.5l-1.616,1.752,2.518,2.672,1.412,1.48h-1.123c-.154-.17-.579-.664-.868-.969l-2.468-2.621-.272.306v1.243c0,.6.017,1.718.017,2.041h-.783c0-.323.017-1.446.017-2.041Z" transform="translate(-299.803 -258.527)"/>
      <path id="Path_28" data-name="Path 28" d="M347.12,282.477a4.077,4.077,0,0,1-2.858,1.226c-2.28,0-3.743-1.7-3.743-4.049a3.59,3.59,0,0,1,3.505-3.761,3.34,3.34,0,0,1,2.875,1.685,3.694,3.694,0,0,1,.493,2.007h-6.124v.068a3.014,3.014,0,0,0,2.994,3.317,3.342,3.342,0,0,0,2.382-1.071Zm-5.767-3.623h5.19a2.582,2.582,0,0,0-2.518-2.229A2.77,2.77,0,0,0,341.353,278.854Z" transform="translate(-311.239 -269.768)"/>
      <path id="Path_29" data-name="Path 29" d="M369.381,276.141a1.4,1.4,0,0,1,.919.357l-.426.7a1.013,1.013,0,0,0-.663-.272,2.164,2.164,0,0,0-1.837,2.195v2.5c0,.6.016,1.718.016,2.041h-.782c0-.323.016-1.446.016-2.041V278.3c0-.6-.016-1.718-.016-2.042h.766a8.078,8.078,0,0,1-.086,1.208l.069.034A2.652,2.652,0,0,1,369.381,276.141Z" transform="translate(-328.327 -269.931)"/>
      <path id="Path_30" data-name="Path 30" d="M384.275,264.452v1.53c-.2,0-1.122-.016-1.326-.016v7.6c0,.6.017,1.719.017,2.043H381.4c0-.323.017-1.447.017-2.043v-12.2a2.993,2.993,0,0,1,3.1-3.233v1.5a1.56,1.56,0,0,0-1.566,1.735v3.1C383.442,264.468,384.072,264.452,384.275,264.452Z" transform="translate(-338.016 -258.139)"/>
      <path id="Path_31" data-name="Path 31" d="M400.258,279.807a3.9,3.9,0,1,1-3.913-3.914A3.9,3.9,0,0,1,400.258,279.807Zm-6.278,0a2.376,2.376,0,1,0,2.365-2.484A2.416,2.416,0,0,0,393.979,279.807Z" transform="translate(-345.253 -269.768)"/>
      <path id="Path_32" data-name="Path 32" d="M423.366,278.511l-1.072,1.327,1.481,1.889c.577.715,1.156,1.429,1.735,2.161h-1.923c-.2-.255-.562-.749-.936-1.208l-.256-.324a5.294,5.294,0,0,1-1.02-1.667h-.068a5.831,5.831,0,0,1-1.038,1.667l-.238.306c-.307.392-.613.8-.937,1.225h-1.939c.613-.749,1.208-1.446,1.787-2.177l1.514-1.872-1.022-1.294c-.357-.459-1.429-1.8-1.617-2.058h1.889l.63.834a6.287,6.287,0,0,1,1,1.667h.068a7.432,7.432,0,0,1,1.056-1.667l.681-.834h1.871C424.811,276.741,423.739,278.035,423.366,278.511Z" transform="translate(-361.436 -270.157)"/>
    </g>
  </g>
</svg>
